<svg xmlns="http://www.w3.org/2000/svg" width="100.618" height="100" viewBox="0 0 100.618 100">
  <g id="noun_approved_2816622" transform="translate(0.125 -0.25)">
    <g id="Group_722" data-name="Group 722" transform="translate(-0.125 0.25)">
      <path id="Path_7679" data-name="Path 7679" d="M53.519,1.176l4.447,3.212a4.419,4.419,0,0,0,4.2.988l5.188-1.235a5.458,5.458,0,0,1,5.93,2.718L76,11.553a4.75,4.75,0,0,0,3.706,2.718l4.941.988A5.493,5.493,0,0,1,89.1,19.954l.494,5.435a5.825,5.825,0,0,0,2.224,3.953l4.447,2.965a5.508,5.508,0,0,1,1.977,6.177l-1.729,5.188A5.551,5.551,0,0,0,97,48.119l2.718,4.447a5.2,5.2,0,0,1-.741,6.424l-3.706,4.2a5.325,5.325,0,0,0-1.235,4.2l.494,5.188a5.471,5.471,0,0,1-3.212,5.683l-4.941,2.224a5.224,5.224,0,0,0-2.965,3.459l-1.729,4.941A5.131,5.131,0,0,1,76.5,92.591H71.061a5.158,5.158,0,0,0-3.953,1.977l-3.459,3.706a5.39,5.39,0,0,1-6.424,1.482l-4.941-2.224a4.725,4.725,0,0,0-4.447,0l-4.694,2.224a5.39,5.39,0,0,1-6.424-1.482L33.013,94.32a4.469,4.469,0,0,0-4.2-1.729H23.624a5.574,5.574,0,0,1-5.188-3.706L16.706,83.45a5.411,5.411,0,0,0-2.965-3.212L9.047,78.261a5.471,5.471,0,0,1-3.212-5.683l.494-5.435a4.526,4.526,0,0,0-1.482-4.2L1.388,58.99a5.2,5.2,0,0,1-.741-6.424l2.718-4.694a5.663,5.663,0,0,0,.494-4.447L2.129,38.483a5.508,5.508,0,0,1,1.977-6.177l4.447-3.212a5.031,5.031,0,0,0,2.224-3.953l.494-5.188a5.493,5.493,0,0,1,4.447-4.694l5.188-1.235a4.75,4.75,0,0,0,3.706-2.718l2.471-4.447a5.31,5.31,0,0,1,5.93-2.718l5.435,1.235A5.953,5.953,0,0,0,42.9,4.388l3.953-3.212A6.467,6.467,0,0,1,53.519,1.176ZM30.048,52.319a3.132,3.132,0,0,1,0-4.447,3.394,3.394,0,0,1,4.447.247l9.636,9.636L65.873,36.013a3.132,3.132,0,0,1,4.447,0,3.706,3.706,0,0,1,0,4.447L46.354,64.425a3.394,3.394,0,0,1-4.447-.247Z" transform="translate(0.125 -0.25)" fill="#00a05e" fill-rule="evenodd"/>
    </g>
  </g>
</svg>
