<?xml version="1.0" encoding="utf-8"?>
<!-- Generator: Adobe Illustrator 22.0.0, SVG Export Plug-In . SVG Version: 6.00 Build 0)  -->
<svg version="1.1" id="Layer_1" xmlns="http://www.w3.org/2000/svg" xmlns:xlink="http://www.w3.org/1999/xlink" x="0px" y="0px"
	 viewBox="0 0 38.2 51.7" style="enable-background:new 0 0 38.2 51.7;" xml:space="preserve">
<style type="text/css">
	.st0{fill:none;}
	.st1{fill:#1A6EFF;}
</style>
<g>
	<path class="st0" d="M19.1,7.6c-6.4,0-11.5,5.1-11.5,11.5c0,6.4,5.1,11.5,11.5,11.5s11.5-5.1,11.5-11.5S25.5,7.6,19.1,7.6z
		 M26,16.6l-5.8,8.3c-0.3,0.5-0.9,0.8-1.5,0.8c0,0-0.1,0-0.2,0c-0.5,0-1.1-0.2-1.4-0.6l-4.6-4.8c-0.8-0.8-0.7-2.1,0.1-2.8
		c0.8-0.8,2.1-0.7,2.8,0.1l2.9,3l4.4-6.3c0.6-0.9,1.9-1.1,2.8-0.5C26.4,14.5,26.6,15.7,26,16.6z"/>
	<path class="st1" d="M32.2,35.3c-0.4,2.1-2.1,3.6-4.2,3.6c-0.7,0-1.3-0.2-2-0.5l-2.1-1l-1.3,1.9c-0.1,0.1-0.2,0.2-0.3,0.4L28,51.5
		c0.1,0.3,0.3,0.3,0.5,0l2.7-5c0.1-0.3,0.5-0.4,0.8-0.4l5.6,1.2c0.3,0.1,0.4-0.1,0.3-0.4L32.2,35.3z"/>
	<path class="st1" d="M14.2,37.4l-2.1,1c-0.6,0.3-1.3,0.5-2,0.5c-2.1,0-3.8-1.5-4.2-3.6L0.5,47c-0.1,0.3,0,0.4,0.3,0.4l5.6-1.2
		c0.3-0.1,0.6,0.1,0.8,0.4l2.7,5c0.1,0.3,0.3,0.2,0.5,0l5.5-11.8c-0.1-0.1-0.2-0.2-0.3-0.4L14.2,37.4z"/>
	<path class="st1" d="M37.6,18l-2.3-1.6c-0.9-0.6-1.3-2-0.8-3l1.2-2.5c0.5-1,0-1.9-1.1-2l-2.8-0.2c-1.1-0.1-2.1-1.1-2.2-2.2
		l-0.2-2.8c-0.1-1.1-1-1.6-2-1.1l-2.5,1.2c-1,0.5-2.3,0.1-3-0.8l-1.6-2.3c-0.6-0.9-1.7-0.9-2.3,0L16.4,3c-0.6,0.9-2,1.3-3,0.8
		l-2.5-1.2c-1-0.5-1.9,0-2,1.1L8.7,6.5C8.6,7.6,7.6,8.6,6.5,8.7L3.7,8.9c-1.1,0.1-1.6,1-1.1,2l1.2,2.5c0.5,1,0.1,2.3-0.8,3L0.7,18
		c-0.9,0.6-0.9,1.7,0,2.3L3,21.9c0.9,0.6,1.3,2,0.8,3l-1.2,2.5c-0.5,1,0,1.9,1.1,2l2.8,0.2c1.1,0.1,2.1,1.1,2.2,2.2l0.2,2.8
		c0.1,1.1,1,1.6,2,1.1l2.5-1.2c1-0.5,2.3-0.1,3,0.8l1.6,2.3c0.6,0.9,1.7,0.9,2.3,0l1.6-2.3c0.6-0.9,2-1.3,3-0.8l2.5,1.2
		c1,0.5,1.9,0,2-1.1l0.2-2.8c0.1-1.1,1.1-2.1,2.2-2.2l2.8-0.2c1.1-0.1,1.6-1,1.1-2l-1.2-2.5c-0.5-1-0.1-2.3,0.8-3l2.3-1.6
		C38.5,19.6,38.5,18.6,37.6,18z M19.1,30.6c-6.4,0-11.5-5.1-11.5-11.5c0-6.4,5.1-11.5,11.5-11.5c6.4,0,11.5,5.1,11.5,11.5
		S25.5,30.6,19.1,30.6z"/>
	<path class="st1" d="M25.5,13.8c-0.9-0.6-2.2-0.4-2.8,0.5l-4.4,6.3l-2.9-3c-0.8-0.8-2-0.8-2.8-0.1c-0.8,0.8-0.8,2-0.1,2.8l4.6,4.8
		c0.4,0.4,0.9,0.6,1.4,0.6c0,0,0.1,0,0.2,0c0.6,0,1.1-0.4,1.5-0.8l5.8-8.3C26.6,15.7,26.4,14.5,25.5,13.8z"/>
</g>
</svg>
