<svg xmlns="http://www.w3.org/2000/svg" width="377.298" height="218.519" viewBox="0 0 377.298 218.519">
  <g id="Group_1424" data-name="Group 1424" transform="translate(-262 -1133.741)">
    <rect id="Rectangle_934" data-name="Rectangle 934" width="22.912" height="85.888" transform="translate(343.664 1237.486)" fill="#7faeff"/>
    <rect id="Rectangle_935" data-name="Rectangle 935" width="32.841" height="11.457" transform="translate(338.7 1231.758)" fill="#1a6eff"/>
    <rect id="Rectangle_936" data-name="Rectangle 936" width="32.841" height="11.457" transform="translate(338.7 1317.646)" fill="#1a6eff"/>
    <g id="Group_1350" data-name="Group 1350" transform="translate(347.441 1249.772)">
      <rect id="Rectangle_937" data-name="Rectangle 937" width="5.346" height="61.317" rx="2.673" fill="#fff"/>
      <rect id="Rectangle_938" data-name="Rectangle 938" width="5.346" height="61.317" rx="2.673" transform="translate(10.011)" fill="#fff"/>
    </g>
    <rect id="Rectangle_939" data-name="Rectangle 939" width="22.912" height="85.888" transform="translate(389.202 1237.486)" fill="#7faeff"/>
    <rect id="Rectangle_940" data-name="Rectangle 940" width="32.841" height="11.457" transform="translate(384.238 1231.758)" fill="#1a6eff"/>
    <rect id="Rectangle_941" data-name="Rectangle 941" width="32.841" height="11.457" transform="translate(384.238 1317.646)" fill="#1a6eff"/>
    <g id="Group_1353" data-name="Group 1353" transform="translate(392.979 1249.772)">
      <rect id="Rectangle_942" data-name="Rectangle 942" width="5.346" height="61.317" rx="2.673" fill="#fff"/>
      <rect id="Rectangle_943" data-name="Rectangle 943" width="5.346" height="61.317" rx="2.673" transform="translate(10.011)" fill="#fff"/>
    </g>
    <rect id="Rectangle_944" data-name="Rectangle 944" width="22.912" height="85.888" transform="translate(434.741 1237.486)" fill="#7faeff"/>
    <rect id="Rectangle_945" data-name="Rectangle 945" width="32.841" height="11.457" transform="translate(429.776 1231.758)" fill="#1a6eff"/>
    <rect id="Rectangle_946" data-name="Rectangle 946" width="32.841" height="11.457" transform="translate(429.776 1317.646)" fill="#1a6eff"/>
    <g id="Group_1356" data-name="Group 1356" transform="translate(438.518 1249.772)">
      <rect id="Rectangle_947" data-name="Rectangle 947" width="5.346" height="61.317" rx="2.673" fill="#fff"/>
      <rect id="Rectangle_948" data-name="Rectangle 948" width="5.346" height="61.317" rx="2.673" transform="translate(10.011)" fill="#fff"/>
    </g>
    <rect id="Rectangle_949" data-name="Rectangle 949" width="22.912" height="85.888" transform="translate(480.279 1237.486)" fill="#7faeff"/>
    <rect id="Rectangle_950" data-name="Rectangle 950" width="32.841" height="11.457" transform="translate(475.314 1231.758)" fill="#1a6eff"/>
    <rect id="Rectangle_951" data-name="Rectangle 951" width="32.841" height="11.457" transform="translate(475.314 1317.646)" fill="#1a6eff"/>
    <g id="Group_1359" data-name="Group 1359" transform="translate(484.056 1249.772)">
      <rect id="Rectangle_952" data-name="Rectangle 952" width="5.346" height="61.317" rx="2.673" fill="#fff"/>
      <rect id="Rectangle_953" data-name="Rectangle 953" width="5.346" height="61.317" rx="2.673" transform="translate(10.011)" fill="#fff"/>
    </g>
    <rect id="Rectangle_954" data-name="Rectangle 954" width="188.07" height="10.728" transform="translate(329.393 1221.03)" fill="#1a6eff"/>
    <rect id="Rectangle_955" data-name="Rectangle 955" width="188.07" height="3.426" transform="translate(329.393 1221.03)" fill="#d4efff"/>
    <rect id="Rectangle_956" data-name="Rectangle 956" width="188.07" height="10.728" transform="translate(329.393 1323.739)" fill="#d4efff"/>
    <rect id="Rectangle_957" data-name="Rectangle 957" width="188.07" height="3.426" transform="translate(329.393 1323.739)" fill="#1a6eff"/>
    <path id="Path_8352" data-name="Path 8352" d="M508.013,227.665H338.557v-11.5a.185.185,0,0,1,.13-.177L423.23,189.6a.192.192,0,0,1,.111,0l84.543,26.385a.186.186,0,0,1,.13.177Z" transform="translate(0.143 993.365)" fill="#7faeff"/>
    <path id="Path_8353" data-name="Path 8353" d="M485.985,222.712H378.707v-7.369l53.639-16.74,53.639,16.74Z" transform="translate(-8.918 991.332)" fill="#fff"/>
    <g id="Group_1361" data-name="Group 1361" transform="translate(400.812 1200.293)">
      <path id="Path_8354" data-name="Path 8354" d="M429.136,219c0,2.231-2.07,3.258-4.712,3.258h-5.652l2.055-10.275h5.2c2.319,0,3.567.866,3.567,2.407a2.712,2.712,0,0,1-1.834,2.569A2.123,2.123,0,0,1,429.136,219Zm-2.892-.059c0-.616-.5-.866-1.2-.866h-2.568l-.41,2.084h2.524C425.6,220.156,426.243,219.761,426.243,218.938Zm-2.965-4.859-.4,1.982h2.084c1.028,0,1.585-.411,1.585-1.175,0-.558-.455-.808-1.218-.808Z" transform="translate(-418.772 -211.981)" fill="#285193"/>
      <path id="Path_8355" data-name="Path 8355" d="M440.39,220.259h-4.374l-1.189,2h-3.068l6.59-10.275h2.863l2.48,10.275H440.8Zm-.441-2.143-.69-3.331-1.967,3.331Z" transform="translate(-421.703 -211.981)" fill="#285193"/>
      <path id="Path_8356" data-name="Path 8356" d="M460.069,211.981l-2.055,10.275h-2.393l-3.391-5.636-1.13,5.636h-2.847l2.054-10.275H452.7l3.406,5.622,1.115-5.622Z" transform="translate(-425.425 -211.981)" fill="#285193"/>
      <path id="Path_8357" data-name="Path 8357" d="M470.388,216.707l3.449,5.549h-3.244l-2.362-3.7-1.336,1.2-.5,2.495h-2.862l2.054-10.275h2.862l-.836,4.2,4.638-4.2h3.42Z" transform="translate(-428.874 -211.981)" fill="#285193"/>
    </g>
    <g id="Group_1367" data-name="Group 1367" transform="translate(465.799 1133.741)">
      <g id="Group_1365" data-name="Group 1365">
        <path id="Path_8358" data-name="Path 8358" d="M518.846,181.049c-12.24-16.82-17-22.211-34.492-34.2,4.976-6.84,9.56-13.944,14.488-20.82,19.508,13.432,27.166,20.685,40.492,40.314C532.487,171.227,525.582,176.015,518.846,181.049Z" transform="translate(-484.354 -126.032)" fill="#285193"/>
        <path id="Path_8359" data-name="Path 8359" d="M520.6,178.24c-9.858-15.417-15.761-20.74-31.023-30.821,3.833-5.3,7.433-10.761,11.244-16.078,16.993,11.162,24.761,18.016,35.593,35.41C531.119,170.551,525.741,174.238,520.6,178.24Z" transform="translate(-485.532 -127.23)" fill="#d4efff"/>
        <g id="Group_1364" data-name="Group 1364" transform="translate(14.343 14.306)">
          <path id="Path_8360" data-name="Path 8360" d="M534.476,176.248a2.42,2.42,0,0,1-3.733-.657,3.473,3.473,0,0,1,.69-4.323,2.425,2.425,0,0,1,3.822.592A3.419,3.419,0,0,1,534.476,176.248Z" transform="translate(-509.06 -150.392)" fill="#285193"/>
          <path id="Path_8361" data-name="Path 8361" d="M508.719,149.071a3.372,3.372,0,0,1-4.432.629,2.634,2.634,0,0,1-.854-3.941,3.3,3.3,0,0,1,4.429-.706A2.662,2.662,0,0,1,508.719,149.071Z" transform="translate(-502.877 -144.507)" fill="#285193"/>
        </g>
        <path id="Path_8362" data-name="Path 8362" d="M550.738,178.388a2.315,2.315,0,0,1-3.411-.635,2.674,2.674,0,0,1,.678-3.622,2.327,2.327,0,0,1,3.4.681A2.568,2.568,0,0,1,550.738,178.388Z" transform="translate(-498.468 -136.78)" fill="#285193"/>
        <path id="Path_8363" data-name="Path 8363" d="M530.319,193.13a2.2,2.2,0,0,1-3.231-.482,2.548,2.548,0,0,1,.65-3.413,2.02,2.02,0,0,1,3.066.547A2.454,2.454,0,0,1,530.319,193.13Z" transform="translate(-493.907 -140.186)" fill="#285193"/>
        <path id="Path_8364" data-name="Path 8364" d="M505.514,132.01a2.636,2.636,0,0,1-3.642.654,2.4,2.4,0,0,1-.606-3.481,2.531,2.531,0,0,1,3.549-.633A2.4,2.4,0,0,1,505.514,132.01Z" transform="translate(-488.059 -126.495)" fill="#285193"/>
        <path id="Path_8365" data-name="Path 8365" d="M490.868,152.74a2.486,2.486,0,0,1-3.428.613,2.251,2.251,0,0,1-.574-3.287,2.455,2.455,0,0,1,3.393-.589A2.218,2.218,0,0,1,490.868,152.74Z" transform="translate(-484.814 -131.225)" fill="#285193"/>
      </g>
      <g id="Group_1366" data-name="Group 1366" transform="translate(22.393 18.957)">
        <path id="Path_8366" data-name="Path 8366" d="M521.913,161.136c-.5.529-1,1.065-1.5,1.6.5.356,1.014.547,1.49.1a.825.825,0,0,0,.272-.685A3.02,3.02,0,0,0,521.913,161.136Z" transform="translate(-514.885 -152.911)" fill="#285193"/>
        <path id="Path_8367" data-name="Path 8367" d="M523.089,156.323a.858.858,0,0,0-.235.653,2.886,2.886,0,0,0,.3.983c.448-.512.9-1.03,1.341-1.547a1.644,1.644,0,0,0-.8-.342A.671.671,0,0,0,523.089,156.323Z" transform="translate(-515.435 -151.767)" fill="#285193"/>
        <path id="Path_8368" data-name="Path 8368" d="M525.862,152.037c-3.1-3.024-7.6-1.072-10.039,1.731s-3.808,7.239-.933,10.034,6.987,1.084,9.6-1.482S528.967,155.061,525.862,152.037Zm-6.08,10.122a3.677,3.677,0,0,1-1.9-.866c-.365.365-.72.739-1.082,1.108l-.6-.619c.349-.359.7-.713,1.046-1.079a7.668,7.668,0,0,1-1.665-2.241c.336-.362.679-.717,1.007-1.085a14.438,14.438,0,0,0,.674,1.278,6.388,6.388,0,0,0,.877,1.1c.6-.631,1.195-1.259,1.785-1.9-.053-.142-.186-.432-.228-.55a6.26,6.26,0,0,1-.551-1.872,2.034,2.034,0,0,1,2.132-2.087,3.791,3.791,0,0,1,1.942.877c.265-.269.516-.547.77-.825.223.22.447.441.672.659l-.756.806a7.433,7.433,0,0,1,1.45,2.362c-.395.173-.79.345-1.189.51a6.307,6.307,0,0,0-1.136-1.939c-.557.6-1.081,1.213-1.64,1.811.047.12.165.4.2.5a4.985,4.985,0,0,1,.45,2.04,1.944,1.944,0,0,1-.647,1.362A1.988,1.988,0,0,1,519.782,162.159Z" transform="translate(-513.273 -150.513)" fill="#285193"/>
      </g>
    </g>
    <g id="Group_1371" data-name="Group 1371" transform="translate(563.578 1252.651)">
      <g id="Group_1369" data-name="Group 1369">
        <path id="Path_8369" data-name="Path 8369" d="M634.218,305.836c-23.688,20.73-36.283,27.242-66.46,35.695-3.539-10.555-6.34-21.169-9.261-31.9,34.126-8.1,28.484-3.945,51.826-30.035C619.766,287.269,626.773,296.305,634.218,305.836Z" transform="translate(-558.497 -279.599)" fill="#285193"/>
        <path id="Path_8370" data-name="Path 8370" d="M630.259,307.033c-19.368,17.478-32.99,25.506-58.573,31.332-2.765-8.186-5.092-16.42-7.329-24.762,24.914-3.827,33.026-5.66,47.625-27.4C619.167,292.229,624.62,299.594,630.259,307.033Z" transform="translate(-559.82 -281.089)" fill="#d4efff"/>
        <g id="Group_1368" data-name="Group 1368" transform="translate(15.604 19.884)">
          <path id="Path_8371" data-name="Path 8371" d="M629.562,306.6a4.368,4.368,0,0,1-.671,5.872c-1.652,1.508-3.828,1.542-5.137-.286a4.383,4.383,0,0,1,.72-5.675C625.985,304.953,628.161,304.755,629.562,306.6Z" transform="translate(-588.659 -305.278)" fill="#285193"/>
          <path id="Path_8372" data-name="Path 8372" d="M586.471,332.616c.8,2.058-.331,3.816-2.486,4.349a4.34,4.34,0,0,1-5.139-2.75,3.051,3.051,0,0,1,2.6-4.128A4.364,4.364,0,0,1,586.471,332.616Z" transform="translate(-578.649 -310.857)" fill="#285193"/>
        </g>
        <path id="Path_8373" data-name="Path 8373" d="M627.111,283.113a3.07,3.07,0,1,1-3.866,4.749c-1.369-1.161-1.937-3.125-.671-4.538A3.159,3.159,0,0,1,627.111,283.113Z" transform="translate(-572.798 -280.199)" fill="#285193"/>
        <path id="Path_8374" data-name="Path 8374" d="M650.973,309.955a3.323,3.323,0,0,1-.482,4.612,2.884,2.884,0,0,1-4.389-.281,3.558,3.558,0,0,1,.48-4.789A2.86,2.86,0,0,1,650.973,309.955Z" transform="translate(-578.106 -286.16)" fill="#285193"/>
        <path id="Path_8375" data-name="Path 8375" d="M566.48,320.272c.492,1.7-.611,2.95-2.268,3.246a3.1,3.1,0,0,1-3.722-2.133,2.683,2.683,0,0,1,2.19-3.464A3.261,3.261,0,0,1,566.48,320.272Z" transform="translate(-558.921 -288.233)" fill="#285193"/>
        <path id="Path_8376" data-name="Path 8376" d="M576.1,351.9a2.862,2.862,0,0,1-2.225,3.79,3.4,3.4,0,0,1-4.172-2.208,2.841,2.841,0,0,1,2.1-3.879A3.634,3.634,0,0,1,576.1,351.9Z" transform="translate(-560.983 -295.376)" fill="#285193"/>
      </g>
      <g id="Group_1370" data-name="Group 1370" transform="translate(29.247 26.834)">
        <path id="Path_8377" data-name="Path 8377" d="M608.345,326.321q.642,1.207,1.33,2.39c.595-.519,1.113-1.106.777-1.9-.157-.374-.363-.435-.75-.537A4.356,4.356,0,0,0,608.345,326.321Z" transform="translate(-598.994 -316.956)" fill="#285193"/>
        <path id="Path_8378" data-name="Path 8378" d="M602.968,323.328a.967.967,0,0,0,.678.515,3.548,3.548,0,0,0,1.275-.012c-.408-.717-.825-1.435-1.247-2.146a2.282,2.282,0,0,0-.735.822A.822.822,0,0,0,602.968,323.328Z" transform="translate(-597.752 -315.931)" fill="#285193"/>
        <path id="Path_8379" data-name="Path 8379" d="M600.182,315.263c-4.4,2.323-4.8,7.034-2.637,11.437s7.034,7.626,11.891,5.005,4.787-8.631,2.153-12.758S604.579,312.94,600.182,315.263Zm9.522,9.9a5.9,5.9,0,0,1-1.948,2.239c.292.555.6,1.093.9,1.643l-1.086.623c-.294-.531-.586-1.064-.884-1.593a11.811,11.811,0,0,1-3.7,1.161c-.28-.528-.558-1.058-.826-1.591a11.222,11.222,0,0,0,1.949-.3,9.559,9.559,0,0,0,1.792-.667c-.52-.94-1.023-1.885-1.552-2.822-.193.031-.589.118-.75.138a5.148,5.148,0,0,1-2.481-.1,2.43,2.43,0,0,1-1.47-1.3,2.048,2.048,0,0,1-.009-2.017,5.618,5.618,0,0,1,1.8-1.857c-.2-.379-.424-.743-.627-1.119q.506-.269,1.013-.542c.211.362.417.726.63,1.086a17.832,17.832,0,0,1,3.274-1.149q.1.775.2,1.55a15.391,15.391,0,0,0-2.714.864c.5.838.986,1.675,1.49,2.512.163-.024.547-.1.678-.118a6.846,6.846,0,0,1,2.691-.053,2.069,2.069,0,0,1,1.469,1.161A2.478,2.478,0,0,1,609.7,325.164Z" transform="translate(-596.268 -314.254)" fill="#285193"/>
      </g>
    </g>
    <g id="Group_1375" data-name="Group 1375" transform="translate(262 1252.838)">
      <g id="Group_1373" data-name="Group 1373">
        <path id="Path_8380" data-name="Path 8380" d="M384.069,374.341c-41.231-19.284-56.826-26.514-90.575-58.689,10.549-12.162,21.61-23.808,32.326-35.812,28,24.764,43.852,35.578,78.137,50.9C397.135,345.185,390.761,359.833,384.069,374.341Z" transform="translate(-293.494 -279.84)" fill="#285193"/>
        <path id="Path_8381" data-name="Path 8381" d="M383.4,369.424c-36.266-15.261-51.449-23.7-79.87-51.573,8.053-9.7,16.8-18.729,25.117-28.183,22.74,22.755,40.881,33.578,70.379,45.815C393.6,346.7,388.722,358.16,383.4,369.424Z" transform="translate(-295.759 -282.058)" fill="#d4efff"/>
        <g id="Group_1372" data-name="Group 1372" transform="translate(27.176 27.885)">
          <path id="Path_8382" data-name="Path 8382" d="M400.011,362.891a6.178,6.178,0,0,1-7.792,3.119,4.98,4.98,0,0,1-2.628-7.217,6.118,6.118,0,0,1,7.706-2.9A4.946,4.946,0,0,1,400.011,362.891Z" transform="translate(-342.205 -324.788)" fill="#285193"/>
          <path id="Path_8383" data-name="Path 8383" d="M338.5,325.958a5.142,5.142,0,0,1-7.919.506,6.4,6.4,0,0,1-.547-8.692,5.074,5.074,0,0,1,7.74-.251A6.309,6.309,0,0,1,338.5,325.958Z" transform="translate(-328.59 -315.852)" fill="#285193"/>
        </g>
        <path id="Path_8384" data-name="Path 8384" d="M429.64,349.293a4.654,4.654,0,0,1-6.1,2.28,4.136,4.136,0,0,1-2.215-5.781,4.705,4.705,0,0,1,6.092-2.342A4.232,4.232,0,0,1,429.64,349.293Z" transform="translate(-322.238 -294.11)" fill="#285193"/>
        <path id="Path_8385" data-name="Path 8385" d="M409.578,393.147a4.812,4.812,0,0,1-6.312,2.409,4.32,4.32,0,0,1-2.4-6,4.955,4.955,0,0,1,6.394-2.533A4.4,4.4,0,0,1,409.578,393.147Z" transform="translate(-317.622 -303.942)" fill="#285193"/>
        <path id="Path_8386" data-name="Path 8386" d="M337.859,291.582a4.051,4.051,0,0,1-6.137.045,4.624,4.624,0,0,1-.377-6.4,4.271,4.271,0,0,1,6.286-.241A4.759,4.759,0,0,1,337.859,291.582Z" transform="translate(-301.784 -280.717)" fill="#285193"/>
        <path id="Path_8387" data-name="Path 8387" d="M305.639,328a4.3,4.3,0,0,1-6.534.093,5.029,5.029,0,0,1-.408-6.909,4.345,4.345,0,0,1,6.559-.3A5.232,5.232,0,0,1,305.639,328Z" transform="translate(-294.401 -288.798)" fill="#285193"/>
      </g>
      <g id="Group_1374" data-name="Group 1374" transform="translate(41.757 36.765)">
        <path id="Path_8388" data-name="Path 8388" d="M364.2,348.353c-.809,1.254-1.64,2.5-2.439,3.758,1.164.439,2.3.527,3.041-.559a1.662,1.662,0,0,0,.283-1.422A5.327,5.327,0,0,0,364.2,348.353Z" transform="translate(-350.658 -332.067)" fill="#285193"/>
        <path id="Path_8389" data-name="Path 8389" d="M364.847,338.959a1.728,1.728,0,0,0-.283,1.326,5.062,5.062,0,0,0,.833,1.721c.733-1.145,1.452-2.309,2.181-3.46a3.115,3.115,0,0,0-1.632-.312A1.445,1.445,0,0,0,364.847,338.959Z" transform="translate(-351.283 -329.778)" fill="#285193"/>
        <path id="Path_8390" data-name="Path 8390" d="M369.277,328.871c-6.571-4.15-13.96.716-18.019,6.525s-6.4,16.065.813,20.479,15.148-1.94,18.753-7.985S375.847,333.021,369.277,328.871Zm-7.941,21.464a7.329,7.329,0,0,1-4.262-.705c-.568.875-1.123,1.745-1.678,2.623-.506-.312-1.014-.624-1.516-.945.544-.855,1.1-1.7,1.651-2.554a13.738,13.738,0,0,1-3.933-3.9c.562-.827,1.135-1.65,1.7-2.473a14.1,14.1,0,0,0,1.666,2.313,11.849,11.849,0,0,0,2.032,1.83c.969-1.458,1.96-2.9,2.888-4.383-.16-.241-.513-.721-.643-.925a8.457,8.457,0,0,1-1.506-3.376,4.107,4.107,0,0,1,.735-2.971,3.568,3.568,0,0,1,2.738-1.726,7.174,7.174,0,0,1,3.841.848c.407-.612.784-1.239,1.175-1.86l1.409.867-1.144,1.843a15.909,15.909,0,0,1,3.545,3.42c-.681.527-1.36,1.052-2.037,1.584a14.673,14.673,0,0,0-2.833-2.87c-.846,1.37-1.724,2.712-2.575,4.084.141.2.486.657.6.818A8.443,8.443,0,0,1,364.9,345.4a3.712,3.712,0,0,1-.618,2.84A4.445,4.445,0,0,1,361.336,350.335Z" transform="translate(-347.42 -327.32)" fill="#285193"/>
      </g>
    </g>
    <g id="Group_1379" data-name="Group 1379" transform="translate(325.045 1204.652)">
      <g id="Group_1377" data-name="Group 1377" transform="translate(0)">
        <path id="Path_8391" data-name="Path 8391" d="M334.735,230.75c-11.555,4.163-13.759,6.587-22.9,14.318-3.1-3.581-6.234-7.124-9.253-10.777,10.487-9.04,14.193-11.4,26.936-16.68Q332.183,224.154,334.735,230.75Z" transform="translate(-302.579 -217.611)" fill="#285193"/>
        <path id="Path_8392" data-name="Path 8392" d="M333.329,230.5c-10.72,3.505-12.374,6.051-20.613,13-2.448-2.764-4.877-5.53-7.186-8.413,8.8-8.019,12.158-10.985,23.715-14.73C330.614,223.738,331.959,227.124,333.329,230.5Z" transform="translate(-303.245 -218.231)" fill="#d4efff"/>
        <g id="Group_1376" data-name="Group 1376" transform="translate(7.974 7.134)">
          <path id="Path_8393" data-name="Path 8393" d="M333.78,227.928a1.338,1.338,0,0,1-.858,1.931,1.916,1.916,0,0,1-2.239-.995,1.33,1.33,0,0,1,.834-1.959A1.893,1.893,0,0,1,333.78,227.928Z" transform="translate(-316.857 -226.824)" fill="#285193"/>
          <path id="Path_8394" data-name="Path 8394" d="M315.652,238.433a2.3,2.3,0,0,1-.136,2.75,1.327,1.327,0,0,1-2.2.087,2.228,2.228,0,0,1,.115-2.783A1.346,1.346,0,0,1,315.652,238.433Z" transform="translate(-312.878 -229.317)" fill="#285193"/>
        </g>
        <path id="Path_8395" data-name="Path 8395" d="M337,219.422a1.355,1.355,0,0,1-.752,1.807,1.505,1.505,0,0,1-1.881-.839,1.28,1.28,0,0,1,.831-1.721A1.359,1.359,0,0,1,337,219.422Z" transform="translate(-309.727 -217.827)" fill="#285193"/>
        <path id="Path_8396" data-name="Path 8396" d="M342.29,232.6a1.224,1.224,0,0,1-.732,1.673,1.4,1.4,0,0,1-1.732-.809,1.178,1.178,0,0,1,.722-1.621A1.345,1.345,0,0,1,342.29,232.6Z" transform="translate(-310.96 -220.802)" fill="#285193"/>
        <path id="Path_8397" data-name="Path 8397" d="M306.177,238a1.477,1.477,0,0,1-.165,2.043,1.341,1.341,0,0,1-1.932-.209,1.407,1.407,0,0,1,.173-1.971A1.292,1.292,0,0,1,306.177,238Z" transform="translate(-302.844 -222.098)" fill="#285193"/>
        <path id="Path_8398" data-name="Path 8398" d="M315.431,249.015a1.275,1.275,0,0,1-.147,1.85,1.32,1.32,0,0,1-1.865-.129,1.241,1.241,0,0,1,.157-1.81A1.272,1.272,0,0,1,315.431,249.015Z" transform="translate(-304.952 -224.597)" fill="#285193"/>
      </g>
      <g id="Group_1378" data-name="Group 1378" transform="translate(12.157 7.551)">
        <path id="Path_8399" data-name="Path 8399" d="M323.744,232.887c.21.373.428.75.64,1.113a.661.661,0,0,0,.283-.792c-.122-.228-.156-.2-.334-.283A1.563,1.563,0,0,0,323.744,232.887Z" transform="translate(-319.512 -228.607)" fill="#285193"/>
        <path id="Path_8400" data-name="Path 8400" d="M321.314,231.522a.428.428,0,0,0,.31.2,2.89,2.89,0,0,0,.569-.017c-.189-.314-.4-.617-.609-.919a1.014,1.014,0,0,0-.31.386A.348.348,0,0,0,321.314,231.522Z" transform="translate(-318.949 -228.135)" fill="#285193"/>
        <path id="Path_8401" data-name="Path 8401" d="M319.773,227.762c-2.107,1.172-1.7,4.068-.537,5.8s3.3,3.08,5.213,1.9,1.647-3.626.649-5.442S321.88,226.59,319.773,227.762Zm4.514,4.737a2.15,2.15,0,0,1-.745.931c.142.254.29.5.434.755l-.425.238-.426-.737a6.379,6.379,0,0,1-1.435.621q-.229-.374-.448-.754a4.142,4.142,0,0,0,.774-.218c.249-.094.488-.2.725-.311-.258-.442-.509-.885-.77-1.326-.083.007-.257.032-.326.036a3.867,3.867,0,0,1-1.075.062,1,1,0,0,1-.689-.488.984.984,0,0,1-.1-.94,2.384,2.384,0,0,1,.757-.915c-.109-.18-.225-.353-.336-.53.149-.091.3-.188.451-.266.111.17.22.341.329.512a3.7,3.7,0,0,1,1.487-.417c.03.235.06.47.09.705a3.928,3.928,0,0,0-1.2.269c.257.37.474.769.714,1.152.072,0,.244-.022.3-.026a2.777,2.777,0,0,1,1.172.1,1.131,1.131,0,0,1,.64.567A1.117,1.117,0,0,1,324.286,232.5Z" transform="translate(-318.279 -227.363)" fill="#285193"/>
      </g>
    </g>
    <g id="Group_1383" data-name="Group 1383" transform="translate(542.391 1199.381)">
      <g id="Group_1381" data-name="Group 1381">
        <path id="Path_8402" data-name="Path 8402" d="M609.581,218.2a90.683,90.683,0,0,1-18.937,18.83c-2.5-3.138-4.828-6.414-7.375-9.516A77.856,77.856,0,0,0,600.142,210.8C603.238,213.334,606.476,215.682,609.581,218.2Z" transform="translate(-583.269 -210.803)" fill="#285193"/>
        <path id="Path_8403" data-name="Path 8403" d="M608.176,219.016a63.232,63.232,0,0,1-16.694,16.627c-1.912-2.458-3.761-4.97-5.738-7.376a59.888,59.888,0,0,0,15.147-14.961C603.283,215.255,605.777,217.076,608.176,219.016Z" transform="translate(-583.828 -211.368)" fill="#d4efff"/>
        <g id="Group_1380" data-name="Group 1380" transform="translate(6.793 6.905)">
          <path id="Path_8404" data-name="Path 8404" d="M607.178,220.017a1.582,1.582,0,0,1,.249,2.115,1.24,1.24,0,0,1-1.893.307,1.6,1.6,0,0,1-.222-2.1A1.232,1.232,0,0,1,607.178,220.017Z" transform="translate(-594.97 -219.72)" fill="#285193"/>
          <path id="Path_8405" data-name="Path 8405" d="M594.7,233.139a1.17,1.17,0,0,1-.276,1.829,1.612,1.612,0,0,1-2.088-.341,1.158,1.158,0,0,1,.3-1.793A1.631,1.631,0,0,1,594.7,233.139Z" transform="translate(-592.041 -222.626)" fill="#285193"/>
        </g>
        <path id="Path_8406" data-name="Path 8406" d="M605.664,212.044a1.192,1.192,0,0,1,.189,1.632,1.019,1.019,0,0,1-1.532.225,1.217,1.217,0,0,1-.212-1.654A1.046,1.046,0,0,1,605.664,212.044Z" transform="translate(-587.92 -211.025)" fill="#285193"/>
        <path id="Path_8407" data-name="Path 8407" d="M615.092,219.378a1.231,1.231,0,0,1,.226,1.712,1.119,1.119,0,0,1-1.641.241,1.309,1.309,0,0,1-.242-1.765A1.112,1.112,0,0,1,615.092,219.378Z" transform="translate(-590.023 -212.674)" fill="#285193"/>
        <path id="Path_8408" data-name="Path 8408" d="M586.316,231.657a1,1,0,0,1-.218,1.507,1.144,1.144,0,0,1-1.605-.18,1.034,1.034,0,0,1,.2-1.534A1.2,1.2,0,0,1,586.316,231.657Z" transform="translate(-583.488 -215.411)" fill="#285193"/>
        <path id="Path_8409" data-name="Path 8409" d="M593.785,241.115a1.111,1.111,0,0,1-.236,1.638,1.212,1.212,0,0,1-1.693-.235,1.139,1.139,0,0,1,.213-1.657A1.236,1.236,0,0,1,593.785,241.115Z" transform="translate(-585.148 -217.532)" fill="#285193"/>
      </g>
      <g id="Group_1382" data-name="Group 1382" transform="translate(9.941 10.117)">
        <path id="Path_8410" data-name="Path 8410" d="M601.137,228.5c.235.226.475.455.706.672a.587.587,0,0,0,.081-.722c-.151-.155-.162-.112-.32-.118A1.3,1.3,0,0,0,601.137,228.5Z" transform="translate(-597.243 -224.876)" fill="#285193"/>
        <path id="Path_8411" data-name="Path 8411" d="M598.9,227.909a.44.44,0,0,0,.308.15,1.343,1.343,0,0,0,.474-.094l-.738-.754a.748.748,0,0,0-.166.382A.385.385,0,0,0,598.9,227.909Z" transform="translate(-596.709 -224.623)" fill="#285193"/>
        <path id="Path_8412" data-name="Path 8412" d="M596.854,224.6c-1.393,1.329-.624,3.4.572,4.671s3.387,2.131,4.827.693.6-3.6-.7-4.82S598.247,223.273,596.854,224.6Zm4.723,3a2,2,0,0,1-.428.984c.163.162.324.319.485.48q-.159.159-.317.32l-.469-.464a3.33,3.33,0,0,1-1.175.75c-.154-.16-.307-.322-.461-.483a4.078,4.078,0,0,0,.657-.261,2.3,2.3,0,0,0,.553-.419c-.277-.264-.551-.528-.832-.79a2.705,2.705,0,0,1-.263.112,1.9,1.9,0,0,1-.916.157,1.079,1.079,0,0,1-.685-.355.925.925,0,0,1-.263-.764,1.686,1.686,0,0,1,.414-.881c-.132-.139-.266-.276-.4-.414q.156-.142.309-.286l.393.4a5.13,5.13,0,0,1,1.031-.76l.273.617a3.91,3.91,0,0,0-.848.609c.285.287.562.58.859.856.053-.029.183-.1.225-.125a2.207,2.207,0,0,1,.924-.321.784.784,0,0,1,.635.261A.936.936,0,0,1,601.577,227.6Z" transform="translate(-596.108 -223.869)" fill="#285193"/>
      </g>
    </g>
    <g id="Group_1387" data-name="Group 1387" transform="translate(374.588 1164.926)">
      <g id="Group_1385" data-name="Group 1385" transform="translate(0 0)">
        <path id="Path_8413" data-name="Path 8413" d="M402.694,182.3c-11.17,8.1-14.9,11.947-21.793,24.084-4.654-3.168-9.612-5.79-14.341-8.83,6.622-11.963,13.169-23.258,24.415-31.247A163.621,163.621,0,0,1,402.694,182.3Z" transform="translate(-366.56 -166.306)" fill="#285193"/>
        <path id="Path_8414" data-name="Path 8414" d="M400.7,182.579a57.54,57.54,0,0,0-19.652,21.638c-3.551-2.36-7.287-4.384-10.9-6.639,5.352-10.148,11.68-21.3,21.234-27.739A102.466,102.466,0,0,1,400.7,182.579Z" transform="translate(-367.371 -167.103)" fill="#d4efff"/>
        <g id="Group_1384" data-name="Group 1384" transform="translate(9.445 10.107)">
          <path id="Path_8415" data-name="Path 8415" d="M398.412,180.383a2.257,2.257,0,0,1-.03,3.151,2.041,2.041,0,0,1-2.942-.393,2.385,2.385,0,0,1-.161-3.313A2.171,2.171,0,0,1,398.412,180.383Z" transform="translate(-382.35 -179.359)" fill="#285193"/>
          <path id="Path_8416" data-name="Path 8416" d="M381.878,200.642a1.716,1.716,0,0,1,.288,2.51,1.905,1.905,0,0,1-2.587.794,1.814,1.814,0,0,1-.427-2.665A2.034,2.034,0,0,1,381.878,200.642Z" transform="translate(-378.758 -184.097)" fill="#285193"/>
        </g>
        <path id="Path_8417" data-name="Path 8417" d="M398.465,168.367a1.54,1.54,0,0,1-.258,2.362,2,2,0,0,1-2.627-.4,1.465,1.465,0,0,1,.311-2.288A1.913,1.913,0,0,1,398.465,168.367Z" transform="translate(-373.015 -166.617)" fill="#285193"/>
        <path id="Path_8418" data-name="Path 8418" d="M410.471,184.715a1.783,1.783,0,0,1-.337,2.5,1.633,1.633,0,0,1-2.341-.6,1.823,1.823,0,0,1,.29-2.53A1.7,1.7,0,0,1,410.471,184.715Z" transform="translate(-375.781 -170.256)" fill="#285193"/>
        <path id="Path_8419" data-name="Path 8419" d="M370.487,203.51a1.825,1.825,0,0,1,.567,2.448,1.588,1.588,0,0,1-2.271.72,1.9,1.9,0,0,1-.631-2.534A1.605,1.605,0,0,1,370.487,203.51Z" transform="translate(-366.865 -174.641)" fill="#285193"/>
        <path id="Path_8420" data-name="Path 8420" d="M384.572,212.188a1.92,1.92,0,0,1,.628,2.512,1.542,1.542,0,0,1-2.3.519,1.835,1.835,0,0,1-.564-2.447A1.5,1.5,0,0,1,384.572,212.188Z" transform="translate(-370.065 -176.596)" fill="#285193"/>
      </g>
      <g id="Group_1386" data-name="Group 1386" transform="translate(12.646 15.128)">
        <path id="Path_8421" data-name="Path 8421" d="M390.98,193.627c.31.251.625.509.944.727a.82.82,0,0,0,.023-1.034c-.222-.194-.216-.122-.418-.084S391.15,193.512,390.98,193.627Z" transform="translate(-384.717 -187.501)" fill="#285193"/>
        <path id="Path_8422" data-name="Path 8422" d="M387.728,193.25a.805.805,0,0,0,.551.239,1.049,1.049,0,0,0,.647-.275c-.486-.427-.98-.849-1.469-1.273a1.4,1.4,0,0,0-.068.738A1.023,1.023,0,0,0,387.728,193.25Z" transform="translate(-383.902 -187.219)" fill="#285193"/>
        <path id="Path_8423" data-name="Path 8423" d="M383.549,187.367c-1.568,2.679-.1,5.944,1.971,7.386a5.017,5.017,0,0,0,6.54-.353c1.862-1.8.351-4.867-1.5-6.63S385.117,184.687,383.549,187.367Zm7.567,4.336a2.435,2.435,0,0,1-.491,1.4c.2.164.393.31.6.455l-.4.424-.568-.389a5.546,5.546,0,0,1-1.54,1.131c-.189-.122-.381-.24-.57-.36a5.382,5.382,0,0,0,.876-.5,3.775,3.775,0,0,0,.721-.661c-.348-.242-.695-.484-1.035-.738a1.553,1.553,0,0,1-.266.321,2.152,2.152,0,0,1-1.317.409,1.715,1.715,0,0,1-1.179-.5,1.67,1.67,0,0,1-.614-1.189,3.489,3.489,0,0,1,.256-1.686c-.254-.228-.5-.454-.754-.682l.341-.6.74.671a6.93,6.93,0,0,1,1.279-1.491c.21.361.423.72.629,1.084a8.841,8.841,0,0,0-1.049,1.175c.534.464,1.049.971,1.617,1.4.057-.06.219-.209.264-.254.3-.3.708-.728,1.1-.762a.949.949,0,0,1,.865.288A1.425,1.425,0,0,1,391.115,191.7Z" transform="translate(-382.892 -185.842)" fill="#285193"/>
      </g>
    </g>
    <g id="Group_1389" data-name="Group 1389" transform="translate(388.619 1265.743)">
      <circle id="Ellipse_125" data-name="Ellipse 125" cx="12.663" cy="12.663" r="12.663" transform="translate(3.718 6.907) rotate(-7.233)" fill="#1a6eff"/>
      <circle id="Ellipse_126" data-name="Ellipse 126" cx="9.238" cy="9.238" r="9.238" transform="translate(5.639 22.455) rotate(-65.524)" fill="#7faeff"/>
      <g id="Group_1388" data-name="Group 1388" transform="translate(14.375 10.345)">
        <path id="Path_8424" data-name="Path 8424" d="M407.826,324l-.376-1.706a5.051,5.051,0,0,1-2.75-.174l.156-1.222a4.616,4.616,0,0,0,2.595.19c1.2-.264,1.858-1.136,1.645-2.1-.205-.929-.99-1.358-2.353-1.59-1.872-.3-3.108-.839-3.432-2.31a2.838,2.838,0,0,1,1.952-3.282l-.376-1.707,1.048-.231.362,1.638a4.6,4.6,0,0,1,2.326.108l-.177,1.208a4.179,4.179,0,0,0-2.256-.105c-1.3.286-1.62,1.172-1.471,1.848.194.879.915,1.181,2.52,1.465,1.9.326,2.969,1.011,3.3,2.516A3.009,3.009,0,0,1,408.5,322l.387,1.758Z" transform="translate(-403.244 -309.866)" fill="#fff"/>
      </g>
    </g>
    <g id="Group_1395" data-name="Group 1395" transform="translate(522.307 1184.681)">
      <circle id="Ellipse_128" data-name="Ellipse 128" cx="7.671" cy="7.671" r="7.671" fill="#d4efff"/>
      <circle id="Ellipse_129" data-name="Ellipse 129" cx="6.95" cy="6.95" r="6.95" transform="translate(0.721 0.721)" fill="#98c9ed"/>
      <path id="Path_8432" data-name="Path 8432" d="M569.344,203.832a5.07,5.07,0,1,1,0-7.17A5.07,5.07,0,0,1,569.344,203.832Z" transform="translate(-558.088 -192.576)" fill="#d4efff"/>
      <g id="Group_1394" data-name="Group 1394" transform="translate(4.883 4.655)">
        <path id="Path_8433" data-name="Path 8433" d="M563.691,203.3l.678-.678a2.771,2.771,0,0,1-.732-1.323l.612-.289a2.531,2.531,0,0,0,.678,1.257,1,1,0,0,0,1.457.14c.369-.369.335-.859.04-1.558-.417-.953-.53-1.685.053-2.27a1.558,1.558,0,0,1,2.1-.067l.678-.678.417.417-.651.651a2.532,2.532,0,0,1,.637,1.108l-.611.276a2.289,2.289,0,0,0-.618-1.074.864.864,0,0,0-1.289-.135c-.349.349-.276.772.067,1.6.41.974.41,1.672-.188,2.27a1.652,1.652,0,0,1-2.2.081l-.7.7Z" transform="translate(-563.637 -197.83)" fill="#fff"/>
      </g>
    </g>
    <g id="Group_1397" data-name="Group 1397" transform="translate(447.149 1166.714)">
      <path id="Path_8434" data-name="Path 8434" d="M469.783,178.129a5.573,5.573,0,1,1,0-7.882A5.574,5.574,0,0,1,469.783,178.129Z" transform="translate(-460.27 -168.616)" fill="#d4efff"/>
      <circle id="Ellipse_130" data-name="Ellipse 130" cx="5.049" cy="5.049" r="5.049" transform="translate(0.524 0.524)" fill="#98c9ed"/>
      <path id="Path_8435" data-name="Path 8435" d="M469,177.344a3.684,3.684,0,1,1,0-5.21A3.685,3.685,0,0,1,469,177.344Z" transform="translate(-460.82 -169.166)" fill="#d4efff"/>
      <g id="Group_1396" data-name="Group 1396" transform="translate(3.548 3.383)">
        <path id="Path_8436" data-name="Path 8436" d="M464.891,176.955l.492-.492a2.016,2.016,0,0,1-.531-.961l.444-.21a1.842,1.842,0,0,0,.493.912.725.725,0,0,0,1.058.1c.269-.269.244-.625.029-1.132-.3-.693-.386-1.225.039-1.649a1.132,1.132,0,0,1,1.522-.049l.492-.492.3.3-.473.473a1.831,1.831,0,0,1,.463.805l-.444.2a1.672,1.672,0,0,0-.448-.781.629.629,0,0,0-.937-.1c-.254.254-.2.561.049,1.161.3.708.3,1.214-.137,1.649a1.2,1.2,0,0,1-1.6.059l-.508.507Z" transform="translate(-464.852 -172.984)" fill="#fff"/>
      </g>
    </g>
    <g id="Group_1399" data-name="Group 1399" transform="translate(558.129 1233.723)">
      <path id="Path_8437" data-name="Path 8437" d="M616.754,268.314a7.71,7.71,0,1,1,0-10.9A7.709,7.709,0,0,1,616.754,268.314Z" transform="translate(-603.593 -255.154)" fill="#d4efff"/>
      <path id="Path_8438" data-name="Path 8438" d="M616.453,268.014a6.985,6.985,0,1,1,0-9.879A6.985,6.985,0,0,1,616.453,268.014Z" transform="translate(-603.804 -255.365)" fill="#98c9ed"/>
      <circle id="Ellipse_131" data-name="Ellipse 131" cx="5.096" cy="5.096" r="5.096" transform="translate(2.613 2.613)" fill="#d4efff"/>
      <g id="Group_1398" data-name="Group 1398" transform="translate(4.908 4.679)">
        <path id="Path_8439" data-name="Path 8439" d="M609.986,266.691l.681-.681a2.782,2.782,0,0,1-.736-1.33l.614-.29a2.55,2.55,0,0,0,.682,1.263,1,1,0,0,0,1.464.142c.372-.372.338-.864.04-1.566-.418-.958-.533-1.693.054-2.281a1.567,1.567,0,0,1,2.106-.067l.681-.681.419.418-.655.655a2.535,2.535,0,0,1,.641,1.113l-.614.276a2.309,2.309,0,0,0-.621-1.079.869.869,0,0,0-1.3-.135c-.352.351-.277.776.067,1.607.411.979.411,1.68-.19,2.28a1.66,1.66,0,0,1-2.214.082l-.7.7Z" transform="translate(-609.932 -261.197)" fill="#fff"/>
      </g>
    </g>
    <g id="Group_1401" data-name="Group 1401" transform="translate(313.776 1240.708)">
      <circle id="Ellipse_132" data-name="Ellipse 132" cx="7.71" cy="7.71" r="7.71" fill="#d4efff"/>
      <path id="Path_8440" data-name="Path 8440" d="M300.885,277.035a6.985,6.985,0,1,1,0-9.879A6.986,6.986,0,0,1,300.885,277.035Z" transform="translate(-288.236 -264.385)" fill="#98c9ed"/>
      <circle id="Ellipse_133" data-name="Ellipse 133" cx="5.096" cy="5.096" r="5.096" transform="translate(2.613 2.613)" fill="#d4efff"/>
      <g id="Group_1400" data-name="Group 1400" transform="translate(4.908 4.679)">
        <path id="Path_8441" data-name="Path 8441" d="M294.418,275.711l.681-.681a2.776,2.776,0,0,1-.736-1.329l.614-.29a2.548,2.548,0,0,0,.682,1.262,1,1,0,0,0,1.464.142c.372-.371.338-.863.04-1.566-.418-.958-.533-1.694.054-2.281a1.566,1.566,0,0,1,2.106-.068l.681-.681.419.419-.655.654a2.54,2.54,0,0,1,.641,1.113l-.614.277a2.31,2.31,0,0,0-.621-1.08.869.869,0,0,0-1.3-.135c-.352.351-.277.776.067,1.607.411.978.411,1.68-.19,2.28a1.66,1.66,0,0,1-2.214.081l-.7.7Z" transform="translate(-294.364 -270.217)" fill="#fff"/>
      </g>
    </g>
    <g id="Group_1403" data-name="Group 1403" transform="translate(428.424 1149.313)">
      <path id="Path_8442" data-name="Path 8442" d="M452.661,155.437a8.315,8.315,0,1,1-7.28-9.235A8.315,8.315,0,0,1,452.661,155.437Z" transform="translate(-436.087 -146.144)" fill="#d4efff"/>
      <path id="Path_8443" data-name="Path 8443" d="M452.112,155.573a7.534,7.534,0,1,1-6.6-8.367A7.534,7.534,0,0,1,452.112,155.573Z" transform="translate(-436.314 -146.371)" fill="#98c9ed"/>
      <path id="Path_8444" data-name="Path 8444" d="M450.683,155.928a5.5,5.5,0,1,1-4.812-6.1A5.5,5.5,0,0,1,450.683,155.928Z" transform="translate(-436.908 -146.965)" fill="#d4efff"/>
      <g id="Group_1402" data-name="Group 1402" transform="translate(6.246 3.852)">
        <path id="Path_8445" data-name="Path 8445" d="M445.541,159.5l.122-1.032a3,3,0,0,1-1.511-.635l.326-.656a2.743,2.743,0,0,0,1.421.613,1.081,1.081,0,0,0,1.335-.857c.067-.563-.291-.958-1.011-1.354-.994-.533-1.583-1.079-1.477-1.968a1.689,1.689,0,0,1,1.738-1.463l.122-1.033.634.075-.118.992a2.74,2.74,0,0,1,1.287.515l-.336.644a2.488,2.488,0,0,0-1.247-.5c-.788-.094-1.139.341-1.188.75-.063.532.283.842,1.13,1.316,1,.554,1.47,1.149,1.363,2.059a1.791,1.791,0,0,1-1.82,1.547l-.126,1.063Z" transform="translate(-444.153 -151.118)" fill="#fff"/>
      </g>
    </g>
    <g id="Group_1409" data-name="Group 1409" transform="translate(494.104 1227.752)">
      <g id="Group_1407" data-name="Group 1407" transform="translate(0 0)">
        <g id="Group_1404" data-name="Group 1404">
          <path id="Rectangle_958" data-name="Rectangle 958" d="M10.543,0H58.829A10.544,10.544,0,0,1,69.373,10.544V113.907a10.543,10.543,0,0,1-10.543,10.543H10.543A10.543,10.543,0,0,1,0,113.907V10.543A10.543,10.543,0,0,1,10.543,0Z" transform="matrix(-1, 0.001, -0.001, -1, 69.474, 124.451)" fill="#285193"/>
          <path id="Path_8446" data-name="Path 8446" d="M506.4,258.236l53.189-.043a5.2,5.2,0,0,1,5.2,5.191l.08,98.416a5.2,5.2,0,0,1-5.19,5.2l-53.19.043a5.2,5.2,0,0,1-5.2-5.191l-.081-98.417A5.2,5.2,0,0,1,506.4,258.236Z" transform="translate(-498.298 -249.869)" fill="#fff"/>
          <path id="Path_8447" data-name="Path 8447" d="M529.366,252.84h0a.868.868,0,0,1,.868-.869l18.221-.015a.868.868,0,0,1,.869.867h0a.869.869,0,0,1-.867.869l-18.222.015A.869.869,0,0,1,529.366,252.84Z" transform="translate(-504.653 -248.462)" fill="#173e77"/>
          <rect id="Rectangle_959" data-name="Rectangle 959" width="63.58" height="75.984" transform="translate(2.953 30.956)" fill="#d4efff"/>
          <rect id="Rectangle_960" data-name="Rectangle 960" width="31.351" height="2.395" rx="1.197" transform="translate(19.218 16.891)" fill="#d4efff"/>
          <rect id="Rectangle_961" data-name="Rectangle 961" width="18.077" height="1.735" rx="0.867" transform="translate(19.221 21.204)" fill="#d4efff"/>
          <path id="Path_8448" data-name="Path 8448" d="M515.466,271.175a4.968,4.968,0,1,1-4.972-4.964A4.968,4.968,0,0,1,515.466,271.175Z" transform="translate(-499.274 -251.679)" fill="#ffe088"/>
          <path id="Path_8449" data-name="Path 8449" d="M571.744,270.351a.8.8,0,1,1-.8-.8A.8.8,0,0,1,571.744,270.351Zm1.831-.8a.8.8,0,1,0,.8.8A.8.8,0,0,0,573.574,269.547Zm2.634,0a.8.8,0,1,0,.8.8A.8.8,0,0,0,576.208,269.545Z" transform="translate(-513.855 -252.431)" fill="#d4efff"/>
        </g>
        <g id="Group_1405" data-name="Group 1405" transform="translate(9.179 15.906)">
          <path id="Path_8450" data-name="Path 8450" d="M513.4,272.716a1.311,1.311,0,0,1-.455,1.027,2.321,2.321,0,0,1-1.316.5v.932h-.571v-.907a4.415,4.415,0,0,1-1.748-.327v-.907a4.361,4.361,0,0,0,.863.3,3.886,3.886,0,0,0,.885.126v-1.607l-.361-.133a2.534,2.534,0,0,1-1.029-.647,1.377,1.377,0,0,1-.324-.931,1.212,1.212,0,0,1,.462-.976,2.284,2.284,0,0,1,1.252-.464v-.722h.571v.708a4.748,4.748,0,0,1,1.655.352l-.314.787a4.633,4.633,0,0,0-1.341-.318v1.564l.327.125a2.991,2.991,0,0,1,1.13.662A1.226,1.226,0,0,1,513.4,272.716Zm-3.047-2.579a.575.575,0,0,0,.153.408,1.56,1.56,0,0,0,.552.323v-1.336a1.01,1.01,0,0,0-.524.21A.508.508,0,0,0,510.349,270.138Zm2.033,2.643a.535.535,0,0,0-.174-.41,1.769,1.769,0,0,0-.582-.311v1.371Q512.382,273.313,512.381,272.78Z" transform="translate(-509.305 -267.985)" fill="#fff"/>
        </g>
        <path id="Path_8451" data-name="Path 8451" d="M561.423,328.7a26.622,26.622,0,1,1-26.644-26.6A26.622,26.622,0,0,1,561.423,328.7Z" transform="translate(-499.872 -259.779)" fill="#1a6eff"/>
        <path id="Path_8452" data-name="Path 8452" d="M557.267,330.419a20.756,20.756,0,1,1-20.773-20.739A20.756,20.756,0,0,1,557.267,330.419Z" transform="translate(-501.581 -261.488)" fill="#7faeff"/>
        <g id="Group_1406" data-name="Group 1406" transform="translate(26.087 53.409)">
          <path id="Path_8453" data-name="Path 8453" d="M548.825,336.87a5.675,5.675,0,0,1-1.969,4.44,10.02,10.02,0,0,1-5.684,2.154v4.031H538.7v-3.92a19.159,19.159,0,0,1-7.561-1.412v-3.919a18.887,18.887,0,0,0,3.734,1.309,16.8,16.8,0,0,0,3.827.547v-6.946l-1.56-.576a10.976,10.976,0,0,1-4.449-2.8,5.938,5.938,0,0,1-1.4-4.022,5.235,5.235,0,0,1,2-4.217,9.9,9.9,0,0,1,5.415-2.005v-3.121h2.47v3.066a20.463,20.463,0,0,1,7.152,1.523l-1.356,3.4a19.913,19.913,0,0,0-5.8-1.374v6.761l1.412.538a12.908,12.908,0,0,1,4.886,2.861A5.3,5.3,0,0,1,548.825,336.87Zm-13.17-11.145a2.483,2.483,0,0,0,.659,1.765,6.741,6.741,0,0,0,2.387,1.393v-5.777a4.346,4.346,0,0,0-2.266.911A2.185,2.185,0,0,0,535.655,325.725Zm8.786,11.424a2.313,2.313,0,0,0-.752-1.774,7.767,7.767,0,0,0-2.517-1.346v5.926Q544.441,339.452,544.441,337.148Z" transform="translate(-531.141 -316.418)" fill="#fff"/>
        </g>
      </g>
      <g id="Group_1408" data-name="Group 1408" transform="translate(15.752 109.988)">
        <path id="Path_8454" data-name="Path 8454" d="M544.055,391.66a2.173,2.173,0,1,1-2.173-2.173A2.172,2.172,0,0,1,544.055,391.66Z" transform="translate(-522.739 -389.487)" fill="#d4efff"/>
        <rect id="Rectangle_962" data-name="Rectangle 962" width="4.346" height="4.346" transform="translate(33.94 0)" fill="#d4efff"/>
        <rect id="Rectangle_963" data-name="Rectangle 963" width="4.346" height="4.346" transform="translate(0 0)" fill="#d4efff"/>
      </g>
    </g>
  </g>
</svg>
