<svg xmlns="http://www.w3.org/2000/svg" width="64" height="64" viewBox="0 0 64 64">
  <g id="Group_1331" data-name="Group 1331" transform="translate(-766 -273)">
    <circle id="Ellipse_111" data-name="Ellipse 111" cx="32" cy="32" r="32" transform="translate(766 273)" fill="#eef5ff"/>
    <g id="noun_loan_836678" transform="translate(785 291.26)">
      <path id="Path_8146" data-name="Path 8146" d="M7.121,25.372,1,20.365l3.508-3.457a6.76,6.76,0,0,1,7.269-1.469H16.1a1.621,1.621,0,1,1,0,3.242H12.752a.536.536,0,1,0,0,1.072h3.79a1.909,1.909,0,0,0,1.427-.641l4.087-4.66a1.682,1.682,0,1,1,2.524,2.223l-5.1,5.94a4,4,0,0,1-3.016,1.371H8.5ZM14.662,5.192a2.331,2.331,0,1,1-.01,0ZM20.905,1.74a1.753,1.753,0,0,1,1.743,1.753v8.038A1.753,1.753,0,0,1,20.9,13.284H8.409a1.753,1.753,0,0,1-1.753-1.753V3.493A1.753,1.753,0,0,1,8.409,1.74ZM20.66,6.169a3.215,3.215,0,0,1-2.421-2.421H11.085A3.217,3.217,0,0,1,8.96,6.086a.428.428,0,0,0-.3.406V8.529a.428.428,0,0,0,.3.406,3.217,3.217,0,0,1,2.125,2.338h7.132a3.215,3.215,0,0,1,2.421-2.421Z" fill="#1a6eff"/>
    </g>
  </g>
</svg>
