<svg xmlns="http://www.w3.org/2000/svg" width="64" height="64" viewBox="0 0 64 64">
  <g id="Group_1332" data-name="Group 1332" transform="translate(-1225 -273)">
    <circle id="Ellipse_112" data-name="Ellipse 112" cx="32" cy="32" r="32" transform="translate(1225 273)" fill="#dbffed"/>
    <path id="Icon_awesome-check" data-name="Icon awesome-check" d="M8.151,22.123l-7.8-7.8a1.2,1.2,0,0,1,0-1.7l1.7-1.7a1.2,1.2,0,0,1,1.7,0L9,16.183,20.254,4.929a1.2,1.2,0,0,1,1.7,0l1.7,1.7a1.2,1.2,0,0,1,0,1.7l-13.8,13.8A1.2,1.2,0,0,1,8.151,22.123Z" transform="translate(1245 291.423)" fill="#009f5d"/>
  </g>
</svg>
