<svg xmlns="http://www.w3.org/2000/svg" width="64" height="64" viewBox="0 0 64 64">
  <g id="Group_1333" data-name="Group 1333" transform="translate(-1684 -273)">
    <circle id="Ellipse_113" data-name="Ellipse 113" cx="32" cy="32" r="32" transform="translate(1684 273)" fill="#ffe6ea"/>
    <g id="noun_pending_2186717" transform="translate(1701 290)">
      <g id="_05" data-name="05" transform="translate(2 2)">
        <path id="Path_8147" data-name="Path 8147" d="M15,2A13,13,0,1,0,28,15,13,13,0,0,0,15,2Zm0,23.4A10.4,10.4,0,1,1,25.4,15,10.4,10.4,0,0,1,15,25.4Z" transform="translate(-2 -2)" fill="#fe4c69"/>
        <path id="Path_8148" data-name="Path 8148" d="M13.218,6a1.3,1.3,0,0,0-1.3,1.3v5.967l-3.523,3.51a1.3,1.3,0,1,0,1.833,1.833l3.9-3.9a1.3,1.3,0,0,0,.39-.91V7.3A1.3,1.3,0,0,0,13.218,6Z" transform="translate(-0.218 -0.8)" fill="#fe4c69"/>
      </g>
    </g>
  </g>
</svg>
