<svg xmlns="http://www.w3.org/2000/svg" viewBox="0 0 581.68 441.3"><defs><style>.cls-1{fill:#f5f5f5;}.cls-2{fill:#ebebeb;}.cls-3{fill:#e0e0e0;}.cls-4{fill:#263238;}.cls-5{fill:#fff;}.cls-6{fill:#1a6eff;}.cls-7{opacity:0.2;}.cls-12,.cls-13,.cls-7{isolation:isolate;}.cls-8{fill:#3c47dd;}.cls-9{fill:#00a05e;}.cls-10{fill:#ff725e;}.cls-11{fill:#343c6a;}.cls-12{opacity:0.4;}.cls-13{opacity:0.6;}.cls-14{fill:#ffbe9d;}.cls-15{fill:#455a64;}.cls-16{fill:#eb996e;}.cls-17{fill:#fafafa;}</style></defs><title>dashboardimage</title><g id="Layer_2" data-name="Layer 2"><g id="Layer_1-2" data-name="Layer 1"><path class="cls-1" d="M75.93,123.68a38.33,38.33,0,1,1-45-30.11,38.33,38.33,0,0,1,45,30.11Z"/><path class="cls-2" d="M67,125.47A29.18,29.18,0,1,1,54.6,106.86,29.22,29.22,0,0,1,67,125.47Z"/><path class="cls-3" d="M66.79,124.55c-.17,0-.54-1.2-1.43-3.3a31.35,31.35,0,0,0-5-8.13A29,29,0,0,0,49,105a27,27,0,0,0-3.89-1.22,28.07,28.07,0,0,0-4.17-.67,26.69,26.69,0,0,0-4.38,0,30.23,30.23,0,0,0-4.45.66,29.5,29.5,0,0,0-4.31,1.35,29.15,29.15,0,0,0-3.92,1.94,27.46,27.46,0,0,0-3.49,2.37,26.34,26.34,0,0,0-3,2.78,28.77,28.77,0,0,0-4.28,6.16,29.4,29.4,0,0,0-2.38,6.12,30.52,30.52,0,0,0-1,9.51c.11,2.28.32,3.55.15,3.59s-.63-1.17-1-3.5a26.91,26.91,0,0,1,.31-10,28.79,28.79,0,0,1,2.27-6.58,29.52,29.52,0,0,1,4.45-6.67,27.23,27.23,0,0,1,3.12-3,26.87,26.87,0,0,1,3.7-2.66,29.93,29.93,0,0,1,13.67-4.3,31,31,0,0,1,4.72.07,29.92,29.92,0,0,1,4.49.78,28.59,28.59,0,0,1,4.13,1.38,29.11,29.11,0,0,1,11.85,9,27.36,27.36,0,0,1,4.63,8.83C66.84,123.21,66.92,124.52,66.79,124.55Z"/><path class="cls-3" d="M46.23,137.94c-.33-1.56-1.79-2.13-3.85-2.39l1.3,6.13c2.12-1,2.86-2.32,2.55-3.74Zm-9.91-9.09L35,122.54c-2.24,1-2.9,2.52-2.59,4S34.23,128.64,36.32,128.85Zm8.61,18.7,1,5-4.44.94-1-4.84c-4.45.67-9,.19-11.82-1.21L30,141.5a18.23,18.23,0,0,0,9.29,1.33l-1.58-7.42c-5.18-.15-11-.63-12.39-7-1-4.71,1.56-9.48,8.42-11.76l-1-4.94,4.44-.94,1,4.84a20.56,20.56,0,0,1,9.6.8l-1.06,5.94a18.59,18.59,0,0,0-7.29-.87l1.6,7.55c5.18.11,11,.61,12.28,6.87C54.26,140.47,51.73,145.22,44.93,147.55Z"/><path class="cls-1" d="M254.68,259.59A22.42,22.42,0,1,1,228.36,242a22.43,22.43,0,0,1,26.32,17.61Z"/><path class="cls-2" d="M249.45,260.63a17.07,17.07,0,1,1-7.25-10.87,17.1,17.1,0,0,1,7.25,10.87Z"/><path class="cls-3" d="M249.34,260.1a9.72,9.72,0,0,1-.84-1.93,18,18,0,0,0-2.94-4.75,18.34,18.34,0,0,0-2.82-2.61,17.2,17.2,0,0,0-3.85-2.12,16.44,16.44,0,0,0-2.26-.71,14.42,14.42,0,0,0-2.44-.39,15.63,15.63,0,0,0-2.56,0A17.65,17.65,0,0,0,229,248a18.41,18.41,0,0,0-2.52.79,17.33,17.33,0,0,0-6,4.14,16.61,16.61,0,0,0-2.54,3.58,17.16,17.16,0,0,0-1.4,3.58,18,18,0,0,0-.57,5.56,10.52,10.52,0,0,1,.09,2.1,4.87,4.87,0,0,1-.59-2,15.72,15.72,0,0,1,.17-5.84,17.09,17.09,0,0,1,3.94-7.75,17,17,0,0,1,1.82-1.78,16.81,16.81,0,0,1,2.17-1.56,17.17,17.17,0,0,1,2.46-1.24,19.41,19.41,0,0,1,2.71-.86,17.92,17.92,0,0,1,2.82-.41,15.9,15.9,0,0,1,2.76,0,18.08,18.08,0,0,1,5,1.26,17.62,17.62,0,0,1,4,2.38,17.38,17.38,0,0,1,2.87,2.88,16,16,0,0,1,2.71,5.17,5,5,0,0,1,.41,2.13Z"/><path class="cls-3" d="M237.35,267.93c-.2-.91-1-1.24-2.26-1.4l.77,3.59c1.22-.56,1.63-1.36,1.46-2.19Zm-5.8-5.32-.79-3.69c-1.31.61-1.69,1.48-1.51,2.34s1.05,1.21,2.27,1.35Zm5,10.94.62,2.91-2.6.55-.6-2.83a12.57,12.57,0,0,1-6.89-.71l.75-3.48a10.77,10.77,0,0,0,5.44.78l-.92-4.34c-3-.09-6.46-.37-7.25-4.09-.59-2.75.91-5.54,4.92-6.88l-.61-2.89L232,252l.6,2.83a12,12,0,0,1,5.61.47l-.62,3.47a11,11,0,0,0-4.26-.51l.93,4.42c3,.07,6.41.36,7.19,4C242,269.47,240.53,272.19,236.55,273.55Z"/><path class="cls-2" d="M490.27,188c.37-1.51-.69-2.63-2.39-3.72l-1.43,5.95c2.26,0,3.48-.85,3.81-2.23Zm-4.91-12.18,1.47-6.13c-2.41,0-3.62,1-4,2.43s.76,2.64,2.52,3.7Zm-.28,20.1-1.16,4.84-4.32-1,1.14-4.71c-4.21-1.28-8-3.61-9.92-6l3.64-4.69a18,18,0,0,0,7.64,5.07l1.73-7.2c-4.51-2.32-9.47-5.2-8-11.37,1.1-4.57,5.37-7.7,12.37-6.84l1.15-4.78,4.32,1-1.13,4.71a19.92,19.92,0,0,1,8.12,4.74l-3.43,4.78a18.34,18.34,0,0,0-6.06-3.83l-1.77,7.33c4.52,2.28,9.4,5.14,7.93,11.22C496.25,193.61,492.08,196.7,485.08,195.89Z"/><path class="cls-2" d="M503.93,66.22c-.11-2.68-2.4-4-5.74-5l.46,10.57c3.79-1.05,5.43-3.12,5.27-5.57Zm-14-17.87-.47-10.88c-4,1.1-5.53,3.39-5.42,5.92s2.48,4.08,5.9,5Zm9.15,33.51.38,8.57-7.66.34-.37-8.34c-7.6-.13-15-2.18-19.33-5.29l3.8-9.53A30.92,30.92,0,0,0,491,72.4l-.56-12.79c-8.59-1.69-18.21-4.11-18.7-15.06C471.37,36.44,477,29.21,489,27.3l-.38-8.5,7.66-.34.37,8.34c5.76.21,11.42,1.49,15.75,4L509,40.39a31.49,31.49,0,0,0-11.91-3.48l.57,13c8.59,1.61,18,4,18.53,14.83C516.56,72.72,511.08,79.87,499.08,81.86Z"/><ellipse class="cls-4" cx="296.08" cy="411.83" rx="232" ry="0.26"/><path class="cls-5" d="M89.7,241V7.71a6.74,6.74,0,0,1,.14-1.41A6.56,6.56,0,0,1,90.25,5a7.47,7.47,0,0,1,.66-1.25,7.21,7.21,0,0,1,2-2,6.53,6.53,0,0,1,1.25-.67A7.24,7.24,0,0,1,95.5.64,7.33,7.33,0,0,1,96.91.5H412.66a7.3,7.3,0,0,1,1.4.14,7.11,7.11,0,0,1,1.36.41,6.76,6.76,0,0,1,1.24.67,7.26,7.26,0,0,1,1.1.89,7.71,7.71,0,0,1,.89,1.09A7.52,7.52,0,0,1,419.32,5a7.24,7.24,0,0,1,.41,1.35,7.49,7.49,0,0,1,.14,1.41V241a7.49,7.49,0,0,1-.14,1.41,7.24,7.24,0,0,1-.41,1.35,7.52,7.52,0,0,1-.67,1.25,7.71,7.71,0,0,1-.89,1.09,7.26,7.26,0,0,1-1.1.89,6.76,6.76,0,0,1-1.24.67,7.11,7.11,0,0,1-1.36.41,7.3,7.3,0,0,1-1.4.14H96.91A7.33,7.33,0,0,1,95.5,248a7.24,7.24,0,0,1-1.35-.41A6.53,6.53,0,0,1,92.9,247a7.21,7.21,0,0,1-2-2,7.47,7.47,0,0,1-.66-1.25,6.56,6.56,0,0,1-.41-1.35A6.74,6.74,0,0,1,89.7,241Z"/><path class="cls-4" d="M412.66,248.18a7.23,7.23,0,0,0,7.16-7.5c0-7.62,0-18.85-.05-33.31,0-28.93,0-70.79-.09-122.51V8.75A10.09,10.09,0,0,0,419.46,6a7,7,0,0,0-3.2-4.3,6.74,6.74,0,0,0-2.6-.91,26.75,26.75,0,0,0-2.83-.08H96.94a7,7,0,0,0-6,3.32,6.76,6.76,0,0,0-1,3.36V241.05a7,7,0,0,0,5.21,6.62,11.17,11.17,0,0,0,3,.23H245.21l122.51.08L401,248H367.72l-122.51.09h-147a12.23,12.23,0,0,1-3.14-.25,7.47,7.47,0,0,1-5.56-7.06V7.43a7.33,7.33,0,0,1,1.09-3.61A7.51,7.51,0,0,1,97,.24h313.8a23.25,23.25,0,0,1,2.89.08,7.29,7.29,0,0,1,2.76,1,7.47,7.47,0,0,1,3.4,4.56A10.91,10.91,0,0,1,420,8.73V84.86c0,51.72-.06,93.58-.08,122.51v33.31a7.29,7.29,0,0,1-4.38,6.93,7.67,7.67,0,0,1-2.14.55Z"/><path class="cls-6" d="M259.53,95.46v-49a8.58,8.58,0,0,1,.15-1.6,9.13,9.13,0,0,1,.47-1.54,8.42,8.42,0,0,1,.76-1.42,8.7,8.7,0,0,1,1-1.25,8.19,8.19,0,0,1,1.25-1,8,8,0,0,1,3-1.22,7.75,7.75,0,0,1,1.6-.16H396.09a7.82,7.82,0,0,1,1.6.16,8.27,8.27,0,0,1,1.54.46,8.42,8.42,0,0,1,1.42.76,8.11,8.11,0,0,1,1.24,1,8.7,8.7,0,0,1,1,1.25,7.76,7.76,0,0,1,.76,1.42,8.3,8.3,0,0,1,.47,1.54,8.59,8.59,0,0,1,.16,1.6v49a8.59,8.59,0,0,1-.16,1.6,8.3,8.3,0,0,1-.47,1.54,7.76,7.76,0,0,1-.76,1.42,8.7,8.7,0,0,1-1,1.25,8.11,8.11,0,0,1-1.24,1,7.71,7.71,0,0,1-1.42.75,7.6,7.6,0,0,1-1.54.47,7.82,7.82,0,0,1-1.6.16H267.74a7.75,7.75,0,0,1-1.6-.16,8.49,8.49,0,0,1-3-1.22,8.19,8.19,0,0,1-1.25-1,8.7,8.7,0,0,1-1-1.25,8.42,8.42,0,0,1-.76-1.42,9.13,9.13,0,0,1-.47-1.54A8.58,8.58,0,0,1,259.53,95.46Z"/><g class="cls-7"><path class="cls-5" d="M339.33,63.54c0-.81-.67-1.25-1.67-1.6v3.2c1.15-.25,1.66-.86,1.66-1.6Zm-4-5.58V54.67c-1.23.27-1.71,1-1.71,1.71s.69,1.25,1.71,1.58Zm2.32,10.24v2.6h-2.32V68.27a11.06,11.06,0,0,1-5.77-1.8l1.28-2.83a9.32,9.32,0,0,0,4.49,1.65V61.41c-2.57-.62-5.44-1.48-5.44-4.79,0-2.46,1.78-4.57,5.44-5V49h2.32v2.53A10.58,10.58,0,0,1,342.36,53L341.2,55.8a9.58,9.58,0,0,0-3.55-1.2v3.94c2.57.6,5.4,1.46,5.4,4.72C343.05,65.68,341.29,67.76,337.65,68.2Z"/></g><g class="cls-7"><path class="cls-5" d="M350.05,81c0-.63-.52-1-1.29-1.24V82.2C349.66,82,350.05,81.54,350.05,81ZM347,76.64V74.09c-.95.21-1.32.73-1.32,1.33S346.17,76.39,347,76.64Zm1.8,7.93v2H347v-2a8.54,8.54,0,0,1-4.46-1.43l1-2.19A7.18,7.18,0,0,0,347,82.22v-3c-2-.49-4.21-1.15-4.21-3.72,0-1.9,1.38-3.53,4.21-3.86v-2h1.78v2a8.08,8.08,0,0,1,3.64,1.09l-.9,2.21a7.25,7.25,0,0,0-2.74-.93v3c2,.46,4.18,1.13,4.18,3.66C352.94,82.61,351.58,84.23,348.76,84.57Z"/></g><path class="cls-5" d="M362.5,65.8a2.81,2.81,0,0,1,0,.41V87.14a6.44,6.44,0,0,0,3,1.57,15.58,15.58,0,0,0,3.73.42,12.53,12.53,0,0,0,7.47-2.23l-.09.2V65.9a3.3,3.3,0,0,0-1.15-1.11,7.83,7.83,0,0,0-1.49-.65,14,14,0,0,0-3-.51,18.44,18.44,0,0,0-4.92.27,8.16,8.16,0,0,0-2.9,1.17,6.62,6.62,0,0,0-.63.54c-.12.14-.18.22-.19.21a2.24,2.24,0,0,1,.74-.85A7.68,7.68,0,0,1,366,63.66a18.64,18.64,0,0,1,5-.38,13.46,13.46,0,0,1,3.08.49,4.89,4.89,0,0,1,2.91,2h0V87.19l-.09.07a12.89,12.89,0,0,1-7.81,2.35,15.14,15.14,0,0,1-3.85-.46,6.84,6.84,0,0,1-3.3-1.75l-.05-.05v-.1c.08-6.32.15-11.68.2-15.53,0-1.84.07-3.32.1-4.4V66.17a2.17,2.17,0,0,1,.31-.37Z"/><path class="cls-5" d="M377,65.84a6.33,6.33,0,0,1-1.9,1.25,12,12,0,0,1-5.37,1.08,12.79,12.79,0,0,1-5.4-.94,6,6,0,0,1-1.93-1.2c0-.08.79.37,2.07.86a14.66,14.66,0,0,0,5.26.76,13.3,13.3,0,0,0,5.22-.9C376.18,66.23,376.91,65.76,377,65.84Z"/><path class="cls-5" d="M377,71.15a6.18,6.18,0,0,1-1.9,1.26,12,12,0,0,1-5.37,1.07,12.79,12.79,0,0,1-5.4-.94,5.76,5.76,0,0,1-1.93-1.2c0-.08.79.37,2.07.86a14.66,14.66,0,0,0,5.26.76,13.32,13.32,0,0,0,5.22-.89C376.18,71.54,376.91,71.08,377,71.15Z"/><path class="cls-5" d="M377,76.47a6.33,6.33,0,0,1-1.9,1.25,12,12,0,0,1-5.37,1.08,12.79,12.79,0,0,1-5.4-.94,6,6,0,0,1-1.93-1.2c0-.08.79.37,2.07.86a14.66,14.66,0,0,0,5.26.76,13.3,13.3,0,0,0,5.22-.9C376.18,76.86,376.91,76.39,377,76.47Z"/><path class="cls-5" d="M377,81.78a6.15,6.15,0,0,1-1.9,1.25,11.7,11.7,0,0,1-5.37,1.08,12.79,12.79,0,0,1-5.4-.94,5.86,5.86,0,0,1-1.93-1.2c0-.08.79.37,2.07.86a14.66,14.66,0,0,0,5.26.76,13.51,13.51,0,0,0,5.22-.89C376.18,82.17,376.91,81.71,377,81.78Z"/><path class="cls-5" d="M377,54.91a3.21,3.21,0,0,1,0,.62V87.29l-.06-.15a6.69,6.69,0,0,0,3.11,1.58,15.16,15.16,0,0,0,3.74.41,12.45,12.45,0,0,0,7.39-2.23l-.09.2c0-12.42.05-23.73.06-32.17V55A3.08,3.08,0,0,0,390,53.87a7.21,7.21,0,0,0-1.51-.66,13.93,13.93,0,0,0-3-.5,18.45,18.45,0,0,0-4.92.3,7.75,7.75,0,0,0-2.86,1.18,3.79,3.79,0,0,0-.6.53c-.13.13-.18.21-.19.21s0-.1.14-.25a3.24,3.24,0,0,1,.59-.58,7.41,7.41,0,0,1,2.87-1.3,18.25,18.25,0,0,1,5-.4,13.53,13.53,0,0,1,3.1.48,4.91,4.91,0,0,1,3,2V55c0,8.44,0,19.75.07,32.17v.14l-.09.07a13,13,0,0,1-7.73,2.36,16.18,16.18,0,0,1-3.87-.44,6.88,6.88,0,0,1-3.37-1.77l-.05-.06v-.1c.08-9.42.15-17.51.2-23.29,0-2.83.08-5.09.1-6.7,0-.74,0-1.33.05-1.78a2.85,2.85,0,0,1,.11-.65Z"/><path class="cls-5" d="M391.48,65.84a6.33,6.33,0,0,1-1.9,1.25,12,12,0,0,1-5.37,1.08,12.79,12.79,0,0,1-5.4-.94,6,6,0,0,1-1.93-1.2c0-.08.79.37,2.07.86a14.66,14.66,0,0,0,5.26.76,13.3,13.3,0,0,0,5.22-.9C390.7,66.23,391.43,65.76,391.48,65.84Z"/><path class="cls-5" d="M391.48,71.15a6.18,6.18,0,0,1-1.9,1.26,12,12,0,0,1-5.37,1.07,12.79,12.79,0,0,1-5.4-.94,5.76,5.76,0,0,1-1.93-1.2c0-.08.79.37,2.07.86a14.66,14.66,0,0,0,5.26.76,13.32,13.32,0,0,0,5.22-.89C390.7,71.54,391.43,71.08,391.48,71.15Z"/><path class="cls-5" d="M391.48,60.39a6.18,6.18,0,0,1-1.9,1.26,12,12,0,0,1-5.37,1.07,12.79,12.79,0,0,1-5.4-.94,5.86,5.86,0,0,1-1.93-1.2c0-.08.79.37,2.07.86a14.66,14.66,0,0,0,5.26.76,13.32,13.32,0,0,0,5.22-.89C390.7,60.78,391.43,60.32,391.48,60.39Z"/><path class="cls-5" d="M391.48,54.91a6.33,6.33,0,0,1-1.9,1.25,12,12,0,0,1-5.37,1.08,12.79,12.79,0,0,1-5.4-.94,6,6,0,0,1-1.93-1.2c0-.08.79.36,2.07.85a14.45,14.45,0,0,0,5.26.77,13.3,13.3,0,0,0,5.22-.9C390.7,55.3,391.43,54.83,391.48,54.91Z"/><path class="cls-5" d="M391.48,76.47a6.33,6.33,0,0,1-1.9,1.25,12,12,0,0,1-5.37,1.08,12.79,12.79,0,0,1-5.4-.94,6,6,0,0,1-1.93-1.2c0-.08.79.37,2.07.86a14.66,14.66,0,0,0,5.26.76,13.3,13.3,0,0,0,5.22-.9C390.7,76.86,391.43,76.39,391.48,76.47Z"/><path class="cls-5" d="M391.48,81.78a6.15,6.15,0,0,1-1.9,1.25,11.7,11.7,0,0,1-5.37,1.08,12.79,12.79,0,0,1-5.4-.94,5.86,5.86,0,0,1-1.93-1.2c0-.08.79.37,2.07.86a14.66,14.66,0,0,0,5.26.76,13.51,13.51,0,0,0,5.22-.89C390.7,82.17,391.43,81.71,391.48,81.78Z"/><path class="cls-3" d="M108.6,95.45v-49a8.58,8.58,0,0,1,.15-1.6,9.24,9.24,0,0,1,.47-1.55,8.82,8.82,0,0,1,.76-1.42,8.11,8.11,0,0,1,1-1.24,8.7,8.7,0,0,1,1.25-1,7.76,7.76,0,0,1,1.42-.76,7.6,7.6,0,0,1,1.54-.47,7.92,7.92,0,0,1,1.61-.16H245.15a7.82,7.82,0,0,1,1.6.16,7.6,7.6,0,0,1,1.54.47,7.45,7.45,0,0,1,1.42.76A8.14,8.14,0,0,1,252,41.87a8.82,8.82,0,0,1,.76,1.42,8.4,8.4,0,0,1,.47,1.55,8.59,8.59,0,0,1,.16,1.6v49a8.59,8.59,0,0,1-.16,1.6,8.4,8.4,0,0,1-.47,1.55A8.82,8.82,0,0,1,252,100a8.14,8.14,0,0,1-2.27,2.26,7.45,7.45,0,0,1-1.42.76,7.6,7.6,0,0,1-1.54.47,7.82,7.82,0,0,1-1.6.16H116.82a7.92,7.92,0,0,1-1.61-.16,7.6,7.6,0,0,1-1.54-.47,7.76,7.76,0,0,1-1.42-.76,8.7,8.7,0,0,1-1.25-1,8.11,8.11,0,0,1-1-1.24,8.82,8.82,0,0,1-.76-1.42,9.24,9.24,0,0,1-.47-1.55A8.58,8.58,0,0,1,108.6,95.45Z"/><path class="cls-2" d="M177.76,63.49c0-.81-.68-1.25-1.67-1.6v3.2c1.15-.25,1.67-.86,1.67-1.62Zm-4-5.58V54.62c-1.23.27-1.72,1-1.72,1.71S172.76,57.58,173.76,57.91Zm2.32,10.24v2.6h-2.32V68.22A11,11,0,0,1,168,66.37l1.27-2.83a9.34,9.34,0,0,0,4.5,1.64V61.31c-2.57-.62-5.45-1.48-5.45-4.79,0-2.46,1.79-4.57,5.45-5V49h2.32v2.51a10.45,10.45,0,0,1,4.7,1.41l-1.16,2.85a9.3,9.3,0,0,0-3.54-1.2v3.94c2.57.6,5.4,1.46,5.4,4.72C181.48,65.63,179.76,67.71,176.08,68.15Z"/><path class="cls-2" d="M188.48,80.91c0-.63-.52-1-1.29-1.24v2.48c.89-.2,1.29-.68,1.29-1.24Zm-3.09-4.32V74c-.95.21-1.33.73-1.33,1.33s.54,1,1.33,1.22Zm1.8,7.93v2h-1.8v-2a8.55,8.55,0,0,1-4.47-1.43l1-2.19a7.18,7.18,0,0,0,3.48,1.27v-3c-2-.48-4.22-1.14-4.22-3.71,0-1.9,1.39-3.53,4.22-3.86v-2h1.8v2a8.08,8.08,0,0,1,3.64,1.09l-.9,2.21A7.25,7.25,0,0,0,187.2,74v3c2,.46,4.18,1.13,4.18,3.66C191.37,82.56,190,84.18,187.19,84.52Z"/><polygon class="cls-4" points="121.54 61.36 119.87 61.36 119.87 60.93 123.76 60.93 123.76 61.36 122.09 61.36 122.09 65.67 121.59 65.67 121.54 61.36"/><path class="cls-4" d="M126.81,63.89a1.33,1.33,0,1,0-1.32,1.38,1.29,1.29,0,0,0,1-.4A1.32,1.32,0,0,0,126.81,63.89Zm-3.14,0a1.81,1.81,0,0,1,1.11-1.69,1.82,1.82,0,0,1,2.39,2.37,1.81,1.81,0,0,1-1.68,1.13,1.74,1.74,0,0,1-1.3-.51,1.71,1.71,0,0,1-.52-1.3Z"/><path class="cls-4" d="M130.16,65.47a1.18,1.18,0,0,1-.76.25.93.93,0,0,1-1-1V62.47h-.64v-.41h.64v-.78h.48v.78H130v.41h-1.09V64.6a.56.56,0,0,0,.62.65.85.85,0,0,0,.53-.18Z"/><path class="cls-4" d="M133.28,64.61V64h-1.12c-.69,0-.91.28-.91.64s.33.67.9.67a1.15,1.15,0,0,0,1.09-.73Zm.48-1.14v2.21h-.46v-.56a1.34,1.34,0,0,1-1.23.59c-.8,0-1.3-.42-1.3-1s.35-1,1.38-1h1.13v-.24a.87.87,0,0,0-1-.94,1.77,1.77,0,0,0-1.19.42l-.21-.36a2.17,2.17,0,0,1,1.45-.48,1.26,1.26,0,0,1,1.43,1.36Z"/><rect class="cls-4" x="135.03" y="60.64" width="0.48" height="5"/><polygon class="cls-4" points="126.34 71.69 126.34 86.4 122.94 86.4 122.94 74.47 119.94 74.47 119.94 71.74 126.34 71.69"/><path class="cls-4" d="M139.9,83.63V86.4H128.76V84.2l5.68-5.36c1.3-1.25,1.53-2,1.53-2.72,0-1.15-.8-1.83-2.35-1.83a3.6,3.6,0,0,0-3,1.48l-2.48-1.6A6.83,6.83,0,0,1,134,71.43c3.28,0,5.47,1.69,5.47,4.36,0,1.43-.4,2.73-2.46,4.64l-3.38,3.2Z"/><path class="cls-4" d="M150.46,79.05c0-3.35-1.18-4.74-2.88-4.74s-2.86,1.39-2.86,4.74,1.17,4.73,2.86,4.73S150.46,82.39,150.46,79.05Zm-9.19,0c0-4.86,2.69-7.62,6.31-7.62s6.3,2.76,6.3,7.62-2.67,7.61-6.3,7.61S141.27,83.9,141.27,79.05Z"/><path class="cls-1" d="M199.36,82.74V61.85a3.15,3.15,0,0,1,.24-1.21,3.11,3.11,0,0,1,.69-1,3.07,3.07,0,0,1,1-.69,3.2,3.2,0,0,1,1.22-.24H238.6a3.15,3.15,0,0,1,1.21.24,3.11,3.11,0,0,1,1,.69,3.27,3.27,0,0,1,.69,1,3.15,3.15,0,0,1,.24,1.21V82.74a3.15,3.15,0,0,1-.24,1.21,3.27,3.27,0,0,1-.69,1,3.11,3.11,0,0,1-1,.69,3.15,3.15,0,0,1-1.21.24H202.53a3.2,3.2,0,0,1-1.22-.24,3.07,3.07,0,0,1-1-.69,3.11,3.11,0,0,1-.69-1A3.15,3.15,0,0,1,199.36,82.74Z"/><rect class="cls-3" x="204.17" y="63.69" width="6.91" height="2.51"/><path class="cls-3" d="M212.52,71.36a22.28,22.28,0,0,1-4.89.27,22.33,22.33,0,0,1-4.9-.27,23.63,23.63,0,0,1,4.9-.26,23.57,23.57,0,0,1,4.89.26Z"/><path class="cls-3" d="M219.22,71.36a11.21,11.21,0,0,1-4.89,0,11.52,11.52,0,0,1,4.89,0Z"/><path class="cls-3" d="M237.43,71.36a24.87,24.87,0,0,1-7.31,0A25.58,25.58,0,0,1,237.43,71.36Z"/><path class="cls-3" d="M228.39,71.36a23.21,23.21,0,0,1-7.06,0,23.87,23.87,0,0,1,7.06,0Z"/><path class="cls-3" d="M210.15,77.47a25,25,0,0,1-7.23,0A25,25,0,0,1,210.15,77.47Z"/><path class="cls-3" d="M216.29,80.06a42.74,42.74,0,0,1-6.69.26,42.57,42.57,0,0,1-6.68-.26,43.81,43.81,0,0,1,6.68-.26,44,44,0,0,1,6.69.26Z"/><path class="cls-3" d="M237.43,80.06a15.33,15.33,0,0,1-5.65,0,15.48,15.48,0,0,1,5.65,0Z"/><polygon class="cls-5" points="272.48 63.66 270.81 63.66 270.81 63.22 274.65 63.22 274.65 63.66 272.98 63.66 272.98 67.97 272.48 67.97 272.48 63.66"/><path class="cls-5" d="M277.75,66.18a1.33,1.33,0,1,0-1.32,1.39,1.31,1.31,0,0,0,1-.4,1.34,1.34,0,0,0,.36-1Zm-3.14,0A1.82,1.82,0,1,1,276.43,68a1.75,1.75,0,0,1-1.82-1.82Z"/><path class="cls-5" d="M281.09,67.75a1.13,1.13,0,0,1-.75.25.93.93,0,0,1-1-1V64.85h-.64v-.41h.64v-.78h.42v.78h1.08v.41h-1.08V67a.56.56,0,0,0,.62.65.73.73,0,0,0,.52-.19Z"/><path class="cls-5" d="M284.18,66.9v-.59h-1.12c-.69,0-.92.27-.92.64s.33.67.9.67a1.16,1.16,0,0,0,1.14-.72Zm.48-1.14V68h-.46v-.56A1.34,1.34,0,0,1,283,68c-.81,0-1.3-.42-1.3-1s.35-1,1.37-1h1.14v-.21a.87.87,0,0,0-.25-.75.88.88,0,0,0-.75-.25,1.82,1.82,0,0,0-1.19.42l-.22-.35a2.23,2.23,0,0,1,1.45-.49,1.28,1.28,0,0,1,1,.35A1.3,1.3,0,0,1,284.66,65.76Z"/><rect class="cls-5" x="285.96" y="62.94" width="0.48" height="5"/><path class="cls-5" d="M292.9,64.85c0-.76-.5-1.19-1.45-1.19h-1.29V66h1.26c.95,0,1.45-.44,1.45-1.18Zm0,3.12-1.08-1.5h-1.66V68h-.5V63.23h1.78c1.2,0,1.93.61,1.93,1.63a1.48,1.48,0,0,1-1.08,1.49L293.45,68Z"/><path class="cls-5" d="M294.56,66h2.53a1.27,1.27,0,0,0-2.53,0Zm3,.36h-3a1.24,1.24,0,0,0,.44.91,1.3,1.3,0,0,0,1,.33,1.42,1.42,0,0,0,1.09-.46l.27.31a1.85,1.85,0,0,1-3.24-1.24,1.74,1.74,0,1,1,3.47,0S297.56,66.28,297.56,66.33Z"/><polygon class="cls-5" points="301.47 64.4 299.89 67.97 299.39 67.97 297.82 64.4 298.32 64.4 299.65 67.4 301 64.4 301.47 64.4"/><path class="cls-5" d="M302.15,66h2.53a1.27,1.27,0,0,0-2.53,0Zm3,.36h-3a1.32,1.32,0,0,0,.44.91,1.34,1.34,0,0,0,1,.33,1.38,1.38,0,0,0,1.09-.46l.28.31a1.89,1.89,0,0,1-3.25-1.24,1.74,1.74,0,1,1,3.47,0S305.15,66.28,305.15,66.33Z"/><path class="cls-5" d="M309.42,65.9V68h-.48V66c0-.76-.39-1.14-1.07-1.14a1.15,1.15,0,0,0-.93.35,1.17,1.17,0,0,0-.32.94V68h-.48V64.42h.46v.66a1.5,1.5,0,0,1,1.36-.69,1.37,1.37,0,0,1,1.08.41,1.41,1.41,0,0,1,.38,1.1Z"/><path class="cls-5" d="M313.94,64.4V68h-.46v-.65a1.44,1.44,0,0,1-1.28.68,1.4,1.4,0,0,1-1.12-.4,1.37,1.37,0,0,1-.39-1.13V64.4h.48v2a1,1,0,0,0,1.07,1.15,1.17,1.17,0,0,0,1.22-1.3V64.38Z"/><path class="cls-5" d="M315.39,66h2.52a1.26,1.26,0,1,0-2.52,0Zm3,.36h-3a1.24,1.24,0,0,0,.44.91,1.3,1.3,0,0,0,1,.33,1.42,1.42,0,0,0,1.09-.46l.27.31a1.89,1.89,0,0,1-3.25-1.24,1.71,1.71,0,0,1,1.75-1.81,1.69,1.69,0,0,1,1.26.53,1.72,1.72,0,0,1,.46,1.28Z"/><path class="cls-5" d="M277.48,83.53c0-.52-.43-.81-1.08-1v2.06c.75-.2,1.08-.59,1.08-1.06Zm-2.57-3.6V77.82c-.79.18-1.1.61-1.1,1.1s.45.81,1.1,1Zm1.49,6.59v1.67h-1.49V86.57a7,7,0,0,1-3.71-1.19l.82-1.82a6.11,6.11,0,0,0,2.89,1.06V82.13c-1.65-.41-3.5-1-3.5-3.09,0-1.58,1.15-2.94,3.5-3.21V74.18h1.49V75.8a6.81,6.81,0,0,1,3,.91l-.74,1.84a6.29,6.29,0,0,0-2.29-.78v2.54c1.66.38,3.48.94,3.48,3C279.88,84.9,278.76,86.24,276.4,86.52Z"/><polygon class="cls-5" points="284.76 75.97 284.76 86.4 282.34 86.4 282.34 77.91 280.26 77.91 280.26 75.97 284.76 75.97"/><path class="cls-5" d="M294.45,83.12c0,1.85-1.36,3.46-4.34,3.46a7.22,7.22,0,0,1-4-1.11l1-1.85a5,5,0,0,0,3,.94c1.21,0,2-.51,2-1.36s-.54-1.36-2.43-1.36H287l.53-5.87h6.37v1.94h-4.45l-.17,2h.85C293.23,79.89,294.45,81.28,294.45,83.12Z"/><path class="cls-5" d="M298.25,85.06a3.39,3.39,0,0,1-.41,1.49L297,88.7h-1.47l.66-2.37a1.29,1.29,0,0,1-.81-1.27,1.39,1.39,0,0,1,1.45-1.43,1.37,1.37,0,0,1,1,.4,1.41,1.41,0,0,1,.4,1Z"/><path class="cls-5" d="M305.66,81.19c0-2.37-.84-3.36-2-3.36s-2,1-2,3.36.83,3.35,2,3.35S305.66,83.56,305.66,81.19Zm-6.52,0c0-3.45,1.91-5.4,4.47-5.4s4.48,2,4.48,5.4-1.9,5.39-4.48,5.39S299.14,84.63,299.14,81.19Z"/><path class="cls-5" d="M315.77,81.19c0-2.37-.83-3.36-2-3.36s-2,1-2,3.36.84,3.35,2,3.35,2-1,2-3.35Zm-6.51,0c0-3.45,1.91-5.4,4.47-5.4s4.47,2,4.47,5.4-1.89,5.39-4.47,5.39S309.26,84.63,309.26,81.19Z"/><path class="cls-5" d="M325.89,81.19c0-2.37-.83-3.36-2-3.36s-2,1-2,3.36.84,3.35,2,3.35,2-1,2-3.35Zm-6.52,0c0-3.45,1.91-5.4,4.48-5.4s4.47,2,4.47,5.4-1.89,5.39-4.47,5.39S319.37,84.63,319.37,81.19Z"/><path class="cls-3" d="M393.9,233.24h.53A10.15,10.15,0,0,0,396,233a10,10,0,0,0,8-9.35c.06-.91,0-1.86,0-2.85V127.12c0-1.11,0-2.25-.05-3.35a10.3,10.3,0,0,0-.9-3.22,9.88,9.88,0,0,0-4.71-4.75,10.18,10.18,0,0,0-3.32-.94c-1.16-.09-2.37,0-3.56,0H118.77a9.87,9.87,0,0,0-8.49,4.79,9.79,9.79,0,0,0-1.41,4.82v97.7a14.23,14.23,0,0,0,.11,2.35,9.89,9.89,0,0,0,9.57,8.46h27.77l128.87.06,86.88.08,23.62,0h0l-23.62.05-86.88.08-128.89.17H118.52a10.29,10.29,0,0,1-4.64-1.2,10.45,10.45,0,0,1-3.62-3.18,10.1,10.1,0,0,1-1.79-4.5,14,14,0,0,1-.12-2.42V124.43a10.17,10.17,0,0,1,1.48-5.06,10.41,10.41,0,0,1,8.94-5.05H391.33c1.2,0,2.38,0,3.59.06a10.34,10.34,0,0,1,9.26,9.25c.09,1.16,0,2.27.05,3.39v42.71c0,14.57,0,27.12-.05,37.38v16.48a10.78,10.78,0,0,1-.48,2.58,10,10,0,0,1-9.19,7Z"/><rect class="cls-2" x="198.93" y="188.44" width="9.6" height="38.11"/><rect class="cls-2" x="213.31" y="199.97" width="9.6" height="26.58"/><rect class="cls-2" x="185.15" y="199.97" width="9.6" height="26.58"/><rect class="cls-2" x="156.99" y="223.01" width="9.6" height="3.54"/><rect class="cls-2" x="171.26" y="217.67" width="9.6" height="8.88"/><rect class="cls-2" x="143.24" y="223.6" width="9.6" height="2.95"/><rect class="cls-2" x="128.82" y="223.6" width="9.6" height="2.95"/><rect class="cls-2" x="228.45" y="205.32" width="9.6" height="21.23"/><rect class="cls-2" x="243.6" y="211.15" width="9.6" height="15.4"/><rect class="cls-2" x="258.74" y="199.97" width="9.6" height="26.58"/><rect class="cls-2" x="273.88" y="183.37" width="9.6" height="43.18"/><rect class="cls-2" x="289.02" y="170.59" width="9.6" height="55.96"/><rect class="cls-2" x="304.17" y="188.44" width="9.6" height="38.11"/><rect class="cls-2" x="319.31" y="154.23" width="9.6" height="72.32"/><rect class="cls-2" x="334.45" y="188.44" width="9.6" height="38.11"/><rect class="cls-2" x="349.59" y="199.97" width="9.6" height="26.58"/><rect class="cls-2" x="364.74" y="204.96" width="9.6" height="21.59"/><rect class="cls-2" x="379.88" y="211.15" width="9.6" height="15.4"/><path class="cls-8" d="M136.76,226.55h18a29.79,29.79,0,0,0,4-.21,20.83,20.83,0,0,0,8.5-3A16.57,16.57,0,0,0,171,220a21.92,21.92,0,0,0,2.62-4.68c1.5-3.4,2.86-7.09,4.25-11s2.78-8,4.27-12.25c.75-2.13,1.51-4.3,2.39-6.48a36.8,36.8,0,0,1,3.28-6.4,26.2,26.2,0,0,1,4.91-5.75,21.89,21.89,0,0,1,6.63-3.88,23.29,23.29,0,0,1,7.8-1.37,28.94,28.94,0,0,1,8.07,1,21.44,21.44,0,0,1,3.88,1.49,19.21,19.21,0,0,1,3.51,2.35,22,22,0,0,1,5.21,6.75,51.47,51.47,0,0,1,3,8.16c.88,2.78,1.76,5.59,2.74,8.39a70.45,70.45,0,0,0,7.65,16.32,22.38,22.38,0,0,0,6.38,6.48,12.19,12.19,0,0,0,4.24,1.68,12.52,12.52,0,0,0,2.29.23,15.1,15.1,0,0,0,2.33-.12,15.59,15.59,0,0,0,6-1.69,13.85,13.85,0,0,0,4.55-4.2c1.21-1.71,2.22-3.55,3.25-5.36s1.93-3.67,2.76-5.57c3.28-7.57,5.32-15.46,8.38-22.74a84.57,84.57,0,0,1,4.83-10.62,37.42,37.42,0,0,1,6.88-9,23.29,23.29,0,0,1,4.37-3.4,22.83,22.83,0,0,1,5-2.22,30.66,30.66,0,0,1,10.43-1.27,33.31,33.31,0,0,1,9.87,1.93,25.61,25.61,0,0,1,8.2,4.93c4.69,4.14,8.09,9,12,12.84a31.47,31.47,0,0,0,13,7.61,54,54,0,0,0,12.47,2.38h0l17.57.06h0l-17.57.06a54.15,54.15,0,0,1-12.56-2.33,32,32,0,0,1-13.16-7.49c-3.92-3.87-7.34-8.71-12-12.79a25.44,25.44,0,0,0-8.09-4.84,32.42,32.42,0,0,0-9.74-1.88,30.48,30.48,0,0,0-10.27,1.26,22.47,22.47,0,0,0-9.15,5.52,37.87,37.87,0,0,0-6.79,8.88,85.06,85.06,0,0,0-4.78,10.57c-3.05,7.26-5.08,15.13-8.38,22.76a60.83,60.83,0,0,1-2.77,5.61,59.52,59.52,0,0,1-3.29,5.41,14.34,14.34,0,0,1-4.72,4.35,15.86,15.86,0,0,1-6.23,1.76c-.79.11-1.59.08-2.38.12a13.54,13.54,0,0,1-2.39-.24,12.51,12.51,0,0,1-4.41-1.75,22.58,22.58,0,0,1-6.54-6.63,71.3,71.3,0,0,1-7.71-16.44c-1-2.81-1.86-5.63-2.73-8.41a53,53,0,0,0-3-8.08,21.45,21.45,0,0,0-5.09-6.6,18.71,18.71,0,0,0-3.41-2.3,21,21,0,0,0-3.79-1.46,28,28,0,0,0-7.94-1,22.58,22.58,0,0,0-7.64,1.33,23.35,23.35,0,0,0-11.34,9.29c-2.66,4-4.13,8.55-5.65,12.78s-2.93,8.35-4.3,12.25-2.78,7.58-4.3,11a22.34,22.34,0,0,1-2.68,4.74,17,17,0,0,1-3.87,3.36,21.21,21.21,0,0,1-8.61,3,29.75,29.75,0,0,1-4,.18h-3.71l-10.64-.05h-2.77C137,226.57,136.76,226.55,136.76,226.55Z"/><path class="cls-9" d="M229.76,138.05h-54a1.52,1.52,0,0,0-1.53,1.53v18.57a1.45,1.45,0,0,0,.44,1.08,1.54,1.54,0,0,0,1.09.45h27.32a1.52,1.52,0,0,1,1.13.5c.86.95,2,2.18,2.84,3.08a1.55,1.55,0,0,0,2.26,0l2.78-3.07a1.52,1.52,0,0,1,1.13-.5h16.54a1.54,1.54,0,0,0,1.53-1.53V139.58a1.55,1.55,0,0,0-1.53-1.53Z"/><path class="cls-1" d="M170.54,190.93h-45a.91.91,0,0,0-.91.91v11a.91.91,0,0,0,.91.91h16.22a.91.91,0,0,1,.67.3c.51.56,1.19,1.3,1.69,1.83a.88.88,0,0,0,.67.29.92.92,0,0,0,.67-.29l1.66-1.82a.89.89,0,0,1,.67-.3H170.5a.91.91,0,0,0,.91-.91v-11a.91.91,0,0,0-.87-.92Z"/><path class="cls-10" d="M210,168.3a2.1,2.1,0,1,1-2.1-2.1,2.1,2.1,0,0,1,2.1,2.1Z"/><path class="cls-4" d="M207.89,166.26a2.08,2.08,0,1,0,2.08,2.08,2.1,2.1,0,0,0-.6-1.5,2.06,2.06,0,0,0-1.48-.62Zm0,4.21a2.13,2.13,0,1,1,2.13-2.13A2.15,2.15,0,0,1,207.89,170.47Z"/><path class="cls-5" d="M189,150.49c0-.32-.27-.49-.67-.63v1.27c.48-.1.67-.34.67-.66Zm-1.58-2.21V147c-.49.11-.68.37-.68.68S187,148.15,187.37,148.28Zm.91,4.06v1h-.91v-1a4.35,4.35,0,0,1-2.29-.74l.5-1.12a3.71,3.71,0,0,0,1.79.66V149.6c-1-.25-2.16-.59-2.16-1.9,0-1,.7-1.81,2.16-2v-1h.91v1a4,4,0,0,1,1.87.56l-.46,1.13a3.58,3.58,0,0,0-1.41-.48v1.56c1,.24,2.14.58,2.14,1.87C190.42,151.34,189.76,152.17,188.28,152.34Z"/><polygon class="cls-5" points="193.43 145.84 193.43 152.27 191.94 152.27 191.94 147.03 190.65 147.03 190.65 145.84 193.43 145.84"/><path class="cls-5" d="M199.41,150.25c0,1.14-.84,2.13-2.68,2.13a4.5,4.5,0,0,1-2.45-.69l.59-1.14a3.07,3.07,0,0,0,1.83.58c.74,0,1.2-.31,1.2-.84s-.33-.83-1.5-.83h-1.64l.33-3.62H199V147h-2.68l-.1,1.22h.53C198.65,148.25,199.41,149.11,199.41,150.25Z"/><path class="cls-5" d="M201.76,151.47a2.25,2.25,0,0,1-.25.92l-.53,1.32h-.9l.4-1.46a.79.79,0,0,1-.5-.78.82.82,0,0,1,.26-.64.88.88,0,0,1,.64-.24.84.84,0,0,1,.63.25.83.83,0,0,1,.25.63Z"/><path class="cls-5" d="M206.3,149.05c0-1.46-.51-2.06-1.26-2.06s-1.25.6-1.25,2.06.52,2.07,1.25,2.07,1.27-.65,1.27-2.07Zm-4,0c0-2.12,1.17-3.32,2.75-3.32s2.76,1.2,2.76,3.32-1.17,3.33-2.76,3.33S202.3,151.17,202.3,149.05Z"/><path class="cls-5" d="M212.53,149.05c0-1.46-.52-2.06-1.26-2.06s-1.25.6-1.25,2.06.51,2.07,1.25,2.07,1.28-.65,1.28-2.07Zm-4,0c0-2.12,1.18-3.32,2.76-3.32s2.76,1.2,2.76,3.32-1.17,3.33-2.76,3.33S208.53,151.17,208.53,149.05Z"/><path class="cls-5" d="M218.76,149.05c0-1.46-.51-2.06-1.26-2.06s-1.25.6-1.25,2.06.52,2.07,1.25,2.07S218.76,150.47,218.76,149.05Zm-4,0c0-2.12,1.17-3.32,2.75-3.32s2.76,1.2,2.76,3.32-1.17,3.33-2.76,3.33S214.76,151.17,214.76,149.05Z"/><path class="cls-4" d="M95.44,0H414.08a6,6,0,0,1,6,6V18.63H89.47V6A6,6,0,0,1,95.44,0Z"/><path class="cls-1" d="M101.45,6.91a2.67,2.67,0,0,1,1,.2,2.71,2.71,0,0,1,.87.58,2.63,2.63,0,0,1,.57,2.9,2.58,2.58,0,0,1-.57.86,2.71,2.71,0,0,1-.87.58,2.64,2.64,0,0,1-2.89-.58,2.61,2.61,0,0,1-.58-.86,2.7,2.7,0,0,1,0-2,2.61,2.61,0,0,1,.58-.86,2.62,2.62,0,0,1,1.88-.78Z"/><path class="cls-1" d="M109.74,6.91a2.67,2.67,0,0,1,1,.2,2.71,2.71,0,0,1,.87.58,2.63,2.63,0,0,1,.57,2.9,2.58,2.58,0,0,1-.57.86,2.71,2.71,0,0,1-.87.58,2.64,2.64,0,0,1-2.89-.58,2.61,2.61,0,0,1-.58-.86,2.7,2.7,0,0,1,0-2,2.61,2.61,0,0,1,.58-.86,2.62,2.62,0,0,1,1.88-.78Z"/><path class="cls-1" d="M118,6.91a2.67,2.67,0,0,1,1,.2,2.71,2.71,0,0,1,.87.58,2.63,2.63,0,0,1,.57,2.9,2.58,2.58,0,0,1-.57.86A2.71,2.71,0,0,1,119,12a2.67,2.67,0,0,1-1,.2,2.73,2.73,0,0,1-1-.2,2.66,2.66,0,0,1-.86-.58,2.61,2.61,0,0,1-.58-.86,2.7,2.7,0,0,1,0-2,2.61,2.61,0,0,1,.58-.86,2.66,2.66,0,0,1,.86-.58A2.73,2.73,0,0,1,118,6.91Z"/><path class="cls-11" d="M552.94,411.83a19.36,19.36,0,0,0,19.14-15.6c3.18-16.14,7.27-38.72,7.4-64.08.08-15.55-3.4-35.24-8.21-50-7-21.6-22.06-40.63-43.9-46.86-28.37-8.1-38.64-5-58.76,5.56-21.88,11.47-27.8,33-50.58,42.58-22.11,9.29-48.78,6.12-68.94,19.12C331.36,314,322.71,336,322,357.05a116.86,116.86,0,0,0,3.23,33.33c2.75,11.51,13.14,21.38,25,21.48Z"/><g class="cls-12"><path class="cls-11" d="M555.14,411.83a19.36,19.36,0,0,0,19.14-15.6c3.18-16.14,7.27-38.72,7.4-64.08.08-15.55-3.4-35.24-8.21-50-7-21.6-22.06-40.63-43.9-46.86-28.37-8.1-38.64-5-58.76,5.56-21.88,11.47-27.8,33-50.58,42.58-22.11,9.29-48.78,6.12-68.94,19.12C333.56,314,324.91,336,324.21,357.05a116.86,116.86,0,0,0,3.23,33.33c2.75,11.51,13.14,21.38,25,21.48Z"/></g><path class="cls-4" d="M538.36,239.11a3,3,0,0,1,.21.4c.14.3.33.7.58,1.21.51,1.1,1.23,2.67,2.16,4.67l1.55,3.38c.56,1.25,1,2.64,1.63,4.12s1.18,3.07,1.83,4.74,1.25,3.49,1.86,5.39,1.24,3.91,1.9,6c.36,1,.63,2.12.91,3.22s.57,2.21.86,3.35l.89,3.48c.15.58.31,1.18.46,1.77s.25,1.22.37,1.83c.5,2.46,1,5,1.52,7.58a242.46,242.46,0,0,1,3.51,34.22,289.63,289.63,0,0,1-1.36,34.35c-.63,5.25-1.14,10.25-2,14.88-.37,2.32-.68,4.57-1.07,6.71s-.81,4.2-1.19,6.16c-.71,3.94-1.58,7.45-2.28,10.54-.36,1.55-.69,3-1,4.31l-1,3.6c-.58,2.13-1,3.8-1.34,5l-.37,1.29a2.16,2.16,0,0,1-.14.43,1.8,1.8,0,0,1,.09-.45c.07-.32.18-.75.31-1.3l1.23-5c.27-1.08.58-2.29.91-3.6s.61-2.77,1-4.32c.67-3.1,1.51-6.61,2.19-10.55q.55-2.94,1.16-6.15c.37-2.15.67-4.4,1-6.71.78-4.63,1.27-9.63,1.89-14.86a292.87,292.87,0,0,0,1.3-34.29,245.48,245.48,0,0,0-3.45-34.11q-.75-3.88-1.49-7.56l-.36-1.82-.45-1.78c-.3-1.17-.59-2.33-.88-3.47s-.57-2.25-.84-3.35-.54-2.18-.89-3.21l-1.87-6c-.58-1.9-1.13-3.72-1.81-5.39s-1.23-3.27-1.78-4.75-1.05-2.88-1.58-4.13l-1.45-3.47c-.88-2-1.57-3.6-2.06-4.71l-.52-1.23a1.6,1.6,0,0,1-.14-.42Z"/><path class="cls-6" d="M351.94,411.67,333,441.3l-37-23.36c2.45-3.39,26.06,1.6,26.06,1.6l11.35-19.48Z"/><g class="cls-13"><path class="cls-5" d="M334.55,425.16a1.79,1.79,0,0,1-.05,2.38,1.71,1.71,0,0,1-2.36,0,1.89,1.89,0,0,1,.06-2.53,1.79,1.79,0,0,1,2.45.3"/></g><g class="cls-13"><path class="cls-5" d="M333,441.3l1.79-3.06L298.69,417s-2.1-.32-2.65,1Z"/></g><path class="cls-4" d="M321.62,419c-.11.19.74.84,1.26,2s.52,2.2.73,2.23.6-1.18-.05-2.55S321.68,418.78,321.62,419Z"/><path class="cls-4" d="M316.73,418.13c-.15.15.43.95.56,2.1s-.2,2.07,0,2.17.94-.84.75-2.27S316.84,418,316.73,418.13Z"/><path class="cls-4" d="M311.59,421.38c.14.14,1-.6,1.12-1.89s-.43-2.21-.6-2.1,0,1-.13,2S311.42,421.25,311.59,421.38Z"/><path class="cls-4" d="M324.7,414.82c0,.21.95.49,1.93,1.2s1.57,1.54,1.76,1.44-.16-1.22-1.33-2S324.7,414.62,324.7,414.82Z"/><path class="cls-4" d="M328.35,411c-.05.07.59.63,1.86,1.16a9.64,9.64,0,0,0,2.31.63,11.17,11.17,0,0,0,1.42.1,2.58,2.58,0,0,0,.83-.08.93.93,0,0,0,.69-.91,1.16,1.16,0,0,0-.53-.91,3.15,3.15,0,0,0-.75-.34,7.87,7.87,0,0,0-3.82-.29,3.65,3.65,0,0,0-2,.81c0,.12.82-.19,2.11-.29a8.85,8.85,0,0,1,2.24.11,8.26,8.26,0,0,1,1.27.35c.46.14.79.35.78.59s0,.12-.17.18a3.15,3.15,0,0,1-.61.06,9.58,9.58,0,0,1-1.33-.06,11.91,11.91,0,0,1-2.23-.45,15.54,15.54,0,0,0-2.07-.66Z"/><path class="cls-4" d="M328.42,411.4a3.92,3.92,0,0,0,1.62-1.48,7.37,7.37,0,0,0,1-2.19,8.42,8.42,0,0,0,.24-1.42,1.84,1.84,0,0,0-.6-1.68,1,1,0,0,0-1.1,0,3,3,0,0,0-.61.56,5,5,0,0,0-1.21,3.66c.12,1.42.73,2.11.79,2.06a18.33,18.33,0,0,1-.27-2.07,4.87,4.87,0,0,1,.52-2.11,3.87,3.87,0,0,1,.71-1c.3-.36.65-.58.77-.45a1.62,1.62,0,0,1,.27,1,7,7,0,0,1-.18,1.29,7.69,7.69,0,0,1-.81,2.07C329,410.75,328.34,411.31,328.42,411.4Z"/><path class="cls-6" d="M378.41,319.47l-11.33,33.25-41.47-13.89c1.57-3.88,25.69-4.65,25.69-4.65l6.38-21.62Z"/><g class="cls-13"><path class="cls-5" d="M364.72,336.68a1.8,1.8,0,0,1,.53,2.32,1.71,1.71,0,0,1-2.3.54,1.87,1.87,0,0,1-.55-2.46,1.78,1.78,0,0,1,2.46-.3"/></g><g class="cls-13"><path class="cls-5" d="M367.08,352.72l1-3.4L328,337.27s-2.12.18-2.34,1.56Z"/></g><path class="cls-4" d="M350.69,333.74c-.06.21.93.64,1.7,1.62s1,2,1.24,2,.3-1.29-.66-2.47S350.71,333.54,350.69,333.74Z"/><path class="cls-4" d="M345.74,334.08c-.11.18.65.82,1.05,1.91s.3,2.06.5,2.12.72-1.05.2-2.39S345.81,333.89,345.74,334.08Z"/><path class="cls-4" d="M341.53,338.47c.17.11.79-.81.64-2.09s-1-2-1.09-1.91.25.93.35,2S341.33,338.38,341.53,338.47Z"/><path class="cls-4" d="M352.7,329c0,.21,1,.24,2.16.7s1.89,1.12,2.05,1-.45-1.15-1.77-1.68S352.65,328.78,352.7,329Z"/><path class="cls-4" d="M355.33,324.39a4.18,4.18,0,0,0,2.08.68,9.63,9.63,0,0,0,2.4.06,9.5,9.5,0,0,0,1.4-.23,2.82,2.82,0,0,0,.8-.28.93.93,0,0,0,.45-1,1.25,1.25,0,0,0-.73-.76,2.89,2.89,0,0,0-.82-.15,8.66,8.66,0,0,0-1.44,0,7.51,7.51,0,0,0-2.33.62c-1.26.57-1.85,1.21-1.79,1.28s.75-.38,2-.79a9.12,9.12,0,0,1,2.2-.43,9.54,9.54,0,0,1,1.31,0c.48,0,.86.15.9.38s0,.12-.12.22a2.49,2.49,0,0,1-.58.2,11.67,11.67,0,0,1-1.31.26,12.22,12.22,0,0,1-2.26.1,14.28,14.28,0,0,0-2.16-.16Z"/><path class="cls-4" d="M355.5,324.77c.06.05.71-.54,1.22-1.83a7.41,7.41,0,0,0,.48-2.37,7.59,7.59,0,0,0-.11-1.43,1.85,1.85,0,0,0-1-1.5,1,1,0,0,0-1.06.29,2.91,2.91,0,0,0-.47.69,4.63,4.63,0,0,0-.47,1.4,4.94,4.94,0,0,0,.17,2.44c.45,1.35,1.21,1.87,1.25,1.81a16.89,16.89,0,0,1-.75-1.94,5,5,0,0,1,0-2.18,4.54,4.54,0,0,1,.44-1.18c.21-.42.5-.72.65-.62a1.61,1.61,0,0,1,.5.92,8.07,8.07,0,0,1,.13,1.3,8.23,8.23,0,0,1-.29,2.21C355.87,324,355.4,324.7,355.5,324.77Z"/><path class="cls-4" d="M447.08,310s-31.21-50.09-39.77-64c-9.92-16.07-30.26-14-35.14.48,1.09-3.26-3.8,11.1-20.27,64.73l27.75,7.94,17.85-15.16,7.08,20.25Z"/><polygon class="cls-14" points="442.98 254.14 431.62 293 389.59 297.51 389.59 304.97 451.35 305.82 459.76 255.22 442.98 254.14"/><path class="cls-4" d="M453,307.33H395.62A31.6,31.6,0,0,0,372,318a21.28,21.28,0,0,0-4.31,7.87l-42,78.36L352.5,419l50.16-71.54,28,.34,62.42-39Z"/><path class="cls-15" d="M396,332.15a8.8,8.8,0,0,1,1.48,2A32.27,32.27,0,0,1,401.87,345a9.45,9.45,0,0,1,.28,2.43c-.17,0-.73-3.66-2.45-7.9S395.88,332.24,396,332.15Z"/><path class="cls-3" d="M336.75,261.41l23.33,45.92h73.66l-3-6-21.34-.64L392.08,262a6.73,6.73,0,0,0-6.14-4h-47.1a2.34,2.34,0,0,0-2.09,3.42Z"/><circle class="cls-4" cx="371.44" cy="281.73" r="3"/><path class="cls-6" d="M523.75,228.66c-2.45-11.09-19-15.3-26.46-15.32-10.41,0-9.47-.66-19.7,1.18h-1.35c-31.1-1.26-34.68,41.46-34.68,41.46l14.18,1.15L452,286.56l-10.85,20.83,59.73-.09,3.34-48.63,25-.66S526.23,239.87,523.75,228.66Z"/><path class="cls-4" d="M457.46,237.89c.16,0-.89,10.39-2.35,23.17s-2.76,23.11-2.92,23.1.89-10.39,2.35-23.17S457.3,237.87,457.46,237.89Z"/><g class="cls-7"><path d="M503.08,237.89c-2.55,12.18-5.87,24.69-8.41,36.87-.55,2.59-1.13,5.27-2.71,7.38a17.76,17.76,0,0,1-3.63,3.35c-5,3.76-10.31,7.29-16.21,9.44a145.93,145.93,0,0,0,25.23-4.39,6.94,6.94,0,0,0,3.79-2,7.06,7.06,0,0,0,1.14-3.62c1.83-15.61,1.3-31.35.8-47.07"/></g><path class="cls-14" d="M420.58,292.07l18.5-2.22,13.05,8.55,49.95-11.93,1.46-27.84,22.4-.56-.53,32.68a19,19,0,0,1-19.48,18.56l-73.08-2-3.11-6.22-15.66-.52Z"/><path class="cls-16" d="M502.08,286.47a6.37,6.37,0,0,1-.94.29l-2.71.7-10,2.5-33.08,8-3.08.73h-.12l-.11-.07-13-8.57h.17l-18.52,2.14.12-.07-4.89,6.21L414.6,300a3.62,3.62,0,0,1-.49.54,4,4,0,0,1,.41-.6l1.24-1.7,4.76-6.31.05-.06h.07l18.44-2.26h.18l13.06,8.54h-.23l3.08-.74,33.13-7.85,10.05-2.32,2.74-.6A6.38,6.38,0,0,1,502.08,286.47Z"/><path class="cls-16" d="M431.33,297.38a44.32,44.32,0,0,1-7.19.29h-1.32l.19-.07a35.23,35.23,0,0,1-4.66,3.59,32.48,32.48,0,0,1,4.29-4l.08-.07h1.42A44.3,44.3,0,0,1,431.33,297.38Z"/><path class="cls-16" d="M510.77,291.1a13.32,13.32,0,0,0-3.64-3.8c-2.48-1.6-5-1.45-5-1.63a3,3,0,0,1,1.61-.13,8.58,8.58,0,0,1,6.44,4,3.06,3.06,0,0,1,.59,1.51Z"/><path class="cls-4" d="M529.22,258.2l-5.45.2c-4.6.14-11,.3-18,.44l-2.25.05h-.29v-.28c-.25-6.52-.14-12.33,0-16.5.06-2.09.14-3.76.21-4.92a9.78,9.78,0,0,1,.17-1.79,12,12,0,0,1,.05,1.8v4.92c0,4.17-.07,10,.2,16.46l-.3-.27h2.26c7-.14,13.4-.23,18-.27h5.46C530.51,258,527.22,258.12,529.22,258.2Z"/><path class="cls-4" d="M490.74,258.37a9.68,9.68,0,0,1-.72,1.44c-.24.46-.54,1-.94,1.63s-.81,1.35-1.35,2.1a53.7,53.7,0,0,1-4,5.12,59.82,59.82,0,0,1-5.71,5.55,59.08,59.08,0,0,1-6.47,4.64,53.23,53.23,0,0,1-5.75,3c-.84.4-1.63.69-2.31,1a13.65,13.65,0,0,1-1.77.64,8.46,8.46,0,0,1-1.54.45,9.61,9.61,0,0,1,1.47-.64c.48-.18,1.07-.41,1.73-.71s1.44-.61,2.26-1a58.45,58.45,0,0,0,5.65-3.1,56.21,56.21,0,0,0,12.08-10.1,59.06,59.06,0,0,0,4.06-5c.55-.74,1-1.44,1.41-2.05s.74-1.13,1-1.57a9.81,9.81,0,0,1,.9-1.4Z"/><path class="cls-17" d="M522.66,226.6a4.45,4.45,0,0,1-.73,0l-2.09-.07-7.67-.3c-6.48-.22-15.43-.39-25.31-.26s-18.83.57-25.3,1l-7.66.5-2.08.13a4.45,4.45,0,0,1-.73,0,2.85,2.85,0,0,1,.72-.11l2.07-.23c1.81-.19,4.42-.42,7.65-.67,6.47-.5,15.42-1,25.32-1.12s18.86.1,25.34.42c3.23.15,5.85.31,7.66.45l2.08.17A4.55,4.55,0,0,1,522.66,226.6Z"/><path class="cls-17" d="M456.2,246.94a82.1,82.1,0,0,1-13.12,0,82.1,82.1,0,0,1,13.12,0Z"/><path class="cls-17" d="M503,249.2a1.52,1.52,0,0,1-.46.1l-1.35.2c-1.17.16-2.86.36-5,.58-4.2.43-10,.9-16.46,1.15s-12.27.24-16.49.13c-2.11-.05-3.82-.12-5-.19l-1.35-.09a1.49,1.49,0,0,1-.47-.07,1.85,1.85,0,0,1,.47,0h6.36c4.22,0,10,0,16.47-.28s12.24-.66,16.44-1l5-.41,1.36-.1a1.54,1.54,0,0,1,.48,0Z"/><path class="cls-17" d="M527.08,245.11c0,.14-5.32.74-11.91,1.33s-11.94.94-12,.8,5.32-.74,11.91-1.32S527,245,527.08,245.11Z"/><path class="cls-17" d="M475.17,275.55a17.43,17.43,0,0,1-3.14.25c-1.95.08-4.64.12-7.62.05s-5.66-.24-7.6-.41a17.3,17.3,0,0,1-3.13-.4,20.7,20.7,0,0,1,3.15,0c1.95.08,4.63.18,7.6.25s5.65.1,7.59.12A20.76,20.76,0,0,1,475.17,275.55Z"/><path class="cls-17" d="M502.64,276.41a5.55,5.55,0,0,1-1.13.24c-.73.13-1.79.28-3.11.45-2.63.32-6.29.66-10.34.82s-7.72.1-10.37,0c-1.33-.06-2.4-.13-3.14-.2a4.36,4.36,0,0,1-1.14-.16,5.53,5.53,0,0,1,1.15,0h3.14c2.65,0,6.31,0,10.34-.13s7.68-.44,10.32-.67l3.13-.28a4.42,4.42,0,0,1,1.15-.07Z"/><path class="cls-17" d="M459.3,295.55a14.15,14.15,0,0,1-5.11-1.28,14.45,14.45,0,0,1-4.58-2.64c.09-.13,2.1,1.09,4.77,2.16S459.33,295.4,459.3,295.55Z"/><path class="cls-14" d="M484.24,159.25h-1a18.14,18.14,0,0,0-18.16,16.46c-.7,8.63-1.35,18.17-1.28,22.8.14,9.59,10,11.06,10,11.06l-.37,8.51a11.73,11.73,0,0,0,11,12.11h0A11.73,11.73,0,0,0,496.82,219l2-40.49C499.71,168.59,494.48,159.81,484.24,159.25Z"/><path class="cls-16" d="M473.67,209.55a24.29,24.29,0,0,0,12.89-3.7s-3,6.91-12.85,6.06Z"/><path class="cls-4" d="M468.53,181.66a1.39,1.39,0,0,0,1.36,1.38,1.31,1.31,0,0,0,1-.32,1.35,1.35,0,0,0,.47-.92,1.4,1.4,0,0,0-1.36-1.33,1.34,1.34,0,0,0-1.45,1.19Z"/><path class="cls-4" d="M467.17,180.39c.17.18,1.23-.59,2.75-.59s2.62.74,2.78.56-.09-.4-.58-.75a4,4,0,0,0-4.42,0C467.24,180,467.08,180.31,467.17,180.39Z"/><path class="cls-4" d="M482.65,182.11a1.4,1.4,0,0,0,1.36,1.38,1.31,1.31,0,0,0,1-.32,1.35,1.35,0,0,0,.47-.92,1.4,1.4,0,0,0-1.38-1.38,1.34,1.34,0,0,0-1.43,1.24Z"/><path class="cls-4" d="M481.29,180.64c.17.18,1.24-.59,2.75-.59s2.62.73,2.79.55-.1-.4-.59-.74a3.94,3.94,0,0,0-2.23-.66,3.65,3.65,0,0,0-2.19.69C481.36,180.24,481.2,180.56,481.29,180.64Z"/><path class="cls-4" d="M476.57,191.57a10.31,10.31,0,0,0-2.46-.42c-.38,0-.75-.11-.82-.37a1.84,1.84,0,0,1,.26-1.12l1.14-2.86c1.57-4.08,2.71-7.44,2.55-7.5s-1.59,3.2-3.17,7.28c-.38,1-.74,2-1.09,2.88a2.12,2.12,0,0,0-.19,1.48,1,1,0,0,0,.63.55,2.39,2.39,0,0,0,.66.09,9.88,9.88,0,0,0,2.49,0Z"/><path class="cls-4" d="M481,192.58c-.24,0-.24,1.59-1.65,2.73s-3.15,1-3.16,1.19.39.31,1.13.32a4.08,4.08,0,0,0,2.64-.9,3.43,3.43,0,0,0,1.28-2.28C481.32,193,481.14,192.57,481,192.58Z"/><path class="cls-4" d="M481.63,174.87c.15.4,1.66.21,3.44.41s3.21.67,3.44.31c.11-.17-.14-.54-.72-.93a6.09,6.09,0,0,0-5.24-.55C481.9,174.36,481.57,174.68,481.63,174.87Z"/><path class="cls-4" d="M467.71,176.13c.27.33,1.31,0,2.56,0s2.32.22,2.56-.13c.11-.17-.06-.51-.52-.82a3.78,3.78,0,0,0-4.13.13C467.74,175.62,467.6,176,467.71,176.13Z"/><path class="cls-14" d="M497.38,185.65c.17-.07,6.76-2,6.56,4.59s-6.92,5-6.92,4.82S497.38,185.65,497.38,185.65Z"/><path class="cls-16" d="M498.56,192.63a1.51,1.51,0,0,0,.31.18,1.19,1.19,0,0,0,.87,0,2.81,2.81,0,0,0,1.42-2.49,3.6,3.6,0,0,0-.28-1.65,1.34,1.34,0,0,0-.85-.9.6.6,0,0,0-.7.29c-.1.18-.06.32-.1.33s-.14-.12-.07-.39a.69.69,0,0,1,.27-.4,1,1,0,0,1,.65-.13,1.65,1.65,0,0,1,1.19,1,3.88,3.88,0,0,1,.35,1.84,3,3,0,0,1-1.8,2.78,1.25,1.25,0,0,1-1.06-.2C498.56,192.79,498.53,192.64,498.56,192.63Z"/><path class="cls-4" d="M493,166.17l-28.07.6a12.66,12.66,0,0,1,4.13-4.65,22.29,22.29,0,0,1,12.71-4.45c4.57-.08,13.89,5.35,17.2,8.42,2.66,2.46,2.64,4.59,2.64,4.59.42,3.55-1.61,7.57-2.42,11-.42,1.8-1.23,7.22-1.23,7.22-1.55,0-2.12-1.2-1.88-2.69l.28-5.84a8.7,8.7,0,0,1-2.76-10.3C494,169.59,494.82,167.16,493,166.17Z"/><path class="cls-16" d="M487.08,186.89a.13.13,0,0,0,.12,0,.16.16,0,0,0,.07-.11.2.2,0,0,0,0-.13.16.16,0,0,0-.1-.08.17.17,0,0,0-.2.15.17.17,0,0,0,.13.2Z"/><path class="cls-16" d="M484.18,186.26a.18.18,0,0,0,.14,0,.21.21,0,0,0,.07-.13.2.2,0,0,0-.12-.23.18.18,0,0,0-.14,0,.17.17,0,0,0-.07.13.18.18,0,0,0,.12.23Z"/><path class="cls-16" d="M482.24,186.22c.09,0,.18-.1.2-.25s0-.27-.14-.28-.18.1-.19.24S482.15,186.21,482.24,186.22Z"/><path class="cls-16" d="M485.66,188.66c.09,0,.17,0,.16-.1a.16.16,0,0,0-.16-.11c-.09,0-.17.05-.17.11S485.57,188.66,485.66,188.66Z"/><path class="cls-16" d="M483,188.07a.18.18,0,0,0,.18-.17.19.19,0,0,0-.15-.2.17.17,0,0,0-.18.17.17.17,0,0,0,.15.2Z"/><path class="cls-16" d="M469.21,186.47a.18.18,0,0,0,.2-.27.2.2,0,0,0-.19-.08.17.17,0,0,0-.14.14A.17.17,0,0,0,469.21,186.47Z"/><path class="cls-16" d="M467.24,186.32a.21.21,0,0,0,.19-.19.17.17,0,0,0-.18-.15.17.17,0,0,0-.16.16.17.17,0,0,0,.15.18Z"/><path class="cls-16" d="M471,186.54a.18.18,0,0,0,.19-.11.14.14,0,0,0,0-.12.12.12,0,0,0-.1-.05.15.15,0,1,0-.06.28Z"/><path class="cls-16" d="M469.49,188.47a.19.19,0,0,0,.23-.11.17.17,0,0,0,0-.14.16.16,0,0,0-.08-.1.17.17,0,0,0-.14,0,.15.15,0,0,0-.09.1.17.17,0,0,0,.07.24Z"/><path class="cls-16" d="M467.81,188.13a.11.11,0,0,0,.09-.06.11.11,0,0,0,0-.11.16.16,0,0,0-.2-.09.15.15,0,0,0-.12.17.14.14,0,0,0,.08.09.13.13,0,0,0,.12,0Z"/><path class="cls-4" d="M499.13,166.47a7.81,7.81,0,0,0-1.58-7,8.3,8.3,0,0,0-6.71-3,25.75,25.75,0,0,1-3.92.28c-2.43-.26-4.3-2.15-6.55-3.07a8.67,8.67,0,0,0-10.09,2.94c-.86,1.24-1.42,2.78-2.72,3.56-1.13.68-2.56.62-3.83,1a6.1,6.1,0,0,0-4.2,6,7.19,7.19,0,0,0,4.49,6,9.16,9.16,0,0,0,7.75-.53c2.12-1.15,4-3.1,6.44-3s4.7,2.38,7.16,1.9a7.07,7.07,0,0,0,3.23-2.11,5.62,5.62,0,0,1,3.34-1.87c1.32-.08,2,1.68,1.53,2.88l5.66-3.92"/><path class="cls-15" d="M465.45,163.3v.1c0,.06.09.15.17.26a4.22,4.22,0,0,0,.8.89,5,5,0,0,0,6.9-.4c.69-.93,1.34-1.89,1.94-2.88a3.93,3.93,0,0,1,1.36-1.2,4.1,4.1,0,0,1,1.86-.4,4.29,4.29,0,0,1,1.91.51,3.54,3.54,0,0,1,1.41,1.41,19.29,19.29,0,0,0,1,1.84,2.3,2.3,0,0,0,1.79,1.06,3.56,3.56,0,0,0,2-.55,6.89,6.89,0,0,0,1.49-1.2,6.23,6.23,0,0,1,2.78-1.93,3.64,3.64,0,0,1,2.82.65,4.75,4.75,0,0,1,1.55,1.86,7.73,7.73,0,0,1,.58,1.76c.1.5.15.9.19,1.16a1.4,1.4,0,0,0,.06.41v-.41c0-.4-.08-.79-.14-1.18a8,8,0,0,0-.54-1.8,5.05,5.05,0,0,0-1.57-1.95,3.8,3.8,0,0,0-3-.71,6.31,6.31,0,0,0-2.9,2,7,7,0,0,1-1.45,1.16,3.42,3.42,0,0,1-1.81.51,2.07,2.07,0,0,1-1.59-1c-.38-.54-.63-1.2-1-1.82a3.85,3.85,0,0,0-1.51-1.51,4.52,4.52,0,0,0-2-.53,4.32,4.32,0,0,0-2,.43,4.13,4.13,0,0,0-1.44,1.28c-.74,1-1.18,2.09-1.9,2.87a5,5,0,0,1-2.56,1.46,4.77,4.77,0,0,1-2.46-.11,5.15,5.15,0,0,1-1.65-.88,6.3,6.3,0,0,1-1.09-1.16Z"/><path class="cls-15" d="M460.36,163.4a1.31,1.31,0,0,0-.11.52,3.86,3.86,0,0,0,.14,1.47,5,5,0,0,0,1.05,1.93,6.12,6.12,0,0,0,2.22,1.57,9.4,9.4,0,0,0,4.9.54c.49-.07,1-.17,1.47-.29a1.67,1.67,0,0,0,.52-.17s-.77.14-2,.27a9.8,9.8,0,0,1-4.77-.59,6.26,6.26,0,0,1-2.14-1.49,5.19,5.19,0,0,1-1.05-1.82A5.56,5.56,0,0,1,460.36,163.4Z"/><path class="cls-4" d="M411,343.18a4,4,0,0,1-.35.56l-1.09,1.54c-.48.66-1.08,1.46-1.69,2.44s-1.39,2-2.09,3.34-1.56,2.62-2.31,4.17-1.56,3.18-2.34,4.94a83.36,83.36,0,0,0-4,11.88,92.19,92.19,0,0,0-2,12.35c-.18,1.92-.34,3.75-.39,5.46s-.1,3.31-.12,4.77,0,2.78.06,3.94.07,2.16.12,3,.06,1.4.08,1.88a3.64,3.64,0,0,1,0,.66,2.84,2.84,0,0,1-.1-.65c-.05-.48-.11-1.1-.18-1.87s-.17-1.81-.21-3-.15-2.48-.14-3.95,0-3.06.05-4.79.19-3.55.35-5.49a88.59,88.59,0,0,1,2.08-12.43,80.87,80.87,0,0,1,4-11.94c.8-1.76,1.56-3.44,2.4-4.95s1.62-2.91,2.37-4.17,1.53-2.33,2.17-3.3,1.26-1.76,1.77-2.41l1.16-1.47a2.38,2.38,0,0,1,.44-.51Z"/><path class="cls-6" d="M89.87,318.32a48.9,48.9,0,0,0-46.65-12.8,84.86,84.86,0,0,0,47.2,14.74"/><path class="cls-6" d="M74.08,262.29c2-13.75-3.4-29.21-13.69-39.2-.34,13.62,5.41,28.95,13.69,39.2"/><path class="cls-6" d="M82.27,288.26A73.41,73.41,0,0,0,48.56,256,46.33,46.33,0,0,0,82.4,288.4"/><path class="cls-6" d="M84,293.27c-8.31.23-16.71-.06-24.74-2.19s-15.72-6.21-21.06-12.56a82.56,82.56,0,0,1,45.67,14"/><path class="cls-6" d="M79.76,276.76C84,261,90.93,250,103.35,241.19a32.85,32.85,0,0,1-23.59,35.57"/><path class="cls-6" d="M111.08,304a23.38,23.38,0,0,0-14.2-21.65c.69,8.15,7.1,17.59,14.2,21.65"/><path class="cls-6" d="M115.08,290.69A34.82,34.82,0,0,1,137.9,261c-2.86,13.2-10.5,24.19-22.82,29.72"/><path class="cls-6" d="M109.08,314.32c2.93-4.19,7.71-6.79,12.65-8.09s10.11-1.41,15.22-1.51a35.56,35.56,0,0,1-27.48,11.44"/><path class="cls-6" d="M103.16,348a39,39,0,0,1,47.6,22.55c-17.29-3.28-34.35-11-47.6-22.55"/><path class="cls-6" d="M84.18,336.29c2.87,8.49,2.32,18.75-4.07,26.07a31.17,31.17,0,0,1,4.07-26.07"/><path class="cls-6" d="M73,331.57a32,32,0,0,1-17.64,25.9,2,2,0,0,1-1.56.26c-.78-.32-.85-1.38-.75-2.22,1.25-10.88,9.31-21.4,19.95-24"/><path class="cls-6" d="M65.63,330.47a26.19,26.19,0,0,1-38.26.19c12.16-1.33,26.2-2.22,38.26-.19"/><path class="cls-4" d="M63.81,233.22a2.06,2.06,0,0,0,.12.35c.09.26.21.6.37,1,.34.93.83,2.25,1.46,3.94s1.41,3.81,2.29,6.25l1.41,3.9c.48,1.39,1,2.86,1.52,4.4,2.15,6.16,4.54,13.56,7.13,21.79s5.2,17.35,7.82,26.95,4.88,18.83,6.83,27.24,3.53,16,4.7,22.43c.31,1.6.59,3.13.87,4.57s.47,2.82.69,4.1c.44,2.55.82,4.75,1.07,6.56s.49,3.18.64,4.15c.08.46.13.82.18,1.08l.07.37a2.29,2.29,0,0,0,0-.37c0-.27-.08-.63-.14-1.09-.13-1-.31-2.38-.55-4.17s-.58-4-1-6.58c-.21-1.28-.43-2.65-.66-4.1l-.83-4.58c-1.14-6.43-2.74-14-4.61-22.47s-4.21-17.63-6.8-27.26-5.3-18.71-7.86-27-5-15.62-7.23-21.76c-.55-1.54-1.06-3-1.55-4.4s-1-2.67-1.45-3.89c-.9-2.43-1.68-4.53-2.36-6.22s-1.18-3-1.55-3.91c-.17-.43-.31-.76-.41-1a2.61,2.61,0,0,0-.17-.28Z"/><path class="cls-4" d="M130.63,268l-.21.2-.58.61c-.51.54-1.24,1.35-2.16,2.42a84.31,84.31,0,0,0-7.16,9.55,63.67,63.67,0,0,0-7.49,16c-2,6.37-3.26,13.62-4.5,21.2-2.47,15.17-5.5,28.75-7.7,38.58L98.19,368.2c-.3,1.35-.53,2.42-.7,3.17-.07.34-.12.61-.17.83a1.31,1.31,0,0,0,0,.28,1.43,1.43,0,0,0,.09-.27,4.28,4.28,0,0,1,.21-.82l.79-3.15c.66-2.77,1.61-6.72,2.78-11.6,2.28-9.81,5.37-23.39,7.84-38.57,1.24-7.58,2.47-14.81,4.45-21.16a64.63,64.63,0,0,1,7.35-16,91.39,91.39,0,0,1,7-9.61c.89-1.09,1.61-1.91,2.09-2.47l.55-.65C130.58,268.1,130.64,268,130.63,268Z"/><path class="cls-4" d="M62,330a1.63,1.63,0,0,0,.44.08l1.26.14.91.09,1.07.16c.78.11,1.66.23,2.62.44l1.51.3,1.61.41c1.13.25,2.29.67,3.53,1A53.37,53.37,0,0,1,82.66,336a43.86,43.86,0,0,1,6.9,4.8,33.55,33.55,0,0,1,2.65,2.55,30.2,30.2,0,0,1,2.1,2.41c.64.74,1.09,1.51,1.55,2.14a15.6,15.6,0,0,1,1.06,1.7l.65,1.08a1.51,1.51,0,0,0,.25.37.86.86,0,0,0-.17-.41c-.17-.26-.34-.68-.57-1.13a15.84,15.84,0,0,0-1-1.75c-.47-.76-1-1.49-1.51-2.2A27.57,27.57,0,0,0,92.49,343a34.21,34.21,0,0,0-2.65-2.6,41.78,41.78,0,0,0-7-4.88,50.76,50.76,0,0,0-7.79-3.4c-1.26-.36-2.43-.76-3.57-1l-1.64-.39-1.53-.27c-1-.2-1.85-.29-2.63-.38L64.59,330l-.92-.05H62.4a1.34,1.34,0,0,0-.4,0Z"/><path class="cls-4" d="M58.54,268.31a5.76,5.76,0,0,0,.87.84l2.51,2.17c2.12,1.82,5.08,4.31,8.37,7s6.28,5.18,8.46,6.93l2.6,2.06a5,5,0,0,0,1,.7,6.35,6.35,0,0,0-.88-.84L79,285c-2.13-1.82-5.09-4.31-8.37-7s-6.28-5.18-8.46-6.93L59.54,269a5.29,5.29,0,0,0-1-.7Z"/><path class="cls-4" d="M55.55,284.4c0,.12,6.35,2.12,14.26,4.45s14.36,4.14,14.4,4-6.35-2.12-14.27-4.46S55.58,284.27,55.55,284.4Z"/><path class="cls-4" d="M79.13,278a5.5,5.5,0,0,0,.66-.92l1.68-2.6c1.43-2.16,3.46-5.11,5.86-8.25s4.71-5.87,6.41-7.82l2-2.31a6.07,6.07,0,0,0,.71-.88,5.06,5.06,0,0,0-.84.76c-.52.5-1.25,1.26-2.14,2.21-1.76,1.9-4.12,4.61-6.53,7.76s-4.4,6.14-5.76,8.35c-.68,1.11-1.22,2-1.57,2.65A5,5,0,0,0,79.13,278Z"/><path class="cls-4" d="M101.31,286.92a22.26,22.26,0,0,0,1.5,2.47c1,1.5,2.25,3.58,3.59,5.94s2.47,4.53,3.27,6.12A20.78,20.78,0,0,0,111,304a16,16,0,0,0-1.06-2.69c-.73-1.63-1.82-3.84-3.16-6.21s-2.7-4.44-3.73-5.9a15.11,15.11,0,0,0-1.77-2.28Z"/><path class="cls-4" d="M108.9,314.76c0,.06,1.25-.53,3.25-1.43s4.78-2.07,7.92-3.18,6.06-1.92,8.18-2.46,3.44-.83,3.43-.9a3,3,0,0,0-1,.1c-.61.09-1.48.25-2.56.48a71.21,71.21,0,0,0-8.25,2.35A70.24,70.24,0,0,0,112,313c-1,.49-1.77.91-2.3,1.21a3.61,3.61,0,0,0-.81.52Z"/><path class="cls-4" d="M102.93,348a1.63,1.63,0,0,0,.39.13l1.15.29,4.25,1a141.55,141.55,0,0,1,13.87,3.67,61.34,61.34,0,0,1,13,6.08c1.55,1,2.75,1.85,3.56,2.48a13.38,13.38,0,0,0,1.29.95,2,2,0,0,0-.28-.3c-.21-.18-.49-.46-.89-.79a40.35,40.35,0,0,0-3.5-2.62,57,57,0,0,0-13-6.24,114.8,114.8,0,0,0-14-3.55l-4.28-.83a10.61,10.61,0,0,0-1.56-.27Z"/><path class="cls-4" d="M81.32,356.24c.13,0,.89-4.46,1.7-10s1.37-10.05,1.24-10.07-.89,4.46-1.7,10S81.19,356.22,81.32,356.24Z"/><path class="cls-4" d="M58.83,348.07a23,23,0,0,0,2-2.41c1.22-1.51,2.9-3.59,4.81-5.86s3.67-4.28,5-5.74a24.35,24.35,0,0,0,2-2.41,5.36,5.36,0,0,0-.64.55c-.39.38-1,.93-1.62,1.63-1.35,1.41-3.16,3.4-5.07,5.67s-3.55,4.4-4.71,6c-.57.79-1,1.43-1.33,1.88A2.79,2.79,0,0,0,58.83,348.07Z"/><polygon class="cls-15" points="118.36 368.93 118.36 380.05 115.58 380.05 105.7 411.23 83.79 411.23 74.22 380.36 70.51 380.05 70.51 368.93 118.36 368.93"/><path class="cls-4" d="M72.36,380.36c0,.13,9.68.23,21.61.23s21.61-.1,21.61-.23-9.68-.23-21.61-.23S72.36,380.23,72.36,380.36Z"/><path class="cls-4" d="M56.61,308.86a7.42,7.42,0,0,0,1.4.38l3.85.93c3.24.8,7.69,2,12.52,3.64s9.11,3.35,12.17,4.67l3.63,1.58a8,8,0,0,0,1.35.55,9.33,9.33,0,0,0-1.27-.71c-.83-.43-2.05-1-3.57-1.72a127.1,127.1,0,0,0-12.17-4.81,128.46,128.46,0,0,0-12.59-3.52c-1.63-.36-3-.63-3.88-.78A8.93,8.93,0,0,0,56.61,308.86Z"/><path class="cls-17" d="M79.64,397.67c0,.13,6.79.24,15.16.24s15.16-.11,15.16-.24-6.79-.23-15.16-.23S79.64,397.55,79.64,397.67Z"/><path class="cls-17" d="M78.79,395.1c0,.12,7.19.23,16.06.23s16.07-.11,16.07-.23-7.2-.24-16.07-.24S78.79,395,78.79,395.1Z"/></g></g></svg>