<svg xmlns="http://www.w3.org/2000/svg" width="564.652" height="374.315" viewBox="0 0 564.652 374.315">
  <g id="Group_1327" data-name="Group 1327" transform="translate(-1105.847 -369)">
    <path id="Icon_material-close" data-name="Icon material-close" d="M22.061,8.966,20.594,7.5,14.78,13.314,8.966,7.5,7.5,8.966l5.814,5.814L7.5,20.594l1.466,1.466,5.814-5.814,5.814,5.814,1.466-1.466L16.247,14.78Z" transform="translate(1529.847 388.801)" fill="#fff"/>
    <path id="Path_8036" data-name="Path 8036" d="M528.588,246.372a3.847,3.847,0,1,1-3.846-3.848A3.851,3.851,0,0,1,528.588,246.372Zm-1.907,0a1.941,1.941,0,1,0-1.939,1.941A1.942,1.942,0,0,0,526.682,246.372Z" transform="translate(1012.784 308.913)" fill="#7faeff"/>
    <path id="Path_8037" data-name="Path 8037" d="M593.391,105.148H571.6a.953.953,0,0,0,0,1.906h21.789a.953.953,0,1,0,0-1.906Z" transform="translate(1012.652 309.279)" fill="#7faeff"/>
    <path id="Path_8038" data-name="Path 8038" d="M564.638,105.144h-4.257a.953.953,0,0,0,0,1.907h4.257a.953.953,0,0,0,0-1.907Z" transform="translate(1012.682 309.279)" fill="#7faeff"/>
    <path id="Path_8039" data-name="Path 8039" d="M583.125,112.757a.953.953,0,0,1-.953.953h-2.726a.953.953,0,0,1,0-1.907h2.726A.953.953,0,0,1,583.125,112.757Zm-7.491,0a.953.953,0,0,1-.953.953h-4.766a.953.953,0,0,1,0-1.907h4.766A.953.953,0,0,1,575.634,112.757Zm-9.533,0a.953.953,0,0,1-.952.953h-4.766a.953.953,0,0,1,0-1.907h4.766A.953.953,0,0,1,566.1,112.757Z" transform="translate(1012.682 309.261)" fill="#7faeff"/>
    <path id="Path_8040" data-name="Path 8040" d="M239,169.04a.953.953,0,0,0-.953.953V172.2a.953.953,0,0,0,1.907,0v-2.211A.953.953,0,0,0,239,169.04Z" transform="translate(1013.538 309.108)" fill="#7faeff"/>
    <path id="Path_8041" data-name="Path 8041" d="M236.492,166.816h-2.212a.953.953,0,0,0,0,1.907h2.212a.953.953,0,0,0,0-1.907Z" transform="translate(1013.55 309.114)" fill="#7faeff"/>
    <path id="Path_8042" data-name="Path 8042" d="M239,162.224a.953.953,0,0,0-.953.952v2.21a.953.953,0,0,0,1.907,0v-2.21A.953.953,0,0,0,239,162.224Z" transform="translate(1013.538 309.127)" fill="#7faeff"/>
    <path id="Path_8043" data-name="Path 8043" d="M243.712,166.664H241.5a.953.953,0,0,0,0,1.906h2.212a.953.953,0,0,0,0-1.906Z" transform="translate(1013.531 309.115)" fill="#7faeff"/>
    <path id="Path_8044" data-name="Path 8044" d="M479.4,107.076a.953.953,0,0,0-.953.953v2.21a.953.953,0,1,0,1.907,0v-2.21A.953.953,0,0,0,479.4,107.076Z" transform="translate(1012.898 309.273)" fill="#7faeff"/>
    <path id="Path_8045" data-name="Path 8045" d="M476.892,104.852H474.68a.953.953,0,0,0,0,1.906h2.212a.953.953,0,0,0,0-1.906Z" transform="translate(1012.91 309.279)" fill="#7faeff"/>
    <path id="Path_8046" data-name="Path 8046" d="M479.4,100.259a.953.953,0,0,0-.953.953v2.21a.953.953,0,0,0,1.907,0v-2.21A.953.953,0,0,0,479.4,100.259Z" transform="translate(1012.898 309.292)" fill="#7faeff"/>
    <path id="Path_8047" data-name="Path 8047" d="M484.112,104.7H481.9a.953.953,0,0,0,0,1.906h2.212a.953.953,0,0,0,0-1.906Z" transform="translate(1012.891 309.28)" fill="#7faeff"/>
    <path id="Path_8048" data-name="Path 8048" d="M390.235,59.6H368.446a.953.953,0,0,0,0,1.906h21.789a.953.953,0,1,0,0-1.906Z" transform="translate(1013.193 309.4)" fill="#7faeff"/>
    <path id="Path_8049" data-name="Path 8049" d="M361.482,59.6h-4.258a.953.953,0,0,0,0,1.906h4.258a.953.953,0,1,0,0-1.906Z" transform="translate(1013.223 309.4)" fill="#7faeff"/>
    <path id="Path_8050" data-name="Path 8050" d="M379.969,67.213a.953.953,0,0,1-.953.952h-2.726a.953.953,0,0,1,0-1.906h2.726A.953.953,0,0,1,379.969,67.213Zm-7.491,0a.953.953,0,0,1-.953.952h-4.766a.953.953,0,0,1,0-1.906h4.766A.953.953,0,0,1,372.478,67.213Zm-9.533,0a.952.952,0,0,1-.952.952h-4.766a.953.953,0,1,1,0-1.906h4.766A.953.953,0,0,1,362.945,67.213Z" transform="translate(1013.223 309.382)" fill="#7faeff"/>
    <path id="Path_8051" data-name="Path 8051" d="M625.128,159.725a3.366,3.366,0,1,0,3.366-3.366A3.365,3.365,0,0,0,625.128,159.725Z" transform="translate(1012.507 309.142)" fill="#7faeff"/>
    <path id="Path_8052" data-name="Path 8052" d="M182.7,325.088h21.789a.953.953,0,0,0,0-1.906H182.7a.953.953,0,1,0,0,1.906Z" transform="translate(1013.688 308.698)" fill="#7faeff"/>
    <path id="Path_8053" data-name="Path 8053" d="M171.477,325.092h4.258a.953.953,0,0,0,0-1.906h-4.258a.953.953,0,1,0,0,1.906Z" transform="translate(1013.718 308.698)" fill="#7faeff"/>
    <path id="Path_8054" data-name="Path 8054" d="M595.483,340.636s1.3,9.285-9.545,9.071c0,0,9.316.095,9.072,8.807,0,0,.838-6.854,9.387-8.385C604.4,350.13,597.172,351.786,595.483,340.636Z" transform="translate(1012.611 308.651)" fill="#7faeff"/>
    <path id="Path_8055" data-name="Path 8055" d="M647.4,209.323s1.3,9.285-9.544,9.071c0,0,9.316.095,9.071,8.807,0,0,.839-6.854,9.387-8.385C656.315,218.817,649.091,220.473,647.4,209.323Z" transform="translate(1012.473 309.001)" fill="#7faeff"/>
    <path id="Path_8056" data-name="Path 8056" d="M302.5,83.28s1.3,9.284-9.545,9.07c0,0,9.316.1,9.072,8.807,0,0,.838-6.853,9.387-8.385C311.411,92.773,304.186,94.43,302.5,83.28Z" transform="translate(1013.392 309.337)" fill="#7faeff"/>
    <path id="Path_8057" data-name="Path 8057" d="M208.883,108.99s1.3,9.285-9.543,9.071c0,0,9.316.1,9.071,8.807,0,0,.838-6.854,9.387-8.385C217.8,118.484,210.574,120.141,208.883,108.99Z" transform="translate(1013.641 309.268)" fill="#7faeff"/>
    <path id="Path_8058" data-name="Path 8058" d="M265.641,69.2s.453,3.235-3.327,3.162c0,0,3.248.033,3.161,3.071a3.686,3.686,0,0,1,3.272-2.924S266.229,73.086,265.641,69.2Z" transform="translate(1013.473 309.374)" fill="#7faeff"/>
    <path id="Path_8059" data-name="Path 8059" d="M435.932,181.07s.453,3.235-3.327,3.162c0,0,3.248.033,3.161,3.071a3.688,3.688,0,0,1,3.272-2.924S436.52,184.956,435.932,181.07Z" transform="translate(1013.02 309.076)" fill="#7faeff"/>
    <path id="Path_8060" data-name="Path 8060" d="M120.408,236.533s.453,3.235-3.326,3.162c0,0,3.247.033,3.161,3.071a3.685,3.685,0,0,1,3.272-2.923S121,240.419,120.408,236.533Z" transform="translate(1013.86 308.929)" fill="#7faeff"/>
    <path id="Path_8061" data-name="Path 8061" d="M403.554,324.013s.453,3.236-3.327,3.163c0,0,3.248.033,3.161,3.07a3.686,3.686,0,0,1,3.272-2.923S404.142,327.9,403.554,324.013Z" transform="translate(1013.106 308.696)" fill="#7faeff"/>
    <path id="Path_8062" data-name="Path 8062" d="M274.649,271.668H253.493a4.908,4.908,0,0,1-.158-9.814,7.6,7.6,0,0,1,13.959-4.019,5.509,5.509,0,0,1,6.118,4.016h1.238a4.908,4.908,0,0,1,0,9.817ZM253.493,263.3a3.456,3.456,0,1,0,0,6.911h21.156a3.456,3.456,0,1,0,0-6.911h-2.442l-.1-.612a4.059,4.059,0,0,0-5.008-3.343l-.535.128L266.3,259a6.143,6.143,0,0,0-11.512,2.987c0,.18.012.357.027.532l.068.789Z" transform="translate(1013.51 308.881)" fill="#7faeff"/>
    <path id="Path_8063" data-name="Path 8063" d="M653.089,92.143H631.932a4.909,4.909,0,0,1-.157-9.815,7.6,7.6,0,0,1,13.958-4.018,5.512,5.512,0,0,1,6.119,4.016h1.238a4.908,4.908,0,0,1,0,9.817Zm-21.157-8.365a3.456,3.456,0,0,0,0,6.912h21.157a3.456,3.456,0,1,0,0-6.912h-2.442l-.1-.612a4.062,4.062,0,0,0-5.008-3.343l-.534.128-.268-.48a6.144,6.144,0,0,0-11.513,2.988c0,.18.012.356.028.532l.067.788Z" transform="translate(1012.502 309.359)" fill="#7faeff"/>
    <path id="Path_8064" data-name="Path 8064" d="M324.623,146.3H303.466a4.908,4.908,0,0,1-.157-9.814,7.595,7.595,0,0,1,13.958-4.018,5.512,5.512,0,0,1,6.119,4.016h1.238a4.908,4.908,0,1,1,0,9.816Zm-21.157-8.364a3.456,3.456,0,1,0,0,6.912h21.157a3.456,3.456,0,1,0,0-6.912h-2.442l-.1-.612a4.062,4.062,0,0,0-5.008-3.343l-.535.128-.268-.48a6.144,6.144,0,0,0-11.513,2.987c0,.18.012.357.028.532l.067.789Z" transform="translate(1013.377 309.215)" fill="#7faeff"/>
    <path id="Path_8065" data-name="Path 8065" d="M391.037,418.073h0a17.1,17.1,0,0,1-21.108-11.8l-13.567-47.948a17.1,17.1,0,0,1,11.8-21.109h0a17.1,17.1,0,0,1,21.109,11.8l13.567,47.949A17.1,17.1,0,0,1,391.037,418.073Z" transform="translate(1013.224 308.662)" fill="#93c7ea"/>
    <path id="Path_8066" data-name="Path 8066" d="M371.7,417.713h0a17.1,17.1,0,0,1-.234-24.18l34.892-35.576a17.1,17.1,0,0,1,24.18-.234h0a17.1,17.1,0,0,1,.234,24.179l-34.892,35.576A17.1,17.1,0,0,1,371.7,417.713Z" transform="translate(1013.195 308.619)" fill="#93c7ea"/>
    <path id="Path_8067" data-name="Path 8067" d="M441.263,349.363a14.982,14.982,0,1,1-20.774-4.166A14.982,14.982,0,0,1,441.263,349.363Z" transform="translate(1013.07 308.646)" fill="#ff8383"/>
    <path id="Path_8068" data-name="Path 8068" d="M418.754,355.506h0A3.9,3.9,0,0,1,414,352.7l-1.328-5.155a3.9,3.9,0,0,1,2.806-4.754h0a3.9,3.9,0,0,1,4.755,2.806l1.327,5.155A3.9,3.9,0,0,1,418.754,355.506Z" transform="translate(1013.073 308.646)" fill="#ff8383"/>
    <path id="Path_8069" data-name="Path 8069" d="M433.8,337.727,428.5,351.166a4.052,4.052,0,0,1-5.258,2.281h0a4.054,4.054,0,0,1-2.281-5.259l5.309-13.439a4.052,4.052,0,0,1,5.258-2.28h0A4.052,4.052,0,0,1,433.8,337.727Z" transform="translate(1013.051 308.674)" fill="#ff8383"/>
    <path id="Path_8070" data-name="Path 8070" d="M443.181,340.55,436.77,353.5a4.051,4.051,0,0,1-5.43,1.834h0a4.052,4.052,0,0,1-1.834-5.43l6.41-12.949a4.054,4.054,0,0,1,5.43-1.834h0A4.053,4.053,0,0,1,443.181,340.55Z" transform="translate(1013.029 308.667)" fill="#ff8383"/>
    <path id="Path_8071" data-name="Path 8071" d="M450.155,347.778,441.2,359.12a4.054,4.054,0,0,1-5.693.67h0a4.053,4.053,0,0,1-.669-5.693l8.952-11.342a4.055,4.055,0,0,1,5.693-.67h0A4.054,4.054,0,0,1,450.155,347.778Z" transform="translate(1013.016 308.65)" fill="#ff8383"/>
    <path id="Rectangle_867" data-name="Rectangle 867" d="M0,0H19.976a0,0,0,0,1,0,0V30.9a7.1,7.1,0,0,1-7.1,7.1H7.1A7.1,7.1,0,0,1,0,30.9V0A0,0,0,0,1,0,0Z" transform="translate(1355.852 590.597) rotate(2.253)" fill="#ff8383"/>
    <path id="Path_8072" data-name="Path 8072" d="M362.552,281.485l-19.96-.785-.308,7.84c-.3,7.682,5.951,14.425,13.62,13.867a13.862,13.862,0,0,0,1.433-.18,14,14,0,0,0,4.464-1.633Z" transform="translate(1013.26 308.811)" fill="#d15e79"/>
    <ellipse id="Ellipse_103" data-name="Ellipse 103" cx="24.891" cy="19.172" rx="24.891" ry="19.172" transform="translate(1333.998 557.953) rotate(-15.799)" fill="#1b2a67"/>
    <ellipse id="Ellipse_104" data-name="Ellipse 104" cx="22.115" cy="14.396" rx="22.115" ry="14.396" transform="translate(1354.415 558.193) rotate(-9.641)" fill="#1b2a67"/>
    <ellipse id="Ellipse_105" data-name="Ellipse 105" cx="22.115" cy="14.396" rx="22.115" ry="14.396" transform="matrix(0.734, -0.679, 0.679, 0.734, 1340.324, 565.249)" fill="#1b2a67"/>
    <path id="Path_8073" data-name="Path 8073" d="M374.107,276.455c1.965,11.011-3.8,21.25-12.87,22.869h0c-9.071,1.619-18.018-6-19.983-17.006l-1.546-8.666c-1.965-11.011,3.8-21.25,12.866-22.869h0c9.073-1.619,18.022,6,19.987,17.007Z" transform="translate(1013.268 308.891)" fill="#ff8383"/>
    <path id="Path_8074" data-name="Path 8074" d="M354.706,249.467c-5.018-4.541-13.75-2.345-19.5,4.906s-6.352,16.81-1.334,21.352,13.749,2.346,19.5-4.906S359.723,254.009,354.706,249.467Z" transform="translate(1013.291 308.9)" fill="#1b2a67"/>
    <path id="Path_8075" data-name="Path 8075" d="M358.087,274.064a.909.909,0,0,1-.523-1.657,5.905,5.905,0,0,1,6.083-.259.913.913,0,0,1-.919,1.578,4.049,4.049,0,0,0-4.127.181A.911.911,0,0,1,358.087,274.064Z" transform="translate(1013.22 308.836)" fill="#86294e"/>
    <path id="Path_8076" data-name="Path 8076" d="M373.854,274.067a.9.9,0,0,1-.516-.161h0a4.048,4.048,0,0,0-4.127-.181.913.913,0,0,1-.919-1.578,5.871,5.871,0,0,1,6.083.259.911.911,0,0,1-.522,1.66Z" transform="translate(1013.192 308.836)" fill="#86294e"/>
    <path id="Path_8077" data-name="Path 8077" d="M362.211,276.529a.952.952,0,1,1-.914-.987A.951.951,0,0,1,362.211,276.529Z" transform="translate(1013.212 308.825)" fill="#86294e"/>
    <path id="Path_8078" data-name="Path 8078" d="M371.363,276.889a.952.952,0,1,1-.914-.987A.952.952,0,0,1,371.363,276.889Z" transform="translate(1013.188 308.824)" fill="#86294e"/>
    <path id="Path_8079" data-name="Path 8079" d="M373.573,283.491c-.1,0-.2,0-.3-.007a7.413,7.413,0,1,1,.3.007Zm-.016-13.706a6.221,6.221,0,0,0-.238,12.437,6.313,6.313,0,0,0,4.468-1.649,6.219,6.219,0,0,0-3.976-10.783C373.725,269.787,373.641,269.785,373.557,269.785Z" transform="translate(1013.196 308.843)" fill="#ffd2d4"/>
    <path id="Path_8080" data-name="Path 8080" d="M357.446,283.775c-.113,0-.226,0-.339-.008a8.405,8.405,0,0,1-5.376-14.57,8.407,8.407,0,0,1,11.877.466,8.407,8.407,0,0,1-6.163,14.112Zm-.018-15.389a6.982,6.982,0,0,0-6.97,6.709h0a6.992,6.992,0,0,0,6.705,7.252,6.983,6.983,0,1,0,.549-13.956C357.617,268.386,357.523,268.386,357.429,268.386Z" transform="translate(1013.242 308.848)" fill="#ffd2d4"/>
    <path id="Path_8081" data-name="Path 8081" d="M364.431,276.7l3.092.122a.65.65,0,0,0,.676-.625h0a.65.65,0,0,0-.624-.676l-3.092-.122a.651.651,0,0,0-.677.625h0A.652.652,0,0,0,364.431,276.7Z" transform="translate(1013.203 308.825)" fill="#ffd2d4"/>
    <path id="Path_8082" data-name="Path 8082" d="M370.627,281.1c-.088,1.086-1.349,2.076-2.817,2.211s-2.586-.636-2.5-1.722,1.349-2.076,2.818-2.212S370.715,280.01,370.627,281.1Z" transform="translate(1013.199 308.815)" fill="#86294e"/>
    <path id="Path_8083" data-name="Path 8083" d="M369.992,286.957a4.769,4.769,0,0,1-5.123,4.369c-2.731-.108-4.306-2.811-4.208-5.333A23.647,23.647,0,0,1,369.992,286.957Z" transform="translate(1013.211 308.797)" fill="#86294e"/>
    <path id="Path_8084" data-name="Path 8084" d="M365.266,288.535c-2.159-.25-3.49-.99-3.617-2.613a23.519,23.519,0,0,1,7.876.876C369.157,288.259,367.382,288.779,365.266,288.535Z" transform="translate(1013.208 308.797)" fill="#ffd2d4"/>
    <path id="Path_8085" data-name="Path 8085" d="M358.838,292.334h0l-5.367-.005a8.713,8.713,0,0,1-5.851-2.252l-3.358-3.031a.651.651,0,0,1,.873-.966l3.358,3.031a7.416,7.416,0,0,0,4.979,1.916l5.367.005a.651.651,0,0,1,0,1.3Z" transform="translate(1013.256 308.797)" fill="#201028"/>
    <path id="Path_8086" data-name="Path 8086" d="M358.869,293h0l-2.175,0a1.3,1.3,0,0,1,0-2.606h0l2.175,0a1.3,1.3,0,0,1,0,2.605Z" transform="translate(1013.225 308.785)" fill="#ffd2d4"/>
    <circle id="Ellipse_106" data-name="Ellipse 106" cx="10.911" cy="10.911" r="10.911" transform="matrix(0.341, -0.94, 0.94, 0.341, 1340.641, 595.634)" fill="#445eea"/>
    <ellipse id="Ellipse_107" data-name="Ellipse 107" cx="9.314" cy="8.516" rx="9.314" ry="8.516" transform="matrix(0.039, -0.999, 0.999, 0.039, 1344.145, 598)" fill="#7faeff"/>
    <path id="Path_8087" data-name="Path 8087" d="M341.07,280.258c-.082,2.082-1.458,3.719-3.074,3.655s-2.858-1.8-2.777-3.886,1.458-3.719,3.074-3.655S341.152,278.175,341.07,280.258Z" transform="translate(1013.279 308.822)" fill="#e0eef7"/>
    <path id="Path_8088" data-name="Path 8088" d="M367.6,432.673l-52.191,1.47a15.766,15.766,0,0,1-15.135-16.373l3.3-87.34a10.854,10.854,0,0,1,7.553-9.917l38.908-12.389,31.1,14.906a10.853,10.853,0,0,1,6.155,10.215l-3.315,84.293A15.766,15.766,0,0,1,367.6,432.673Z" transform="translate(1013.372 308.738)" fill="#93c7ea"/>
    <path id="Path_8089" data-name="Path 8089" d="M387.471,333.313c.18,9.108.075,18.2-.075,27.3-.12,9.095-.444,18.182-.768,27.27-.387,9.085-.779,18.169-1.371,27.245a24.267,24.267,0,0,1-1.079,6.95,15.823,15.823,0,0,1-16.4,10.664,15.828,15.828,0,0,0,11.736-5.507,14.806,14.806,0,0,0,3.094-5.661,22.583,22.583,0,0,0,.642-6.525c.121-9.095.444-18.182.772-27.27.39-9.084.781-18.168,1.376-27.246C385.968,351.454,386.578,342.379,387.471,333.313Z" transform="translate(1013.192 308.671)" fill="#6eacce"/>
    <path id="Rectangle_868" data-name="Rectangle 868" d="M3.786,0H24.44a3.787,3.787,0,0,1,3.787,3.787V20.554a0,0,0,0,1,0,0H0a0,0,0,0,1,0,0V3.786A3.786,3.786,0,0,1,3.786,0Z" transform="translate(1350.847 611.057) rotate(3.691)" fill="#93c7ea"/>
    <path id="Path_8090" data-name="Path 8090" d="M280.322,407.125h0a17.1,17.1,0,0,1-9.232-22.348l19.112-46.02a17.1,17.1,0,0,1,22.349-9.232h0a17.1,17.1,0,0,1,9.233,22.348l-19.113,46.02A17.1,17.1,0,0,1,280.322,407.125Z" transform="translate(1013.453 308.684)" fill="#93c7ea"/>
    <path id="Path_8091" data-name="Path 8091" d="M312.639,329.528a16.806,16.806,0,0,1,7.9,5.548,17.663,17.663,0,0,1,3.594,9.235c.452,3.347-.624,6.915-1.855,9.8l-3.609,8.88c-2.478,5.89-4.961,11.778-7.63,17.588l-4.012,8.714c-1.425,2.867-2.768,5.77-4.267,8.606.952-3.063,2.061-6.063,3.087-9.1l3.341-8.992c2.232-5.993,4.652-11.907,7.075-17.819L320,353.163a24.936,24.936,0,0,0,1.619-4.294,16.6,16.6,0,0,0,.517-4.445A17.369,17.369,0,0,0,312.639,329.528Z" transform="translate(1013.365 308.681)" fill="#6eacce"/>
    <path id="Path_8092" data-name="Path 8092" d="M360.107,383.11l-8.707-.561a5.938,5.938,0,0,1-5.537-6.3l.253-3.926a5.938,5.938,0,0,1,6.3-5.536l8.707.561Zm-7.942-12.425a2.026,2.026,0,0,0-2.148,1.889l-.253,3.926a2.025,2.025,0,0,0,1.888,2.148l4.807.31.514-7.963Z" transform="translate(1013.25 308.582)" fill="#86294e"/>
    <path id="Path_8093" data-name="Path 8093" d="M368.594,395.617l-7.531-.486a8.3,8.3,0,0,1-7.746-8.814l1.562-24.209c.174-2.7,24.265-1.147,24.091,1.554l-1.561,24.209A8.3,8.3,0,0,1,368.594,395.617Z" transform="translate(1013.23 308.598)" fill="#d15e79"/>
    <path id="Path_8094" data-name="Path 8094" d="M376.579,364.319c-.063.973-4.536,1.476-9.99,1.124s-9.825-1.425-9.763-2.4,4.536-1.476,9.99-1.124S376.642,363.347,376.579,364.319Z" transform="translate(1013.221 308.595)" fill="#86294e"/>
    <path id="Path_8095" data-name="Path 8095" d="M270.85,391.877h0a17.1,17.1,0,0,1,17.367-16.826l49.824.786A17.1,17.1,0,0,1,354.868,393.2h0A17.1,17.1,0,0,1,337.5,410.029l-49.824-.787A17.1,17.1,0,0,1,270.85,391.877Z" transform="translate(1013.451 308.56)" fill="#93c7ea"/>
    <path id="Path_8096" data-name="Path 8096" d="M288.263,375.048c6.4-.437,12.791-.588,19.184-.7,6.393-.138,12.783-.07,19.173,0l9.583.219c3.131.022,6.836.45,9.726,2.2a17.7,17.7,0,0,1,7.043,6.976,16.82,16.82,0,0,1,1.942,9.458,17.375,17.375,0,0,0-9.885-14.644,16.8,16.8,0,0,0-4.282-1.3,25.065,25.065,0,0,0-4.584-.223l-9.585-.083c-6.389-.134-12.778-.268-19.164-.607C301.029,376.038,294.644,375.686,288.263,375.048Z" transform="translate(1013.404 308.562)" fill="#6eacce"/>
    <circle id="Ellipse_108" data-name="Ellipse 108" cx="14.982" cy="14.982" r="14.982" transform="translate(1349.5 699.987) rotate(-50.316)" fill="#ff8383"/>
    <path id="Path_8097" data-name="Path 8097" d="M349.6,382.274h0a3.582,3.582,0,0,1-2.214-4.557l1.6-4.617a3.583,3.583,0,0,1,4.558-2.214h0a3.582,3.582,0,0,1,2.214,4.557l-1.6,4.617A3.582,3.582,0,0,1,349.6,382.274Z" transform="translate(1013.247 308.571)" fill="#ff8383"/>
    <path id="Path_8098" data-name="Path 8098" d="M378.326,384.25l-13.3,1.238a3.746,3.746,0,0,1-4.076-3.382h0a3.746,3.746,0,0,1,3.383-4.077l13.3-1.237a3.745,3.745,0,0,1,4.076,3.382h0A3.745,3.745,0,0,1,378.326,384.25Z" transform="translate(1013.21 308.555)" fill="#ff8383"/>
    <path id="Path_8099" data-name="Path 8099" d="M375.5,396.507l-13.326-.86a3.744,3.744,0,0,1-3.5-3.978h0a3.745,3.745,0,0,1,3.978-3.5l13.325.86a3.744,3.744,0,0,1,3.5,3.978h0A3.745,3.745,0,0,1,375.5,396.507Z" transform="translate(1013.216 308.525)" fill="#ff8383"/>
    <path id="Path_8100" data-name="Path 8100" d="M511.413,350.929a1.563,1.563,0,0,1-1.105-2.667l14.918-14.921a1.562,1.562,0,1,1,2.209,2.209l-14.918,14.92A1.551,1.551,0,0,1,511.413,350.929Z" transform="translate(1012.814 308.672)" fill="#1a6eff"/>
    <path id="Path_8101" data-name="Path 8101" d="M500.761,341.732a1.562,1.562,0,0,1-1.562-1.562v-21.1a1.562,1.562,0,1,1,3.125,0v21.1A1.563,1.563,0,0,1,500.761,341.732Z" transform="translate(1012.842 308.713)" fill="#1a6eff"/>
    <path id="Path_8102" data-name="Path 8102" d="M541.69,361.62h-21.1a1.562,1.562,0,1,1,0-3.125h21.1a1.562,1.562,0,1,1,0,3.125Z" transform="translate(1012.789 308.604)" fill="#1a6eff"/>
    <path id="Path_8103" data-name="Path 8103" d="M353.832,427.415h129.1c3.6,0,4.71-2.917,4.71-6.52H347.31A6.52,6.52,0,0,0,353.832,427.415Z" transform="translate(1013.247 308.438)" fill="#6eacce"/>
    <path id="Path_8104" data-name="Path 8104" d="M346.333,420.895h45.76c0,3.6-3.315,6.52-7.405,6.52H354.7c-.041,0-8.519,0-8.56,0C341.92,427.354,342.115,420.895,346.333,420.895Z" transform="translate(1013.258 308.438)" fill="#6eacce"/>
    <path id="Path_8105" data-name="Path 8105" d="M395.072,422.623h92.677a5.73,5.73,0,0,0,5.628-4.662l12.492-53.6a5.73,5.73,0,0,0-5.63-6.8H407.564a5.731,5.731,0,0,0-5.632,4.663l-12.49,53.6A5.732,5.732,0,0,0,395.072,422.623Z" transform="translate(1013.135 308.606)" fill="#e0eef7"/>
    <path id="Path_8106" data-name="Path 8106" d="M401.932,362.225a5.72,5.72,0,0,1,2.285-3.581,5.709,5.709,0,0,1,2.287,5.72l-12.489,53.6a5.718,5.718,0,0,1-2.283,3.577,5.717,5.717,0,0,1-2.29-5.718Z" transform="translate(1013.135 308.603)" fill="#6eacce"/>
    <path id="Path_8107" data-name="Path 8107" d="M460.353,397h-15.2a5.647,5.647,0,0,1-5.646-5.646h0a5.646,5.646,0,0,1,5.646-5.645h15.2A5.646,5.646,0,0,1,466,391.359h0A5.647,5.647,0,0,1,460.353,397Z" transform="translate(1013.001 308.531)" fill="#fff"/>
    <path id="Path_8108" data-name="Path 8108" d="M360.178,422.688h-4.56a1.629,1.629,0,0,1-1.629-1.629h0a1.629,1.629,0,0,1,1.629-1.629h4.56a1.628,1.628,0,0,1,1.629,1.629h0A1.628,1.628,0,0,1,360.178,422.688Z" transform="translate(1013.229 308.441)" fill="#6eacce"/>
    <path id="Path_8109" data-name="Path 8109" d="M369.1,422.688h-4.56a1.628,1.628,0,0,1-1.629-1.629h0a1.628,1.628,0,0,1,1.629-1.629h4.56a1.628,1.628,0,0,1,1.629,1.629h0A1.628,1.628,0,0,1,369.1,422.688Z" transform="translate(1013.205 308.441)" fill="#6eacce"/>
    <path id="Path_8110" data-name="Path 8110" d="M378.03,422.688h-4.56a1.628,1.628,0,0,1-1.629-1.629h0a1.628,1.628,0,0,1,1.629-1.629h4.56a1.628,1.628,0,0,1,1.629,1.629h0A1.628,1.628,0,0,1,378.03,422.688Z" transform="translate(1013.182 308.441)" fill="#6eacce"/>
    <path id="Path_8111" data-name="Path 8111" d="M386.956,422.688H382.4a1.628,1.628,0,0,1-1.629-1.629h0a1.628,1.628,0,0,1,1.629-1.629h4.56a1.628,1.628,0,0,1,1.629,1.629h0A1.628,1.628,0,0,1,386.956,422.688Z" transform="translate(1013.158 308.441)" fill="#6eacce"/>
    <path id="Path_8112" data-name="Path 8112" d="M556.237,434.894H166.278a3.908,3.908,0,0,1-3.909-3.908h0a3.908,3.908,0,0,1,3.909-3.909H556.237a3.908,3.908,0,0,1,3.908,3.909h0A3.907,3.907,0,0,1,556.237,434.894Z" transform="translate(1013.739 308.421)" fill="#1b2a67"/>
    <path id="Path_8113" data-name="Path 8113" d="M224.794,402.912s-2.87-21.563-8.066-26.864" transform="translate(1013.594 308.557)" fill="none" stroke="#1b2a67" stroke-linecap="round" stroke-miterlimit="10" stroke-width="0.827"/>
    <path id="Path_8114" data-name="Path 8114" d="M217.553,363.177c1.388,4.6,1.1,8.747-.634,9.272s-4.273-2.775-5.661-7.37c-.014-.046-.028-.092-.041-.138-1.176-4.094,5.006-5.962,6.293-1.9C217.525,363.085,217.539,363.131,217.553,363.177Z" transform="translate(1013.609 308.598)" fill="#ffd2d4"/>
    <path id="Path_8115" data-name="Path 8115" d="M225.813,373.464c-4.6,1.388-8.747,1.1-9.272-.634s2.775-4.273,7.37-5.661l.138-.041c4.094-1.177,5.962,5.006,1.9,6.293Z" transform="translate(1013.595 308.581)" fill="#ffd2d4"/>
    <path id="Path_8116" data-name="Path 8116" d="M210.063,378.224c4.595-1.388,7.895-3.924,7.369-5.661s-4.677-2.023-9.272-.634l-.137.043c-4.06,1.288-2.193,7.469,1.9,6.293Z" transform="translate(1013.624 308.57)" fill="#ffd2d4"/>
    <path id="Path_8117" data-name="Path 8117" d="M217.814,383.456c1.292-4.624.922-8.768-.828-9.256s-4.214,2.862-5.506,7.486c-.012.047-.025.093-.037.139-1.091,4.118,5.129,5.856,6.331,1.769C217.788,383.548,217.8,383.5,217.814,383.456Z" transform="translate(1013.609 308.562)" fill="#ffd2d4"/>
    <path id="Path_8118" data-name="Path 8118" d="M222.266,382.114c-3.636-3.135-5.622-6.791-4.436-8.166s5.094.051,8.731,3.185l.108.095c3.188,2.825-1.029,7.716-4.293,4.979C222.339,382.177,222.3,382.145,222.266,382.114Z" transform="translate(1013.593 308.564)" fill="#ffd2d4"/>
    <path id="Path_8119" data-name="Path 8119" d="M219.094,373.08a2.247,2.247,0,1,1-2.8-1.5A2.247,2.247,0,0,1,219.094,373.08Z" transform="translate(1013.6 308.569)" fill="#d15e79"/>
    <path id="Path_8120" data-name="Path 8120" d="M216.282,389.074c5.97,4.7,9.368,10.347,7.588,12.606s-8.061.276-14.032-4.428-7.589-12.606-7.589-12.606S210.31,384.371,216.282,389.074Z" transform="translate(1013.633 308.534)" fill="#1a6eff"/>
    <path id="Path_8121" data-name="Path 8121" d="M237.3,396.185c-6.3,5.919-13.226,8.785-15.465,6.4s1.055-9.114,7.357-15.033,15.465-6.4,15.465-6.4S243.6,390.267,237.3,396.185Z" transform="translate(1013.583 308.543)" fill="#1a6eff"/>
    <path id="Path_8122" data-name="Path 8122" d="M232.633,428.315H212.013L208.4,402.373h27.839Z" transform="translate(1013.617 308.487)" fill="#1b2a67"/>
    <rect id="Rectangle_869" data-name="Rectangle 869" width="32.926" height="9.645" rx="1.469" transform="translate(1219.477 707.867)" fill="#1b2a67"/>
    <path id="Path_8123" data-name="Path 8123" d="M285.44,207.881l10.226,10.967,77.943-32.511Z" transform="translate(1013.411 309.062)" fill="#1a6eff"/>
    <path id="Path_8124" data-name="Path 8124" d="M289.02,171.655l-7.7,11.614,5.2,11.381-11.676,1.986-10.318,22.653,111.522-33.748Z" transform="translate(1013.467 309.102)" fill="#7faeff"/>
    <path id="Path_8125" data-name="Path 8125" d="M286.572,194.681l-5.2-11.381,60.407,2.825Z" transform="translate(1013.422 309.071)" fill="#1a6eff"/>
    <path id="Path_8126" data-name="Path 8126" d="M280.433,307.317q-1.287,0-2.575-.016a1.561,1.561,0,0,1-1.545-1.58,1.528,1.528,0,0,1,1.581-1.545c4.047.046,8.065-.017,12.475-.2h.067a1.563,1.563,0,0,1,.066,3.125C286.969,307.245,283.674,307.317,280.433,307.317Zm-15.1-.616a1.272,1.272,0,0,1-.138,0c-4.3-.369-8.541-.921-12.589-1.641a1.563,1.563,0,0,1-1.265-1.814,1.588,1.588,0,0,1,1.814-1.265c3.953.7,8.1,1.244,12.31,1.6a1.563,1.563,0,0,1-.133,3.12Zm-24.668-4.511a1.506,1.506,0,0,1-.459-.072,90.388,90.388,0,0,1-11.915-4.58,1.563,1.563,0,1,1,1.328-2.829,87.834,87.834,0,0,0,11.5,4.422,1.564,1.564,0,0,1-.458,3.059Zm-22.641-10.663a1.558,1.558,0,0,1-.866-.262,82.884,82.884,0,0,1-10.058-7.9,1.563,1.563,0,1,1,2.117-2.3,79.834,79.834,0,0,0,9.676,7.6,1.563,1.563,0,0,1-.87,2.863ZM199.6,274.6a1.567,1.567,0,0,1-1.225-.587,83.4,83.4,0,0,1-7.175-10.593,1.564,1.564,0,1,1,2.718-1.547,80.15,80.15,0,0,0,6.906,10.19A1.562,1.562,0,0,1,199.6,274.6Zm-12.382-21.745a1.566,1.566,0,0,1-1.463-1.012,76.729,76.729,0,0,1-3.514-12.32,1.564,1.564,0,1,1,3.069-.6,73.569,73.569,0,0,0,3.371,11.816,1.566,1.566,0,0,1-1.463,2.117Zm-4.987-24.529a1.564,1.564,0,0,1-1.558-1.463c-.163-2.554-.243-5.244-.243-7.99v-.633q.007-2.038.073-4.084a1.563,1.563,0,0,1,1.563-1.511h.051a1.563,1.563,0,0,1,1.511,1.613q-.064,2-.074,3.987v.628c0,2.682.082,5.3.239,7.791a1.56,1.56,0,0,1-1.46,1.66C182.3,228.324,182.267,228.324,182.232,228.324Z" transform="translate(1013.691 308.992)" fill="#1a6eff"/>
    <path id="Path_8127" data-name="Path 8127" d="M195.14,203.268q-3.58,0-7.045-.087a1.563,1.563,0,0,1,.041-3.125h.041q6.053.153,12.488.033a1.479,1.479,0,0,1,1.593,1.532,1.559,1.559,0,0,1-1.532,1.593Q197.9,203.268,195.14,203.268Zm18.1-.525a1.562,1.562,0,0,1-.084-3.122c4.042-.229,8.241-.532,12.48-.906a1.563,1.563,0,1,1,.275,3.114c-4.273.377-8.5.685-12.582.912C213.306,202.744,213.275,202.744,213.245,202.744Zm-37.65-.2c-.041,0-.082,0-.125,0-4.351-.339-8.585-.8-12.585-1.374a1.562,1.562,0,0,1-1.325-1.768,1.587,1.587,0,0,1,1.768-1.325c3.933.563,8.1,1.017,12.387,1.348a1.563,1.563,0,0,1-.12,3.122Zm62.675-2a1.563,1.563,0,0,1-.178-3.115q6.09-.714,12.417-1.614a1.563,1.563,0,0,1,.443,3.095q-6.37.908-12.5,1.623A1.415,1.415,0,0,1,238.269,200.549Zm-87.521-1.6a1.616,1.616,0,0,1-.344-.038c-3.022-.679-5.969-1.442-8.755-2.272q-1.779-.531-3.5-1.1a1.563,1.563,0,0,1,.981-2.967q1.676.554,3.408,1.071c2.72.81,5.6,1.555,8.546,2.217a1.564,1.564,0,0,1-.338,3.091ZM127,190.915a1.556,1.556,0,0,1-.682-.159,76.053,76.053,0,0,1-11.036-6.5,1.563,1.563,0,1,1,1.817-2.544,73.181,73.181,0,0,0,10.582,6.234,1.565,1.565,0,0,1-.681,2.972Zm53.815-1.4a1.563,1.563,0,0,1-1.563-1.563V187.4c0-3.941-.158-7.946-.471-11.905a1.565,1.565,0,0,1,3.12-.244c.315,4.038.476,8.127.476,12.15v.555A1.563,1.563,0,0,1,180.819,189.518Zm-74.026-13.257a1.56,1.56,0,0,1-1.155-.509,54.4,54.4,0,0,1-7.514-10.481,1.564,1.564,0,0,1,2.743-1.506,51.2,51.2,0,0,0,7.081,9.88,1.562,1.562,0,0,1-1.155,2.616Zm72.014-11.811a1.564,1.564,0,0,1-1.54-1.3,106.5,106.5,0,0,0-2.761-12.081,1.562,1.562,0,1,1,3-.881,109.826,109.826,0,0,1,2.847,12.432,1.568,1.568,0,0,1-1.278,1.807A1.621,1.621,0,0,1,178.806,164.45Zm-84-9.987a1.562,1.562,0,0,1-1.506-1.147q-.29-1.053-.545-2.124a30.273,30.273,0,0,1-.835-6.929,26.634,26.634,0,0,1,.3-4.009,1.562,1.562,0,0,1,3.089.468,23.7,23.7,0,0,0-.264,3.542,27.145,27.145,0,0,0,.753,6.209c.161.676.331,1.348.515,2.01a1.561,1.561,0,0,1-1.089,1.924A1.6,1.6,0,0,1,94.805,154.463Zm76.754-14.02a1.565,1.565,0,0,1-1.41-.888,52.955,52.955,0,0,0-6.415-10.346,1.564,1.564,0,0,1,2.439-1.959,56.345,56.345,0,0,1,6.8,10.951,1.567,1.567,0,0,1-1.409,2.242Zm-72.873-9.8a1.547,1.547,0,0,1-.946-.318,1.564,1.564,0,0,1-.3-2.19,35.428,35.428,0,0,1,9.789-8.649,1.564,1.564,0,1,1,1.634,2.667,32.307,32.307,0,0,0-8.934,7.875A1.558,1.558,0,0,1,98.686,130.644Zm57.062-9.3a1.553,1.553,0,0,1-.855-.254,35.323,35.323,0,0,0-10.957-4.742,1.564,1.564,0,1,1,.748-3.038,38.5,38.5,0,0,1,11.923,5.165,1.562,1.562,0,0,1-.86,2.869Zm-36.217-3.984a1.564,1.564,0,0,1-.443-3.064,58.994,58.994,0,0,1,12.289-2.221l.471-.015a1.665,1.665,0,0,1,1.593,1.532,1.561,1.561,0,0,1-1.532,1.593l-.34.013a55.641,55.641,0,0,0-11.6,2.1A1.6,1.6,0,0,1,119.53,117.365Z" transform="translate(1013.927 309.26)" fill="#1a6eff"/>
    <path id="Path_8128" data-name="Path 8128" d="M496.7,128.051h83.561a18.913,18.913,0,0,1,18.913,18.913v43.1a18.912,18.912,0,0,1-18.913,18.912H525.62l-19.654,17.342V208.976H496.7a18.913,18.913,0,0,1-18.913-18.912v-43.1A18.914,18.914,0,0,1,496.7,128.051Z" transform="translate(1012.899 309.218)" fill="#1a6eff"/>
    <path id="Path_8129" data-name="Path 8129" d="M508.934,154.783h59.249a2.371,2.371,0,0,0,0-4.742H508.934a2.371,2.371,0,0,0,0,4.742Z" transform="translate(1012.823 309.159)" fill="#7faeff"/>
    <path id="Path_8130" data-name="Path 8130" d="M508.934,170.624h59.249a2.371,2.371,0,1,0,0-4.741H508.934a2.371,2.371,0,0,0,0,4.741Z" transform="translate(1012.823 309.117)" fill="#7faeff"/>
    <path id="Path_8131" data-name="Path 8131" d="M559.629,186.466h8.689a2.371,2.371,0,0,0,0-4.742h-8.689a2.371,2.371,0,0,0,0,4.742Z" transform="translate(1012.688 309.075)" fill="#7faeff"/>
    <path id="Path_8132" data-name="Path 8132" d="M539.826,186.466h8.69a2.371,2.371,0,0,0,0-4.742h-8.69a2.371,2.371,0,0,0,0,4.742Z" transform="translate(1012.74 309.075)" fill="#7faeff"/>
    <path id="Path_8133" data-name="Path 8133" d="M508.934,186.466h19.75a2.371,2.371,0,0,0,0-4.742h-19.75a2.371,2.371,0,0,0,0,4.742Z" transform="translate(1012.823 309.075)" fill="#7faeff"/>
    <path id="Path_8134" data-name="Path 8134" d="M485.946,214.35H421.982a11.39,11.39,0,0,0-11.391,11.39v36.884a11.382,11.382,0,0,0,10.557,11.348l-13.19,21.613,34.76-21.57h43.227a11.39,11.39,0,0,0,11.39-11.391V225.74A11.39,11.39,0,0,0,485.946,214.35Z" transform="translate(1013.085 308.988)" fill="#7faeff"/>
    <circle id="Ellipse_109" data-name="Ellipse 109" cx="7.573" cy="7.573" r="7.573" transform="translate(1456.339 544.22) rotate(-45)" fill="#1a6eff" stroke="#445eea" stroke-linecap="round" stroke-linejoin="round" stroke-width="2.761"/>
    <path id="Path_8135" data-name="Path 8135" d="M471.938,260.8h-35.8a11.473,11.473,0,0,1,11.473-11.473h12.851A11.474,11.474,0,0,1,471.938,260.8Z" transform="translate(1013.01 308.895)" fill="#1a6eff" stroke="#445eea" stroke-linecap="round" stroke-linejoin="round" stroke-width="2.761"/>
    <path id="Path_8136" data-name="Path 8136" d="M408.656,154.039a31.33,31.33,0,0,1-6.3-.641,1.565,1.565,0,0,1-1.217-1.847,1.588,1.588,0,0,1,1.847-1.217,28.291,28.291,0,0,0,9.815.272,1.565,1.565,0,0,1,.463,3.095A31.555,31.555,0,0,1,408.656,154.039Zm14.19-3.651a1.565,1.565,0,0,1-.76-2.934,27.755,27.755,0,0,0,7.616-6.193,1.562,1.562,0,1,1,2.366,2.042,30.975,30.975,0,0,1-8.465,6.89A1.566,1.566,0,0,1,422.847,150.388Zm-29.8-.84a1.549,1.549,0,0,1-.829-.239,30.989,30.989,0,0,1-8.071-7.348,1.564,1.564,0,1,1,2.478-1.908,27.911,27.911,0,0,0,7.257,6.61,1.562,1.562,0,0,1-.835,2.885Zm43.106-14.628a1.567,1.567,0,0,1-1.465-2.109,27.657,27.657,0,0,0,1.727-9.659,1.562,1.562,0,0,1,3.125,0,30.762,30.762,0,0,1-1.922,10.748A1.567,1.567,0,0,1,436.157,134.92Zm-55.528-1.552a1.564,1.564,0,0,1-1.494-1.105,30.955,30.955,0,0,1-1.365-9.109c0-.582.015-1.158.048-1.73a1.6,1.6,0,0,1,1.649-1.471,1.562,1.562,0,0,1,1.471,1.65c-.028.511-.043,1.03-.043,1.549a27.9,27.9,0,0,0,1.229,8.191,1.564,1.564,0,0,1-1.033,1.954A1.51,1.51,0,0,1,380.629,133.369Zm56.492-15.725a1.563,1.563,0,0,1-1.517-1.189,27.528,27.528,0,0,0-4.014-8.951,1.563,1.563,0,1,1,2.579-1.765,30.6,30.6,0,0,1,4.468,9.963,1.559,1.559,0,0,1-1.14,1.893A1.5,1.5,0,0,1,437.121,117.644Zm-55.352-4.652a1.567,1.567,0,0,1-1.432-2.19,30.67,30.67,0,0,1,6.071-9.074,1.562,1.562,0,1,1,2.249,2.167,27.647,27.647,0,0,0-5.455,8.158A1.561,1.561,0,0,1,381.769,112.992Zm43.841-12.205a1.546,1.546,0,0,1-.9-.288,27.505,27.505,0,0,0-8.874-4.172,1.564,1.564,0,1,1,.8-3.023,30.621,30.621,0,0,1,9.883,4.646,1.563,1.563,0,0,1-.909,2.837ZM395.921,98.3a1.564,1.564,0,0,1-.679-2.972A30.659,30.659,0,0,1,405.761,92.4a1.564,1.564,0,0,1,.29,3.115,27.6,27.6,0,0,0-9.451,2.623A1.542,1.542,0,0,1,395.921,98.3Z" transform="translate(1013.166 309.313)" fill="#1a6eff"/>
    <path id="Path_8137" data-name="Path 8137" d="M408.684,108.347c-11.318,0-20.491,6.064-20.491,13.547v.039c.008,1.953,1.549,3.292,2.99,2.677l5.379-2.3a3.23,3.23,0,0,0,1.34-4.024l-.661-1.8a81.167,81.167,0,0,0,22.811,0l-.667,2.315a3.263,3.263,0,0,0,1.245,3.711l5.32,2.9c1.294.706,2.8-.242,3.1-2.009a9.081,9.081,0,0,0,.127-1.513C429.177,114.411,420,108.347,408.684,108.347Z" transform="translate(1013.138 309.27)" fill="#1a6eff"/>
    <path id="Path_8138" data-name="Path 8138" d="M422.9,138.077h-28.4L398.7,124.89a5.964,5.964,0,0,1,5.681-4.15h8.623a5.966,5.966,0,0,1,5.682,4.15Z" transform="translate(1013.121 309.237)" fill="#7faeff"/>
    <path id="Path_8139" data-name="Path 8139" d="M592.2,315.084a31.092,31.092,0,0,1-6.31-.644,1.567,1.567,0,0,1-1.215-1.849,1.584,1.584,0,0,1,1.85-1.214,28.107,28.107,0,0,0,9.812.272,1.564,1.564,0,1,1,.463,3.094A31.789,31.789,0,0,1,592.2,315.084Zm14.187-3.649a1.564,1.564,0,0,1-.761-2.931,27.834,27.834,0,0,0,7.616-6.2,1.562,1.562,0,0,1,2.367,2.041,30.929,30.929,0,0,1-8.465,6.888A1.539,1.539,0,0,1,606.388,311.435Zm-29.792-.842a1.555,1.555,0,0,1-.83-.239,31,31,0,0,1-8.068-7.348,1.564,1.564,0,1,1,2.478-1.908,27.839,27.839,0,0,0,7.255,6.61,1.562,1.562,0,0,1-.835,2.885Zm43.1-14.626a1.588,1.588,0,0,1-.544-.1,1.565,1.565,0,0,1-.922-2.011,27.656,27.656,0,0,0,1.728-9.658,1.562,1.562,0,1,1,3.125,0,30.751,30.751,0,0,1-1.922,10.747A1.563,1.563,0,0,1,619.7,295.967Zm-55.531-1.557a1.563,1.563,0,0,1-1.493-1.1,30.893,30.893,0,0,1-1.364-9.107c0-.58.016-1.155.049-1.728A1.638,1.638,0,0,1,563.006,281a1.564,1.564,0,0,1,1.473,1.647c-.028.517-.044,1.035-.044,1.555a27.745,27.745,0,0,0,1.227,8.185,1.564,1.564,0,0,1-1.033,1.955A1.539,1.539,0,0,1,564.168,294.411Zm56.5-15.72a1.563,1.563,0,0,1-1.517-1.188,27.6,27.6,0,0,0-4.014-8.949,1.563,1.563,0,1,1,2.58-1.765,30.6,30.6,0,0,1,4.467,9.961,1.561,1.561,0,0,1-1.14,1.893A1.5,1.5,0,0,1,620.668,278.69Zm-55.354-4.654a1.565,1.565,0,0,1-1.433-2.19,30.805,30.805,0,0,1,6.074-9.074,1.562,1.562,0,1,1,2.249,2.167,27.725,27.725,0,0,0-5.457,8.158A1.566,1.566,0,0,1,565.314,274.037Zm43.843-12.2a1.546,1.546,0,0,1-.9-.288,27.454,27.454,0,0,0-8.874-4.175,1.564,1.564,0,1,1,.8-3.023A30.674,30.674,0,0,1,610.066,259a1.563,1.563,0,0,1-.909,2.837Zm-29.689-2.5a1.564,1.564,0,0,1-.679-2.972,30.654,30.654,0,0,1,10.521-2.921,1.564,1.564,0,1,1,.29,3.115,27.518,27.518,0,0,0-9.453,2.62A1.53,1.53,0,0,1,579.469,259.338Z" transform="translate(1012.676 308.884)" fill="#1a6eff"/>
    <rect id="Rectangle_870" data-name="Rectangle 870" width="36.354" height="20.615" transform="translate(1586.454 587.521)" fill="#7faeff"/>
    <path id="Path_8140" data-name="Path 8140" d="M605.264,277.049v-2.522a3.362,3.362,0,0,1,3.362-3.362h0a3.363,3.363,0,0,1,3.363,3.362v4.183h-6.725" transform="translate(1012.56 308.836)" fill="#445eea"/>
    <path id="Path_8141" data-name="Path 8141" d="M605.264,274.479V295.9H580.479V274.479a3.362,3.362,0,0,1,3.362-3.363h24.506l-.681.142A3.363,3.363,0,0,0,605.264,274.479Z" transform="translate(1012.626 308.836)" fill="#e0eef7"/>
    <rect id="Rectangle_871" data-name="Rectangle 871" width="5.496" height="5.642" transform="translate(1594.646 583.442)" fill="#445eea"/>
    <line id="Line_25" data-name="Line 25" x2="13.971" transform="translate(1601.825 583.409)" fill="none" stroke="#445eea" stroke-linecap="round" stroke-linejoin="round" stroke-width="0.658"/>
    <line id="Line_26" data-name="Line 26" x2="13.971" transform="translate(1601.825 585.31)" fill="none" stroke="#445eea" stroke-linecap="round" stroke-linejoin="round" stroke-width="0.658"/>
    <line id="Line_27" data-name="Line 27" x2="13.971" transform="translate(1601.825 587.21)" fill="none" stroke="#445eea" stroke-linecap="round" stroke-linejoin="round" stroke-width="0.658"/>
    <line id="Line_28" data-name="Line 28" x2="13.971" transform="translate(1601.956 589.109)" fill="none" stroke="#445eea" stroke-linecap="round" stroke-linejoin="round" stroke-width="0.658"/>
    <line id="Line_29" data-name="Line 29" x2="21.151" transform="translate(1594.646 590.983)" fill="none" stroke="#445eea" stroke-linecap="round" stroke-linejoin="round" stroke-width="0.658"/>
    <line id="Line_30" data-name="Line 30" x2="21.151" transform="translate(1594.646 592.883)" fill="none" stroke="#445eea" stroke-linecap="round" stroke-linejoin="round" stroke-width="0.658"/>
    <line id="Line_31" data-name="Line 31" x2="21.151" transform="translate(1594.646 594.742)" fill="none" stroke="#445eea" stroke-linecap="round" stroke-linejoin="round" stroke-width="0.658"/>
    <line id="Line_32" data-name="Line 32" x2="10.28" transform="translate(1594.646 596.642)" fill="none" stroke="#445eea" stroke-linecap="round" stroke-linejoin="round" stroke-width="0.658"/>
    <path id="Path_8142" data-name="Path 8142" d="M601.234,299.319H573.811V278.7Z" transform="translate(1012.643 308.816)" fill="#1a6eff"/>
    <path id="Path_8143" data-name="Path 8143" d="M582.765,299.319h27.423V278.7Z" transform="translate(1012.619 308.816)" fill="#1a6eff"/>
    <path id="Path_8144" data-name="Path 8144" d="M610.165,299.349H573.811l16.326-8.72a3.249,3.249,0,0,1,3.7,0Z" transform="translate(1012.643 308.786)" fill="#1a6eff"/>
  </g>
</svg>
