<svg xmlns="http://www.w3.org/2000/svg" width="375.22" height="357.776" viewBox="0 0 375.22 357.776">
  <g id="Finance-cuate" transform="translate(-23.61 -43)">
    <g id="freepik--background-complete--inject-29" transform="translate(37.638 43)">
      <path id="Path_8455" data-name="Path 8455" d="M381.26,160.34c-31.192,0-31.242,44.352,0,44.352S412.5,160.34,381.26,160.34Z" transform="translate(-94.893 -63.1)" fill="#ebebeb"/>
      <path id="Path_8456" data-name="Path 8456" d="M401.062,187.456c-1.657,7.632-8,14.245-18.977,14.245-25.922,0-25.88-36.811,0-36.811h.514c-24.364.447-24.248,35.311.472,35.311C393.148,200.209,399.156,194.375,401.062,187.456Z" transform="translate(-95.717 -63.88)" fill="#dbdbdb"/>
      <path id="Path_8457" data-name="Path 8457" d="M384.509,170.75a.829.829,0,0,1,.829.738v1.235a11.6,11.6,0,0,1,6.008,2.163c.3.215.472.4.472.713a.829.829,0,0,1-.878.771.878.878,0,0,1-.6-.215,10.019,10.019,0,0,0-5.063-2.005v8.643c5.13.986,7.284,2.743,7.284,5.8,0,3.273-3,5.585-7.218,5.71v2.345a.829.829,0,0,1-1.616,0v-2.4a13.259,13.259,0,0,1-7.6-2.992.769.769,0,0,1,.456-1.425.928.928,0,0,1,.613.215,11.3,11.3,0,0,0,6.58,2.809v-8.793c-5.063-1.019-7.16-2.718-7.16-5.8s2.975-5.494,7.094-5.585V171.5A.779.779,0,0,1,384.509,170.75Zm-.738,11.734v-8.436c-3.273.066-5.436,1.856-5.436,4.077S379.413,181.523,383.772,182.484Zm1.483,1.881v8.519c3.373-.058,5.569-1.848,5.569-4.2,0-2.13-1.185-3.423-5.569-4.318Z" transform="translate(-97.959 -64.883)" fill="#dbdbdb"/>
      <path id="Path_8458" data-name="Path 8458" d="M164.46,43c-31.192,0-31.242,44.352,0,44.352S195.7,43,164.46,43Z" transform="translate(-57.755 -43)" fill="#ebebeb"/>
      <path id="Path_8459" data-name="Path 8459" d="M184.252,70.146c-1.657,7.624-8,14.245-18.977,14.245-25.922,0-25.88-36.811,0-36.811h.514c-24.364.448-24.248,35.311.472,35.311C176.346,82.9,182.354,77.065,184.252,70.146Z" transform="translate(-58.578 -43.785)" fill="#dbdbdb"/>
      <path id="Path_8460" data-name="Path 8460" d="M167.7,53.43a.829.829,0,0,1,.829.746v1.235a11.6,11.6,0,0,1,6.008,2.163c.3.215.472.4.472.7a.913.913,0,0,1-1.492.555,10.118,10.118,0,0,0-5.055-2.005V65.5c5.13.994,7.284,2.751,7.284,5.8,0,3.273-3,5.594-7.218,5.718v2.4a.829.829,0,0,1-1.657,0V76.932a13.259,13.259,0,0,1-7.591-3,.764.764,0,0,1,.456-1.417.887.887,0,0,1,.6.215,11.37,11.37,0,0,0,6.588,2.809v-8.8c-5.063-1.019-7.16-2.718-7.16-5.8s2.975-5.494,7.085-5.594V54.176A.829.829,0,0,1,167.7,53.43Zm-.738,11.734V56.736c-3.273.058-5.436,1.856-5.436,4.077C161.529,62.91,162.606,64.211,166.965,65.164Zm1.483,1.881v8.527c3.373-.066,5.569-1.856,5.569-4.2C174.017,69.242,172.832,67.99,168.448,67.046Z" transform="translate(-60.815 -44.787)" fill="#dbdbdb"/>
      <path id="Path_8461" data-name="Path 8461" d="M94.858,131.242c-28.093,5.039-20.668,46.648,7.458,41.6S122.984,126.2,94.858,131.242Z" transform="translate(-46.808 -58.043)" fill="#dbdbdb"/>
      <path id="Path_8462" data-name="Path 8462" d="M98.239,130.681c-26.767,4.806-19.35,46.407,7.458,41.6S125.047,125.908,98.239,130.681Z" transform="translate(-47.554 -57.954)" fill="#ebebeb"/>
      <path id="Path_8463" data-name="Path 8463" d="M119.667,153.214c-.149,7.458-4.458,14.593-13.881,16.284-22.251,3.994-28.416-30.538-6.2-34.524l.439-.075c-20.834,4.144-14.859,36.852,6.348,33.049C115.035,166.424,119.2,160.026,119.667,153.214Z" transform="translate(-48.273 -58.742)" fill="#dbdbdb"/>
      <path id="Path_8464" data-name="Path 8464" d="M102.488,140.487a.7.7,0,0,1,.829.563l.207,1.16a9.6,9.6,0,0,1,5.519,1.1c.3.157.472.307.522.6a.746.746,0,0,1-.622.829.688.688,0,0,1-.555-.108,8.444,8.444,0,0,0-4.682-1.1l1.459,8.113c4.566.133,6.712,1.45,7.226,4.293.547,3.066-1.657,5.7-5.237,6.464l.406,2.262a.707.707,0,0,1-1.392.249l-.414-2.287a11.055,11.055,0,0,1-7.019-1.657.738.738,0,0,1,.166-1.4.729.729,0,0,1,.564.108,9.522,9.522,0,0,0,6.116,1.616L104.1,153c-4.516-.174-6.63-1.442-7.119-4.334s1.657-5.619,5.138-6.34l-.2-1.094a.721.721,0,0,1,.564-.746Zm1.342,11.113-1.425-7.906c-2.793.564-4.351,2.577-3.969,4.666C98.784,150.324,99.928,151.376,103.831,151.6Zm1.591,1.541,1.434,7.989c2.884-.572,4.467-2.594,4.069-4.79C110.568,154.343,109.333,153.34,105.422,153.142Z" transform="translate(-50.196 -59.697)" fill="#dbdbdb"/>
      <path id="Path_8465" data-name="Path 8465" d="M318.115,220.645c-24.032,4.318-17.709,39.968,6.389,35.634S342.214,216.319,318.115,220.645Z" transform="translate(-85.489 -73.368)" fill="#dbdbdb"/>
      <path id="Path_8466" data-name="Path 8466" d="M321.035,220.162c-22.93,4.144-16.574,39.778,6.4,35.634S343.982,216.043,321.035,220.162Z" transform="translate(-86.13 -73.291)" fill="#ebebeb"/>
      <path id="Path_8467" data-name="Path 8467" d="M339.364,239.507c-.124,6.348-3.82,12.505-11.892,13.947-19.06,3.423-24.339-26.162-5.312-29.576l.381-.058c-17.85,3.572-12.737,31.565,5.436,28.308A13.238,13.238,0,0,0,339.364,239.507Z" transform="translate(-86.741 -73.974)" fill="#dbdbdb"/>
      <path id="Path_8468" data-name="Path 8468" d="M327.754,228.549a.6.6,0,0,1,.53.671l-.116,1a8.154,8.154,0,0,1,4.251,2.271.7.7,0,0,1,.282.622.646.646,0,0,1-.721.547.613.613,0,0,1-.431-.232,7.185,7.185,0,0,0-3.563-2.063l-.829,7.011c3.713,1.243,5.146,2.859,4.856,5.312-.307,2.652-2.76,4.268-5.9,4l-.232,1.956a.613.613,0,0,1-.671.53.622.622,0,0,1-.53-.671l.24-1.981a9.472,9.472,0,0,1-5.353-3.091.63.63,0,0,1-.207-.555.638.638,0,0,1,1.127-.323,8.154,8.154,0,0,0,4.616,2.851l.829-7.135c-3.663-1.268-5.047-2.826-4.757-5.329s2.726-4.2,5.8-3.911l.108-.953A.613.613,0,0,1,327.754,228.549ZM326.1,238l.829-6.837c-2.436-.232-4.21,1.028-4.417,2.834s.439,2.842,3.58,4.044Zm.92,1.657-.829,6.9c2.486.249,4.309-1.011,4.533-2.917.207-1.724-.539-2.884-3.713-3.945Z" transform="translate(-88.299 -74.784)" fill="#dbdbdb"/>
      <path id="Path_8469" data-name="Path 8469" d="M214.734,363.64c-4.483,6.331-3.572,25.69-6.282,28.375s-30.521,2.428-32.394.829-.986-8.42-3.091-9.547C172.164,382.858,214.734,363.64,214.734,363.64Z" transform="translate(-63.221 -97.925)" fill="#ebebeb"/>
      <path id="Path_8470" data-name="Path 8470" d="M80.09,364c5.6,8.08,2.577,25.35,5.287,28.06s30.521,2.428,32.394.829,1.011-8.793,2.121-10.16C120.481,382.016,80.09,364,80.09,364Z" transform="translate(-47.313 -97.987)" fill="#ebebeb"/>
      <path id="Path_8471" data-name="Path 8471" d="M173,383.3a3.066,3.066,0,0,1,1.193,2.063,132.044,132.044,0,0,0,37.242-10.019c.638-4.707,1.566-9.207,3.315-11.693C214.731,363.65,172.169,382.859,173,383.3Z" transform="translate(-63.226 -97.927)" fill="#dbdbdb"/>
      <path id="Path_8472" data-name="Path 8472" d="M80.09,364c2.088,3.017,2.983,7.317,3.414,11.652a126.327,126.327,0,0,0,35.767,9.895,6.157,6.157,0,0,1,.621-2.8C120.481,382.016,80.09,364,80.09,364Z" transform="translate(-47.313 -97.987)" fill="#dbdbdb"/>
      <path id="Path_8473" data-name="Path 8473" d="M137.184,222.61c55.937,0,77.343,43.78,77.343,69.4,0,25.284-16.259,68.252-77.343,68.252s-81.354-36.4-81.354-68.832S80.658,222.61,137.184,222.61Z" transform="translate(-43.158 -73.767)" fill="#ebebeb"/>
      <path id="Path_8474" data-name="Path 8474" d="M123.3,222.814S97.76,203.223,70.09,205.56c-9.53.829,6.29,21.447,6.58,37.573Z" transform="translate(-45.078 -70.813)" fill="#ebebeb"/>
      <path id="Path_8475" data-name="Path 8475" d="M87.678,236.7c.166,1.019-8.652,4.8-9.563,4.218s-1.831-13.259-9.025-26.817C68.03,212.111,85.98,225.785,87.678,236.7Z" transform="translate(-45.421 -72.276)" fill="#dbdbdb"/>
      <path id="Path_8476" data-name="Path 8476" d="M229.383,267.748c-.331-1.724-.539-3.273-.7-4.922a46.522,46.522,0,0,1-.249-4.972,28.369,28.369,0,0,1,.448-5.146,12.431,12.431,0,0,1,2.3-5.42,7.119,7.119,0,0,1,2.8-2.121,6.712,6.712,0,0,1,1.657-.464,8.236,8.236,0,0,1,1.657-.075,9.762,9.762,0,0,1,5.478,2.2,15.148,15.148,0,0,1,3.505,4.011,14.03,14.03,0,0,1,1.923,4.972,6.058,6.058,0,0,1-.232,3.207,3.472,3.472,0,0,1-1.268,1.608,3.7,3.7,0,0,1-1.84.6,3.389,3.389,0,0,1-1.931-.464,4.044,4.044,0,0,1-1.251-1.235,7.227,7.227,0,0,1-.978-2.644,14.577,14.577,0,0,1,.05-5.022,11.785,11.785,0,0,1,1.773-4.657,5.544,5.544,0,0,1,1.931-1.807,4.094,4.094,0,0,1,2.635-.439,7.964,7.964,0,0,1,4.2,2.486,26.626,26.626,0,0,1,4.972,7.889A26.262,26.262,0,0,0,250.788,248a6.9,6.9,0,0,0-3.82-1.881,3.257,3.257,0,0,0-3.1,1.964,10.11,10.11,0,0,0-1.1,4.077,12.231,12.231,0,0,0,.356,4.21,4.558,4.558,0,0,0,.762,1.657,1.268,1.268,0,0,0,.423.348.481.481,0,0,0,.307,0,.4.4,0,0,0,.315-.157.481.481,0,0,0,.091-.232,3.182,3.182,0,0,0-.1-1.425,11.6,11.6,0,0,0-4.616-6.182,5.279,5.279,0,0,0-3.091-.961,3.057,3.057,0,0,0-.68.108,2.081,2.081,0,0,0-.53.207,2.271,2.271,0,0,0-.779.762,7.633,7.633,0,0,0-.92,3.174,22.69,22.69,0,0,0,0,4.144,42.815,42.815,0,0,0,.58,4.284c.265,1.417.6,2.909.97,4.2Z" transform="translate(-72.724 -77.536)" fill="#ebebeb"/>
      <path id="Path_8477" data-name="Path 8477" d="M80.693,287.992c.083-.174.331.315.282.514-1.226,4.79-1.823,10.483,2.188,13.052.124.075.058.315-.1.257C77.925,299.9,78.8,292.351,80.693,287.992Z" transform="translate(-47.162 -84.96)" fill="#dbdbdb"/>
      <path id="Path_8478" data-name="Path 8478" d="M86.23,283.092c7.889,1.127,5.047,16.823-2.262,15.745S79.617,282.18,86.23,283.092Z" transform="translate(-47.246 -84.121)" fill="#dbdbdb"/>
      <path id="Path_8479" data-name="Path 8479" d="M58.431,275.15c-1.218,3.671-12.315.7-15.107,3.016-4.4,3.655-3.182,48.968.829,52.614,2.262,2.047,14.842-.108,18.372,2.378S58.431,275.15,58.431,275.15Z" transform="translate(-40.538 -82.767)" fill="#ebebeb"/>
      <ellipse id="Ellipse_134" data-name="Ellipse 134" cx="2.063" cy="19.988" rx="2.063" ry="19.988" transform="translate(2.189 200.62)" fill="#dbdbdb"/>
      <path id="Path_8480" data-name="Path 8480" d="M172.216,238.088c-.182-.066-19.06-6.2-36.587-1.4L133.88,230.3c19.524-5.345,39.587,1.218,40.432,1.5l-2.1,6.29,1.052-3.149Z" transform="translate(-56.527 -74.726)" fill="#dbdbdb"/>
      <path id="Path_8481" data-name="Path 8481" d="M211.4,341.762c25.2-28.955,9.787-62.575,9.116-64.017a4.151,4.151,0,1,1,7.458-3.646,70.075,70.075,0,0,1,5.942,24.14c1.21,18.405-4.881,35.319-19.292,46.83C210.227,348.533,208.172,345.483,211.4,341.762Z" transform="translate(-69.537 -82.188)" fill="#fff"/>
      <path id="Path_8482" data-name="Path 8482" d="M223.136,262.548a4.508,4.508,0,1,1-4.508-4.508,4.508,4.508,0,0,1,4.508,4.508Z" transform="translate(-70.272 -79.836)" fill="#fff"/>
    </g>
    <g id="freepik--Shadows--inject-29" transform="translate(42.877 360.451)">
      <ellipse id="Ellipse_135" data-name="Ellipse 135" cx="106.903" cy="15.381" rx="106.903" ry="15.381" transform="translate(69.951 9.563)" fill="#ebebeb"/>
      <path id="Path_8483" data-name="Path 8483" d="M161.022,437c0,6.033-25.557,10.931-57.081,10.931S46.86,443.034,46.86,437s25.557-10.931,57.081-10.931S161.022,430.984,161.022,437Z" transform="translate(-46.86 -426.07)" fill="#ebebeb"/>
    </g>
    <g id="freepik--Chart--inject-29" transform="translate(261.646 175.609)">
      <rect id="Rectangle_966" data-name="Rectangle 966" width="24.844" height="80.964" transform="translate(32.659 82.937)" fill="#407bff"/>
      <g id="Group_1410" data-name="Group 1410" transform="translate(51.81 82.937)" opacity="0.1">
        <rect id="Rectangle_967" data-name="Rectangle 967" width="5.685" height="80.964"/>
      </g>
      <rect id="Rectangle_968" data-name="Rectangle 968" width="24.844" height="107.3" transform="translate(65.385 56.592)" fill="#407bff"/>
      <g id="Group_1411" data-name="Group 1411" transform="translate(84.544 56.592)" opacity="0.1">
        <rect id="Rectangle_969" data-name="Rectangle 969" width="5.685" height="107.3"/>
      </g>
      <rect id="Rectangle_970" data-name="Rectangle 970" width="24.844" height="65.269" transform="translate(0 98.632)" fill="#407bff"/>
      <g id="Group_1412" data-name="Group 1412" transform="translate(19.151 98.632)" opacity="0.1">
        <rect id="Rectangle_971" data-name="Rectangle 971" width="5.685" height="65.269"/>
      </g>
      <rect id="Rectangle_972" data-name="Rectangle 972" width="24.844" height="142.371" transform="translate(98.118 21.521)" fill="#407bff"/>
      <g id="Group_1413" data-name="Group 1413" transform="translate(117.27 21.521)" opacity="0.1">
        <rect id="Rectangle_973" data-name="Rectangle 973" width="5.685" height="142.371"/>
      </g>
      <path id="Path_8484" data-name="Path 8484" d="M310.85,326.486V313.931s84.528-7.2,118.7-100.861h3.621S410.261,309.97,310.85,326.486Z" transform="translate(-310.85 -204.742)" fill="#c7c7c7"/>
      <path id="Path_8485" data-name="Path 8485" d="M459.8,215.376l-10.682-3.539,8.851-8.817Z" transform="translate(-334.535 -203.02)" fill="#c7c7c7"/>
    </g>
    <g id="freepik--Floor--inject-29" transform="translate(23.61 339.095)">
      <path id="Path_8486" data-name="Path 8486" d="M23.61,400.706l46.9-.2,46.9-.075,93.8-.133,93.8.133,46.9.075,46.9.2-46.9.207-46.9.075-93.8.133-93.8-.133-46.9-.075Z" transform="translate(-23.61 -400.3)" fill="#263238"/>
    </g>
    <g id="freepik--Coins--inject-29" transform="translate(49.848 302.5)">
      <rect id="Rectangle_974" data-name="Rectangle 974" width="52.192" height="11.536" transform="translate(191.927 71.724)" fill="#407bff"/>
      <g id="Group_1414" data-name="Group 1414" transform="translate(193.667 72.81)" opacity="0.1">
        <path id="Path_8487" data-name="Path 8487" d="M289.384,444a25.872,25.872,0,0,1,0,9.223A25.872,25.872,0,0,1,289.384,444Z" transform="translate(-288.97 -444)"/>
        <path id="Path_8488" data-name="Path 8488" d="M294.074,444a25.872,25.872,0,0,1,0,9.223,25.872,25.872,0,0,1,0-9.223Z" transform="translate(-289.773 -444)"/>
        <path id="Path_8489" data-name="Path 8489" d="M296.364,444a25.872,25.872,0,0,1,0,9.223,22.3,22.3,0,0,1-.414-4.616,22.8,22.8,0,0,1,.414-4.608Z" transform="translate(-290.165 -444)"/>
        <path id="Path_8490" data-name="Path 8490" d="M308.914,444a25.872,25.872,0,0,1,0,9.223A25.872,25.872,0,0,1,308.914,444Z" transform="translate(-292.315 -444)"/>
        <path id="Path_8491" data-name="Path 8491" d="M312.344,444a23.419,23.419,0,0,1,.414,4.608,22.883,22.883,0,0,1-.414,4.616,22.3,22.3,0,0,1-.414-4.616A22.808,22.808,0,0,1,312.344,444Z" transform="translate(-292.902 -444)"/>
        <path id="Path_8492" data-name="Path 8492" d="M326.414,444a23.419,23.419,0,0,1,.414,4.608,22.879,22.879,0,0,1-.414,4.616,22.3,22.3,0,0,1-.414-4.616,23.418,23.418,0,0,1,.414-4.608Z" transform="translate(-295.313 -444)"/>
        <path id="Path_8493" data-name="Path 8493" d="M329.664,444a23.422,23.422,0,0,1,.414,4.608,22.3,22.3,0,0,1-.414,4.616,22.877,22.877,0,0,1-.414-4.616,23.421,23.421,0,0,1,.414-4.608Z" transform="translate(-295.87 -444)"/>
        <path id="Path_8494" data-name="Path 8494" d="M335.634,444a23.419,23.419,0,0,1,.414,4.608,22.879,22.879,0,0,1-.414,4.616,22.3,22.3,0,0,1-.414-4.616,23.424,23.424,0,0,1,.414-4.608Z" transform="translate(-296.892 -444)"/>
        <path id="Path_8495" data-name="Path 8495" d="M323.694,444a22.806,22.806,0,0,1,.414,4.608,22.3,22.3,0,0,1-.414,4.616,22.879,22.879,0,0,1-.414-4.616,23.421,23.421,0,0,1,.414-4.608Z" transform="translate(-294.847 -444)"/>
        <path id="Path_8496" data-name="Path 8496" d="M300.524,444a26.393,26.393,0,0,1,0,9.223A25.872,25.872,0,0,1,300.524,444Z" transform="translate(-290.878 -444)"/>
        <path id="Path_8497" data-name="Path 8497" d="M316.824,444a25.872,25.872,0,0,1,0,9.223,25.872,25.872,0,0,1,0-9.223Z" transform="translate(-293.67 -444)"/>
        <path id="Path_8498" data-name="Path 8498" d="M319.164,444a22.806,22.806,0,0,1,.414,4.608,22.3,22.3,0,0,1-.414,4.616,22.879,22.879,0,0,1-.414-4.616,23.421,23.421,0,0,1,.414-4.608Z" transform="translate(-294.071 -444)"/>
        <path id="Path_8499" data-name="Path 8499" d="M343.414,444a22.806,22.806,0,0,1,.414,4.608,22.3,22.3,0,0,1-.414,4.616,22.879,22.879,0,0,1-.414-4.616,23.418,23.418,0,0,1,.414-4.608Z" transform="translate(-298.225 -444)"/>
        <path id="Path_8500" data-name="Path 8500" d="M346.914,444a23.419,23.419,0,0,1,.414,4.608,22.881,22.881,0,0,1-.414,4.616,22.3,22.3,0,0,1-.414-4.616A22.8,22.8,0,0,1,346.914,444Z" transform="translate(-298.824 -444)"/>
        <path id="Path_8501" data-name="Path 8501" d="M338.4,444a22.808,22.808,0,0,1,.414,4.608,22.3,22.3,0,0,1-.414,4.616,22.882,22.882,0,0,1-.414-4.616A23.421,23.421,0,0,1,338.4,444Z" transform="translate(-297.367 -444)"/>
        <path id="Path_8502" data-name="Path 8502" d="M306.224,444a25.872,25.872,0,0,1,0,9.223,22.3,22.3,0,0,1-.414-4.616A22.806,22.806,0,0,1,306.224,444Z" transform="translate(-291.854 -444)"/>
      </g>
      <path id="Path_8503" data-name="Path 8503" d="M339.062,442.69v2.453l-52.192,1.641V442.69Z" transform="translate(-94.943 -370.966)" opacity="0.1"/>
      <rect id="Rectangle_975" data-name="Rectangle 975" width="52.192" height="11.536" transform="translate(187.576 60.197)" fill="#407bff"/>
      <g id="Group_1415" data-name="Group 1415" transform="translate(189.306 61.249)" opacity="0.1">
        <path id="Path_8504" data-name="Path 8504" d="M341.674,439.282a25.914,25.914,0,0,1,0-9.232A25.912,25.912,0,0,1,341.674,439.282Z" transform="translate(-293.567 -430.05)"/>
        <path id="Path_8505" data-name="Path 8505" d="M336.984,439.282a25.913,25.913,0,0,1,0-9.232A25.914,25.914,0,0,1,336.984,439.282Z" transform="translate(-292.763 -430.05)"/>
        <path id="Path_8506" data-name="Path 8506" d="M334.694,439.282a23.562,23.562,0,0,1-.414-4.616,22.879,22.879,0,0,1,.414-4.616,22.3,22.3,0,0,1,.414,4.616,22.939,22.939,0,0,1-.414,4.616Z" transform="translate(-292.371 -430.05)"/>
        <path id="Path_8507" data-name="Path 8507" d="M322.114,439.282a25.912,25.912,0,0,1,0-9.232A25.914,25.914,0,0,1,322.114,439.282Z" transform="translate(-290.216 -430.05)"/>
        <path id="Path_8508" data-name="Path 8508" d="M318.714,439.282a23.566,23.566,0,0,1-.414-4.616,22.881,22.881,0,0,1,.414-4.616,22.3,22.3,0,0,1,.414,4.616,23.555,23.555,0,0,1-.414,4.616Z" transform="translate(-289.633 -430.05)"/>
        <path id="Path_8509" data-name="Path 8509" d="M304.644,439.282a23.561,23.561,0,0,1-.414-4.616,22.3,22.3,0,0,1,.414-4.616,22.3,22.3,0,0,1,.414,4.616,23.56,23.56,0,0,1-.414,4.616Z" transform="translate(-287.223 -430.05)"/>
        <path id="Path_8510" data-name="Path 8510" d="M301.394,439.282a22.941,22.941,0,0,1-.414-4.616,22.3,22.3,0,0,1,.414-4.616,22.879,22.879,0,0,1,.414,4.616,23.559,23.559,0,0,1-.414,4.616Z" transform="translate(-286.666 -430.05)"/>
        <path id="Path_8511" data-name="Path 8511" d="M295.424,439.282a23.562,23.562,0,0,1-.414-4.616,22.3,22.3,0,0,1,.414-4.616,22.881,22.881,0,0,1,.414,4.616,23.562,23.562,0,0,1-.414,4.616Z" transform="translate(-285.644 -430.05)"/>
        <path id="Path_8512" data-name="Path 8512" d="M307.364,439.282a22.939,22.939,0,0,1-.414-4.616,22.3,22.3,0,0,1,.414-4.616A25.913,25.913,0,0,1,307.364,439.282Z" transform="translate(-287.689 -430.05)"/>
        <path id="Path_8513" data-name="Path 8513" d="M330.534,439.282a25.914,25.914,0,0,1,0-9.232A25.912,25.912,0,0,1,330.534,439.282Z" transform="translate(-291.658 -430.05)"/>
        <path id="Path_8514" data-name="Path 8514" d="M314.234,439.282a25.912,25.912,0,0,1,0-9.232,25.914,25.914,0,0,1,0,9.232Z" transform="translate(-288.866 -430.05)"/>
        <path id="Path_8515" data-name="Path 8515" d="M311.914,439.282a22.941,22.941,0,0,1-.414-4.616,22.3,22.3,0,0,1,.414-4.616,25.914,25.914,0,0,1,0,9.232Z" transform="translate(-288.468 -430.05)"/>
        <path id="Path_8516" data-name="Path 8516" d="M287.644,439.282a22.939,22.939,0,0,1-.414-4.616,22.3,22.3,0,0,1,.414-4.616A25.914,25.914,0,0,1,287.644,439.282Z" transform="translate(-284.311 -430.05)"/>
        <path id="Path_8517" data-name="Path 8517" d="M284.124,439.282a23.559,23.559,0,0,1-.414-4.616,22.878,22.878,0,0,1,.414-4.616,22.3,22.3,0,0,1,.414,4.616,22.94,22.94,0,0,1-.414,4.616Z" transform="translate(-283.708 -430.05)"/>
        <path id="Path_8518" data-name="Path 8518" d="M292.654,439.282a22.939,22.939,0,0,1-.414-4.616,22.3,22.3,0,0,1,.414-4.616A25.912,25.912,0,0,1,292.654,439.282Z" transform="translate(-285.169 -430.05)"/>
        <path id="Path_8519" data-name="Path 8519" d="M324.834,439.282a23.562,23.562,0,0,1-.414-4.616,22.879,22.879,0,0,1,.414-4.616,22.3,22.3,0,0,1,.414,4.616,22.933,22.933,0,0,1-.414,4.616Z" transform="translate(-290.682 -430.05)"/>
      </g>
      <path id="Path_8520" data-name="Path 8520" d="M333.8,428.78v2.445l-52.192,1.649V428.78Z" transform="translate(-94.042 -368.583)" opacity="0.1"/>
      <rect id="Rectangle_976" data-name="Rectangle 976" width="52.192" height="11.536" transform="translate(191.595 48.753)" fill="#407bff"/>
      <g id="Group_1416" data-name="Group 1416" transform="translate(193.327 49.813)" opacity="0.1">
        <path id="Path_8521" data-name="Path 8521" d="M288.974,416.25a25.873,25.873,0,0,1,0,9.223A25.873,25.873,0,0,1,288.974,416.25Z" transform="translate(-288.56 -416.25)"/>
        <path id="Path_8522" data-name="Path 8522" d="M293.664,416.25a25.872,25.872,0,0,1,0,9.223A25.872,25.872,0,0,1,293.664,416.25Z" transform="translate(-289.363 -416.25)"/>
        <path id="Path_8523" data-name="Path 8523" d="M295.964,416.25a26.394,26.394,0,0,1,0,9.223A25.872,25.872,0,0,1,295.964,416.25Z" transform="translate(-289.757 -416.25)"/>
        <path id="Path_8524" data-name="Path 8524" d="M308.534,416.25a25.872,25.872,0,0,1,0,9.223A25.872,25.872,0,0,1,308.534,416.25Z" transform="translate(-291.911 -416.25)"/>
        <path id="Path_8525" data-name="Path 8525" d="M311.914,416.25a25.873,25.873,0,0,1,0,9.223A25.871,25.871,0,0,1,311.914,416.25Z" transform="translate(-292.49 -416.25)"/>
        <path id="Path_8526" data-name="Path 8526" d="M326.014,416.25a25.872,25.872,0,0,1,0,9.223A25.872,25.872,0,0,1,326.014,416.25Z" transform="translate(-294.905 -416.25)"/>
        <path id="Path_8527" data-name="Path 8527" d="M329.264,416.25a25.872,25.872,0,0,1,0,9.223A25.872,25.872,0,0,1,329.264,416.25Z" transform="translate(-295.462 -416.25)"/>
        <path id="Path_8528" data-name="Path 8528" d="M335.234,416.25a25.873,25.873,0,0,1,0,9.223A25.873,25.873,0,0,1,335.234,416.25Z" transform="translate(-296.484 -416.25)"/>
        <path id="Path_8529" data-name="Path 8529" d="M323.294,416.25a25.873,25.873,0,0,1,0,9.223,22.224,22.224,0,0,1-.414-4.608A22.83,22.83,0,0,1,323.294,416.25Z" transform="translate(-294.438 -416.25)"/>
        <path id="Path_8530" data-name="Path 8530" d="M300.114,416.25a22.833,22.833,0,0,1,.414,4.616,22.228,22.228,0,0,1-.414,4.608A25.872,25.872,0,0,1,300.114,416.25Z" transform="translate(-290.468 -416.25)"/>
        <path id="Path_8531" data-name="Path 8531" d="M316.414,416.25a25.872,25.872,0,0,1,0,9.223A25.872,25.872,0,0,1,316.414,416.25Z" transform="translate(-293.26 -416.25)"/>
        <path id="Path_8532" data-name="Path 8532" d="M318.764,416.25a25.872,25.872,0,0,1,0,9.223,22.226,22.226,0,0,1-.414-4.608A22.833,22.833,0,0,1,318.764,416.25Z" transform="translate(-293.662 -416.25)"/>
        <path id="Path_8533" data-name="Path 8533" d="M343.014,416.25a25.872,25.872,0,0,1,0,9.223,25.873,25.873,0,0,1,0-9.223Z" transform="translate(-297.817 -416.25)"/>
        <path id="Path_8534" data-name="Path 8534" d="M346.534,416.25a25.872,25.872,0,0,1,0,9.223,25.873,25.873,0,0,1,0-9.223Z" transform="translate(-298.42 -416.25)"/>
        <path id="Path_8535" data-name="Path 8535" d="M338,416.25a25.872,25.872,0,0,1,0,9.223,22.226,22.226,0,0,1-.414-4.608A22.833,22.833,0,0,1,338,416.25Z" transform="translate(-296.958 -416.25)"/>
        <path id="Path_8536" data-name="Path 8536" d="M305.816,416.25a25.872,25.872,0,0,1,0,9.223,26.4,26.4,0,0,1,0-9.223Z" transform="translate(-291.446 -416.25)"/>
      </g>
      <path id="Path_8537" data-name="Path 8537" d="M338.653,414.97v2.453l-52.183,1.649v-4.1Z" transform="translate(-94.875 -366.217)" opacity="0.1"/>
      <rect id="Rectangle_977" data-name="Rectangle 977" width="52.192" height="11.536" transform="translate(36.421 57.57)" fill="#407bff"/>
      <g id="Group_1417" data-name="Group 1417" transform="translate(38.161 58.606)" opacity="0.1">
        <path id="Path_8538" data-name="Path 8538" d="M101.734,426.88a25.914,25.914,0,0,1,0,9.232,25.913,25.913,0,0,1,0-9.232Z" transform="translate(-101.32 -426.863)"/>
        <path id="Path_8539" data-name="Path 8539" d="M106.424,426.88a25.913,25.913,0,0,1,0,9.232A25.913,25.913,0,0,1,106.424,426.88Z" transform="translate(-102.123 -426.863)"/>
        <path id="Path_8540" data-name="Path 8540" d="M108.714,426.88a25.914,25.914,0,0,1,0,9.232A25.914,25.914,0,0,1,108.714,426.88Z" transform="translate(-102.516 -426.863)"/>
        <path id="Path_8541" data-name="Path 8541" d="M121.294,426.88a26.436,26.436,0,0,1,0,9.232A25.913,25.913,0,0,1,121.294,426.88Z" transform="translate(-104.67 -426.863)"/>
        <path id="Path_8542" data-name="Path 8542" d="M124.694,426.88a25.914,25.914,0,0,1,0,9.232,22.3,22.3,0,0,1-.414-4.616,22.941,22.941,0,0,1,.414-4.616Z" transform="translate(-105.252 -426.863)"/>
        <path id="Path_8543" data-name="Path 8543" d="M138.764,426.88a25.913,25.913,0,0,1,0,9.232,22.3,22.3,0,0,1-.414-4.616,22.938,22.938,0,0,1,.414-4.616Z" transform="translate(-107.663 -426.863)"/>
        <path id="Path_8544" data-name="Path 8544" d="M142.014,426.88a23.56,23.56,0,0,1,.414,4.616,22.88,22.88,0,0,1-.414,4.616,22.3,22.3,0,0,1-.414-4.616A23.562,23.562,0,0,1,142.014,426.88Z" transform="translate(-108.219 -426.863)"/>
        <path id="Path_8545" data-name="Path 8545" d="M147.984,426.88a23.56,23.56,0,0,1,.414,4.616,22.88,22.88,0,0,1-.414,4.616,22.3,22.3,0,0,1-.414-4.616A22.938,22.938,0,0,1,147.984,426.88Z" transform="translate(-109.242 -426.863)"/>
        <path id="Path_8546" data-name="Path 8546" d="M136.044,426.88a23.56,23.56,0,0,1,.414,4.616,22.3,22.3,0,0,1-.414,4.616,22.88,22.88,0,0,1-.414-4.616,23.559,23.559,0,0,1,.414-4.616Z" transform="translate(-107.197 -426.863)"/>
        <path id="Path_8547" data-name="Path 8547" d="M112.914,426.877a25.914,25.914,0,0,1,0,9.215,25.914,25.914,0,0,1,0-9.232Z" transform="translate(-103.235 -426.86)"/>
        <path id="Path_8548" data-name="Path 8548" d="M129.174,426.88a26.435,26.435,0,0,1,0,9.232A25.913,25.913,0,0,1,129.174,426.88Z" transform="translate(-106.02 -426.863)"/>
        <path id="Path_8549" data-name="Path 8549" d="M131.514,426.88a23.562,23.562,0,0,1,.414,4.616,22.3,22.3,0,0,1-.414,4.616,22.879,22.879,0,0,1-.414-4.616,23.559,23.559,0,0,1,.414-4.616Z" transform="translate(-106.421 -426.863)"/>
        <path id="Path_8550" data-name="Path 8550" d="M155.764,426.88a23.56,23.56,0,0,1,.414,4.616,22.3,22.3,0,0,1-.414,4.616,22.3,22.3,0,0,1-.414-4.616,23.559,23.559,0,0,1,.414-4.616Z" transform="translate(-110.575 -426.863)"/>
        <path id="Path_8551" data-name="Path 8551" d="M159.284,426.88a25.913,25.913,0,0,1,0,9.232A25.913,25.913,0,0,1,159.284,426.88Z" transform="translate(-111.178 -426.863)"/>
        <path id="Path_8552" data-name="Path 8552" d="M150.754,426.88a23.561,23.561,0,0,1,.414,4.616,22.3,22.3,0,0,1-.414,4.616,22.881,22.881,0,0,1-.414-4.616A23.559,23.559,0,0,1,150.754,426.88Z" transform="translate(-109.717 -426.863)"/>
        <path id="Path_8553" data-name="Path 8553" d="M118.574,426.88a25.913,25.913,0,0,1,0,9.232A25.913,25.913,0,0,1,118.574,426.88Z" transform="translate(-104.205 -426.863)"/>
      </g>
      <path id="Path_8554" data-name="Path 8554" d="M151.4,425.61v2.453L99.22,429.7V425.61Z" transform="translate(-62.799 -368.04)" opacity="0.1"/>
      <rect id="Rectangle_978" data-name="Rectangle 978" width="52.192" height="11.536" transform="translate(32.849 46.034)" fill="#407bff"/>
      <g id="Group_1418" data-name="Group 1418" transform="translate(34.587 47.12)" opacity="0.1">
        <path id="Path_8555" data-name="Path 8555" d="M97.424,413a25.872,25.872,0,0,1,0,9.223,22.225,22.225,0,0,1-.414-4.608A22.831,22.831,0,0,1,97.424,413Z" transform="translate(-97.007 -413)"/>
        <path id="Path_8556" data-name="Path 8556" d="M102.114,413a25.872,25.872,0,0,1,0,9.223,22.226,22.226,0,0,1-.414-4.608,22.831,22.831,0,0,1,.414-4.616Z" transform="translate(-97.811 -413)"/>
        <path id="Path_8557" data-name="Path 8557" d="M104.4,413a23.444,23.444,0,0,1,.414,4.616,22.225,22.225,0,0,1-.414,4.608,22.225,22.225,0,0,1-.414-4.608A23.444,23.444,0,0,1,104.4,413Z" transform="translate(-98.203 -413)"/>
        <path id="Path_8558" data-name="Path 8558" d="M116.984,413a25.872,25.872,0,0,1,0,9.223,25.872,25.872,0,0,1,0-9.223Z" transform="translate(-100.358 -413)"/>
        <path id="Path_8559" data-name="Path 8559" d="M120.384,413a22.831,22.831,0,0,1,.414,4.616,22.225,22.225,0,0,1-.414,4.608,22.807,22.807,0,0,1-.414-4.608,23.444,23.444,0,0,1,.414-4.616Z" transform="translate(-100.94 -413)"/>
        <path id="Path_8560" data-name="Path 8560" d="M134.454,413a22.831,22.831,0,0,1,.414,4.616,22.225,22.225,0,0,1-.414,4.608,22.808,22.808,0,0,1-.414-4.608,23.442,23.442,0,0,1,.414-4.616Z" transform="translate(-103.35 -413)"/>
        <path id="Path_8561" data-name="Path 8561" d="M137.7,413a25.872,25.872,0,0,1,0,9.223A25.872,25.872,0,0,1,137.7,413Z" transform="translate(-103.908 -413)"/>
        <path id="Path_8562" data-name="Path 8562" d="M143.674,413a22.831,22.831,0,0,1,.414,4.616,22.225,22.225,0,0,1-.414,4.608,25.872,25.872,0,0,1,0-9.223Z" transform="translate(-104.93 -413)"/>
        <path id="Path_8563" data-name="Path 8563" d="M131.734,413a25.872,25.872,0,0,1,0,9.223A25.872,25.872,0,0,1,131.734,413Z" transform="translate(-102.885 -413)"/>
        <path id="Path_8564" data-name="Path 8564" d="M108.564,413a25.872,25.872,0,0,1,0,9.223,25.872,25.872,0,0,1,0-9.223Z" transform="translate(-98.916 -413)"/>
        <path id="Path_8565" data-name="Path 8565" d="M124.914,413a25.872,25.872,0,0,1,0,9.223,22.226,22.226,0,0,1-.414-4.608,22.831,22.831,0,0,1,.414-4.616Z" transform="translate(-101.716 -413)"/>
        <path id="Path_8566" data-name="Path 8566" d="M127.2,413a25.872,25.872,0,0,1,0,9.223A25.872,25.872,0,0,1,127.2,413Z" transform="translate(-102.109 -413)"/>
        <path id="Path_8567" data-name="Path 8567" d="M151.454,413a25.872,25.872,0,0,1,0,9.223,25.872,25.872,0,0,1,0-9.223Z" transform="translate(-106.263 -413)"/>
        <path id="Path_8568" data-name="Path 8568" d="M154.974,413a23.445,23.445,0,0,1,.414,4.616,22.228,22.228,0,0,1-.414,4.608,22.805,22.805,0,0,1-.414-4.608,23.443,23.443,0,0,1,.414-4.616Z" transform="translate(-106.865 -413)"/>
        <path id="Path_8569" data-name="Path 8569" d="M146.444,413a25.872,25.872,0,0,1,0,9.223A25.872,25.872,0,0,1,146.444,413Z" transform="translate(-105.405 -413)"/>
        <path id="Path_8570" data-name="Path 8570" d="M114.264,413a23.442,23.442,0,0,1,.414,4.616,22.806,22.806,0,0,1-.414,4.608,22.226,22.226,0,0,1-.414-4.608,23.442,23.442,0,0,1,.414-4.616Z" transform="translate(-99.892 -413)"/>
      </g>
      <path id="Path_8571" data-name="Path 8571" d="M147.1,411.69v2.453L94.91,415.792v-4.1Z" transform="translate(-62.061 -365.656)" opacity="0.1"/>
      <rect id="Rectangle_979" data-name="Rectangle 979" width="52.192" height="11.536" transform="translate(40.912 23.071)" fill="#407bff"/>
      <g id="Group_1419" data-name="Group 1419" transform="translate(42.652 24.123)" opacity="0.1">
        <path id="Path_8572" data-name="Path 8572" d="M107.154,385.25a25.872,25.872,0,0,1,0,9.223A25.872,25.872,0,0,1,107.154,385.25Z" transform="translate(-106.74 -385.25)"/>
        <path id="Path_8573" data-name="Path 8573" d="M111.844,385.25a25.872,25.872,0,0,1,0,9.223,25.872,25.872,0,0,1,0-9.223Z" transform="translate(-107.543 -385.25)"/>
        <path id="Path_8574" data-name="Path 8574" d="M114.134,385.25a23.5,23.5,0,0,1,.414,4.616,22.808,22.808,0,0,1-.414,4.608,22.225,22.225,0,0,1-.414-4.608,23.5,23.5,0,0,1,.414-4.616Z" transform="translate(-107.935 -385.25)"/>
        <path id="Path_8575" data-name="Path 8575" d="M126.714,385.25a25.872,25.872,0,0,1,0,9.223,25.872,25.872,0,0,1,0-9.223Z" transform="translate(-110.091 -385.25)"/>
        <path id="Path_8576" data-name="Path 8576" d="M130.114,385.25a23.5,23.5,0,0,1,.414,4.616,22.225,22.225,0,0,1-.414,4.608,22.807,22.807,0,0,1-.414-4.608A23.5,23.5,0,0,1,130.114,385.25Z" transform="translate(-110.673 -385.25)"/>
        <path id="Path_8577" data-name="Path 8577" d="M144.184,385.25a22.881,22.881,0,0,1,.414,4.616,22.225,22.225,0,0,1-.414,4.608,22.807,22.807,0,0,1-.414-4.608A23.5,23.5,0,0,1,144.184,385.25Z" transform="translate(-113.083 -385.25)"/>
        <path id="Path_8578" data-name="Path 8578" d="M147.434,385.25a22.881,22.881,0,0,1,.414,4.616,22.225,22.225,0,0,1-.414,4.608,25.872,25.872,0,0,1,0-9.223Z" transform="translate(-113.64 -385.25)"/>
        <path id="Path_8579" data-name="Path 8579" d="M153.4,385.25a22.88,22.88,0,0,1,.414,4.616,22.225,22.225,0,0,1-.414,4.608,22.807,22.807,0,0,1-.414-4.608A23.5,23.5,0,0,1,153.4,385.25Z" transform="translate(-114.662 -385.25)"/>
        <path id="Path_8580" data-name="Path 8580" d="M141.464,385.25a25.872,25.872,0,0,1,0,9.223,25.872,25.872,0,0,1,0-9.223Z" transform="translate(-112.617 -385.25)"/>
        <path id="Path_8581" data-name="Path 8581" d="M118.294,385.25a25.872,25.872,0,0,1,0,9.223A25.872,25.872,0,0,1,118.294,385.25Z" transform="translate(-108.648 -385.25)"/>
        <path id="Path_8582" data-name="Path 8582" d="M134.594,385.25a25.872,25.872,0,0,1,0,9.223A25.872,25.872,0,0,1,134.594,385.25Z" transform="translate(-111.44 -385.25)"/>
        <path id="Path_8583" data-name="Path 8583" d="M136.914,385.25a25.872,25.872,0,0,1,0,9.223A25.872,25.872,0,0,1,136.914,385.25Z" transform="translate(-111.838 -385.25)"/>
        <path id="Path_8584" data-name="Path 8584" d="M161.184,385.25a25.872,25.872,0,0,1,0,9.223,25.872,25.872,0,0,1,0-9.223Z" transform="translate(-115.995 -385.25)"/>
        <path id="Path_8585" data-name="Path 8585" d="M164.7,385.25a23.5,23.5,0,0,1,.414,4.616,22.225,22.225,0,0,1-.414,4.608,22.225,22.225,0,0,1-.414-4.608,23.5,23.5,0,0,1,.414-4.616Z" transform="translate(-116.598 -385.25)"/>
        <path id="Path_8586" data-name="Path 8586" d="M156.174,385.25a25.872,25.872,0,0,1,0,9.223A25.872,25.872,0,0,1,156.174,385.25Z" transform="translate(-115.137 -385.25)"/>
        <path id="Path_8587" data-name="Path 8587" d="M123.994,385.25a23.5,23.5,0,0,1,.414,4.616,22.807,22.807,0,0,1-.414,4.608,22.225,22.225,0,0,1-.414-4.608,22.881,22.881,0,0,1,.414-4.616Z" transform="translate(-109.624 -385.25)"/>
      </g>
      <path id="Path_8588" data-name="Path 8588" d="M156.832,383.98v2.445l-52.192,1.649V383.98Z" transform="translate(-63.728 -360.909)" opacity="0.1"/>
      <rect id="Rectangle_980" data-name="Rectangle 980" width="52.192" height="11.536" transform="translate(39.595 11.536)" fill="#407bff"/>
      <g id="Group_1420" data-name="Group 1420" transform="translate(41.335 12.588)" opacity="0.1">
        <path id="Path_8589" data-name="Path 8589" d="M163.114,380.562a23.5,23.5,0,0,1-.414-4.616,22.375,22.375,0,0,1,.414-4.616,22.374,22.374,0,0,1,.414,4.616A23.5,23.5,0,0,1,163.114,380.562Z" transform="translate(-115.008 -371.33)"/>
        <path id="Path_8590" data-name="Path 8590" d="M158.424,380.562a23.5,23.5,0,0,1-.414-4.616,22.376,22.376,0,0,1,.414-4.616,22.373,22.373,0,0,1,.414,4.616A23.5,23.5,0,0,1,158.424,380.562Z" transform="translate(-114.204 -371.33)"/>
        <path id="Path_8591" data-name="Path 8591" d="M156.134,380.562a22.881,22.881,0,0,1-.414-4.616,22.376,22.376,0,0,1,.414-4.616,25.914,25.914,0,0,1,0,9.232Z" transform="translate(-113.812 -371.33)"/>
        <path id="Path_8592" data-name="Path 8592" d="M143.554,380.562a23.5,23.5,0,0,1-.414-4.616,22.938,22.938,0,0,1,.414-4.616,22.376,22.376,0,0,1,.414,4.616A23.5,23.5,0,0,1,143.554,380.562Z" transform="translate(-111.657 -371.33)"/>
        <path id="Path_8593" data-name="Path 8593" d="M140.154,380.562a25.913,25.913,0,0,1,0-9.232,25.914,25.914,0,0,1,0,9.232Z" transform="translate(-111.075 -371.33)"/>
        <path id="Path_8594" data-name="Path 8594" d="M126.084,380.562a25.913,25.913,0,0,1,0-9.232,25.914,25.914,0,0,1,0,9.232Z" transform="translate(-108.665 -371.33)"/>
        <path id="Path_8595" data-name="Path 8595" d="M122.834,380.562a25.914,25.914,0,0,1,0-9.232A25.914,25.914,0,0,1,122.834,380.562Z" transform="translate(-108.108 -371.33)"/>
        <path id="Path_8596" data-name="Path 8596" d="M116.914,380.562a25.914,25.914,0,0,1,0-9.232,25.914,25.914,0,0,1,0,9.232Z" transform="translate(-107.094 -371.33)"/>
        <path id="Path_8597" data-name="Path 8597" d="M128.8,380.562a25.913,25.913,0,0,1,0-9.232A26.436,26.436,0,0,1,128.8,380.562Z" transform="translate(-109.131 -371.33)"/>
        <path id="Path_8598" data-name="Path 8598" d="M151.974,380.562a23.5,23.5,0,0,1-.414-4.616,22.939,22.939,0,0,1,.414-4.616,22.375,22.375,0,0,1,.414,4.616A22.882,22.882,0,0,1,151.974,380.562Z" transform="translate(-113.1 -371.33)"/>
        <path id="Path_8599" data-name="Path 8599" d="M135.674,380.562a23.5,23.5,0,0,1-.414-4.616,22.941,22.941,0,0,1,.414-4.616,22.374,22.374,0,0,1,.414,4.616A23.5,23.5,0,0,1,135.674,380.562Z" transform="translate(-110.307 -371.33)"/>
        <path id="Path_8600" data-name="Path 8600" d="M133.334,380.562a25.913,25.913,0,0,1,0-9.232,26.435,26.435,0,0,1,0,9.232Z" transform="translate(-109.907 -371.33)"/>
        <path id="Path_8601" data-name="Path 8601" d="M109.084,380.562a25.914,25.914,0,0,1,0-9.232A25.914,25.914,0,0,1,109.084,380.562Z" transform="translate(-105.753 -371.33)"/>
        <path id="Path_8602" data-name="Path 8602" d="M105.564,380.562a25.914,25.914,0,0,1,0-9.232A25.914,25.914,0,0,1,105.564,380.562Z" transform="translate(-105.15 -371.33)"/>
        <path id="Path_8603" data-name="Path 8603" d="M114.094,380.562a25.913,25.913,0,0,1,0-9.232A26.436,26.436,0,0,1,114.094,380.562Z" transform="translate(-106.611 -371.33)"/>
        <path id="Path_8604" data-name="Path 8604" d="M146.274,380.562a22.881,22.881,0,0,1-.414-4.616,22.376,22.376,0,0,1,.414-4.616A25.913,25.913,0,0,1,146.274,380.562Z" transform="translate(-112.123 -371.33)"/>
      </g>
      <path id="Path_8605" data-name="Path 8605" d="M155.242,370.06v2.453l-52.192,1.641V370.06Z" transform="translate(-63.455 -358.524)" opacity="0.1"/>
      <rect id="Rectangle_981" data-name="Rectangle 981" width="52.192" height="11.536" transform="translate(36.421)" fill="#407bff"/>
      <g id="Group_1421" data-name="Group 1421" transform="translate(38.161 1.061)" opacity="0.1">
        <path id="Path_8606" data-name="Path 8606" d="M101.734,357.42a25.873,25.873,0,0,1,0,9.223A25.872,25.872,0,0,1,101.734,357.42Z" transform="translate(-101.32 -357.42)"/>
        <path id="Path_8607" data-name="Path 8607" d="M106.424,357.42a25.872,25.872,0,0,1,0,9.223A25.872,25.872,0,0,1,106.424,357.42Z" transform="translate(-102.123 -357.42)"/>
        <path id="Path_8608" data-name="Path 8608" d="M108.714,357.42a23.444,23.444,0,0,1,.414,4.616,22.805,22.805,0,0,1-.414,4.608,22.226,22.226,0,0,1-.414-4.608A22.832,22.832,0,0,1,108.714,357.42Z" transform="translate(-102.515 -357.42)"/>
        <path id="Path_8609" data-name="Path 8609" d="M121.294,357.42a25.872,25.872,0,0,1,0,9.223A25.872,25.872,0,0,1,121.294,357.42Z" transform="translate(-104.671 -357.42)"/>
        <path id="Path_8610" data-name="Path 8610" d="M124.694,357.42a23.445,23.445,0,0,1,.414,4.616,22.806,22.806,0,0,1-.414,4.608,22.225,22.225,0,0,1-.414-4.608A23.444,23.444,0,0,1,124.694,357.42Z" transform="translate(-105.253 -357.42)"/>
        <path id="Path_8611" data-name="Path 8611" d="M138.764,357.42a23.444,23.444,0,0,1,.414,4.616,22.807,22.807,0,0,1-.414,4.608,22.225,22.225,0,0,1-.414-4.608A23.444,23.444,0,0,1,138.764,357.42Z" transform="translate(-107.663 -357.42)"/>
        <path id="Path_8612" data-name="Path 8612" d="M142.014,357.42a22.832,22.832,0,0,1,.414,4.616,22.226,22.226,0,0,1-.414,4.608,22.807,22.807,0,0,1-.414-4.608A23.445,23.445,0,0,1,142.014,357.42Z" transform="translate(-108.22 -357.42)"/>
        <path id="Path_8613" data-name="Path 8613" d="M147.984,357.42a23.445,23.445,0,0,1,.414,4.616,22.227,22.227,0,0,1-.414,4.608,22.807,22.807,0,0,1-.414-4.608A23.444,23.444,0,0,1,147.984,357.42Z" transform="translate(-109.242 -357.42)"/>
        <path id="Path_8614" data-name="Path 8614" d="M136.044,357.42a22.832,22.832,0,0,1,.414,4.616,22.225,22.225,0,0,1-.414,4.608A25.873,25.873,0,0,1,136.044,357.42Z" transform="translate(-107.197 -357.42)"/>
        <path id="Path_8615" data-name="Path 8615" d="M112.914,357.42a25.873,25.873,0,0,1,0,9.223A25.872,25.872,0,0,1,112.914,357.42Z" transform="translate(-103.235 -357.42)"/>
        <path id="Path_8616" data-name="Path 8616" d="M129.174,357.42a25.872,25.872,0,0,1,0,9.223,25.872,25.872,0,0,1,0-9.223Z" transform="translate(-106.02 -357.42)"/>
        <path id="Path_8617" data-name="Path 8617" d="M131.514,357.42a22.833,22.833,0,0,1,.414,4.616,22.226,22.226,0,0,1-.414,4.608,25.872,25.872,0,0,1,0-9.223Z" transform="translate(-106.421 -357.42)"/>
        <path id="Path_8618" data-name="Path 8618" d="M155.764,357.42a22.829,22.829,0,0,1,.414,4.616,22.227,22.227,0,0,1-.414,4.608,22.806,22.806,0,0,1-.414-4.608,23.443,23.443,0,0,1,.414-4.616Z" transform="translate(-110.575 -357.42)"/>
        <path id="Path_8619" data-name="Path 8619" d="M159.284,357.42a23.445,23.445,0,0,1,.414,4.616,22.807,22.807,0,0,1-.414,4.608,22.225,22.225,0,0,1-.414-4.608,22.833,22.833,0,0,1,.414-4.616Z" transform="translate(-111.178 -357.42)"/>
        <path id="Path_8620" data-name="Path 8620" d="M150.754,357.42a22.829,22.829,0,0,1,.414,4.616,22.226,22.226,0,0,1-.414,4.608A25.872,25.872,0,0,1,150.754,357.42Z" transform="translate(-109.717 -357.42)"/>
        <path id="Path_8621" data-name="Path 8621" d="M118.574,357.42a25.872,25.872,0,0,1,0,9.223,22.226,22.226,0,0,1-.414-4.608,22.831,22.831,0,0,1,.414-4.616Z" transform="translate(-104.204 -357.42)"/>
      </g>
      <path id="Path_8622" data-name="Path 8622" d="M151.412,356.14v2.453L99.22,360.242v-4.1Z" transform="translate(-62.799 -356.14)" opacity="0.1"/>
      <rect id="Rectangle_982" data-name="Rectangle 982" width="52.192" height="11.536" transform="translate(36.421 34.598)" fill="#407bff"/>
      <g id="Group_1422" data-name="Group 1422" transform="translate(38.161 35.659)" opacity="0.1">
        <path id="Path_8623" data-name="Path 8623" d="M159.284,408.393a22.832,22.832,0,0,1-.414-4.616,22.226,22.226,0,0,1,.414-4.608A25.872,25.872,0,0,1,159.284,408.393Z" transform="translate(-111.178 -399.17)"/>
        <path id="Path_8624" data-name="Path 8624" d="M154.594,408.393a22.831,22.831,0,0,1-.414-4.616,22.226,22.226,0,0,1,.414-4.608A25.872,25.872,0,0,1,154.594,408.393Z" transform="translate(-110.374 -399.17)"/>
        <path id="Path_8625" data-name="Path 8625" d="M152.3,408.393a25.872,25.872,0,0,1,0-9.223,25.872,25.872,0,0,1,0,9.223Z" transform="translate(-109.983 -399.17)"/>
        <path id="Path_8626" data-name="Path 8626" d="M139.724,408.393a22.829,22.829,0,0,1-.414-4.616,22.225,22.225,0,0,1,.414-4.608,22.807,22.807,0,0,1,.414,4.608A23.444,23.444,0,0,1,139.724,408.393Z" transform="translate(-107.827 -399.17)"/>
        <path id="Path_8627" data-name="Path 8627" d="M136.324,408.393a25.872,25.872,0,0,1,0-9.223A25.872,25.872,0,0,1,136.324,408.393Z" transform="translate(-107.245 -399.17)"/>
        <path id="Path_8628" data-name="Path 8628" d="M122.254,408.393a25.872,25.872,0,0,1,0-9.223A26.394,26.394,0,0,1,122.254,408.393Z" transform="translate(-104.835 -399.17)"/>
        <path id="Path_8629" data-name="Path 8629" d="M118.994,408.393a25.872,25.872,0,0,1,0-9.223A25.872,25.872,0,0,1,118.994,408.393Z" transform="translate(-104.277 -399.17)"/>
        <path id="Path_8630" data-name="Path 8630" d="M113.026,408.393a26.394,26.394,0,0,1,0-9.223A25.872,25.872,0,0,1,113.026,408.393Z" transform="translate(-103.256 -399.17)"/>
        <path id="Path_8631" data-name="Path 8631" d="M124.964,408.393a25.872,25.872,0,0,1,0-9.223A25.872,25.872,0,0,1,124.964,408.393Z" transform="translate(-105.299 -399.17)"/>
        <path id="Path_8632" data-name="Path 8632" d="M148.144,408.393a22.83,22.83,0,0,1-.414-4.616,22.224,22.224,0,0,1,.414-4.608,22.806,22.806,0,0,1,.414,4.608,23.444,23.444,0,0,1-.414,4.616Z" transform="translate(-109.269 -399.17)"/>
        <path id="Path_8633" data-name="Path 8633" d="M131.844,408.393a22.831,22.831,0,0,1-.414-4.616,22.225,22.225,0,0,1,.414-4.608,22.807,22.807,0,0,1,.414,4.608,23.444,23.444,0,0,1-.414,4.616Z" transform="translate(-106.477 -399.17)"/>
        <path id="Path_8634" data-name="Path 8634" d="M129.494,408.393a25.872,25.872,0,0,1,0-9.223,25.872,25.872,0,0,1,0,9.223Z" transform="translate(-106.075 -399.17)"/>
        <path id="Path_8635" data-name="Path 8635" d="M105.244,408.393a25.872,25.872,0,0,1,0-9.223A25.872,25.872,0,0,1,105.244,408.393Z" transform="translate(-101.921 -399.17)"/>
        <path id="Path_8636" data-name="Path 8636" d="M101.734,408.393a25.872,25.872,0,0,1,0-9.223A25.872,25.872,0,0,1,101.734,408.393Z" transform="translate(-101.32 -399.17)"/>
        <path id="Path_8637" data-name="Path 8637" d="M110.254,408.393a25.872,25.872,0,0,1,0-9.223A25.872,25.872,0,0,1,110.254,408.393Z" transform="translate(-102.779 -399.17)"/>
        <path id="Path_8638" data-name="Path 8638" d="M142.444,408.393a25.872,25.872,0,0,1,0-9.223A25.872,25.872,0,0,1,142.444,408.393Z" transform="translate(-108.294 -399.17)"/>
      </g>
      <path id="Path_8639" data-name="Path 8639" d="M151.412,397.89v2.453L99.22,401.992v-4.1Z" transform="translate(-62.799 -363.292)" opacity="0.1"/>
      <path id="Path_8640" data-name="Path 8640" d="M88.551,385.892c34.35,6.166,25.284,57.056-9.116,50.882S54.135,379.693,88.551,385.892Z" transform="translate(-55.694 -361.147)" fill="#407bff"/>
      <path id="Path_8641" data-name="Path 8641" d="M88.551,385.892c34.35,6.166,25.284,57.056-9.116,50.882S54.135,379.693,88.551,385.892Z" transform="translate(-55.694 -361.147)" opacity="0.1"/>
      <path id="Path_8642" data-name="Path 8642" d="M84.88,385.172c32.742,5.875,23.659,56.766-9.116,50.882S52.1,379.289,84.88,385.172Z" transform="translate(-55.271 -361.032)" fill="#407bff"/>
      <path id="Path_8643" data-name="Path 8643" d="M60.46,412.775c.174,9.074,5.42,17.892,17.022,19.922,27.215,4.881,34.747-37.358,7.574-42.264-.174,0-.356-.066-.53-.083,25.474,5.1,18.173,45.073-7.773,40.416C66.128,428.9,61.024,421.07,60.46,412.775Z" transform="translate(-56.16 -362)" opacity="0.1"/>
      <g id="Group_1423" data-name="Group 1423" transform="translate(13.132 33.685)" opacity="0.1">
        <path id="Path_8644" data-name="Path 8644" d="M85.879,396.848a.829.829,0,0,1,.63,1.044l-.348,1.4a11.734,11.734,0,0,1,5.577,3.994.986.986,0,0,1,.282.92.92.92,0,0,1-1.127.646.829.829,0,0,1-.564-.4,10.243,10.243,0,0,0-4.674-3.58l-2.436,9.779c5.03,2.486,6.77,4.972,5.909,8.411-.92,3.7-4.682,5.544-9.116,4.6l-.68,2.718a.854.854,0,0,1-1.657-.414l.688-2.76a13.508,13.508,0,0,1-7.011-5.345.911.911,0,1,1,1.459-1.086,11.643,11.643,0,0,0,6.016,4.881l2.486-9.944c-4.972-2.486-6.63-4.923-5.8-8.411s4.624-5.453,8.909-4.492l.331-1.326a.829.829,0,0,1,1.127-.638Zm-4.086,13.077,2.378-9.538c-3.406-.771-6.141.7-6.77,3.207C76.821,405.972,77.567,407.737,81.793,409.925Zm1,2.486-2.4,9.638c3.514.829,6.29-.655,6.945-3.315.613-2.378-.24-4.152-4.533-6.3Z" transform="translate(-71.118 -396.788)"/>
      </g>
    </g>
    <g id="freepik--Character--inject-29" transform="translate(129.917 83.296)">
      <path id="Path_8645" data-name="Path 8645" d="M318.764,403.851c-1.9.613-56.07-.091-58.117-1.434-.787-.489-1.144-8.386-1.3-17.95v-.3c-.041-1.972-.066-3.994-.066-6.05v-.829l2.627-28.1,36.239.365-3.58,27.836-.041,1.1-.215,5.8v.588s20.618,9.547,22.715,11.254S320.67,403.246,318.764,403.851Z" transform="translate(-170.287 -135.746)" fill="#f7a9a0"/>
      <path id="Path_8646" data-name="Path 8646" d="M318.764,409.66c-1.9.613-56.07-.091-58.117-1.434-.787-.489-1.144-8.386-1.3-17.95v-.3c-.041-1.972-.066-3.994-.066-6.05V383.1l35.286.1-.041,1.1-.215,5.8v.588s20.618,9.547,22.715,11.254S320.67,409.055,318.764,409.66Z" transform="translate(-170.287 -141.554)" fill="#ebebeb"/>
      <path id="Path_8647" data-name="Path 8647" d="M318.79,411.073c-.978.315-15.7.282-30.082,0-2.892-.058-5.8-.124-8.511-.2-10.259-.282-18.737-.7-19.524-1.218s-1.135-8.171-1.293-17.552v-.7h.041l34.913.066v.6s20.618,9.538,22.706,11.245S320.687,410.468,318.79,411.073Z" transform="translate(-170.304 -142.976)" fill="#37474f"/>
      <path id="Path_8648" data-name="Path 8648" d="M318.973,412.474c-9.116-.34-45.985-.829-55.034-.505-.075,0-.075.05,0,.058,9.041.539,45.894.754,55.026.6C319.163,412.623,319.163,412.482,318.973,412.474Z" transform="translate(-171.075 -146.481)" fill="#263238"/>
      <path id="Path_8649" data-name="Path 8649" d="M303.994,391.6c-3.58-.721-7.989-.224-10.773,2.3-.108.091,0,.249.149.207a50.548,50.548,0,0,1,10.6-2.055.232.232,0,0,0,.025-.456Z" transform="translate(-176.093 -142.958)" fill="#263238"/>
      <path id="Path_8650" data-name="Path 8650" d="M307.1,393.519c-3.588-.713-7.989-.215-10.773,2.3-.108.1,0,.249.149.215a50.548,50.548,0,0,1,10.591-2.064.232.232,0,0,0,.033-.456Z" transform="translate(-176.626 -143.288)" fill="#263238"/>
      <path id="Path_8651" data-name="Path 8651" d="M310.2,395.448c-3.58-.713-7.989-.224-10.773,2.3-.108.1,0,.249.149.215a50.6,50.6,0,0,1,10.6-2.063.232.232,0,0,0,.025-.456Z" transform="translate(-177.157 -143.618)" fill="#263238"/>
      <path id="Path_8652" data-name="Path 8652" d="M287.756,359.435H245.244s9.232-83.914,8.925-85.505c-.157-.829-7.8-12.364-16.881-25.864-5.08-7.558-10.607-15.745-15.522-22.972-8.121-11.966-14.577-21.414-14.577-21.414h41.626s5.6,6.762,12.944,16.334c10.392,13.558,24.273,32.742,30.662,46.316C297.361,276.871,287.756,359.435,287.756,359.435Z" transform="translate(-161.364 -110.82)" fill="#455a64"/>
      <path id="Path_8653" data-name="Path 8653" d="M288.926,272.882c-.829-4.674-3.124-8.768-5.436-12.828-4.782-8.4-26.336-40.432-32.319-47.982l-2.3-2.867c-.05-.066-.157,0-.108.066,5.859,7.566,27.215,39.305,32,47.559,2.362,4.061,4.972,8.163,6.522,12.646,1.6,4.724,1.376,9.746,1.127,14.66q-.771,15.207-1.84,30.4-1.086,15.356-2.486,30.662c-.116,1.251-.232,2.486-.34,3.762-.041.4.356.439.4,0,.978-10.185,2.055-20.27,2.818-30.471s1.434-20.535,1.989-30.811C289.233,282.785,289.755,277.763,288.926,272.882Z" transform="translate(-168.484 -111.762)" fill="#263238"/>
      <path id="Path_8654" data-name="Path 8654" d="M295.074,383.534c-5.958-.124-4.243-.174-10.2-.232-2.917,0-22.085-.191-24.811.257-.058,0-.058.116,0,.124,2.726.447,21.894.282,24.811.257,5.958-.058,4.243-.108,10.2-.232a.087.087,0,0,0,0-.174Z" transform="translate(-170.413 -141.582)" fill="#263238"/>
      <path id="Path_8655" data-name="Path 8655" d="M250.672,268.2C239.783,251.4,207.19,203.68,207.19,203.68H229Z" transform="translate(-161.364 -110.82)" fill="#263238"/>
      <path id="Path_8656" data-name="Path 8656" d="M152.752,446.687c1.906.6,56.07-.663,58.1-2.022.779-.505,1.052-8.4,1.119-17.966v-.3c0-1.964,4.541-35.071,4.541-35.071l-35.4.721-4.094,34.805v.6s-20.494,9.721-22.549,11.444S150.846,446.1,152.752,446.687Z" transform="translate(-151.891 -142.964)" fill="#f7a9a0"/>
      <path id="Path_8657" data-name="Path 8657" d="M152.752,452.508c1.906.6,56.07-.663,58.1-2.022.779-.505,1.052-8.4,1.119-17.966v-.3s.829-6.63.829-6.911l-34.955.622-.787,6.712v.6s-20.535,9.754-22.59,11.477S150.846,451.92,152.752,452.508Z" transform="translate(-151.891 -148.785)" fill="#ebebeb"/>
      <path id="Path_8658" data-name="Path 8658" d="M152.752,453.937c1.906.6,56.07-.663,58.1-2.022.779-.505,1.052-8.4,1.119-17.966v-.3l-34.955.423v.6s-20.494,9.754-22.549,11.478S150.846,453.348,152.752,453.937Z" transform="translate(-151.891 -150.213)" fill="#37474f"/>
      <path id="Path_8659" data-name="Path 8659" d="M153.58,455.349c9.116-.439,45.968-1.334,55.026-1.069.075,0,.075.05,0,.058-9.033.63-45.885,1.226-55.026,1.16C153.39,455.5,153.39,455.357,153.58,455.349Z" transform="translate(-152.156 -153.739)" fill="#263238"/>
      <path id="Path_8660" data-name="Path 8660" d="M177.482,434.321c3.58-.754,7.98-.307,10.773,2.188.108.1,0,.257-.149.215a50.658,50.658,0,0,0-10.616-1.947.232.232,0,0,1-.008-.456Z" transform="translate(-156.243 -150.271)" fill="#263238"/>
      <path id="Path_8661" data-name="Path 8661" d="M174.392,436.281c3.58-.754,7.989-.307,10.773,2.188.108.1,0,.249-.149.215a50.034,50.034,0,0,0-10.616-1.947.232.232,0,0,1-.008-.456Z" transform="translate(-155.714 -150.607)" fill="#263238"/>
      <path id="Path_8662" data-name="Path 8662" d="M171.3,438.241c3.572-.754,7.98-.307,10.773,2.188.108.1,0,.249-.149.215a50.674,50.674,0,0,0-10.616-1.956.224.224,0,1,1-.008-.448Z" transform="translate(-155.179 -150.943)" fill="#263238"/>
      <path id="Path_8663" data-name="Path 8663" d="M244.126,203.68s-4.972,30.405-5.329,31.383c0,0-1.856.878-5.2,2.42L218.817,395.152l-39.007.157L201.555,203.68Z" transform="translate(-156.674 -110.82)" fill="#455a64"/>
      <path id="Path_8664" data-name="Path 8664" d="M218.024,426.319c-5.958-.1-4.243-.157-10.21-.191-2.909,0-22.077-.1-24.8.365-.058,0-.058.108,0,.124,2.735.439,21.894.191,24.811.149,5.958-.083,4.243-.124,10.2-.273a.091.091,0,1,0,0-.174Z" transform="translate(-157.214 -148.923)" fill="#263238"/>
      <path id="Path_8665" data-name="Path 8665" d="M214.451,210.751c-1.517,21.72-3.083,43.441-4.856,65.144s-3.895,43.532-6.522,65.227c-1.467,12.116-3.066,29.187-4.823,41.261,0,.083.116.116.124,0,3.638-21.463,6.2-48.065,8.395-69.744s3.945-43.358,5.486-65.07q1.243-18.422,2.486-36.852C214.733,210.569,214.459,210.577,214.451,210.751Z" transform="translate(-159.832 -112.008)" fill="#263238"/>
      <path id="Path_8666" data-name="Path 8666" d="M250.68,240.4a71.789,71.789,0,0,0-11.154,5.842.126.126,0,1,0,.116.224c3.762-1.823,7.607-3.588,11.262-5.619a.25.25,0,0,0-.224-.448Z" transform="translate(-166.891 -117.106)" fill="#263238"/>
      <path id="Path_8667" data-name="Path 8667" d="M250,219.377c-.613,3.638-.953,7.334-1.359,11-.1.878-.207,1.765-.3,2.644a5.113,5.113,0,0,1-.638,2.312,7.3,7.3,0,0,1-3.489,2.362c-.149.066-.091.3.075.249A8.477,8.477,0,0,0,248,235.976c1.168-1.235,1.127-3.108,1.309-4.7a100.137,100.137,0,0,0,.829-11.884C250.162,219.3,250.013,219.277,250,219.377Z" transform="translate(-167.691 -113.498)" fill="#263238"/>
      <path id="Path_8668" data-name="Path 8668" d="M245.649,220.726c-.133,2.619-.423,5.237-.646,7.856-.108,1.284-.2,2.586-.273,3.878s-.232,2.66-.191,3.969a.083.083,0,0,0,.157,0c.215-1.243.249-2.536.348-3.8s.2-2.652.273-3.978c.149-2.644.215-5.312.456-7.956A.064.064,0,0,0,245.649,220.726Z" transform="translate(-167.76 -113.728)" fill="#263238"/>
      <path id="Path_8669" data-name="Path 8669" d="M260.959,220.014l-15.986,2.03-24.032,3.05-18.231,2.312L205.4,203.68h42.57S253.65,210.442,260.959,220.014Z" transform="translate(-160.596 -110.82)" fill="#263238"/>
      <path id="Path_8670" data-name="Path 8670" d="M248.358,150.677c7.326,15.066,22.8,30.869,31.615,30.869,8.287,0,29.121-16.325,38.866-25.922,2.221-2.188-18.041-19.483-20.22-16.947-5.088,5.925-16.988,18.787-20.8,18.787-3.4,0-14.088-7.707-23.444-15.348C243.038,132.844,245.441,144.7,248.358,150.677Z" transform="translate(-168 -99.642)" fill="#f7a9a0"/>
      <path id="Path_8671" data-name="Path 8671" d="M330.4,150.982c2.594-1.459,10.425-8.113,15.3-14.279,2.362-3,8.237-12.315,6.083-14.3s-4.144.58-4.144.58,1.889-4.309-.464-6.116-5.271,2.3-5.271,2.3,1.657-4.566-.829-6.2-4.724,2.983-4.724,2.983,1.657-4.144-.928-4.591c-3.141-.588-5.378,7.334-8.154,10.508-.638.729-13.839,13.723-13.839,13.723Z" transform="translate(-179.562 -94.999)" fill="#f7a9a0"/>
      <path id="Path_8672" data-name="Path 8672" d="M339.374,116.954c-1.657,5.8-3.389,8.072-7.831,12.041-.083.083,0,.232.108.157,4.707-3.5,7.284-6.016,8.014-12.14C339.689,116.673,339.449,116.631,339.374,116.954Z" transform="translate(-182.659 -95.926)" fill="#263238"/>
      <path id="Path_8673" data-name="Path 8673" d="M346.247,120.5c-2.254,5.892-4.144,8.362-8.453,12.861-.066.058,0,.174.108.116,4.632-4.061,7.152-6.63,8.627-12.82C346.587,120.376,346.338,120.227,346.247,120.5Z" transform="translate(-183.731 -96.547)" fill="#263238"/>
      <path id="Path_8674" data-name="Path 8674" d="M352.554,125.949c-2.586,5.552-4.508,8.345-9.29,12.174a.116.116,0,0,0,.133.182c5.254-3.431,7.674-6.895,9.323-12.256C352.828,125.651,352.72,125.568,352.554,125.949Z" transform="translate(-184.668 -97.463)" fill="#263238"/>
      <rect id="Rectangle_983" data-name="Rectangle 983" width="61.175" height="44.128" transform="matrix(1, -0.01, 0.01, 1, 142.466, 0.738)" fill="#ebebeb"/>
      <rect id="Rectangle_984" data-name="Rectangle 984" width="4.458" height="24.447" transform="matrix(1, -0.01, 0.01, 1, 153.697, 9.699)" fill="#407bff"/>
      <path id="Path_8675" data-name="Path 8675" d="M350.916,129l-4.458.05-.157-17.709,4.45-.041Z" transform="translate(-185.193 -94.995)" fill="#407bff"/>
      <rect id="Rectangle_985" data-name="Rectangle 985" width="4.458" height="13.64" transform="matrix(1, -0.01, 0.01, 1, 168.431, 20.356)" fill="#407bff"/>
      <rect id="Rectangle_986" data-name="Rectangle 986" width="4.458" height="10.931" transform="matrix(1, -0.01, 0.01, 1, 175.766, 22.992)" fill="#407bff"/>
      <rect id="Rectangle_987" data-name="Rectangle 987" width="4.458" height="17.709" transform="matrix(1, -0.01, 0.01, 1, 183.006, 16.14)" fill="#407bff"/>
      <rect id="Rectangle_988" data-name="Rectangle 988" width="4.458" height="21.082" transform="translate(190.295 12.653) rotate(-0.59)" fill="#407bff"/>
      <path id="Path_8676" data-name="Path 8676" d="M333.669,100.06c.157,4.525.3,9.049.389,13.582s.207,9.058.257,13.582l-.373-.373L345.7,126.7l11.751-.075H369.22c3.928,0,7.84.05,11.759.116q-5.884.207-11.759.348c-3.92.083-7.84.2-11.759.249l-11.751.166-11.792.1h-.381v-.373c-.041-4.533,0-9.058,0-13.591S333.594,104.585,333.669,100.06Z" transform="translate(-183.003 -93.07)" fill="#c7c7c7"/>
      <path id="Path_8677" data-name="Path 8677" d="M332,102.976a10.707,10.707,0,0,1,1.459-.116,9.471,9.471,0,0,1,1.45.091,10.26,10.26,0,0,1-2.909,0Z" transform="translate(-182.743 -93.55)" fill="#c7c7c7"/>
      <path id="Path_8678" data-name="Path 8678" d="M332,105.976a10.776,10.776,0,0,1,1.459-.116,9.472,9.472,0,0,1,1.45.091,10.259,10.259,0,0,1-2.909,0Z" transform="translate(-182.743 -94.063)" fill="#c7c7c7"/>
      <path id="Path_8679" data-name="Path 8679" d="M332,109.036a9.612,9.612,0,0,1,1.458-.116,9.472,9.472,0,0,1,1.45.091,10.259,10.259,0,0,1-2.909,0Z" transform="translate(-182.743 -94.588)" fill="#c7c7c7"/>
      <path id="Path_8680" data-name="Path 8680" d="M332.06,112.059a10.317,10.317,0,0,1,2.917,0,10.317,10.317,0,0,1-2.917,0Z" transform="translate(-182.754 -95.108)" fill="#c7c7c7"/>
      <path id="Path_8681" data-name="Path 8681" d="M332.09,115.079a10.317,10.317,0,0,1,2.917,0,10.317,10.317,0,0,1-2.917,0Z" transform="translate(-182.759 -95.625)" fill="#c7c7c7"/>
      <path id="Path_8682" data-name="Path 8682" d="M332.12,118.1a10.318,10.318,0,0,1,2.917,0,10.317,10.317,0,0,1-2.917,0Z" transform="translate(-182.764 -96.142)" fill="#c7c7c7"/>
      <path id="Path_8683" data-name="Path 8683" d="M332.16,121.116a9.423,9.423,0,0,1,1.45-.116,9.579,9.579,0,0,1,1.459.091,9.614,9.614,0,0,1-1.459.116,9.472,9.472,0,0,1-1.45-.091Z" transform="translate(-182.771 -96.657)" fill="#c7c7c7"/>
      <path id="Path_8684" data-name="Path 8684" d="M332.19,124.139a10.259,10.259,0,0,1,2.909,0,9.613,9.613,0,0,1-1.459.116,9.471,9.471,0,0,1-1.45-.116Z" transform="translate(-182.776 -97.177)" fill="#c7c7c7"/>
      <path id="Path_8685" data-name="Path 8685" d="M332.22,127.159a10.26,10.26,0,0,1,2.909,0,9.613,9.613,0,0,1-1.459.116A9.472,9.472,0,0,1,332.22,127.159Z" transform="translate(-182.781 -97.694)" fill="#c7c7c7"/>
      <path id="Path_8686" data-name="Path 8686" d="M332.25,130.179a10.259,10.259,0,0,1,2.909,0,10.691,10.691,0,0,1-1.45.116,9.511,9.511,0,0,1-1.459-.116Z" transform="translate(-182.786 -98.212)" fill="#c7c7c7"/>
      <path id="Path_8687" data-name="Path 8687" d="M349.24,99.052c1.6-.149,3.19-.224,4.782-.29s3.19-.1,4.79-.124,3.191,0,4.782,0,3.191.075,4.79.191c-1.6.149-3.19.224-4.782.29s-3.19.091-4.79.116-3.19,0-4.782,0S350.839,99.16,349.24,99.052Z" transform="translate(-185.697 -92.825)" fill="#c7c7c7"/>
      <path id="Path_8688" data-name="Path 8688" d="M353.6,101.692a57.677,57.677,0,0,1,11.958-.124,49.721,49.721,0,0,1-5.975.373A51.6,51.6,0,0,1,353.6,101.692Z" transform="translate(-186.443 -93.285)" fill="#c7c7c7"/>
      <path id="Path_8689" data-name="Path 8689" d="M333.84,138.229V135.37H336.7v2.867Zm.389-2.486v2.039h2.03v-2.03Z" transform="translate(-183.059 -99.119)" fill="#c7c7c7"/>
      <path id="Path_8690" data-name="Path 8690" d="M339.78,135.486c2.428-.108,4.856-.182,7.293-.24l7.284-.116h7.284c2.436,0,4.864,0,7.293.091-2.428.1-4.856.182-7.284.232l-7.293.124h-7.284Q343.426,135.561,339.78,135.486Z" transform="translate(-184.076 -99.078)" fill="#c7c7c7"/>
      <path id="Path_8691" data-name="Path 8691" d="M339.8,136.935c2.743-.2,5.486-.232,8.229-.29s5.494,0,8.237.124c-2.743.2-5.486.24-8.229.29S342.543,137.109,339.8,136.935Z" transform="translate(-184.08 -99.333)" fill="#c7c7c7"/>
      <path id="Path_8692" data-name="Path 8692" d="M339.81,138.442c3.365-.2,6.737-.249,10.1-.307s6.729,0,10.1.1c-3.365.207-6.729.257-10.1.315S343.183,138.583,339.81,138.442Z" transform="translate(-184.081 -99.588)" fill="#c7c7c7"/>
      <path id="Path_8693" data-name="Path 8693" d="M333.94,104.332a11.362,11.362,0,0,1,3.265-.762,6.9,6.9,0,0,1,3.365.431,9.671,9.671,0,0,1,2.693,2.088c.787.829,1.508,1.657,2.2,2.552,1.409,1.732,2.718,3.539,4.226,5.138a12.364,12.364,0,0,0,5.262,3.638,6.7,6.7,0,0,0,3.108.191,10.45,10.45,0,0,0,3.008-1.135,36.914,36.914,0,0,0,5.362-3.845c1.724-1.409,3.389-2.9,5.171-4.26a21.054,21.054,0,0,1,2.809-1.848,9.508,9.508,0,0,1,1.541-.688,5.618,5.618,0,0,1,1.657-.249,6.779,6.779,0,0,0-3.091,1.127,21.32,21.32,0,0,0-2.668,1.972c-1.707,1.417-3.315,2.95-4.972,4.425a32.162,32.162,0,0,1-5.42,4.027,11.047,11.047,0,0,1-3.215,1.251,7.566,7.566,0,0,1-3.5-.174,13.11,13.11,0,0,1-5.577-3.92,65.555,65.555,0,0,1-4.143-5.262c-.671-.887-1.351-1.765-2.088-2.586a9.356,9.356,0,0,0-2.486-2.08,6.63,6.63,0,0,0-3.166-.572,12.7,12.7,0,0,0-3.348.539Z" transform="translate(-183.076 -93.663)" fill="#263238"/>
      <path id="Path_8694" data-name="Path 8694" d="M307.71,138.176s4.624-5.983,7.284-8.113,15.513-6.431,16.574-3.7c1.4,3.514-5.527,7.458-9.174,8.942,0,0,3.249,8.121-1.11,12.024S307.71,138.176,307.71,138.176Z" transform="translate(-178.583 -97.425)" fill="#f7a9a0"/>
      <path id="Path_8695" data-name="Path 8695" d="M334.515,127.858c-1.036,4.144-5.95,5.8-9.373,7.458a.348.348,0,0,0-.108.563c1.127,3.5,1.715,8.759-.63,11.85a.085.085,0,1,0,.124.116c2.967-2.975,2.818-8.188,1.334-11.942,3.539-1.657,8.395-3.555,8.693-8.055Z" transform="translate(-181.439 -97.83)" fill="#263238"/>
      <path id="Path_8696" data-name="Path 8696" d="M252.328,140.453c6.124,4.094,21.082,17.138,25.168,16.093s17.2-15.008,17.2-15.008l20.668,19.549s-23.427,22.276-36.38,21.455-26.386-20.718-30.662-29.286S242.127,133.649,252.328,140.453Z" transform="translate(-167.818 -99.627)" fill="#407bff"/>
      <path id="Path_8697" data-name="Path 8697" d="M279.668,168.5a3.472,3.472,0,0,1,0-2.362A3.472,3.472,0,0,1,279.668,168.5Zm19.557-14.461a3.1,3.1,0,0,0-.207-1.177,3.1,3.1,0,0,0-.207,1.177,3.264,3.264,0,0,0,.207,1.177A3.265,3.265,0,0,0,299.226,154.04Zm2.486,18.43a3.265,3.265,0,0,0-.207-1.177,3.447,3.447,0,0,0,0,2.354A3.266,3.266,0,0,0,301.712,172.47Zm-42.827-8.643a2.917,2.917,0,0,0-.207-1.177,3.447,3.447,0,0,0,0,2.354A3.1,3.1,0,0,0,258.885,163.827Zm36.67,5.942a3.1,3.1,0,0,0-.207-1.177,3.447,3.447,0,0,0,0,2.354,3.1,3.1,0,0,0,.207-1.177Zm-23.2-13.392a3.315,3.315,0,0,0,1.177-.207,2.967,2.967,0,0,0-1.177-.207,3.066,3.066,0,0,0-1.177.207,3.231,3.231,0,0,0,1.193.207Zm1.492,17.113a3.265,3.265,0,0,0,1.177-.207,3.447,3.447,0,0,0-2.354,0,3.232,3.232,0,0,0,1.193.207ZM288.66,165.2a3.124,3.124,0,0,0,1.177-.207,3.124,3.124,0,0,0-1.177-.207,3.315,3.315,0,0,0-1.185.207,3.315,3.315,0,0,0,1.2.215Zm17.825,1.749a3.1,3.1,0,0,0,1.177-.207,3.448,3.448,0,0,0-2.353,0,3.066,3.066,0,0,0,1.193.215Zm-9.944-19.889a3.232,3.232,0,0,0,1.177-.207,2.917,2.917,0,0,0-1.177-.207,3.124,3.124,0,0,0-1.177.207,3.315,3.315,0,0,0,1.16.232Zm-38.319,3.365a3.24,3.24,0,0,0-.986-.688,3.108,3.108,0,0,0,.688.978,3.066,3.066,0,0,0,.978.688,3.182,3.182,0,0,0-.7-.953Zm8.536,18.339a3.2,3.2,0,0,0-.978-.688,3.481,3.481,0,0,0,1.657,1.657,3.2,3.2,0,0,0-.7-.945Zm20.361,4.144a3.141,3.141,0,0,0-.986-.688,3.364,3.364,0,0,0,1.657,1.657,3.315,3.315,0,0,0-.688-.953Zm11.188-10.657a3.066,3.066,0,0,0-.978-.688,3.481,3.481,0,0,0,1.657,1.657,3.2,3.2,0,0,0-.68-.97Zm-15.2-4.052a3.182,3.182,0,0,0-.978-.68,3.48,3.48,0,0,0,1.657,1.657,3.241,3.241,0,0,0-.68-.953Zm-2.942,20.56a3.2,3.2,0,0,0-.688.978,3.107,3.107,0,0,0,.978-.688,3.066,3.066,0,0,0,.688-.978A3.2,3.2,0,0,0,280.166,178.76Zm12.621-1.533a3.083,3.083,0,0,0-.68.978,3.48,3.48,0,0,0,1.657-1.657,3.241,3.241,0,0,0-.994.68Zm-21.38-14.088a3.066,3.066,0,0,0-.688.978,3.067,3.067,0,0,0,.978-.688,3.107,3.107,0,0,0,.688-.978,3.108,3.108,0,0,0-.994.63Zm36.107-5.329a3.042,3.042,0,0,0-.68.978,3.2,3.2,0,0,0,.978-.688,3.315,3.315,0,0,0,.688-.978,3.24,3.24,0,0,0-.986.688Zm-43.673,0a3.2,3.2,0,0,0-.688.978,3.481,3.481,0,0,0,1.657-1.657,3.2,3.2,0,0,0-.953.68Zm26.311-3.083a3.2,3.2,0,0,0-.688.978,3.141,3.141,0,0,0,.986-.688,3.315,3.315,0,0,0,.688-.978,3.241,3.241,0,0,0-.97.688ZM252.711,145.3a3.266,3.266,0,0,0-.207-1.177,2.942,2.942,0,0,0-.207,1.177,3.066,3.066,0,0,0,.207,1.177,3.233,3.233,0,0,0,.224-1.177Zm.406,12.663a3.315,3.315,0,0,0,1.185-.207,2.983,2.983,0,0,0-1.185-.207,3.124,3.124,0,0,0-1.177.207,3.315,3.315,0,0,0,1.193.207Z" transform="translate(-169.029 -100.617)" fill="#fff"/>
      <path id="Path_8698" data-name="Path 8698" d="M319.05,165.07a25.342,25.342,0,0,0-2.122-2.2c-.7-.729-1.442-1.434-2.179-2.13-1.425-1.351-2.867-2.685-4.309-4l-4.359-3.953c-1.5-1.359-2.967-2.818-4.574-4.052a.067.067,0,1,0-.091.1c1.342,1.508,2.9,2.867,4.367,4.268l4.334,4.144q2.163,2.063,4.376,4.094c.729.663,1.458,1.309,2.2,1.947a27.641,27.641,0,0,0,2.279,1.9C319.042,165.228,319.1,165.128,319.05,165.07Z" transform="translate(-177.501 -101.405)" fill="#263238"/>
      <path id="Path_8699" data-name="Path 8699" d="M277.294,182.479c-12.431-2.329-24.861-20.867-29-29.054-2.751-5.478-4.492-11.958-2.726-14.154C250.593,146.1,268.178,170.081,277.294,182.479Z" transform="translate(-167.815 -99.787)" fill="#263238"/>
      <path id="Path_8700" data-name="Path 8700" d="M258.928,205.921c-.829.936-56.733,1.019-57.015.68-.771-.928,12.472-58.092,24.861-68.036,2.66-2.138,12.87-1.815,14.262-1.268,1.591.6,6.083,8.2,8.13,14.395C253.243,164.08,259.657,205.1,258.928,205.921Z" transform="translate(-160.454 -99.379)" fill="#407bff"/>
      <path id="Path_8701" data-name="Path 8701" d="M237.762,172.086a3.265,3.265,0,0,1-.207-1.177,3.066,3.066,0,0,1,.207-1.177,3.066,3.066,0,0,1,.207,1.177A3.266,3.266,0,0,1,237.762,172.086Zm7.077,12.265a3.315,3.315,0,0,0-.207-1.185,2.984,2.984,0,0,0-.207,1.185,3.125,3.125,0,0,0,.207,1.177A3.315,3.315,0,0,0,244.839,184.351Zm-.207-39.438a3.266,3.266,0,0,0-.207-1.177,2.942,2.942,0,0,0-.207,1.177,3.067,3.067,0,0,0,.207,1.177,3.232,3.232,0,0,0,.207-1.177ZM227.544,184.8a3.231,3.231,0,0,0-.207-1.177,2.917,2.917,0,0,0-.207,1.177,3.1,3.1,0,0,0,.207,1.177,3.266,3.266,0,0,0,.207-1.177Zm29.2,5.577a3.141,3.141,0,0,0-.207-1.185,3.141,3.141,0,0,0-.207,1.185,3.316,3.316,0,0,0,.207,1.177,3.124,3.124,0,0,0,.207-1.177Zm-20.162,8.055a3.1,3.1,0,0,0-.207-1.177,3.1,3.1,0,0,0-.207,1.177,3.231,3.231,0,0,0,.207,1.177,3.066,3.066,0,0,0,.207-1.177Zm-16.408,5.544a3.265,3.265,0,0,0-.207-1.177,3.447,3.447,0,0,0,0,2.354,3.266,3.266,0,0,0,.207-1.177Zm13.458-48.421a3.125,3.125,0,0,0-.207-1.177,3.472,3.472,0,0,0,0,2.362,3.141,3.141,0,0,0,.207-1.185Zm-10.616-6.7a3.232,3.232,0,0,0-.207-1.177,3.448,3.448,0,0,0,0,2.354A3.266,3.266,0,0,0,223.011,148.858Zm-.207,20.013a3.316,3.316,0,0,0-.207-1.177,3.472,3.472,0,0,0,0,2.362A3.314,3.314,0,0,0,222.8,168.871Zm-11.171,21.546a2.917,2.917,0,0,0-.207-1.177,3.232,3.232,0,0,0-.207,1.177,3.316,3.316,0,0,0,.207,1.177,3.124,3.124,0,0,0,.207-1.218Zm39.156-26.933a2.917,2.917,0,0,0-.207-1.177,3.447,3.447,0,0,0,0,2.354,3.1,3.1,0,0,0,.207-1.218Zm-20.378,3.621a3.315,3.315,0,0,0,1.177-.207,3.472,3.472,0,0,0-2.362,0,3.315,3.315,0,0,0,1.185.166Zm-1.185,26.237a3.315,3.315,0,0,0,1.185-.207,3.472,3.472,0,0,0-2.362,0,3.315,3.315,0,0,0,1.177.166Zm6.381,13.276a3.066,3.066,0,0,0,1.177-.207,3.232,3.232,0,0,0-1.177-.207,3.315,3.315,0,0,0-1.177.207A3.124,3.124,0,0,0,235.607,206.618Zm14.66-35a3.265,3.265,0,0,0,1.177-.207,3.447,3.447,0,0,0-2.353,0,3.232,3.232,0,0,0,1.152.224Zm-29-14.345a3.1,3.1,0,0,0,1.177-.207,3.1,3.1,0,0,0-1.177-.207,3.265,3.265,0,0,0-1.177.207,3.1,3.1,0,0,0,1.135.224ZM235.831,146.5a3.265,3.265,0,0,0,1.177-.207,2.942,2.942,0,0,0-1.177-.207,3.066,3.066,0,0,0-1.177.207,3.232,3.232,0,0,0,1.135.2Zm-14.693,31.109a3.266,3.266,0,0,0,1.177-.207,2.942,2.942,0,0,0-1.177-.207,3.066,3.066,0,0,0-1.177.207,3.232,3.232,0,0,0,1.177.207Zm-8.221,20.809a3.124,3.124,0,0,0,1.177-.207,3.472,3.472,0,0,0-2.362,0,3.141,3.141,0,0,0,1.185.215Zm32.12-40.855a3.314,3.314,0,0,0,1.185-.207,2.983,2.983,0,0,0-1.185-.207,3.124,3.124,0,0,0-1.177.207,3.315,3.315,0,0,0,1.177.215Zm-7.7,21.944a3.067,3.067,0,0,0,1.177-.207,3.447,3.447,0,0,0-2.354,0,3.1,3.1,0,0,0,1.177.215Zm16.823,25.449a3.067,3.067,0,0,0,1.177-.207,3.447,3.447,0,0,0-2.354,0A3.1,3.1,0,0,0,254.162,204.961Zm-9.737-11.42a3.315,3.315,0,0,0,1.177-.207,3.472,3.472,0,0,0-2.362,0,3.315,3.315,0,0,0,1.185.174Zm.141,9.356a3.2,3.2,0,0,0-.978-.688,3.107,3.107,0,0,0,.688.978,3.066,3.066,0,0,0,.978.688,3.2,3.2,0,0,0-.688-1.011Zm-31.491-20.875a3.2,3.2,0,0,0-.978-.688,3.108,3.108,0,0,0,.688.978,3.2,3.2,0,0,0,.978.688,3.2,3.2,0,0,0-.7-1.011Zm17.154-6.812a3.016,3.016,0,0,0-.986-.688,3.2,3.2,0,0,0,.688.978,3.24,3.24,0,0,0,.986.688,3.315,3.315,0,0,0-.7-1.011ZM220.8,193.185a3.2,3.2,0,0,0-.978-.688,3.481,3.481,0,0,0,1.657,1.657,3.2,3.2,0,0,0-.7-1Zm-15.132,9.77a3.124,3.124,0,0,0-.986-.68,3.2,3.2,0,0,0,.688.978,3.24,3.24,0,0,0,.986.688,3.39,3.39,0,0,0-.7-1.019ZM218.3,163.327a3.108,3.108,0,0,0-.978-.688,3.24,3.24,0,0,0,.688.986,3.182,3.182,0,0,0,.978.68,3.066,3.066,0,0,0-.7-1.011Zm19.615-1.458a3.017,3.017,0,0,0-.986-.688,3.2,3.2,0,0,0,.688.978,3.24,3.24,0,0,0,.986.688A3.315,3.315,0,0,0,237.911,161.868Zm13.027,27.181a3.2,3.2,0,0,0-.978-.688,3.108,3.108,0,0,0,.688.978,3.066,3.066,0,0,0,.978.688A3.2,3.2,0,0,0,250.938,189.05Zm-21.546-38.12a3.066,3.066,0,0,0-.978-.688,3.481,3.481,0,0,0,1.657,1.657,3.2,3.2,0,0,0-.7-.994Zm15.53,24.72a3.2,3.2,0,0,0-.978-.688,3.141,3.141,0,0,0,.688.986,3.315,3.315,0,0,0,.978.688,3.239,3.239,0,0,0-.7-1.011Zm-.29-9.4a3.108,3.108,0,0,0-.688.978,3.481,3.481,0,0,0,1.657-1.657,3.066,3.066,0,0,0-.986.655Zm-25.789,19.6a3.066,3.066,0,0,0-.688.978,3.182,3.182,0,0,0,.978-.68,3.24,3.24,0,0,0,.688-.986,3.2,3.2,0,0,0-.994.663Zm32.444-4.666a3.109,3.109,0,0,0-.688.978,3.24,3.24,0,0,0,.986-.688,3.181,3.181,0,0,0,.68-.978,3.158,3.158,0,0,0-.995.663Zm-22.64,20.461a3.2,3.2,0,0,0-.688.978,3.124,3.124,0,0,0,.986-.68,3.389,3.389,0,0,0,.688-.986,3.24,3.24,0,0,0-.986.688Zm-1.458-40.184a3.108,3.108,0,0,0-.688.978,3.48,3.48,0,0,0,1.657-1.657,3.2,3.2,0,0,0-.97.638Zm8.826,27.629a3.183,3.183,0,0,0-.68.978,3.066,3.066,0,0,0,.978-.688A3.107,3.107,0,0,0,237,188.4a3.24,3.24,0,0,0-.986.646Zm14.917,8.892a3.066,3.066,0,0,0-.688.978A3.48,3.48,0,0,0,251.9,197.3a3.2,3.2,0,0,0-.97.638Zm-35.974-25.077a3.2,3.2,0,0,0-.688.978,3.24,3.24,0,0,0,.986-.688,3.182,3.182,0,0,0,.68-.978,3.2,3.2,0,0,0-.978.646Zm24.936-20.295a3.2,3.2,0,0,0-.688.978,3.481,3.481,0,0,0,1.657-1.657,3.2,3.2,0,0,0-.97.638ZM227.56,142.56a3.083,3.083,0,0,0-.68.986,3.2,3.2,0,0,0,.978-.688,3.315,3.315,0,0,0,.688-.978,3.215,3.215,0,0,0-.986.638Z" transform="translate(-160.934 -100.234)" fill="#fff"/>
      <path id="Path_8702" data-name="Path 8702" d="M248.859,154.987l.812-3.58-3.3-3.6-2.552,4.516,1.79,3.083-1.558,36.579,6.853,12.1,3.563-13.616Z" transform="translate(-167.638 -101.25)" fill="#263238"/>
      <path id="Path_8703" data-name="Path 8703" d="M231.675,137.28,206.35,189.588c4.682-17.958,13.11-44.476,21.165-50.957A9.257,9.257,0,0,1,231.675,137.28Z" transform="translate(-161.22 -99.446)" fill="#263238"/>
      <path id="Path_8704" data-name="Path 8704" d="M220.536,150.076c-3.522,6.315-24.4,29.833-24.927,32.162s4.061,8.494,4.094,9.422c.116,3.779-4.085,28.781-7.632,26.643-4.666-2.826-24.712-23.858-23.4-34.515s41.816-39.189,48.247-42.156S224.016,143.811,220.536,150.076Z" transform="translate(-154.754 -100.044)" fill="#f7a9a0"/>
      <path id="Path_8705" data-name="Path 8705" d="M210.485,233.026c1.956-2.246-1.815-3.265-1.815-3.265s5.8.157,6.9-2.942-3.53-4.061-3.862-4.144c.307,0,5.627,0,6.431-3.215s-3.969-3.638-4.276-3.655c.29-.083,4.143-1.276,4.143-3.87.091-4.458-11.138-1.981-14.212-3.87,0,0-.373-5.751-.331-5.925a6.53,6.53,0,0,1-2.445,3.522c-2.221,1.318-4.276,2.287-4.972,3.7a3.257,3.257,0,0,0,.646,3.845s-3.132.456-3.845,2.983c-.365,1.293,1.384,3.025,1.384,3.025a3.908,3.908,0,0,0-2.983,2.751c-.4,1.823,1.417,3.315,1.417,3.315s-2.179,1.558-1.981,3.555C191.11,232.819,206.292,237.84,210.485,233.026Z" transform="translate(-158.535 -110.556)" fill="#f7a9a0"/>
      <path id="Path_8706" data-name="Path 8706" d="M193.427,230.349a.043.043,0,0,0-.041.075,27.728,27.728,0,0,0,15.944,4.243.166.166,0,0,0,0-.331A56.658,56.658,0,0,1,193.427,230.349Z" transform="translate(-158.995 -115.387)" fill="#263238"/>
      <path id="Path_8707" data-name="Path 8707" d="M194.908,222.75c-.058,0-.1.066,0,.108a26.042,26.042,0,0,0,17.684,3.547c.207,0,.365-.29.116-.265C208.473,226.6,199.656,224.789,194.908,222.75Z" transform="translate(-159.249 -114.087)" fill="#263238"/>
      <path id="Path_8708" data-name="Path 8708" d="M215.548,217.888c-6,.887-11.685-.24-17.353-2.238a.067.067,0,0,0-.041.124c2.486,1.732,6.248,2.627,9.223,3.074a15.936,15.936,0,0,0,8.2-.754C215.68,218.062,215.672,217.871,215.548,217.888Z" transform="translate(-159.81 -112.87)" fill="#263238"/>
      <path id="Path_8709" data-name="Path 8709" d="M192.546,225.394a3.825,3.825,0,0,1-1.873-3.563,2.868,2.868,0,0,1,.994-1.757,4.973,4.973,0,0,1,2.213-.829,3.779,3.779,0,0,1-1.152-4.144,2.826,2.826,0,0,1,1.525-1.351,9,9,0,0,1,2.4-.539,3.315,3.315,0,0,1-1.442-2.627,3.621,3.621,0,0,1,1.517-2.925,16.936,16.936,0,0,1,3.53-1.873,8.635,8.635,0,0,0,1.773-1.036,3.745,3.745,0,0,0,1.135-1.8c0-.133.182-.091.149,0a4.085,4.085,0,0,1-.671,1.4,6.089,6.089,0,0,1-1.077,1.185,26.607,26.607,0,0,1-3.315,2.005,5.179,5.179,0,0,0-2.221,2.486,3.091,3.091,0,0,0,.738,3.166c.05.041,0,.124-.058.133a9.115,9.115,0,0,0-2.047.829,3.074,3.074,0,0,0-1.235,1.309,3.961,3.961,0,0,0,.829,3.87A6.812,6.812,0,0,0,192.2,220.5a2.917,2.917,0,0,0-.746,1.442,3.431,3.431,0,0,0,1.268,3.365.041.041,0,0,1,0,.041h0a.117.117,0,0,1,0,.05h0s-.688.522-.729.539,0,0,0-.041a5.472,5.472,0,0,1,.555-.506Z" transform="translate(-158.529 -110.681)" fill="#263238"/>
      <path id="Path_8710" data-name="Path 8710" d="M181.994,211.652l16.574-23.792s-2.743-4.641-2.486-6.149,21.422-24.679,25.259-32.659,4.732-12.87-4.276-8.643-46.714,33.306-48.893,40.979S174.967,201.227,181.994,211.652Z" transform="translate(-154.623 -99.715)" fill="#407bff"/>
      <path id="Path_8711" data-name="Path 8711" d="M207,161.314a3.472,3.472,0,0,1,0-2.362A3.472,3.472,0,0,1,207,161.314Zm10.094-12.431a3.232,3.232,0,0,0-.207-1.177,3.447,3.447,0,0,0,0,2.354,3.265,3.265,0,0,0,.207-1.21ZM193.663,168.9a3.124,3.124,0,0,0-.207-1.177,3.472,3.472,0,0,0,0,2.362,3.141,3.141,0,0,0,.207-1.218Zm-16.425,8.08a3.1,3.1,0,0,0-.207-1.177,3.447,3.447,0,0,0,0,2.354,3.067,3.067,0,0,0,.207-1.21Zm13.781,5.842a3.265,3.265,0,0,0-.207-1.177,3.448,3.448,0,0,0,0,2.354,3.266,3.266,0,0,0,.207-1.21Zm-13.367,8.138a3.141,3.141,0,0,0-.207-1.185,3.472,3.472,0,0,0,0,2.362,3.124,3.124,0,0,0,.207-1.21Zm13.367,4.027a3.265,3.265,0,0,0-.207-1.177,3.448,3.448,0,0,0,0,2.354,3.265,3.265,0,0,0,.207-1.21Zm22.814-50.551a3.124,3.124,0,0,0,1.177-.207,3.315,3.315,0,0,0-1.177-.207,3.232,3.232,0,0,0-1.177.207,3.066,3.066,0,0,0,1.177.232ZM215.3,157.3a3.1,3.1,0,0,0,1.177-.207,3.1,3.1,0,0,0-1.177-.207,3.265,3.265,0,0,0-1.177.207,3.1,3.1,0,0,0,1.177.191Zm-15.157-1.019a3.1,3.1,0,0,0,1.177-.207,3.1,3.1,0,0,0-1.177-.207,3.232,3.232,0,0,0-1.177.207,3.066,3.066,0,0,0,1.177.191Zm5.569,10.549a3.314,3.314,0,0,0,1.185-.207,3.472,3.472,0,0,0-2.362,0A3.315,3.315,0,0,0,205.713,166.834Zm-17.908-.9a3.265,3.265,0,0,0,1.177-.207,3.447,3.447,0,0,0-2.353,0,3.232,3.232,0,0,0,1.177.224ZM184.838,179.7a3.1,3.1,0,0,0,1.177-.207,3.447,3.447,0,0,0-2.354,0,3.066,3.066,0,0,0,1.177.224Zm-4.044,26.518a2.917,2.917,0,0,0,1.177-.207,3.447,3.447,0,0,0-2.354,0,3.1,3.1,0,0,0,1.177.232Zm2.867-12.745a3.315,3.315,0,0,0,1.177-.207,3.124,3.124,0,0,0-1.177-.207,3.066,3.066,0,0,0-1.177.207,3.231,3.231,0,0,0,1.177.232ZM171.3,188.745a3.141,3.141,0,0,0,1.185-.207,3.472,3.472,0,0,0-2.362,0,3.124,3.124,0,0,0,1.177.232Zm22.1-28.35a3.2,3.2,0,0,0-.978-.688,3.1,3.1,0,0,0,.688.986,3.183,3.183,0,0,0,.978.68,3.2,3.2,0,0,0-.688-.953Zm-5.445,12.953a3.241,3.241,0,0,0-.986-.688,3.481,3.481,0,0,0,1.657,1.657,3.182,3.182,0,0,0-.671-.945Zm-11.817,24.9a3.082,3.082,0,0,0-.978-.68,3.481,3.481,0,0,0,1.657,1.657,3.1,3.1,0,0,0-.68-.953Zm12.033,2.014a3.107,3.107,0,0,0-.978-.688,3.108,3.108,0,0,0,.688.978,3.066,3.066,0,0,0,.978.688,3.2,3.2,0,0,0-.688-.953ZM172.283,182.4a3.141,3.141,0,0,0-.986-.688,3.108,3.108,0,0,0,.688.978,3.157,3.157,0,0,0,.978.688,3.182,3.182,0,0,0-.68-.953Zm13.881,3.994a3.182,3.182,0,0,0-.978-.68,3.041,3.041,0,0,0,.68.978,3.241,3.241,0,0,0,.986.688,3.389,3.389,0,0,0-.688-.961Zm18.969-34.7a3.24,3.24,0,0,0-.986-.688,3.24,3.24,0,0,0,.688.986,3.182,3.182,0,0,0,.978.68,3.182,3.182,0,0,0-.68-.953Zm-4.144,20.809a3.107,3.107,0,0,0-.978-.688,3.24,3.24,0,0,0,.688.986,3.182,3.182,0,0,0,.978.68,3.066,3.066,0,0,0-.7-.953Zm10.019-19.972a3.066,3.066,0,0,0-.688.978,3.481,3.481,0,0,0,1.657-1.657,3.108,3.108,0,0,0-.978.7Zm-11.353,10.723a3.066,3.066,0,0,0-.688.978,3.182,3.182,0,0,0,.978-.68,3.24,3.24,0,0,0,.688-.986,3.2,3.2,0,0,0-.986.713Zm-19,8.2a3.183,3.183,0,0,0-.68.978,3.182,3.182,0,0,0,.978-.68,3.24,3.24,0,0,0,.688-.986,3.24,3.24,0,0,0-.994.713Zm-1.807,12.853a3.141,3.141,0,0,0-.688.986,3.364,3.364,0,0,0,1.657-1.657,3.464,3.464,0,0,0-.978.7Zm14.27,4.707a3.066,3.066,0,0,0-.721,1.019,3.067,3.067,0,0,0,.978-.688,3.107,3.107,0,0,0,.68-.97,3.2,3.2,0,0,0-.945.663Zm-11.279,10.417a2.975,2.975,0,0,0-.688.978,3.481,3.481,0,0,0,1.657-1.657,3.2,3.2,0,0,0-.978.7Zm12.837-22.375a3.2,3.2,0,0,0-.688.978,3.481,3.481,0,0,0,1.657-1.657,3.2,3.2,0,0,0-.978.671Zm26.974-34.54a3.083,3.083,0,0,0-.68.986,3.2,3.2,0,0,0,.978-.688,3.315,3.315,0,0,0,.688-.978,3.215,3.215,0,0,0-.994.671Z" transform="translate(-155.014 -100.227)" fill="#fff"/>
      <path id="Path_8712" data-name="Path 8712" d="M183.116,215.515c.7-.729,1.268-1.6,1.9-2.387s1.235-1.657,1.831-2.486c1.144-1.591,2.271-3.2,3.389-4.806s2.237-3.224,3.315-4.84,2.4-3.315,3.414-5.063a.075.075,0,1,0-.116-.083c-1.318,1.533-2.486,3.257-3.646,4.889s-2.362,3.224-3.53,4.84-2.337,3.249-3.481,4.881c-.564.829-1.11,1.657-1.657,2.486s-1.135,1.657-1.583,2.486C182.991,215.531,183.066,215.564,183.116,215.515Z" transform="translate(-157.211 -109.47)" fill="#263238"/>
      <path id="Path_8713" data-name="Path 8713" d="M245.373,142.389c-2.934,1.052-8.627-2.967-11.1-6.464-.166-.24-.075-2.983-.133-6.323-.041-2.022-.133-4.276-.365-6.323-.05-.423,1.475.182,1.475.182l2.726.34L247,124.936a32.735,32.735,0,0,0-.348,8.014,4.269,4.269,0,0,0,.182.829s0,.083,0,.133C247.3,135.494,248.207,141.37,245.373,142.389Z" transform="translate(-165.918 -97.022)" fill="#f7a9a0"/>
      <path id="Path_8714" data-name="Path 8714" d="M246.983,133.936v.133a7.385,7.385,0,0,1-1.318.224c-8.677.829-11.005-10.1-11.005-10.1l3.439-.24,9.016,1.135a32.734,32.734,0,0,0-.348,8.014,4.266,4.266,0,0,0,.215.837Z" transform="translate(-166.069 -97.162)" fill="#263238"/>
      <path id="Path_8715" data-name="Path 8715" d="M230.143,102.588c-1.21,4.641,1.773,17.784,5.163,20.593,4.906,4.085,12.663,4.144,16.06-1.657,3.315-5.66-.9-22.715-4.657-25.242C241.182,92.536,231.917,95.726,230.143,102.588Z" transform="translate(-165.249 -92.151)" fill="#f7a9a0"/>
      <path id="Path_8716" data-name="Path 8716" d="M243.716,113.7s-.066.058-.05.091c.224.878.331,1.923-.406,2.395v.05C244.23,115.879,244.064,114.5,243.716,113.7Z" transform="translate(-167.542 -95.407)" fill="#263238"/>
      <path id="Path_8717" data-name="Path 8717" d="M242.422,112.788c-1.442.207-.92,3.091.423,2.9S243.64,112.614,242.422,112.788Z" transform="translate(-167.251 -95.249)" fill="#263238"/>
      <path id="Path_8718" data-name="Path 8718" d="M250.32,112.32s.075,0,.083.066c.133.895.439,1.906,1.293,2.055v.05C250.693,114.541,250.3,113.19,250.32,112.32Z" transform="translate(-168.752 -95.17)" fill="#263238"/>
      <path id="Path_8719" data-name="Path 8719" d="M250.948,110.993c1.409-.373,2.047,2.486.738,2.834S249.755,111.316,250.948,110.993Z" transform="translate(-168.75 -94.937)" fill="#263238"/>
      <path id="Path_8720" data-name="Path 8720" d="M240.747,110.976a9.989,9.989,0,0,0,1.044-.6c.4-.232.746-.373.953-.829a.6.6,0,0,0-.232-.713,1.533,1.533,0,0,0-1.55.116,2.262,2.262,0,0,0-1.11,1.193.663.663,0,0,0,.895.829Z" transform="translate(-166.952 -94.547)" fill="#263238"/>
      <path id="Path_8721" data-name="Path 8721" d="M251.565,108.641a11.544,11.544,0,0,1-1.193-.083,1.931,1.931,0,0,1-1.21-.331.613.613,0,0,1-.1-.746,1.533,1.533,0,0,1,1.45-.555,2.279,2.279,0,0,1,1.517.6.663.663,0,0,1-.464,1.119Z" transform="translate(-168.522 -94.243)" fill="#263238"/>
      <path id="Path_8722" data-name="Path 8722" d="M244.892,123.678c.257.174.522.423.829.389a2.3,2.3,0,0,0,.912-.4h.05a1.21,1.21,0,0,1-1.044.688.97.97,0,0,1-.829-.663C244.793,123.686,244.859,123.653,244.892,123.678Z" transform="translate(-167.807 -97.114)" fill="#263238"/>
      <path id="Path_8723" data-name="Path 8723" d="M245.454,118.1a3.066,3.066,0,0,0,2.279.986,3.878,3.878,0,0,0,1.1-.149l.207-.058.182-.066a.224.224,0,0,0,.149-.232h0v-.091h0v-.075c-.1-.7-.356-1.724-.356-1.724.273.075,1.657.423,1.575.066a46.846,46.846,0,0,0-2.851-8.991.083.083,0,0,0-.157.05c.572,2.859,1.657,5.594,2.279,8.453a5.3,5.3,0,0,0-1.517-.174c-.091,0,.53,1.989.555,2.3h0a4.284,4.284,0,0,1-3.315-.406C245.446,117.971,245.388,118.045,245.454,118.1Z" transform="translate(-167.914 -94.382)" fill="#263238"/>
      <path id="Path_8724" data-name="Path 8724" d="M248.356,120.921a3.58,3.58,0,0,1-1.3,1.318,1.591,1.591,0,0,1-.986.2c-.738-.091-.829-.746-.829-1.326a4.293,4.293,0,0,1,.207-.912,4.732,4.732,0,0,0,2.909.721Z" transform="translate(-167.882 -96.52)" fill="#263238"/>
      <path id="Path_8725" data-name="Path 8725" d="M247.025,122.424a1.591,1.591,0,0,1-.986.2c-.738-.091-.829-.746-.829-1.326A1.707,1.707,0,0,1,247.025,122.424Z" transform="translate(-167.876 -96.706)" fill="#ff9abb"/>
      <path id="Path_8726" data-name="Path 8726" d="M230.529,112.065c3.041-.6,2.577-6.224,2.577-6.224s5.055-1.848,5.063-5.925c0,0,5.552,2.221,9.182.066s2.155-6.895,1.533-7.748c-1.417-1.956-4.144,1.425-4.144,1.425a19.34,19.34,0,0,0-10.939-.423c-4.45,1.318-5.909,6.016-5.909,6.016s-2.337.986-2.8,2.842S228.6,112.438,230.529,112.065Z" transform="translate(-164.424 -91.625)" fill="#263238"/>
      <path id="Path_8727" data-name="Path 8727" d="M233.279,107.579c4.144-.232,6.3-3.431,6.149-7.409h.075c.572,3.63-2.022,8.287-6.232,7.607a.1.1,0,0,1,.008-.2Z" transform="translate(-165.815 -93.089)" fill="#263238"/>
      <path id="Path_8728" data-name="Path 8728" d="M227.914,100.72s.075.05,0,.075a7.931,7.931,0,0,0-2.851,2.561c-.721,1.425-.2,3.016.423,4.367.978,2.08,2.644,4.707,4.848,5.619.133.058,0,.24-.083.2-2.61-.936-4.682-4.367-5.5-6.887C223.878,103.836,225.362,101.855,227.914,100.72Z" transform="translate(-164.329 -93.183)" fill="#263238"/>
      <path id="Path_8729" data-name="Path 8729" d="M246.417,100.2a5.652,5.652,0,0,0,6.132-1.334c1.823-2.039.878-4.616-.447-6.63-.066-.1.058-.249.149-.157,1.616,1.707,2.262,4.657.829,6.688a5.986,5.986,0,0,1-6.787,1.757C246.118,100.419,246.234,100.121,246.417,100.2Z" transform="translate(-168.047 -91.697)" fill="#263238"/>
      <path id="Path_8730" data-name="Path 8730" d="M232.977,116.454s-3.265-4.094-5.138-2.909.762,7.251,3.1,7.956a2.32,2.32,0,0,0,3.025-1.442Z" transform="translate(-164.792 -95.343)" fill="#f7a9a0"/>
      <path id="Path_8731" data-name="Path 8731" d="M228.93,115.67v.058a5.84,5.84,0,0,1,3.265,3.481,1.284,1.284,0,0,0-1.939-.232c-.041,0,0,.091.05.083a1.425,1.425,0,0,1,1.6.4,6.446,6.446,0,0,1,.829,1.218c.083.141.34.05.273-.108h0C232.9,118.488,231.134,115.736,228.93,115.67Z" transform="translate(-165.088 -95.744)" fill="#263238"/>
      <path id="Path_8732" data-name="Path 8732" d="M246.485,136.257l-2.8,7.956-10.135-9.472-2.619,3.315s10.176,15.3,10.21,14.585l2.925-6.87,4.856,4.483-.887-11.743Z" transform="translate(-165.43 -99.011)" fill="#407bff"/>
      <path id="Path_8733" data-name="Path 8733" d="M248.907,145.189c-.215-1.939-.373-3.895-.671-5.8,0-.066-.124-.091-.133,0-.307,1.889.539,9.281.6,11.063h0c-.2-.191-4.483-3.936-4.525-3.87-.646,1.1-2.8,6.108-2.942,6.555-1.616-2.428-7.757-11.254-9.638-13.533a.069.069,0,0,0-.116.075c1.442,2.577,9.588,14.461,9.7,14.428a75.405,75.405,0,0,0,3.066-7.268c.729.829,5.08,5.072,5.08,4.782A62.965,62.965,0,0,0,248.907,145.189Z" transform="translate(-165.524 -99.797)" fill="#263238"/>
    </g>
    <g id="freepik--speech-bubble--inject-29" transform="translate(233.04 46.535)">
      <path id="Path_8734" data-name="Path 8734" d="M312.147,64.3A16.8,16.8,0,0,1,285.3,77.787l-8.237,2.1,3.431-7.665A16.806,16.806,0,1,1,312.114,64.3Z" transform="translate(-276.455 -47.304)" fill="#fff"/>
      <path id="Path_8735" data-name="Path 8735" d="M312.022,64.258a16.9,16.9,0,0,1-2.488,8.828,19.137,19.137,0,0,1-1.333,1.9,18.162,18.162,0,0,1-1.608,1.657,16.964,16.964,0,0,1-8.188,4.226,15.746,15.746,0,0,1-2.32.29,14.776,14.776,0,0,1-2.345,0,16.955,16.955,0,0,1-8.726-3.207l.249.05-8.2,2.188-.729.2.307-.7,3.4-7.682v.356a17.013,17.013,0,1,1,31.98-8.121Zm0,0a16.649,16.649,0,0,0-27.463-12.613A17.337,17.337,0,0,0,280.2,57.6a16.574,16.574,0,0,0-1.376,7.268A16.881,16.881,0,0,0,280.755,72l.091.174-.075.174L277.308,80l-.423-.506,8.287-2.03h.141l.108.091a16.574,16.574,0,0,0,8.4,3.315,14.162,14.162,0,0,0,2.3.041,16.225,16.225,0,0,0,2.279-.24,16.507,16.507,0,0,0,4.359-1.434,15.655,15.655,0,0,0,3.8-2.586A20.318,20.318,0,0,0,308.177,75a18.989,18.989,0,0,0,1.342-1.889A16.905,16.905,0,0,0,312.022,64.258Z" transform="translate(-276.33 -47.266)" fill="#263238"/>
      <path id="Path_8736" data-name="Path 8736" d="M298.082,64.791V58.584a7.814,7.814,0,0,1,3.439,1.483,1.127,1.127,0,0,0,.754.265,1.039,1.039,0,0,0,.555-1.964,9.944,9.944,0,0,0-4.69-1.79v-.622a1.077,1.077,0,0,0-2.146,0v.555c-3.356.224-5.743,2.254-5.743,4.972s1.74,4.144,5.8,5.047v6.34a8.759,8.759,0,0,1-4.657-2.13,1.144,1.144,0,0,0-.771-.282A1.1,1.1,0,0,0,289.53,71.5a1.028,1.028,0,0,0,.456.829,11.154,11.154,0,0,0,6,2.486v1.6a1.077,1.077,0,0,0,2.146,0V74.884c3.472-.24,5.859-2.271,5.859-5.03C304.007,67.194,302.168,65.636,298.082,64.791Zm-2.039-.431c-2.992-.738-3.58-1.657-3.58-3.016,0-1.533,1.483-2.693,3.58-2.867Zm5.726,5.552c0,1.657-1.5,2.8-3.688,2.975V66.921C301.148,67.625,301.77,68.561,301.77,69.912Z" transform="translate(-278.591 -48.586)" fill="#407bff"/>
    </g>
  </g>
</svg>
