<svg xmlns="http://www.w3.org/2000/svg" width="479.153" height="317.637" viewBox="0 0 479.153 317.637">
  <g id="Group_1327" data-name="Group 1327" transform="translate(-1105.847 -369)">
    <path id="Icon_material-close" data-name="Icon material-close" d="M19.856,8.744,18.612,7.5l-4.934,4.934L8.744,7.5,7.5,8.744l4.934,4.934L7.5,18.612l1.244,1.244,4.934-4.934,4.934,4.934,1.244-1.244-4.934-4.934Z" transform="translate(1464.51 384.667)" fill="#fff"/>
    <path id="Path_8036" data-name="Path 8036" d="M527.423,245.789a3.265,3.265,0,1,1-3.263-3.265A3.267,3.267,0,0,1,527.423,245.789Zm-1.618,0a1.647,1.647,0,1,0-1.645,1.647A1.648,1.648,0,0,0,525.805,245.789Z" transform="translate(948.003 281.288)" fill="#7faeff"/>
    <path id="Path_8037" data-name="Path 8037" d="M589.948,105.148h-18.49a.809.809,0,0,0,0,1.617h18.49a.809.809,0,1,0,0-1.617Z" transform="translate(940.356 302.4)" fill="#7faeff"/>
    <path id="Path_8038" data-name="Path 8038" d="M563.849,105.144h-3.612a.809.809,0,0,0,0,1.618h3.612a.809.809,0,0,0,0-1.618Z" transform="translate(942.081 302.401)" fill="#7faeff"/>
    <path id="Path_8039" data-name="Path 8039" d="M579.537,112.613a.809.809,0,0,1-.809.809h-2.313a.809.809,0,0,1,0-1.618h2.313A.809.809,0,0,1,579.537,112.613Zm-6.357,0a.809.809,0,0,1-.809.809h-4.045a.809.809,0,0,1,0-1.618h4.045A.809.809,0,0,1,573.18,112.613Zm-8.089,0a.808.808,0,0,1-.808.809h-4.045a.809.809,0,0,1,0-1.618h4.045A.808.808,0,0,1,565.091,112.613Z" transform="translate(942.08 301.377)" fill="#7faeff"/>
    <path id="Path_8040" data-name="Path 8040" d="M238.854,169.04a.809.809,0,0,0-.809.809v1.876a.809.809,0,0,0,1.618,0v-1.876A.809.809,0,0,0,238.854,169.04Z" transform="translate(991.471 292.581)" fill="#7faeff"/>
    <path id="Path_8041" data-name="Path 8041" d="M236.012,166.816h-1.877a.809.809,0,0,0,0,1.618h1.877a.809.809,0,0,0,0-1.618Z" transform="translate(992.196 292.923)" fill="#7faeff"/>
    <path id="Path_8042" data-name="Path 8042" d="M238.854,162.224a.808.808,0,0,0-.809.808v1.875a.809.809,0,0,0,1.618,0v-1.875A.808.808,0,0,0,238.854,162.224Z" transform="translate(991.471 293.629)" fill="#7faeff"/>
    <path id="Path_8043" data-name="Path 8043" d="M243.232,166.664h-1.877a.809.809,0,0,0,0,1.617h1.877a.809.809,0,0,0,0-1.617Z" transform="translate(991.086 292.946)" fill="#7faeff"/>
    <path id="Path_8044" data-name="Path 8044" d="M479.255,107.076a.809.809,0,0,0-.809.809v1.875a.809.809,0,1,0,1.618,0v-1.875A.809.809,0,0,0,479.255,107.076Z" transform="translate(954.526 302.104)" fill="#7faeff"/>
    <path id="Path_8045" data-name="Path 8045" d="M476.413,104.852h-1.877a.809.809,0,0,0,0,1.617h1.877a.809.809,0,0,0,0-1.617Z" transform="translate(955.251 302.446)" fill="#7faeff"/>
    <path id="Path_8046" data-name="Path 8046" d="M479.255,100.259a.809.809,0,0,0-.809.809v1.875a.809.809,0,0,0,1.618,0v-1.875A.809.809,0,0,0,479.255,100.259Z" transform="translate(954.526 303.151)" fill="#7faeff"/>
    <path id="Path_8047" data-name="Path 8047" d="M483.633,104.7h-1.877a.809.809,0,0,0,0,1.617h1.877a.809.809,0,0,0,0-1.617Z" transform="translate(954.142 302.469)" fill="#7faeff"/>
    <path id="Path_8048" data-name="Path 8048" d="M386.792,59.6H368.3a.809.809,0,0,0,0,1.617h18.49a.809.809,0,1,0,0-1.617Z" transform="translate(971.577 309.399)" fill="#7faeff"/>
    <path id="Path_8049" data-name="Path 8049" d="M360.693,59.6H357.08a.809.809,0,0,0,0,1.617h3.613a.809.809,0,1,0,0-1.617Z" transform="translate(973.302 309.4)" fill="#7faeff"/>
    <path id="Path_8050" data-name="Path 8050" d="M376.381,67.069a.808.808,0,0,1-.809.808h-2.313a.809.809,0,0,1,0-1.617h2.313A.809.809,0,0,1,376.381,67.069Zm-6.357,0a.808.808,0,0,1-.809.808H365.17a.809.809,0,0,1,0-1.617h4.045A.809.809,0,0,1,370.024,67.069Zm-8.089,0a.808.808,0,0,1-.808.808h-4.045a.809.809,0,1,1,0-1.617h4.045A.809.809,0,0,1,361.935,67.069Z" transform="translate(973.302 308.376)" fill="#7faeff"/>
    <path id="Path_8051" data-name="Path 8051" d="M625.128,159.215a2.856,2.856,0,1,0,2.856-2.856A2.856,2.856,0,0,0,625.128,159.215Z" transform="translate(931.984 294.53)" fill="#7faeff"/>
    <path id="Path_8052" data-name="Path 8052" d="M182.555,324.8h18.49a.809.809,0,0,0,0-1.617h-18.49a.809.809,0,1,0,0,1.617Z" transform="translate(1000.123 268.893)" fill="#7faeff"/>
    <path id="Path_8053" data-name="Path 8053" d="M171.333,324.8h3.613a.809.809,0,0,0,0-1.617h-3.613a.809.809,0,1,0,0,1.617Z" transform="translate(1001.848 268.892)" fill="#7faeff"/>
    <path id="Path_8054" data-name="Path 8054" d="M594.037,340.636s1.1,7.879-8.1,7.7c0,0,7.906.08,7.7,7.474,0,0,.711-5.816,7.966-7.115C601.6,348.692,595.471,350.1,594.037,340.636Z" transform="translate(938.007 266.21)" fill="#7faeff"/>
    <path id="Path_8055" data-name="Path 8055" d="M645.956,209.323s1.1,7.879-8.1,7.7c0,0,7.905.08,7.7,7.474,0,0,.712-5.816,7.966-7.115C653.52,217.379,647.39,218.785,645.956,209.323Z" transform="translate(930.028 286.391)" fill="#7faeff"/>
    <path id="Path_8056" data-name="Path 8056" d="M301.051,83.28s1.1,7.878-8.1,7.7c0,0,7.905.081,7.7,7.474,0,0,.711-5.815,7.966-7.115C308.616,91.335,302.485,92.742,301.051,83.28Z" transform="translate(983.033 305.761)" fill="#7faeff"/>
    <path id="Path_8057" data-name="Path 8057" d="M207.438,108.99s1.1,7.879-8.1,7.7c0,0,7.905.081,7.7,7.474,0,0,.711-5.816,7.966-7.115C215,117.046,208.873,118.453,207.438,108.99Z" transform="translate(997.419 301.81)" fill="#7faeff"/>
    <path id="Path_8058" data-name="Path 8058" d="M265.137,69.2s.384,2.745-2.823,2.683c0,0,2.756.028,2.682,2.606a3.128,3.128,0,0,1,2.777-2.481S265.636,72.5,265.137,69.2Z" transform="translate(987.741 307.925)" fill="#7faeff"/>
    <path id="Path_8059" data-name="Path 8059" d="M435.428,181.07s.384,2.745-2.823,2.683c0,0,2.756.028,2.682,2.606a3.129,3.129,0,0,1,2.777-2.481S435.927,184.367,435.428,181.07Z" transform="translate(961.571 290.733)" fill="#7faeff"/>
    <path id="Path_8060" data-name="Path 8060" d="M119.9,236.533s.384,2.745-2.822,2.683c0,0,2.756.028,2.682,2.606a3.127,3.127,0,0,1,2.777-2.481S120.4,239.83,119.9,236.533Z" transform="translate(1010.06 282.209)" fill="#7faeff"/>
    <path id="Path_8061" data-name="Path 8061" d="M403.05,324.013s.384,2.746-2.823,2.684c0,0,2.756.028,2.682,2.6a3.128,3.128,0,0,1,2.777-2.481S403.549,327.311,403.05,324.013Z" transform="translate(966.547 268.765)" fill="#7faeff"/>
    <path id="Path_8062" data-name="Path 8062" d="M270.7,269.051H252.75a4.165,4.165,0,0,1-.134-8.328,6.446,6.446,0,0,1,11.845-3.411,4.675,4.675,0,0,1,5.191,3.408h1.05a4.165,4.165,0,0,1,0,8.33Zm-17.953-7.1a2.932,2.932,0,1,0,0,5.865H270.7a2.932,2.932,0,1,0,0-5.865H268.63l-.082-.52A3.445,3.445,0,0,0,264.3,258.6l-.454.108-.228-.407a5.213,5.213,0,0,0-9.769,2.535c0,.152.01.3.023.451l.058.669Z" transform="translate(989.851 279.465)" fill="#7faeff"/>
    <path id="Path_8063" data-name="Path 8063" d="M649.143,89.526H631.189a4.165,4.165,0,0,1-.133-8.329,6.445,6.445,0,0,1,11.844-3.41,4.677,4.677,0,0,1,5.192,3.408h1.05a4.165,4.165,0,0,1,0,8.33Zm-17.954-7.1a2.932,2.932,0,0,0,0,5.865h17.954a2.932,2.932,0,0,0,0-5.865H647.07l-.082-.52a3.447,3.447,0,0,0-4.249-2.837l-.454.108-.228-.407a5.214,5.214,0,0,0-9.77,2.536c0,.152.01.3.024.451l.057.669Z" transform="translate(931.693 307.055)" fill="#7faeff"/>
    <path id="Path_8064" data-name="Path 8064" d="M320.677,143.687H302.723a4.165,4.165,0,0,1-.133-8.328,6.445,6.445,0,0,1,11.844-3.41,4.677,4.677,0,0,1,5.192,3.408h1.05a4.165,4.165,0,1,1,0,8.329Zm-17.954-7.1a2.933,2.933,0,1,0,0,5.865h17.954a2.933,2.933,0,0,0,0-5.865H318.6l-.082-.52a3.447,3.447,0,0,0-4.249-2.837l-.454.108-.228-.407a5.214,5.214,0,0,0-9.77,2.535c0,.152.01.3.024.451l.057.669Z" transform="translate(982.171 298.731)" fill="#7faeff"/>
    <path id="Path_8065" data-name="Path 8065" d="M385.688,405.732h0a14.509,14.509,0,0,1-17.912-10.011l-11.512-40.688a14.51,14.51,0,0,1,10.011-17.912h0a14.511,14.511,0,0,1,17.912,10.011L395.7,387.82A14.509,14.509,0,0,1,385.688,405.732Z" transform="translate(973.388 266.835)" fill="#93c7ea"/>
    <path id="Path_8066" data-name="Path 8066" d="M370.926,407.888h0a14.51,14.51,0,0,1-.2-20.519l29.609-30.189a14.51,14.51,0,0,1,20.519-.2h0a14.509,14.509,0,0,1,.2,20.518l-29.609,30.189A14.51,14.51,0,0,1,370.926,407.888Z" transform="translate(971.718 264.336)" fill="#93c7ea"/>
    <path id="Path_8067" data-name="Path 8067" d="M437.106,348.352a12.713,12.713,0,1,1-17.629-3.535A12.713,12.713,0,0,1,437.106,348.352Z" transform="translate(964.459 265.896)" fill="#ff8383"/>
    <path id="Path_8068" data-name="Path 8068" d="M417.815,353.561h0a3.313,3.313,0,0,1-4.034-2.382l-1.127-4.375a3.313,3.313,0,0,1,2.382-4.034h0a3.313,3.313,0,0,1,4.035,2.382l1.126,4.375A3.313,3.313,0,0,1,417.815,353.561Z" transform="translate(964.653 265.899)" fill="#ff8383"/>
    <path id="Path_8069" data-name="Path 8069" d="M431.815,336.888l-4.5,11.4a3.439,3.439,0,0,1-4.462,1.936h0a3.44,3.44,0,0,1-1.936-4.463l4.5-11.4a3.438,3.438,0,0,1,4.462-1.935h0A3.439,3.439,0,0,1,431.815,336.888Z" transform="translate(963.405 267.509)" fill="#ff8383"/>
    <path id="Path_8070" data-name="Path 8070" d="M441.047,339.664l-5.44,10.989A3.438,3.438,0,0,1,431,352.209h0a3.438,3.438,0,0,1-1.556-4.608l5.439-10.989a3.44,3.44,0,0,1,4.608-1.556h0A3.439,3.439,0,0,1,441.047,339.664Z" transform="translate(962.112 267.123)" fill="#ff8383"/>
    <path id="Path_8071" data-name="Path 8071" d="M447.7,346.784l-7.6,9.624a3.44,3.44,0,0,1-4.831.569h0a3.44,3.44,0,0,1-.568-4.831l7.6-9.624a3.441,3.441,0,0,1,4.831-.569h0A3.44,3.44,0,0,1,447.7,346.784Z" transform="translate(961.361 266.122)" fill="#ff8383"/>
    <path id="Rectangle_867" data-name="Rectangle 867" d="M0,0H16.951a0,0,0,0,1,0,0V25.146a7.1,7.1,0,0,1-7.1,7.1H7.1a7.1,7.1,0,0,1-7.1-7.1V0A0,0,0,0,1,0,0Z" transform="translate(1317.996 557.043) rotate(2.253)" fill="#ff8383"/>
    <path id="Path_8072" data-name="Path 8072" d="M359.481,281.366l-16.937-.666-.262,6.653c-.256,6.519,5.05,12.241,11.557,11.767a11.762,11.762,0,0,0,1.216-.152,11.882,11.882,0,0,0,3.788-1.385Z" transform="translate(975.453 275.421)" fill="#d15e79"/>
    <ellipse id="Ellipse_103" data-name="Ellipse 103" cx="21.122" cy="16.269" rx="21.122" ry="16.269" transform="translate(1299.452 529.342) rotate(-15.799)" fill="#1b2a67"/>
    <ellipse id="Ellipse_104" data-name="Ellipse 104" cx="18.766" cy="12.216" rx="18.766" ry="12.216" transform="translate(1316.777 529.545) rotate(-9.641)" fill="#1b2a67"/>
    <ellipse id="Ellipse_105" data-name="Ellipse 105" cx="18.766" cy="12.216" rx="18.766" ry="12.216" transform="matrix(0.734, -0.679, 0.679, 0.734, 1304.82, 535.533)" fill="#1b2a67"/>
    <path id="Path_8073" data-name="Path 8073" d="M368.84,272.535c1.667,9.343-3.223,18.033-10.921,19.406h0c-7.7,1.374-15.29-5.088-16.957-14.431l-1.312-7.354c-1.667-9.343,3.221-18.033,10.918-19.406h0c7.7-1.374,15.293,5.088,16.96,14.431Z" transform="translate(975.906 280.052)" fill="#ff8383"/>
    <path id="Path_8074" data-name="Path 8074" d="M351.035,249.109c-4.258-3.853-11.668-1.99-16.551,4.163s-5.39,14.265-1.132,18.119,11.667,1.991,16.551-4.163S355.292,252.963,351.035,249.109Z" transform="translate(977.268 280.585)" fill="#1b2a67"/>
    <path id="Path_8075" data-name="Path 8075" d="M357.948,273.661a.772.772,0,0,1-.443-1.406,5.011,5.011,0,0,1,5.162-.22.775.775,0,0,1-.779,1.339,3.436,3.436,0,0,0-3.5.153A.773.773,0,0,1,357.948,273.661Z" transform="translate(973.163 276.851)" fill="#86294e"/>
    <path id="Path_8076" data-name="Path 8076" d="M372.943,273.662a.763.763,0,0,1-.438-.136h0a3.435,3.435,0,0,0-3.5-.153.775.775,0,0,1-.779-1.339,4.982,4.982,0,0,1,5.162.22.773.773,0,0,1-.443,1.408Z" transform="translate(971.524 276.851)" fill="#86294e"/>
    <path id="Path_8077" data-name="Path 8077" d="M361.923,276.38a.808.808,0,1,1-.775-.838A.807.807,0,0,1,361.923,276.38Z" transform="translate(972.681 276.214)" fill="#86294e"/>
    <path id="Path_8078" data-name="Path 8078" d="M371.075,276.74a.808.808,0,1,1-.775-.838A.808.808,0,0,1,371.075,276.74Z" transform="translate(971.275 276.159)" fill="#86294e"/>
    <path id="Path_8079" data-name="Path 8079" d="M372.438,281.224c-.085,0-.172,0-.258-.006a6.29,6.29,0,1,1,.258.006Zm-.014-11.631a5.279,5.279,0,0,0-.2,10.554,5.357,5.357,0,0,0,3.791-1.4,5.278,5.278,0,0,0-3.374-9.15C372.567,269.595,372.5,269.593,372.425,269.593Z" transform="translate(971.794 277.293)" fill="#ffd2d4"/>
    <path id="Path_8080" data-name="Path 8080" d="M356.172,281.229c-.1,0-.192,0-.288-.007a7.132,7.132,0,0,1-4.562-12.364,7.134,7.134,0,0,1,10.079.4,7.134,7.134,0,0,1-5.229,11.975Zm-.015-13.059a5.924,5.924,0,0,0-5.915,5.693h0a5.933,5.933,0,0,0,5.69,6.154,5.926,5.926,0,1,0,.465-11.843C356.317,268.17,356.238,268.17,356.157,268.17Z" transform="translate(974.414 277.533)" fill="#ffd2d4"/>
    <path id="Path_8081" data-name="Path 8081" d="M364.337,276.506l2.624.1a.552.552,0,0,0,.574-.531h0a.552.552,0,0,0-.53-.574l-2.624-.1a.553.553,0,0,0-.575.531h0A.553.553,0,0,0,364.337,276.506Z" transform="translate(972.144 276.236)" fill="#ffd2d4"/>
    <path id="Path_8082" data-name="Path 8082" d="M369.821,280.834a2.5,2.5,0,0,1-2.39,1.876c-1.246.114-2.194-.54-2.12-1.462a2.5,2.5,0,0,1,2.391-1.877C368.947,279.257,369.9,279.912,369.821,280.834Z" transform="translate(971.913 275.628)" fill="#86294e"/>
    <path id="Path_8083" data-name="Path 8083" d="M368.578,286.8a4.047,4.047,0,0,1-4.348,3.708c-2.317-.091-3.654-2.386-3.571-4.525A20.066,20.066,0,0,1,368.578,286.8Z" transform="translate(972.628 274.624)" fill="#86294e"/>
    <path id="Path_8084" data-name="Path 8084" d="M364.719,288.134c-1.832-.212-2.961-.84-3.07-2.217a19.959,19.959,0,0,1,6.683.743C368.02,287.9,366.514,288.341,364.719,288.134Z" transform="translate(972.475 274.624)" fill="#ffd2d4"/>
    <path id="Path_8085" data-name="Path 8085" d="M356.6,291.361h0l-4.554,0a7.393,7.393,0,0,1-4.965-1.911l-2.85-2.572a.553.553,0,0,1,.741-.82l2.85,2.572a6.293,6.293,0,0,0,4.225,1.626l4.554,0a.553.553,0,1,1,0,1.105Z" transform="translate(975.181 274.62)" fill="#201028"/>
    <path id="Path_8086" data-name="Path 8086" d="M358.342,292.6h0l-1.846,0a1.106,1.106,0,0,1,0-2.211h0l1.846,0a1.105,1.105,0,0,1,0,2.211Z" transform="translate(973.437 273.932)" fill="#ffd2d4"/>
    <circle id="Ellipse_106" data-name="Ellipse 106" cx="9.259" cy="9.259" r="9.259" transform="matrix(0.341, -0.94, 0.94, 0.341, 1305.089, 561.317)" fill="#445eea"/>
    <ellipse id="Ellipse_107" data-name="Ellipse 107" cx="7.904" cy="7.226" rx="7.904" ry="7.226" transform="matrix(0.039, -0.999, 0.999, 0.039, 1308.062, 563.325)" fill="#7faeff"/>
    <path id="Path_8087" data-name="Path 8087" d="M340.184,279.669c-.069,1.767-1.237,3.156-2.608,3.1s-2.426-1.53-2.356-3.3,1.237-3.156,2.608-3.1S340.253,277.9,340.184,279.669Z" transform="translate(976.538 276.087)" fill="#e0eef7"/>
    <path id="Path_8088" data-name="Path 8088" d="M357.407,413.814l-44.288,1.247a13.379,13.379,0,0,1-12.843-13.894l2.8-74.115a9.21,9.21,0,0,1,6.409-8.415L342.5,308.125l26.392,12.649a9.21,9.21,0,0,1,5.223,8.668L371.3,400.971A13.379,13.379,0,0,1,357.407,413.814Z" transform="translate(981.908 271.207)" fill="#93c7ea"/>
    <path id="Path_8089" data-name="Path 8089" d="M384.49,333.313c.152,7.729.063,15.447-.064,23.165-.1,7.718-.377,15.429-.652,23.141-.328,7.709-.661,15.418-1.164,23.12a20.593,20.593,0,0,1-.916,5.9,13.427,13.427,0,0,1-13.913,9.049,13.432,13.432,0,0,0,9.959-4.673,12.565,12.565,0,0,0,2.625-4.8,19.164,19.164,0,0,0,.545-5.537c.1-7.718.377-15.429.655-23.141.331-7.708.663-15.417,1.168-23.121C383.215,348.708,383.732,341.006,384.49,333.313Z" transform="translate(971.532 267.336)" fill="#6eacce"/>
    <path id="Rectangle_868" data-name="Rectangle 868" d="M3.786,0H20.166a3.787,3.787,0,0,1,3.787,3.787V17.442a0,0,0,0,1,0,0H0a0,0,0,0,1,0,0V3.786A3.786,3.786,0,0,1,3.786,0Z" transform="translate(1313.749 574.405) rotate(3.691)" fill="#93c7ea"/>
    <path id="Path_8090" data-name="Path 8090" d="M278.725,395.176h0a14.509,14.509,0,0,1-7.834-18.964l16.218-39.052a14.51,14.51,0,0,1,18.965-7.834h0a14.51,14.51,0,0,1,7.835,18.964L297.69,387.342A14.509,14.509,0,0,1,278.725,395.176Z" transform="translate(986.594 268.12)" fill="#93c7ea"/>
    <path id="Path_8091" data-name="Path 8091" d="M311.143,329.528a14.261,14.261,0,0,1,6.7,4.708,14.989,14.989,0,0,1,3.05,7.837,16.434,16.434,0,0,1-1.574,8.313l-3.063,7.536c-2.1,5-4.21,9.994-6.474,14.925l-3.4,7.394c-1.209,2.433-2.349,4.9-3.621,7.3.808-2.6,1.749-5.145,2.619-7.718l2.835-7.63c1.894-5.086,3.947-10.1,6-15.121l3.176-7.489a21.159,21.159,0,0,0,1.374-3.643,14.082,14.082,0,0,0,.438-3.772A14.739,14.739,0,0,0,311.143,329.528Z" transform="translate(981.525 267.918)" fill="#6eacce"/>
    <path id="Path_8092" data-name="Path 8092" d="M357.948,380.637l-7.388-.476a5.039,5.039,0,0,1-4.7-5.347l.215-3.331a5.039,5.039,0,0,1,5.346-4.7l7.388.476Zm-6.739-10.543a1.719,1.719,0,0,0-1.823,1.6l-.215,3.331a1.718,1.718,0,0,0,1.6,1.823l4.079.263.436-6.757Z" transform="translate(974.903 262.194)" fill="#86294e"/>
    <path id="Path_8093" data-name="Path 8093" d="M366.278,390.329l-6.391-.412a7.041,7.041,0,0,1-6.573-7.48l1.325-20.544c.147-2.292,20.591-.973,20.443,1.319l-1.324,20.544A7.041,7.041,0,0,1,366.278,390.329Z" transform="translate(973.758 263.127)" fill="#d15e79"/>
    <path id="Path_8094" data-name="Path 8094" d="M373.588,363.939c-.053.826-3.849,1.253-8.478.954s-8.337-1.209-8.285-2.035,3.849-1.253,8.478-.954S373.641,363.114,373.588,363.939Z" transform="translate(973.216 262.957)" fill="#86294e"/>
    <path id="Path_8095" data-name="Path 8095" d="M270.85,389.329h0a14.509,14.509,0,0,1,14.737-14.278l42.28.667a14.51,14.51,0,0,1,14.279,14.737h0a14.509,14.509,0,0,1-14.737,14.279l-42.28-.668A14.509,14.509,0,0,1,270.85,389.329Z" transform="translate(986.43 260.922)" fill="#93c7ea"/>
    <path id="Path_8096" data-name="Path 8096" d="M288.263,374.931c5.429-.371,10.854-.5,16.279-.59,5.425-.117,10.847-.059,16.27,0l8.132.186a16.475,16.475,0,0,1,8.253,1.864,15.016,15.016,0,0,1,5.977,5.92,14.273,14.273,0,0,1,1.648,8.026,14.744,14.744,0,0,0-8.388-12.427,14.255,14.255,0,0,0-3.633-1.1,21.272,21.272,0,0,0-3.89-.19l-8.134-.07c-5.422-.113-10.843-.228-16.262-.515C299.1,375.771,293.678,375.472,288.263,374.931Z" transform="translate(983.753 261.041)" fill="#6eacce"/>
    <circle id="Ellipse_108" data-name="Ellipse 108" cx="12.713" cy="12.713" r="12.713" transform="translate(1312.607 649.87) rotate(-50.316)" fill="#ff8383"/>
    <path id="Path_8097" data-name="Path 8097" d="M349.237,380.52h0a3.04,3.04,0,0,1-1.879-3.867l1.355-3.918a3.041,3.041,0,0,1,3.868-1.879h0a3.039,3.039,0,0,1,1.879,3.867l-1.356,3.918A3.04,3.04,0,0,1,349.237,380.52Z" transform="translate(974.697 261.592)" fill="#ff8383"/>
    <path id="Path_8098" data-name="Path 8098" d="M375.693,383.118l-11.283,1.05a3.179,3.179,0,0,1-3.459-2.87h0a3.179,3.179,0,0,1,2.871-3.46l11.282-1.049a3.178,3.178,0,0,1,3.459,2.87h0A3.178,3.178,0,0,1,375.693,383.118Z" transform="translate(972.585 260.656)" fill="#ff8383"/>
    <path id="Path_8099" data-name="Path 8099" d="M372.955,395.243l-11.309-.729a3.177,3.177,0,0,1-2.966-3.376h0a3.178,3.178,0,0,1,3.376-2.967l11.308.73a3.177,3.177,0,0,1,2.967,3.376h0A3.178,3.178,0,0,1,372.955,395.243Z" transform="translate(972.932 258.906)" fill="#ff8383"/>
    <path id="Path_8100" data-name="Path 8100" d="M511.176,348.2a1.326,1.326,0,0,1-.938-2.263L522.9,333.271a1.326,1.326,0,1,1,1.875,1.875l-12.659,12.661A1.316,1.316,0,0,1,511.176,348.2Z" transform="translate(949.7 267.402)" fill="#1a6eff"/>
    <path id="Path_8101" data-name="Path 8101" d="M500.524,338.064a1.325,1.325,0,0,1-1.325-1.325v-17.9a1.326,1.326,0,1,1,2.652,0v17.9A1.326,1.326,0,0,1,500.524,338.064Z" transform="translate(951.337 269.765)" fill="#1a6eff"/>
    <path id="Path_8102" data-name="Path 8102" d="M538.259,361.146H520.353a1.326,1.326,0,1,1,0-2.651h17.906a1.326,1.326,0,1,1,0,2.651Z" transform="translate(948.289 263.466)" fill="#1a6eff"/>
    <path id="Path_8103" data-name="Path 8103" d="M352.844,426.427H462.392c3.055,0,4-2.475,4-5.532H347.31A5.533,5.533,0,0,0,352.844,426.427Z" transform="translate(974.679 253.876)" fill="#6eacce"/>
    <path id="Path_8104" data-name="Path 8104" d="M345.839,420.895H384.67c0,3.057-2.813,5.532-6.284,5.532H345.674C342.094,426.376,342.259,420.895,345.839,420.895Z" transform="translate(975.331 253.876)" fill="#6eacce"/>
    <path id="Path_8105" data-name="Path 8105" d="M394.2,412.771h78.644a4.863,4.863,0,0,0,4.776-3.956l10.6-45.485a4.862,4.862,0,0,0-4.777-5.771H404.8a4.863,4.863,0,0,0-4.779,3.957L389.427,407A4.864,4.864,0,0,0,394.2,412.771Z" transform="translate(968.22 263.61)" fill="#e0eef7"/>
    <path id="Path_8106" data-name="Path 8106" d="M400.026,361.683a4.854,4.854,0,0,1,1.939-3.039,4.845,4.845,0,0,1,1.941,4.854l-10.6,45.485a4.852,4.852,0,0,1-1.937,3.036,4.851,4.851,0,0,1-1.943-4.852Z" transform="translate(968.22 263.443)" fill="#6eacce"/>
    <path id="Path_8107" data-name="Path 8107" d="M457.2,395.3H444.3a4.792,4.792,0,0,1-4.791-4.791h0a4.791,4.791,0,0,1,4.791-4.79h12.9a4.791,4.791,0,0,1,4.791,4.79h0A4.792,4.792,0,0,1,457.2,395.3Z" transform="translate(960.51 259.283)" fill="#fff"/>
    <path id="Path_8108" data-name="Path 8108" d="M359.241,422.2h-3.869a1.382,1.382,0,0,1-1.382-1.382h0a1.382,1.382,0,0,1,1.382-1.382h3.869a1.382,1.382,0,0,1,1.382,1.382h0A1.382,1.382,0,0,1,359.241,422.2Z" transform="translate(973.652 254.101)" fill="#6eacce"/>
    <path id="Path_8109" data-name="Path 8109" d="M368.167,422.2H364.3a1.382,1.382,0,0,1-1.382-1.382h0a1.382,1.382,0,0,1,1.382-1.382h3.869a1.382,1.382,0,0,1,1.382,1.382h0A1.382,1.382,0,0,1,368.167,422.2Z" transform="translate(972.281 254.101)" fill="#6eacce"/>
    <path id="Path_8110" data-name="Path 8110" d="M377.093,422.2h-3.869a1.382,1.382,0,0,1-1.382-1.382h0a1.382,1.382,0,0,1,1.382-1.382h3.869a1.382,1.382,0,0,1,1.382,1.382h0A1.382,1.382,0,0,1,377.093,422.2Z" transform="translate(970.909 254.101)" fill="#6eacce"/>
    <path id="Path_8111" data-name="Path 8111" d="M386.019,422.2H382.15a1.382,1.382,0,0,1-1.382-1.382h0a1.382,1.382,0,0,1,1.382-1.382h3.869a1.382,1.382,0,0,1,1.382,1.382h0A1.382,1.382,0,0,1,386.019,422.2Z" transform="translate(969.537 254.101)" fill="#6eacce"/>
    <path id="Path_8112" data-name="Path 8112" d="M496.6,433.711H165.686a3.316,3.316,0,0,1-3.317-3.316h0a3.317,3.317,0,0,1,3.317-3.317H496.6a3.316,3.316,0,0,1,3.316,3.317h0A3.316,3.316,0,0,1,496.6,433.711Z" transform="translate(1003.101 252.926)" fill="#1b2a67"/>
    <path id="Path_8113" data-name="Path 8113" d="M223.573,398.844s-2.436-18.3-6.845-22.8" transform="translate(994.747 260.768)" fill="none" stroke="#1b2a67" stroke-linecap="round" stroke-miterlimit="10" stroke-width="0.827"/>
    <path id="Path_8114" data-name="Path 8114" d="M216.571,362.813c1.178,3.9.937,7.422-.538,7.868s-3.626-2.354-4.8-6.254c-.012-.039-.024-.078-.035-.117-1-3.474,4.248-5.059,5.34-1.613C216.547,362.735,216.559,362.774,216.571,362.813Z" transform="translate(995.616 263.116)" fill="#ffd2d4"/>
    <path id="Path_8115" data-name="Path 8115" d="M224.4,372.482c-3.9,1.178-7.422.937-7.868-.538s2.354-3.626,6.254-4.8l.117-.035c3.474-1,5.059,4.248,1.614,5.34Z" transform="translate(994.784 262.162)" fill="#ffd2d4"/>
    <path id="Path_8116" data-name="Path 8116" d="M209.412,377.137c3.9-1.178,6.7-3.329,6.253-4.8s-3.968-1.716-7.868-.538l-.116.036c-3.445,1.093-1.861,6.338,1.613,5.34Z" transform="translate(996.432 261.537)" fill="#ffd2d4"/>
    <path id="Path_8117" data-name="Path 8117" d="M216.83,382.047c1.1-3.923.782-7.44-.7-7.855s-3.576,2.429-4.673,6.352c-.01.04-.021.079-.031.118-.926,3.494,4.353,4.97,5.372,1.5C216.808,382.125,216.819,382.086,216.83,382.047Z" transform="translate(995.579 261.06)" fill="#ffd2d4"/>
    <path id="Path_8118" data-name="Path 8118" d="M221.543,380.8c-3.086-2.66-4.771-5.763-3.764-6.93s4.323.043,7.409,2.7l.091.08c2.706,2.4-.873,6.548-3.643,4.225C221.6,380.851,221.574,380.824,221.543,380.8Z" transform="translate(994.63 261.172)" fill="#ffd2d4"/>
    <path id="Path_8119" data-name="Path 8119" d="M218.428,372.838a1.907,1.907,0,1,1-2.377-1.275A1.907,1.907,0,0,1,218.428,372.838Z" transform="translate(995.059 261.47)" fill="#d15e79"/>
    <path id="Path_8120" data-name="Path 8120" d="M214.157,388.4c5.066,3.991,7.949,8.781,6.439,10.7s-6.841.234-11.907-3.758-6.44-10.7-6.44-10.7S209.09,384.412,214.157,388.4Z" transform="translate(996.972 259.448)" fill="#1a6eff"/>
    <path id="Path_8121" data-name="Path 8121" d="M234.853,393.909c-5.348,5.023-11.223,7.454-13.123,5.431s.9-7.734,6.243-12.757,13.123-5.431,13.123-5.431S240.2,388.886,234.853,393.909Z" transform="translate(994.07 259.984)" fill="#1a6eff"/>
    <path id="Path_8122" data-name="Path 8122" d="M228.964,424.387h-17.5L208.4,402.373h23.624Z" transform="translate(996.026 256.723)" fill="#1b2a67"/>
    <rect id="Rectangle_869" data-name="Rectangle 869" width="27.941" height="8.185" rx="1.469" transform="translate(1202.271 656.556)" fill="#1b2a67"/>
    <path id="Path_8123" data-name="Path 8123" d="M285.44,204.619l8.678,9.306,66.141-27.588Z" transform="translate(984.187 289.923)" fill="#1a6eff"/>
    <path id="Path_8124" data-name="Path 8124" d="M285.313,171.655l-6.533,9.856,4.417,9.658-9.908,1.685-8.756,19.223,94.636-28.638Z" transform="translate(987.4 292.18)" fill="#7faeff"/>
    <path id="Path_8125" data-name="Path 8125" d="M285.784,192.958l-4.417-9.658,51.26,2.4Z" transform="translate(984.813 290.39)" fill="#1a6eff"/>
    <path id="Path_8126" data-name="Path 8126" d="M265.291,292.982q-1.092,0-2.185-.014a1.324,1.324,0,0,1-1.311-1.341,1.3,1.3,0,0,1,1.341-1.311c3.434.039,6.844-.014,10.586-.173h.057a1.326,1.326,0,0,1,.056,2.652C270.837,292.921,268.041,292.982,265.291,292.982Zm-12.815-.523a1.082,1.082,0,0,1-.117,0c-3.653-.313-7.248-.781-10.683-1.392a1.326,1.326,0,0,1-1.073-1.539,1.347,1.347,0,0,1,1.539-1.073c3.355.6,6.87,1.055,10.446,1.362a1.326,1.326,0,0,1-.113,2.647Zm-20.933-3.828a1.278,1.278,0,0,1-.389-.061,76.7,76.7,0,0,1-10.111-3.886,1.326,1.326,0,1,1,1.127-2.4,74.535,74.535,0,0,0,9.761,3.753,1.327,1.327,0,0,1-.388,2.6Zm-19.212-9.049a1.322,1.322,0,0,1-.735-.223,70.331,70.331,0,0,1-8.535-6.7,1.326,1.326,0,1,1,1.8-1.952,67.744,67.744,0,0,0,8.211,6.449,1.326,1.326,0,0,1-.738,2.43ZM196.7,265.216a1.33,1.33,0,0,1-1.039-.5,70.773,70.773,0,0,1-6.088-8.989,1.327,1.327,0,1,1,2.306-1.313,68.016,68.016,0,0,0,5.86,8.647,1.325,1.325,0,0,1-1.038,2.153Zm-10.507-18.452a1.329,1.329,0,0,1-1.242-.859,65.111,65.111,0,0,1-2.982-10.455,1.327,1.327,0,1,1,2.6-.51,62.427,62.427,0,0,0,2.861,10.027,1.329,1.329,0,0,1-1.242,1.8Zm-4.232-20.814a1.327,1.327,0,0,1-1.322-1.242c-.138-2.167-.206-4.45-.206-6.78v-.537q.006-1.729.062-3.466a1.326,1.326,0,0,1,1.326-1.282h.043a1.326,1.326,0,0,1,1.282,1.369q-.055,1.7-.063,3.384v.533c0,2.276.069,4.5.2,6.611a1.324,1.324,0,0,1-1.239,1.408C182.018,225.95,181.989,225.95,181.959,225.95Z" transform="translate(1000.325 285.88)" fill="#1a6eff"/>
    <path id="Path_8127" data-name="Path 8127" d="M179.511,189.458q-3.038,0-5.978-.074a1.326,1.326,0,0,1,.035-2.652h.035q5.136.129,10.6.028a1.255,1.255,0,0,1,1.352,1.3,1.323,1.323,0,0,1-1.3,1.352Q181.851,189.458,179.511,189.458Zm15.363-.445a1.325,1.325,0,0,1-.071-2.649c3.43-.195,6.993-.451,10.59-.768a1.326,1.326,0,1,1,.234,2.642c-3.626.32-7.216.581-10.677.774C194.926,189.013,194.9,189.013,194.874,189.013Zm-31.949-.168c-.035,0-.069,0-.106,0-3.692-.288-7.285-.68-10.68-1.166a1.326,1.326,0,0,1-1.125-1.5,1.347,1.347,0,0,1,1.5-1.125c3.338.477,6.875.863,10.511,1.144a1.326,1.326,0,0,1-.1,2.649Zm53.184-1.694a1.326,1.326,0,0,1-.151-2.643q5.168-.606,10.537-1.369a1.326,1.326,0,0,1,.376,2.626q-5.405.771-10.606,1.377A1.2,1.2,0,0,1,216.109,187.151ZM141.84,185.79a1.371,1.371,0,0,1-.292-.032c-2.564-.576-5.065-1.224-7.429-1.928q-1.509-.451-2.969-.935a1.326,1.326,0,0,1,.833-2.518q1.422.47,2.892.909c2.308.687,4.748,1.319,7.252,1.881a1.327,1.327,0,0,1-.287,2.623Zm-20.149-6.814a1.321,1.321,0,0,1-.579-.135,64.538,64.538,0,0,1-9.365-5.519,1.327,1.327,0,1,1,1.542-2.159,62.1,62.1,0,0,0,8.979,5.29,1.328,1.328,0,0,1-.578,2.522Zm45.667-1.186a1.327,1.327,0,0,1-1.326-1.326v-.471c0-3.345-.134-6.743-.4-10.1a1.328,1.328,0,0,1,2.647-.207c.267,3.427.4,6.9.4,10.31v.471A1.326,1.326,0,0,1,167.358,177.79ZM104.54,166.541a1.324,1.324,0,0,1-.98-.432,46.161,46.161,0,0,1-6.376-8.894,1.328,1.328,0,0,1,2.327-1.278,43.448,43.448,0,0,0,6.009,8.384,1.326,1.326,0,0,1-.98,2.22Zm61.109-10.023a1.327,1.327,0,0,1-1.307-1.1A90.373,90.373,0,0,0,162,145.165a1.325,1.325,0,1,1,2.543-.747,93.2,93.2,0,0,1,2.416,10.549,1.331,1.331,0,0,1-1.084,1.534A1.375,1.375,0,0,1,165.65,156.518Zm-71.281-8.475a1.326,1.326,0,0,1-1.278-.973q-.246-.894-.462-1.8a25.689,25.689,0,0,1-.708-5.88,22.6,22.6,0,0,1,.255-3.4,1.325,1.325,0,0,1,2.621.4,20.111,20.111,0,0,0-.224,3.005,23.034,23.034,0,0,0,.639,5.269c.136.574.281,1.144.437,1.705a1.325,1.325,0,0,1-.924,1.633A1.362,1.362,0,0,1,94.368,148.043Zm65.132-11.9a1.328,1.328,0,0,1-1.2-.753,44.937,44.937,0,0,0-5.444-8.78,1.327,1.327,0,0,1,2.069-1.662,47.814,47.814,0,0,1,5.767,9.293,1.33,1.33,0,0,1-1.2,1.9Zm-61.839-8.315a1.313,1.313,0,0,1-.8-.27,1.327,1.327,0,0,1-.253-1.859,30.064,30.064,0,0,1,8.307-7.339,1.327,1.327,0,1,1,1.386,2.263,27.415,27.415,0,0,0-7.581,6.683A1.322,1.322,0,0,1,97.661,127.831Zm48.421-7.888a1.318,1.318,0,0,1-.725-.216,29.974,29.974,0,0,0-9.3-4.024,1.327,1.327,0,0,1,.635-2.578,32.671,32.671,0,0,1,10.118,4.383,1.325,1.325,0,0,1-.73,2.435Zm-30.733-3.381a1.327,1.327,0,0,1-.376-2.6,50.062,50.062,0,0,1,10.428-1.885l.4-.013a1.413,1.413,0,0,1,1.352,1.3,1.325,1.325,0,0,1-1.3,1.352l-.289.011a47.216,47.216,0,0,0-9.839,1.779A1.357,1.357,0,0,1,115.35,116.562Z" transform="translate(1013.927 301.337)" fill="#1a6eff"/>
    <path id="Path_8128" data-name="Path 8128" d="M493.838,128.051h70.908a16.05,16.05,0,0,1,16.049,16.05v36.573a16.049,16.049,0,0,1-16.049,16.049H518.377L501.7,211.438V196.722h-7.862a16.049,16.049,0,0,1-16.05-16.049V144.1A16.05,16.05,0,0,1,493.838,128.051Z" transform="translate(954.627 298.88)" fill="#1a6eff"/>
    <path id="Path_8129" data-name="Path 8129" d="M508.575,154.065h50.277a2.012,2.012,0,0,0,0-4.024H508.575a2.012,2.012,0,0,0,0,4.024Z" transform="translate(950.205 295.501)" fill="#7faeff"/>
    <path id="Path_8130" data-name="Path 8130" d="M508.575,169.906h50.277a2.012,2.012,0,1,0,0-4.023H508.575a2.012,2.012,0,0,0,0,4.023Z" transform="translate(950.205 293.066)" fill="#7faeff"/>
    <path id="Path_8131" data-name="Path 8131" d="M559.27,185.748h7.373a2.012,2.012,0,0,0,0-4.024H559.27a2.012,2.012,0,0,0,0,4.024Z" transform="translate(942.414 290.632)" fill="#7faeff"/>
    <path id="Path_8132" data-name="Path 8132" d="M539.467,185.748h7.374a2.012,2.012,0,0,0,0-4.024h-7.374a2.012,2.012,0,0,0,0,4.024Z" transform="translate(945.457 290.632)" fill="#7faeff"/>
    <path id="Path_8133" data-name="Path 8133" d="M508.575,185.748h16.76a2.012,2.012,0,0,0,0-4.024h-16.76a2.012,2.012,0,0,0,0,4.024Z" transform="translate(950.205 290.632)" fill="#7faeff"/>
    <path id="Path_8134" data-name="Path 8134" d="M474.137,214.35H419.859a9.665,9.665,0,0,0-9.666,9.665v31.3a9.659,9.659,0,0,0,8.958,9.629l-11.193,18.341,29.5-18.3h36.681a9.665,9.665,0,0,0,9.665-9.666v-31.3A9.665,9.665,0,0,0,474.137,214.35Z" transform="translate(965.358 285.618)" fill="#7faeff"/>
    <circle id="Ellipse_109" data-name="Ellipse 109" cx="6.426" cy="6.426" r="6.426" transform="translate(1403.268 517.688) rotate(-45)" fill="#1a6eff" stroke="#445eea" stroke-linecap="round" stroke-linejoin="round" stroke-width="2.761"/>
    <path id="Path_8135" data-name="Path 8135" d="M466.518,259.06H436.14a9.735,9.735,0,0,1,9.736-9.736h10.9a9.736,9.736,0,0,1,9.737,9.736Z" transform="translate(961.027 280.243)" fill="#1a6eff" stroke="#445eea" stroke-linecap="round" stroke-linejoin="round" stroke-width="2.761"/>
    <path id="Path_8136" data-name="Path 8136" d="M403.98,144.7a26.586,26.586,0,0,1-5.348-.544,1.328,1.328,0,0,1-1.033-1.567,1.348,1.348,0,0,1,1.567-1.033,24.007,24.007,0,0,0,8.329.231,1.328,1.328,0,0,1,.393,2.626A26.778,26.778,0,0,1,403.98,144.7Zm12.041-3.1a1.328,1.328,0,0,1-.645-2.49,23.552,23.552,0,0,0,6.463-5.256,1.326,1.326,0,1,1,2.007,1.732,26.285,26.285,0,0,1-7.184,5.846A1.329,1.329,0,0,1,416.021,141.607Zm-25.284-.713a1.314,1.314,0,0,1-.7-.2,26.3,26.3,0,0,1-6.849-6.236,1.327,1.327,0,1,1,2.1-1.619,23.684,23.684,0,0,0,6.158,5.609,1.326,1.326,0,0,1-.708,2.448Zm36.579-12.413a1.33,1.33,0,0,1-1.243-1.79,23.469,23.469,0,0,0,1.466-8.2,1.326,1.326,0,0,1,2.652,0,26.1,26.1,0,0,1-1.631,9.121A1.33,1.33,0,0,1,427.316,128.481Zm-47.12-1.317a1.327,1.327,0,0,1-1.268-.938,26.269,26.269,0,0,1-1.159-7.729c0-.494.013-.983.041-1.468a1.357,1.357,0,0,1,1.4-1.248,1.325,1.325,0,0,1,1.248,1.4c-.024.433-.036.874-.036,1.314a23.675,23.675,0,0,0,1.043,6.951,1.327,1.327,0,0,1-.877,1.658A1.282,1.282,0,0,1,380.2,127.164Zm47.938-13.344a1.327,1.327,0,0,1-1.287-1.009,23.359,23.359,0,0,0-3.406-7.6,1.326,1.326,0,1,1,2.189-1.5,25.966,25.966,0,0,1,3.792,8.455,1.323,1.323,0,0,1-.967,1.606A1.276,1.276,0,0,1,428.134,113.82Zm-46.971-3.947a1.33,1.33,0,0,1-1.215-1.859,26.026,26.026,0,0,1,5.152-7.7,1.325,1.325,0,1,1,1.908,1.839,23.461,23.461,0,0,0-4.629,6.923A1.325,1.325,0,0,1,381.164,109.873Zm37.2-10.357a1.312,1.312,0,0,1-.767-.245,23.341,23.341,0,0,0-7.531-3.54,1.327,1.327,0,1,1,.682-2.565,25.985,25.985,0,0,1,8.386,3.942,1.326,1.326,0,0,1-.771,2.408ZM393.173,97.4a1.327,1.327,0,0,1-.576-2.522,26.017,26.017,0,0,1,8.926-2.481,1.327,1.327,0,0,1,.246,2.643,23.418,23.418,0,0,0-8.02,2.226A1.309,1.309,0,0,1,393.173,97.4Z" transform="translate(969.998 304.36)" fill="#1a6eff"/>
    <path id="Path_8137" data-name="Path 8137" d="M405.581,108.347c-9.6,0-17.389,5.146-17.389,11.5v.033c.007,1.657,1.314,2.794,2.537,2.272l4.564-1.948a2.741,2.741,0,0,0,1.137-3.415l-.561-1.531a68.876,68.876,0,0,0,19.357,0l-.566,1.964a2.769,2.769,0,0,0,1.056,3.149l4.514,2.464c1.1.6,2.379-.206,2.631-1.7a7.707,7.707,0,0,0,.108-1.284C422.971,113.493,415.185,108.347,405.581,108.347Z" transform="translate(968.396 301.909)" fill="#1a6eff"/>
    <path id="Path_8138" data-name="Path 8138" d="M418.594,135.452h-24.1l3.571-11.19a5.061,5.061,0,0,1,4.821-3.522H410.2a5.062,5.062,0,0,1,4.821,3.522Z" transform="translate(967.428 300.004)" fill="#7faeff"/>
    <path id="Path_8139" data-name="Path 8139" d="M587.524,305.75a26.384,26.384,0,0,1-5.355-.547,1.33,1.33,0,0,1-1.031-1.569,1.344,1.344,0,0,1,1.57-1.03,23.851,23.851,0,0,0,8.326.231,1.327,1.327,0,1,1,.393,2.625A26.981,26.981,0,0,1,587.524,305.75Zm12.039-3.1a1.327,1.327,0,0,1-.646-2.487,23.62,23.62,0,0,0,6.463-5.257,1.326,1.326,0,0,1,2.008,1.732,26.246,26.246,0,0,1-7.184,5.845A1.306,1.306,0,0,1,599.563,302.653Zm-25.281-.714a1.32,1.32,0,0,1-.7-.2,26.305,26.305,0,0,1-6.847-6.236,1.327,1.327,0,1,1,2.1-1.619,23.623,23.623,0,0,0,6.156,5.609,1.326,1.326,0,0,1-.708,2.448Zm36.576-12.411a1.347,1.347,0,0,1-.462-.084,1.328,1.328,0,0,1-.782-1.706,23.468,23.468,0,0,0,1.467-8.2,1.326,1.326,0,1,1,2.652,0,26.094,26.094,0,0,1-1.631,9.12A1.326,1.326,0,0,1,610.858,289.528Zm-47.122-1.321a1.326,1.326,0,0,1-1.267-.937,26.216,26.216,0,0,1-1.158-7.728c0-.493.014-.98.042-1.467a1.39,1.39,0,0,1,1.4-1.25,1.327,1.327,0,0,1,1.25,1.4c-.024.438-.037.878-.037,1.319A23.544,23.544,0,0,0,565,286.488a1.327,1.327,0,0,1-.877,1.659A1.307,1.307,0,0,1,563.736,288.207Zm47.945-13.34a1.327,1.327,0,0,1-1.287-1.008,23.42,23.42,0,0,0-3.406-7.594,1.326,1.326,0,1,1,2.189-1.5,25.965,25.965,0,0,1,3.791,8.453,1.324,1.324,0,0,1-.967,1.606A1.274,1.274,0,0,1,611.681,274.867Zm-46.972-3.949a1.328,1.328,0,0,1-1.216-1.859,26.14,26.14,0,0,1,5.154-7.7,1.325,1.325,0,1,1,1.908,1.839,23.527,23.527,0,0,0-4.631,6.923A1.328,1.328,0,0,1,564.708,270.918Zm37.2-10.351a1.312,1.312,0,0,1-.767-.245,23.3,23.3,0,0,0-7.531-3.543,1.327,1.327,0,1,1,.682-2.565,26.029,26.029,0,0,1,8.386,3.945,1.326,1.326,0,0,1-.771,2.408Zm-25.193-2.123a1.327,1.327,0,0,1-.576-2.522,26.011,26.011,0,0,1,8.928-2.479,1.327,1.327,0,0,1,.246,2.643,23.351,23.351,0,0,0-8.021,2.223A1.3,1.3,0,0,1,576.719,258.445Z" transform="translate(941.791 279.611)" fill="#1a6eff"/>
    <rect id="Rectangle_870" data-name="Rectangle 870" width="30.849" height="17.493" transform="translate(1513.681 554.432)" fill="#7faeff"/>
    <path id="Path_8140" data-name="Path 8140" d="M605.264,276.158v-2.14a2.853,2.853,0,0,1,2.853-2.853h0a2.853,2.853,0,0,1,2.854,2.853v3.549h-5.707" transform="translate(935.037 276.887)" fill="#445eea"/>
    <path id="Path_8141" data-name="Path 8141" d="M601.511,273.97v18.182H580.479V273.97a2.853,2.853,0,0,1,2.853-2.854h20.795l-.578.12A2.854,2.854,0,0,0,601.511,273.97Z" transform="translate(938.846 276.894)" fill="#e0eef7"/>
    <rect id="Rectangle_871" data-name="Rectangle 871" width="4.664" height="4.787" transform="translate(1520.632 550.971)" fill="#445eea"/>
    <line id="Line_25" data-name="Line 25" x2="11.856" transform="translate(1526.725 550.944)" fill="none" stroke="#445eea" stroke-linecap="round" stroke-linejoin="round" stroke-width="0.658"/>
    <line id="Line_26" data-name="Line 26" x2="11.856" transform="translate(1526.725 552.556)" fill="none" stroke="#445eea" stroke-linecap="round" stroke-linejoin="round" stroke-width="0.658"/>
    <line id="Line_27" data-name="Line 27" x2="11.856" transform="translate(1526.725 554.168)" fill="none" stroke="#445eea" stroke-linecap="round" stroke-linejoin="round" stroke-width="0.658"/>
    <line id="Line_28" data-name="Line 28" x2="11.856" transform="translate(1526.836 555.781)" fill="none" stroke="#445eea" stroke-linecap="round" stroke-linejoin="round" stroke-width="0.658"/>
    <line id="Line_29" data-name="Line 29" x2="17.948" transform="translate(1520.632 557.371)" fill="none" stroke="#445eea" stroke-linecap="round" stroke-linejoin="round" stroke-width="0.658"/>
    <line id="Line_30" data-name="Line 30" x2="17.948" transform="translate(1520.632 558.983)" fill="none" stroke="#445eea" stroke-linecap="round" stroke-linejoin="round" stroke-width="0.658"/>
    <line id="Line_31" data-name="Line 31" x2="17.948" transform="translate(1520.632 560.56)" fill="none" stroke="#445eea" stroke-linecap="round" stroke-linejoin="round" stroke-width="0.658"/>
    <line id="Line_32" data-name="Line 32" x2="8.723" transform="translate(1520.632 562.172)" fill="none" stroke="#445eea" stroke-linecap="round" stroke-linejoin="round" stroke-width="0.658"/>
    <path id="Path_8142" data-name="Path 8142" d="M597.081,296.2H573.811V278.7Z" transform="translate(939.87 275.728)" fill="#1a6eff"/>
    <path id="Path_8143" data-name="Path 8143" d="M582.765,296.2h23.271V278.7Z" transform="translate(938.494 275.728)" fill="#1a6eff"/>
    <path id="Path_8144" data-name="Path 8144" d="M604.66,297.941H573.811l13.854-7.4a2.757,2.757,0,0,1,3.14,0Z" transform="translate(939.87 273.984)" fill="#1a6eff"/>
  </g>
</svg>
