<svg xmlns="http://www.w3.org/2000/svg" width="28.421" height="32" viewBox="0 0 28.421 32">
  <g id="approve" transform="translate(-9.594 -4.752)">
    <path id="Path_7671" data-name="Path 7671" d="M14.106,34.738a21.553,21.553,0,0,1,6.059.727c1.268.3,2.845.678,5.573,1.1A14.893,14.893,0,0,0,28,36.752c5,0,8.09-3,9.441-9.18.988-4.517.672-8.479-.826-10.34a2.72,2.72,0,0,0-2.357-1.091,14.37,14.37,0,0,0-3.022.685,9.933,9.933,0,0,1-2.318.528c-.387,0-.461-.123-.485-.164-.1-.172-.153-.7.685-2.282A8.3,8.3,0,0,0,29.4,6.9,3.868,3.868,0,0,0,26.38,4.756c-2.144-.077-2.138.913-2.156,2.455a15.969,15.969,0,0,1-.154,2.316c-.436,2.875-6.5,8.941-7.268,9.7h-2.7V17.358H9.594V36.606h4.512Z"/>
  </g>
</svg>
