<svg xmlns="http://www.w3.org/2000/svg" width="32" height="23.013" viewBox="0 0 32 23.013">
  <g id="noun_Check_1822337" transform="translate(-13.818 -23.98)">
    <g id="Group_696" data-name="Group 696" transform="translate(13.818 23.98)">
      <path id="Path_7659" data-name="Path 7659" d="M43.088,976.344a2.654,2.654,0,0,0-1.824.8c-.6.6-4.56,4.671-8.651,8.872-3.321,3.411-5.661,5.81-6.979,7.158l-7.421-5.652a2.654,2.654,0,1,0-3.206,4.215l9.286,7.076a2.654,2.654,0,0,0,3.482-.235c.6-.6,4.56-4.657,8.651-8.858s8.31-8.545,8.6-8.83a2.654,2.654,0,0,0-1.935-4.547Z" transform="translate(-13.818 -976.343)"/>
    </g>
  </g>
</svg>
