<svg xmlns="http://www.w3.org/2000/svg" width="60.378" height="90" viewBox="0 0 60.378 90">
  <g id="noun_customer_service_3341921" data-name="noun_customer service_3341921" transform="translate(-19.81 -5)">
    <g id="Group_700" data-name="Group 700">
      <path id="Path_7661" data-name="Path 7661" d="M80.188,67.658A19.927,19.927,0,0,0,62.1,47.816c-.079,3.632-5.463,6.565-12.1,6.565s-12.017-2.934-12.1-6.565A19.93,19.93,0,0,0,19.81,67.658c0,8.878,5.809,10.575,13.829,10.9,0,.025,0,.052,0,.078a16.365,16.365,0,0,0,32.729,0c0-.026,0-.053,0-.078C74.382,78.233,80.188,76.536,80.188,67.658Zm-18.733,11.8h1.6A13.087,13.087,0,0,1,50.818,91.685v-1.6a.818.818,0,0,0-1.636,0v1.6A13.089,13.089,0,0,1,36.953,79.454h1.6a.818.818,0,1,0,0-1.635h-1.6A13.089,13.089,0,0,1,49.182,65.588V67.35a.818.818,0,0,0,1.636,0V65.588A13.087,13.087,0,0,1,63.05,77.819h-1.6a.818.818,0,0,0,0,1.635Z" fill="#0a8cff"/>
      <path id="Path_7662" data-name="Path 7662" d="M33.253,34.019a5.271,5.271,0,0,0,1.369.183h.951C37.544,43.091,43.257,49.52,50,49.52c6.053,0,11.266-5.193,13.7-12.688a11.058,11.058,0,0,0,2.785-2.76c.057-.011.114-.018.169-.03A4.764,4.764,0,0,0,70.384,29.5v-3.69a4.763,4.763,0,0,0-3.733-4.544V20.69C66.651,12.039,59.158,5,49.95,5s-16.7,7.039-16.7,15.69v.595a4.759,4.759,0,0,0-3.636,4.522V29.5A4.758,4.758,0,0,0,33.253,34.019ZM49.95,8.275c6.7,0,12.244,4.717,13.091,10.8a14.851,14.851,0,0,0-26.215.226C37.564,13.107,43.166,8.275,49.95,8.275ZM38.922,31.349s-1.507-8.944,1.675-10.2A25.847,25.847,0,0,0,50,23.419a25.865,25.865,0,0,0,9.406-2.269c3.18,1.255,1.671,10.2,1.671,10.2a6.409,6.409,0,0,1,2.089-.982v.214a26.958,26.958,0,0,1-.451,2.9c-2.076,1.879-5.646,3.233-9.741,3.484a2.154,2.154,0,0,0-1.4-.523h-2.9a2.181,2.181,0,1,0,0,4.362h2.9a2.173,2.173,0,0,0,1.511-.613,22.465,22.465,0,0,0,8.1-1.91C58.818,43.636,54.7,47.189,50,47.189c-6.746,0-12.321-7.327-13.2-16.831A6.412,6.412,0,0,1,38.922,31.349Z"/>
      <path id="Path_7663" data-name="Path 7663" d="M50,69.228a1.227,1.227,0,0,0-1.228,1.227V77.41H43.453a1.227,1.227,0,0,0,0,2.455H50a1.227,1.227,0,0,0,1.228-1.227V70.455A1.227,1.227,0,0,0,50,69.228Z" fill="#0a8cff"/>
    </g>
  </g>
</svg>
