<svg xmlns="http://www.w3.org/2000/svg" width="70.888" height="90" viewBox="0 0 70.888 90">
  <g id="Group_701" data-name="Group 701" transform="translate(-923.112 -2993)">
    <path id="Path_7664" data-name="Path 7664" d="M96.453,20.039A1.946,1.946,0,0,1,98,21.932v8.339a1.946,1.946,0,0,1-1.547,1.891v2.067A1.946,1.946,0,0,1,98,36.122v4.951a1.968,1.968,0,0,1-1.547,1.91V90.495A7.529,7.529,0,0,1,88.948,98H54.467a7.529,7.529,0,0,1-7.505-7.505V84.61a.7.7,0,0,1,.7-.7H48.3a6.455,6.455,0,0,0,2.912-.69.7.7,0,0,1,1.02.627v6.652a2.258,2.258,0,0,0,2.235,2.235H88.948a2.246,2.246,0,0,0,2.235-2.235V15.505a2.245,2.245,0,0,0-2.235-2.235H83.066l-.027.038A5.985,5.985,0,0,1,77.9,16.13H65.535A6,6,0,0,1,60.372,13.3l-.02-.031H54.467a2.258,2.258,0,0,0-2.235,2.235V32.237a.7.7,0,0,1-1.02.627,6.472,6.472,0,0,0-2.912-.689h-.636a.7.7,0,0,1-.7-.7V15.505A7.528,7.528,0,0,1,54.467,8H88.948a7.528,7.528,0,0,1,7.505,7.505Z" transform="translate(896 2985)" fill-rule="evenodd"/>
    <path id="Path_7665" data-name="Path 7665" d="M24.85,5A19.85,19.85,0,1,0,44.7,24.85,19.88,19.88,0,0,0,24.85,5ZM22.865,33.628l-9.351-9.351,2.823-2.823,6.528,6.528,10.5-10.5,2.823,2.823Z" transform="translate(918.112 3018.15)" fill="#0a8cff"/>
  </g>
</svg>
