<svg xmlns="http://www.w3.org/2000/svg" width="408.289" height="304.264" viewBox="0 0 408.289 304.264">
  <g id="Group_772" data-name="Group 772" transform="translate(0 -54.953)">
    <g id="Background_Complete" data-name="Background Complete" transform="translate(0 54.953)">
      <g id="Group_736" data-name="Group 736">
        <rect id="Rectangle_793" data-name="Rectangle 793" width="408.289" height="0.204" transform="translate(0 267.385)" fill="#ebebeb"/>
        <rect id="Rectangle_794" data-name="Rectangle 794" width="17.703" height="0.204" transform="translate(349.677 280.528)" fill="#ebebeb"/>
        <rect id="Rectangle_795" data-name="Rectangle 795" width="27.853" height="0.204" transform="translate(253.595 276.291)" fill="#ebebeb"/>
        <rect id="Rectangle_796" data-name="Rectangle 796" width="36.358" height="0.204" transform="translate(323.843 272.946)" fill="#ebebeb"/>
        <rect id="Rectangle_797" data-name="Rectangle 797" width="9.095" height="0.204" transform="translate(132.185 277.063)" fill="#ebebeb"/>
        <rect id="Rectangle_798" data-name="Rectangle 798" width="31.347" height="0.204" transform="translate(93.567 277.063)" fill="#ebebeb"/>
        <rect id="Rectangle_799" data-name="Rectangle 799" width="22.615" height="0.204" transform="translate(54.145 273.615)" fill="#ebebeb"/>
        <path id="Path_7684" data-name="Path 7684" d="M200.548,285.92H42.868a4.667,4.667,0,0,1-4.661-4.661V59.613a4.666,4.666,0,0,1,4.661-4.66h157.68a4.666,4.666,0,0,1,4.66,4.66V281.259A4.667,4.667,0,0,1,200.548,285.92ZM42.868,55.157a4.461,4.461,0,0,0-4.457,4.456V281.259a4.461,4.461,0,0,0,4.457,4.457h157.68A4.461,4.461,0,0,0,205,281.259V59.613a4.461,4.461,0,0,0-4.456-4.456Z" transform="translate(-7.008 -54.953)" fill="#ebebeb"/>
        <path id="Path_7685" data-name="Path 7685" d="M416.845,285.92H259.165a4.666,4.666,0,0,1-4.66-4.661V59.613a4.665,4.665,0,0,1,4.66-4.66h157.68a4.666,4.666,0,0,1,4.662,4.66V281.259A4.667,4.667,0,0,1,416.845,285.92ZM259.165,55.157a4.461,4.461,0,0,0-4.456,4.456V281.259a4.461,4.461,0,0,0,4.456,4.457h157.68a4.462,4.462,0,0,0,4.458-4.457V59.613a4.462,4.462,0,0,0-4.458-4.456Z" transform="translate(-46.682 -54.953)" fill="#ebebeb"/>
      </g>
      <g id="Group_761" data-name="Group 761" transform="translate(47.339 14.061)">
        <g id="Group_737" data-name="Group 737" transform="translate(0 23.868)">
          <path id="Path_7686" data-name="Path 7686" d="M114.508,166.956a17.075,17.075,0,1,0,0-34.15h-2.095v34.15Z" transform="translate(-67.958 -107.162)" fill="#e0e0e0"/>
          <circle id="Ellipse_95" data-name="Ellipse 95" cx="17.075" cy="17.075" r="17.075" transform="translate(27.38 25.643)" fill="#f5f5f5"/>
          <path id="Path_7687" data-name="Path 7687" d="M106.321,147.66A22.882,22.882,0,0,1,83.464,124.8V111.147a2.146,2.146,0,0,1,4.293,0V124.8a18.585,18.585,0,0,0,18.564,18.564,2.146,2.146,0,1,1,0,4.292Z" transform="translate(-62.648 -102.796)" fill="#e0e0e0"/>
          <path id="Path_7688" data-name="Path 7688" d="M61.941,121.776H99.929a3.966,3.966,0,0,0,3.834-4.982l-3.295-12.441a3.968,3.968,0,0,0-3.835-2.951h-31.4a3.967,3.967,0,0,0-3.835,2.951l-3.295,12.441A3.966,3.966,0,0,0,61.941,121.776Z" transform="translate(-57.972 -101.402)" fill="#f5f5f5"/>
        </g>
        <g id="Group_744" data-name="Group 744" transform="translate(0.908 142.662)">
          <g id="Group_739" data-name="Group 739" transform="translate(23.028)">
            <rect id="Rectangle_800" data-name="Rectangle 800" width="12.418" height="48.121" transform="translate(50.549 56.322) rotate(180)" fill="#e6e6e6"/>
            <path id="Path_7692" data-name="Path 7692" d="M92.751,303.2h41.212l6.224-56.322H98.975Z" transform="translate(-88.287 -246.88)" fill="#f0f0f0"/>
            <path id="Path_7693" data-name="Path 7693" d="M87.285,303.2h42.569l6.224-56.322H93.509Z" transform="translate(-87.285 -246.88)" fill="#f5f5f5"/>
            <path id="Path_7694" data-name="Path 7694" d="M127.69,299.761l5.243-47.445H97.5l-5.243,47.445Z" transform="translate(-88.196 -247.877)" fill="#fff"/>
            <path id="Path_7695" data-name="Path 7695" d="M123.111,290.844l.214-1.934c1.316-11.9-6.117-22.511-15.771-22.511h0l-.214,1.934c-1.316,11.9,6.116,22.511,15.771,22.511Z" transform="translate(-90.936 -250.46)" fill="#f5f5f5"/>
          </g>
          <g id="Group_741" data-name="Group 741" transform="translate(0 56.322)">
            <g id="Group_740" data-name="Group 740" transform="translate(0 0)">
              <rect id="Rectangle_801" data-name="Rectangle 801" width="36.614" height="54.339" transform="translate(36.614 54.339) rotate(180)" fill="#e6e6e6"/>
              <path id="Path_7696" data-name="Path 7696" d="M62.767,380.045H59.084V369.569h7.544Z" transform="translate(-59.084 -325.706)" fill="#f0f0f0"/>
              <rect id="Rectangle_802" data-name="Rectangle 802" width="36.614" height="54.339" transform="translate(139.233 54.339) rotate(180)" fill="#e6e6e6"/>
              <rect id="Rectangle_803" data-name="Rectangle 803" width="105.833" height="47.911" transform="translate(105.833 47.911) rotate(180)" fill="#f0f0f0"/>
              <path id="Path_7697" data-name="Path 7697" d="M183.312,380.045H187V369.569h-7.544Z" transform="translate(-81.162 -325.706)" fill="#f0f0f0"/>
              <rect id="Rectangle_804" data-name="Rectangle 804" width="100.119" height="19.333" transform="translate(102.976 22.329) rotate(180)" fill="#e6e6e6"/>
              <path id="Path_7698" data-name="Path 7698" d="M112.266,333.476h13.354a21.126,21.126,0,0,0,15.335-6.6H96.931A21.122,21.122,0,0,0,112.266,333.476Z" transform="translate(-66.026 -317.876)" fill="#f0f0f0"/>
              <rect id="Rectangle_805" data-name="Rectangle 805" width="100.119" height="19.333" transform="translate(102.976 44.786) rotate(180)" fill="#e6e6e6"/>
              <path id="Path_7699" data-name="Path 7699" d="M112.266,360.977h13.354a21.128,21.128,0,0,0,15.335-6.6H96.931A21.125,21.125,0,0,0,112.266,360.977Z" transform="translate(-66.026 -322.92)" fill="#f0f0f0"/>
            </g>
          </g>
          <g id="Group_743" data-name="Group 743" transform="translate(79.524 2.548)">
            <path id="Path_7700" data-name="Path 7700" d="M180.2,304.154h.946c-.01-1.948,0-6.891.1-18.219.171-20.532.5-21.783.5-21.783l-2.252,9.478C178.061,284.125,179.9,294.672,180.2,304.154Z" transform="translate(-160.595 -252.596)" fill="#e6e6e6"/>
            <path id="Path_7701" data-name="Path 7701" d="M174.206,272.688c-3.242-3.863-10.167-4.988-17.258-5.95-2.784-.377,7.316,5.985,12.252,10.5,3.835,3.51,6.287,4.48,7.34,7.978C177.089,280.857,177,276.017,174.206,272.688Z" transform="translate(-156.471 -253.067)" fill="#e6e6e6"/>
            <path id="Path_7702" data-name="Path 7702" d="M182.872,281.145c3.241-3.863,10.167-4.988,17.258-5.95,2.784-.378-7.316,5.984-12.253,10.5-3.835,3.51-6.287,4.481-7.339,7.979C179.989,289.314,180.079,284.474,182.872,281.145Z" transform="translate(-160.837 -254.619)" fill="#e6e6e6"/>
            <path id="Path_7703" data-name="Path 7703" d="M181.38,260.647c2.43-4.617,8.546-8.965,15.409-10.614,2.695-.648-6.241,8.527-9.637,14.443-2.638,4.6-6.137,9.994-6.681,13.872C179.649,270.664,178.95,265.264,181.38,260.647Z" transform="translate(-160.732 -250)" fill="#e6e6e6"/>
            <g id="Group_742" data-name="Group 742" transform="translate(13.27 44.98)">
              <path id="Path_7704" data-name="Path 7704" d="M180.071,314.4h0c-2.9,0-5.288-1.451-5.455-3.308l-.483-3.172h11.875l-.483,3.172C185.359,312.946,182.967,314.4,180.071,314.4Z" transform="translate(-172.981 -305.603)" fill="#f0f0f0"/>
              <path id="Path_7705" data-name="Path 7705" d="M186.518,308.618H173.106l-.384-3.534H186.9Z" transform="translate(-172.722 -305.083)" fill="#f0f0f0"/>
            </g>
          </g>
        </g>
        <g id="Group_750" data-name="Group 750" transform="translate(85.26)">
          <g id="Group_747" data-name="Group 747" transform="translate(2.9 6.874)">
            <g id="Group_746" data-name="Group 746">
              <g id="Group_745" data-name="Group 745">
                <rect id="Rectangle_806" data-name="Rectangle 806" width="130.821" height="119.328" transform="translate(133.765 119.328) rotate(180)" fill="#e6e6e6"/>
                <rect id="Rectangle_807" data-name="Rectangle 807" width="132.486" height="119.328" transform="translate(132.486 119.328) rotate(180)" fill="#f5f5f5"/>
                <rect id="Rectangle_808" data-name="Rectangle 808" width="108.637" height="121.916" transform="translate(127.201 5.345) rotate(90)" fill="#fafafa"/>
                <path id="Path_7706" data-name="Path 7706" d="M288.949,195.775,240.965,87.138h-16.3L272.65,195.775Z" transform="translate(-176.707 -81.792)" fill="#fff"/>
                <path id="Path_7707" data-name="Path 7707" d="M264.472,195.775,216.489,87.138H205.266l47.983,108.637Z" transform="translate(-173.149 -81.792)" fill="#fff"/>
                <rect id="Rectangle_809" data-name="Rectangle 809" width="108.637" height="6.305" transform="translate(50.554 5.345) rotate(90)" fill="#e6e6e6"/>
                <rect id="Rectangle_810" data-name="Rectangle 810" width="108.637" height="6.305" transform="translate(92.46 5.345) rotate(90)" fill="#e6e6e6"/>
                <rect id="Rectangle_811" data-name="Rectangle 811" width="116.003" height="7.969" transform="translate(49.417 1.371) rotate(90)" fill="#f5f5f5"/>
                <rect id="Rectangle_812" data-name="Rectangle 812" width="116.003" height="7.969" transform="translate(91.323 1.371) rotate(90)" fill="#f5f5f5"/>
                <rect id="Rectangle_813" data-name="Rectangle 813" width="108.637" height="0.561" transform="translate(5.846 5.345) rotate(90)" fill="#e6e6e6"/>
              </g>
            </g>
          </g>
          <g id="Group_749" data-name="Group 749">
            <g id="Group_748" data-name="Group 748">
              <path id="Path_7708" data-name="Path 7708" d="M163.064,72.173h141.73a.683.683,0,0,1,.681.681h0a.683.683,0,0,1-.681.682H163.064a.683.683,0,0,1-.681-.682h0A.683.683,0,0,1,163.064,72.173Z" transform="translate(-162.383 -72.173)" fill="#e6e6e6"/>
              <path id="Path_7709" data-name="Path 7709" d="M329.539,76.824h0a.923.923,0,0,0,.92-.92V73.927a.923.923,0,0,0-.92-.92h0a.923.923,0,0,0-.92.92V75.9A.923.923,0,0,0,329.539,76.824Z" transform="translate(-192.874 -72.326)" fill="#e6e6e6"/>
              <path id="Path_7710" data-name="Path 7710" d="M175.6,76.824h0a.923.923,0,0,0,.92-.92V73.927a.923.923,0,0,0-.92-.92h0a.923.923,0,0,0-.919.92V75.9A.923.923,0,0,0,175.6,76.824Z" transform="translate(-164.638 -72.326)" fill="#e6e6e6"/>
            </g>
            <rect id="Rectangle_814" data-name="Rectangle 814" width="132.389" height="93.447" transform="translate(133.288 94.128) rotate(180)" fill="#e0e0e0" opacity="0.6"/>
          </g>
        </g>
      </g>
    </g>
    <g id="Shadow" transform="translate(45.819 340.724)">
      <ellipse id="_Path_" data-name="&lt;Path&gt;" cx="158.326" cy="9.246" rx="158.326" ry="9.246" fill="#f5f5f5"/>
    </g>
    <g id="Login" transform="translate(92.589 109.257)">
      <g id="Group_764" data-name="Group 764">
        <g id="Group_762" data-name="Group 762" transform="translate(0 5.901)">
          <path id="Path_7713" data-name="Path 7713" d="M233.446,322.059H129.272a6.636,6.636,0,0,1-6.553-6.232L113.4,134.913a5.861,5.861,0,0,1,5.911-6.232H223.48a6.637,6.637,0,0,1,6.554,6.232l9.323,180.914A5.86,5.86,0,0,1,233.446,322.059Z" transform="translate(-113.387 -128.681)" fill="#407bff"/>
          <path id="Path_7714" data-name="Path 7714" d="M233.446,322.059H129.272a6.636,6.636,0,0,1-6.553-6.232L113.4,134.913a5.861,5.861,0,0,1,5.911-6.232H223.48a6.637,6.637,0,0,1,6.554,6.232l9.323,180.914A5.86,5.86,0,0,1,233.446,322.059Z" transform="translate(-113.387 -128.681)" fill="#fff" opacity="0.45"/>
        </g>
        <rect id="Rectangle_827" data-name="Rectangle 827" width="11.523" height="0.817" transform="translate(88.289)" fill="#407bff"/>
        <rect id="Rectangle_828" data-name="Rectangle 828" width="4.219" height="0.817" transform="translate(80.078)" fill="#407bff"/>
        <path id="Path_7715" data-name="Path 7715" d="M240.107,309.9H140.475a6.347,6.347,0,0,1-6.268-5.96L125.29,130.915a5.6,5.6,0,0,1,5.653-5.96h99.632a6.347,6.347,0,0,1,6.267,5.96l8.917,173.026A5.6,5.6,0,0,1,240.107,309.9Z" transform="translate(-115.569 -122.097)" fill="#e5eeff"/>
        <path id="Path_7716" data-name="Path 7716" d="M241,306.814H141.369a2.386,2.386,0,0,1-2.292-2.184L130.159,131.6a1.663,1.663,0,0,1,.443-1.271,1.646,1.646,0,0,1,1.235-.5H231.47a2.387,2.387,0,0,1,2.292,2.184l8.917,173.026a1.664,1.664,0,0,1-.443,1.271A1.647,1.647,0,0,1,241,306.814ZM131.837,130.034a1.423,1.423,0,0,0-1.474,1.56l8.918,173.026a2.174,2.174,0,0,0,2.088,1.99H241a1.423,1.423,0,0,0,1.474-1.56l-8.917-173.026a2.174,2.174,0,0,0-2.088-1.991Z" transform="translate(-116.463 -122.991)" fill="#fff"/>
        <ellipse id="Ellipse_97" data-name="Ellipse 97" cx="29.394" cy="30.948" rx="29.394" ry="30.948" transform="matrix(0.698, -0.716, 0.716, 0.698, 24.854, 47.758)" fill="#fff" opacity="0.3"/>
        <path id="Path_7717" data-name="Path 7717" d="M215,175.133a23.43,23.43,0,0,1-2.35,11.623,22.9,22.9,0,0,1-20.794,12.779,25.915,25.915,0,0,1-22.112-12.779,25.2,25.2,0,0,1-3.548-11.623,22.944,22.944,0,0,1,23.144-24.4A25.982,25.982,0,0,1,215,175.133Z" transform="translate(-123.067 -126.825)" fill="#fff"/>
        <path id="Path_7718" data-name="Path 7718" d="M213.457,193.388a22.9,22.9,0,0,1-20.794,12.779,25.915,25.915,0,0,1-22.112-12.779,36.9,36.9,0,0,1,21.118-6.5A40.119,40.119,0,0,1,213.457,193.388Z" transform="translate(-123.872 -133.457)" fill="#407bff"/>
        <ellipse id="Ellipse_98" data-name="Ellipse 98" cx="10.593" cy="11.154" rx="10.593" ry="11.154" transform="translate(51.722 39.761) rotate(-45.738)" fill="#407bff"/>
        <g id="Group_763" data-name="Group 763" transform="translate(29.002 90.218)">
          <path id="Path_7719" data-name="Path 7719" d="M230.161,265.313H152.15a2.686,2.686,0,0,1-2.652-2.522l-.59-11.463a2.371,2.371,0,0,1,2.392-2.522H229.31a2.686,2.686,0,0,1,2.652,2.522l.591,11.463A2.372,2.372,0,0,1,230.161,265.313Z" transform="translate(-148.904 -235.032)" fill="#fff"/>
          <path id="Path_7720" data-name="Path 7720" d="M211.214,239.416H178.632a2.686,2.686,0,0,1-2.652-2.522l-.125-2.433a2.371,2.371,0,0,1,2.392-2.522h32.581a2.686,2.686,0,0,1,2.652,2.522l.125,2.433A2.371,2.371,0,0,1,211.214,239.416Z" transform="translate(-153.847 -231.938)" opacity="0.3"/>
          <path id="Path_7721" data-name="Path 7721" d="M221.952,333.113h-48.8a4.574,4.574,0,0,1-4.517-4.3l-.29-5.629a4.039,4.039,0,0,1,4.074-4.3h48.8a4.574,4.574,0,0,1,4.517,4.3l.29,5.629A4.039,4.039,0,0,1,221.952,333.113Z" transform="translate(-152.469 -247.888)" fill="#407bff" opacity="0.3"/>
          <path id="Path_7722" data-name="Path 7722" d="M231.9,299.148H153.894a2.685,2.685,0,0,1-2.652-2.522l-.591-11.463a2.372,2.372,0,0,1,2.393-2.522h78.011a2.686,2.686,0,0,1,2.652,2.522l.59,11.463A2.371,2.371,0,0,1,231.9,299.148Z" transform="translate(-149.224 -241.238)" fill="#fff"/>
        </g>
      </g>
    </g>
    <g id="Character" transform="translate(191.993 95.528)">
      <g id="Group_771" data-name="Group 771">
        <g id="Group_770" data-name="Group 770">
          <path id="Path_7733" data-name="Path 7733" d="M331.421,176.624c.205.3.309.47.443.688l.365.611c.237.4.444.807.653,1.211.408.808.795,1.615,1.14,2.433a45.063,45.063,0,0,1,1.77,4.979,52.2,52.2,0,0,1,1.936,10.236l.064.645c.011.092.02.238.026.389l.018.439a10.32,10.32,0,0,1-.1,1.7,13.65,13.65,0,0,1-.81,3.042,20.8,20.8,0,0,1-2.825,4.883,34.758,34.758,0,0,1-7.6,7.2l-2.25-2.635a47.116,47.116,0,0,0,5.423-7.5,17.458,17.458,0,0,0,1.655-3.854,7.648,7.648,0,0,0,.268-1.751,4.173,4.173,0,0,0-.027-.759l-.025-.175c-.006-.053-.012-.112-.033-.222l-.1-.575a63.892,63.892,0,0,0-2.219-8.986c-.469-1.458-1.05-2.868-1.64-4.252-.291-.695-.612-1.369-.943-2.027l-.506-.959-.252-.455-.207-.356Z" transform="translate(-251.468 -117.845)" fill="#803e3c"/>
          <path id="Path_7734" data-name="Path 7734" d="M323.7,223.05l2.957,6.244L329,224.015s-2.078-4.573-4.89-4.155Z" transform="translate(-251.366 -125.771)" fill="#7f3e3b"/>
          <path id="Path_7735" data-name="Path 7735" d="M329.436,230.543l2.348-3.85-2.122-1.739-2.345,5.279Z" transform="translate(-252.03 -126.71)" fill="#7f3e3b"/>
          <path id="Path_7736" data-name="Path 7736" d="M313.278,407.828a8.311,8.311,0,0,0,1.806-.245.161.161,0,0,0,.051-.292c-.234-.154-2.312-1.5-3.107-1.135a.554.554,0,0,0-.323.456.922.922,0,0,0,.269.861A1.961,1.961,0,0,0,313.278,407.828Zm1.348-.476a3.242,3.242,0,0,1-2.433-.119.611.611,0,0,1-.167-.576.231.231,0,0,1,.135-.2C312.582,406.258,313.779,406.84,314.626,407.352Z" transform="translate(-249.164 -159.935)" fill="#407bff"/>
          <path id="Path_7737" data-name="Path 7737" d="M315.388,407.226a.161.161,0,0,0,.082-.021.163.163,0,0,0,.081-.14c0-.083-.009-2.053-.753-2.711a.843.843,0,0,0-.686-.216.565.565,0,0,0-.545.452c-.154.772,1.09,2.247,1.743,2.616A.154.154,0,0,0,315.388,407.226Zm-1.164-2.772a.523.523,0,0,1,.358.142,3.707,3.707,0,0,1,.634,2.154c-.651-.519-1.427-1.627-1.333-2.1.016-.077.06-.168.267-.194A.575.575,0,0,1,314.224,404.454Z" transform="translate(-249.505 -159.575)" fill="#407bff"/>
          <path id="Path_7738" data-name="Path 7738" d="M303.249,404.072a.162.162,0,0,0-.111-.272c-.339-.017-3.274-.139-3.935.577a.548.548,0,0,0-.04.048.521.521,0,0,0-.069.506.9.9,0,0,0,.6.594c.951.295,2.624-.771,3.537-1.432A.2.2,0,0,0,303.249,404.072Zm-3.8.518c.364-.394,1.979-.5,3.193-.482-1.272.862-2.322,1.273-2.855,1.108a.581.581,0,0,1-.386-.394.2.2,0,0,1,.024-.2A.276.276,0,0,1,299.447,404.589Z" transform="translate(-246.846 -159.511)" fill="#407bff"/>
          <path id="Path_7739" data-name="Path 7739" d="M303.444,403.642a.231.231,0,0,0,.021-.029.162.162,0,0,0,0-.161c-.038-.069-.951-1.675-2.032-1.966a1.17,1.17,0,0,0-.932.121c-.389.227-.411.491-.362.67.209.756,2.291,1.423,3.185,1.417A.163.163,0,0,0,303.444,403.642Zm-2.932-1.637a.678.678,0,0,1,.155-.118.847.847,0,0,1,.683-.087,3.752,3.752,0,0,1,1.674,1.553c-.966-.11-2.446-.707-2.571-1.161A.178.178,0,0,1,300.511,402.005Z" transform="translate(-247.042 -159.082)" fill="#407bff"/>
          <path id="Path_7740" data-name="Path 7740" d="M312.17,147.33c-.8,4.058-2.583,12.913.257,15.621,0,0-1.11,4.117-8.652,4.117-8.292,0-3.963-4.117-3.963-4.117,4.526-1.08,4.41-4.439,3.621-7.593Z" transform="translate(-246.777 -112.472)" fill="#7f3e3b"/>
          <path id="Path_7741" data-name="Path 7741" d="M297.731,135.1a.333.333,0,0,0,.145-.034.325.325,0,0,0,.145-.435,3.216,3.216,0,0,0-2.35-1.8.324.324,0,0,0-.075.644h0a2.566,2.566,0,0,1,1.845,1.442A.324.324,0,0,0,297.731,135.1Z" transform="translate(-246.159 -109.813)" fill="#263238"/>
          <path id="Path_7742" data-name="Path 7742" d="M294.711,139.952a14.722,14.722,0,0,1-2.384,3.252,2.374,2.374,0,0,0,1.907.608Z" transform="translate(-245.612 -111.119)" fill="#630f0f"/>
          <path id="Path_7743" data-name="Path 7743" d="M295.7,138.633c-.067.547-.412.955-.77.911s-.594-.524-.526-1.072.413-.955.771-.91S295.764,138.085,295.7,138.633Z" transform="translate(-245.99 -110.68)" fill="#263238"/>
          <path id="Path_7744" data-name="Path 7744" d="M295.25,137.5l-1.268-.542S294.53,138.07,295.25,137.5Z" transform="translate(-245.915 -110.57)" fill="#263238"/>
          <path id="Path_7745" data-name="Path 7745" d="M310.611,398.8l-6.661,1.556L299.9,385.03l6.661-1.556Z" transform="translate(-247.001 -155.786)" fill="#7f3e3b"/>
          <path id="Path_7746" data-name="Path 7746" d="M324,404.166h-6.84l.536-15.84h6.84Z" transform="translate(-250.168 -156.676)" fill="#7f3e3b"/>
          <path id="Path_7747" data-name="Path 7747" d="M314.29,406.755h7.685a.541.541,0,0,1,.545.467l.875,6.079a1.1,1.1,0,0,1-1.1,1.217c-2.679-.047-3.97-.2-7.35-.2-2.079,0-5.116.216-7.987.216-2.808,0-3.024-2.839-1.828-3.1,5.36-1.153,6.207-2.743,8.012-4.259A1.786,1.786,0,0,1,314.29,406.755Z" transform="translate(-247.835 -160.056)" fill="#263238"/>
          <path id="Path_7748" data-name="Path 7748" d="M302.378,402.159l6.981-3.212a.542.542,0,0,1,.692.2l3.336,5.157a1.1,1.1,0,0,1-.488,1.563c-2.453,1.078-3.692,1.475-6.762,2.887-1.889.869-5.7,2.862-8.313,4.063-2.551,1.173-3.934-1.315-2.955-2.049,4.387-3.288,5.64-5.613,6.646-7.746A1.788,1.788,0,0,1,302.378,402.159Z" transform="translate(-246.02 -158.614)" fill="#263238"/>
          <g id="Group_765" data-name="Group 765" transform="translate(52.904 227.692)">
            <path id="Path_7749" data-name="Path 7749" d="M299.905,385.035l2.167,8.208,6.581-1.867-2.085-7.9Z" transform="translate(-299.905 -383.478)" opacity="0.2"/>
            <path id="Path_7750" data-name="Path 7750" d="M324.6,388.332h-6.843l-.273,8.165h6.843Z" transform="translate(-303.13 -384.369)" opacity="0.2"/>
          </g>
          <path id="Path_7751" data-name="Path 7751" d="M328.242,168.34c2.842.623,5.876,10.845,5.876,10.845l-8.034,8.542s-6.666-9.6-5.308-13.131C322.19,170.919,324.883,167.6,328.242,168.34Z" transform="translate(-250.796 -116.307)" fill="#263238"/>
          <path id="Path_7752" data-name="Path 7752" d="M323.738,176.143c-1.437-1.315-2.409-.923-3.07.122-.653,3.038,3.217,9.4,4.777,11.808C326.163,185.2,326.988,179.131,323.738,176.143Z" transform="translate(-250.797 -117.604)" opacity="0.4"/>
          <path id="Path_7753" data-name="Path 7753" d="M285.724,168.161s-3.258,1.147,3.269,41.282h27.779c-.466-11.306-.479-18.278,4.925-41.481a81.908,81.908,0,0,0-11.8-1.554,88.388,88.388,0,0,0-12.615,0C291.868,166.9,285.724,168.161,285.724,168.161Z" transform="translate(-244.252 -115.93)" fill="#263238"/>
          <path id="Path_7754" data-name="Path 7754" d="M285.6,186.426c.18,1.952.416,4.148.727,6.631,2.275-2.05,4.135-7.877,3.454-11.277A20.082,20.082,0,0,0,285.6,186.426Z" transform="translate(-244.379 -118.791)" opacity="0.4"/>
          <path id="Path_7755" data-name="Path 7755" d="M281.008,179.433a120.569,120.569,0,0,1-5.049,11.069,67.986,67.986,0,0,1-6.52,10.611l-.523.643-.26.321c-.09.108-.16.2-.3.351a9.991,9.991,0,0,1-1.613,1.435,13.281,13.281,0,0,1-3.414,1.706,24.82,24.82,0,0,1-6.565,1.156,48.647,48.647,0,0,1-12.379-1.1l.453-3.435c1.877.01,3.845-.032,5.743-.152a45.725,45.725,0,0,0,5.607-.626,21.9,21.9,0,0,0,5.013-1.4,7.661,7.661,0,0,0,1.8-1.1,3.641,3.641,0,0,0,.559-.584,2.467,2.467,0,0,0,.167-.223l.19-.269.382-.536a82.535,82.535,0,0,0,5.465-9.891c1.657-3.473,3.256-7.073,4.756-10.587Z" transform="translate(-236.817 -117.882)" fill="#803e3c"/>
          <path id="Path_7756" data-name="Path 7756" d="M284.2,168.553c-3.4.829-7.583,10.162-7.583,10.162l7.056,10.366s9.395-11.827,8.278-15.441C290.792,169.878,288.328,167.547,284.2,168.553Z" transform="translate(-242.731 -116.322)" fill="#263238"/>
          <path id="Path_7757" data-name="Path 7757" d="M245.876,207.9l-5.886-2.718-.591,5.852s4.919,1.448,7.344-.036Z" transform="translate(-235.904 -123.084)" fill="#7f3e3b"/>
          <path id="Path_7758" data-name="Path 7758" d="M235.68,204.46l-.561,4.456,3.5,1.987.592-5.851Z" transform="translate(-235.118 -122.951)" fill="#7f3e3b"/>
          <path id="Path_7759" data-name="Path 7759" d="M314.321,136.874c-1.245,6.674-1.63,9.525-5.453,12.556-5.75,4.56-13.675,1.571-14.449-5.34-.7-6.22,1.456-16.088,8.369-17.95A9.259,9.259,0,0,1,314.321,136.874Z" transform="translate(-245.973 -108.523)" fill="#7f3e3b"/>
          <path id="Path_7760" data-name="Path 7760" d="M300.042,137.391c-.381,3.4-.528,12.244,6.947,12.521,9.16.34,11.9-7.486,11.087-10.616,4.763-3.879,5.452-10.548.1-15.651s-17.148-2.25-20.443,2.722C293.646,132.529,300.042,137.391,300.042,137.391Z" transform="translate(-246.353 -107.634)" fill="#263238"/>
          <path id="Path_7761" data-name="Path 7761" d="M312.066,125.316c-.443-3.589-.1-6.066,3.258-6.066s7.95,1.219,9.634,4.659,1.82,8.815-2.875,8.27S312.6,129.612,312.066,125.316Z" transform="translate(-249.204 -107.322)" fill="#407bff"/>
          <path id="Path_7762" data-name="Path 7762" d="M318.454,121.774c-.8-4.281,3.014-16.328,12.319-17.111,4.31-.363,6.306,4.276,4.049,5.039,4.071-.049,6.7,5.348,2.888,6.161,3.011,1.923,2.261,5.879-2.026,7.819C332.523,125.111,319.561,127.7,318.454,121.774Z" transform="translate(-250.385 -104.642)" fill="#263238"/>
          <path id="Path_7763" data-name="Path 7763" d="M328.407,129.267c-2.994,0-6.124-.44-8.064-1.738a4,4,0,0,1-1.92-3.108.2.2,0,0,1,.188-.219.2.2,0,0,1,.22.188,3.611,3.611,0,0,0,1.739,2.8c3.7,2.474,12.236,1.674,14.912.8,2.3-.751,3.861-2.207,4.17-3.894a3.372,3.372,0,0,0-1.367-3.3.2.2,0,1,1,.256-.318,3.811,3.811,0,0,1,1.513,3.7c-.336,1.837-2,3.411-4.445,4.209A26.647,26.647,0,0,1,328.407,129.267Z" transform="translate(-250.398 -107.538)" fill="#263238"/>
          <path id="Path_7764" data-name="Path 7764" d="M298.107,139.743a5.086,5.086,0,0,0-.875,3.687c.272,1.712,1.942,1.826,3.15.728,1.088-.989,2.258-3.07,1.367-4.49A2.147,2.147,0,0,0,298.107,139.743Z" transform="translate(-246.501 -110.888)" fill="#7f3e3b"/>
          <path id="Path_7765" data-name="Path 7765" d="M298.894,219.161s3.969,46.946,8.088,73.4c3.327,21.371,5.95,71.322,5.95,71.322h9.328s3.317-48.459,1.628-69.595c-4.272-53.484,5.256-57.841-4.551-75.13Z" transform="translate(-246.816 -125.647)" fill="#407bff"/>
          <path id="Path_7766" data-name="Path 7766" d="M311.294,240.89a45.579,45.579,0,0,0-8.811,13.294c1.086,10.55,2.377,22.26,3.748,32.516A90.122,90.122,0,0,0,311.294,240.89Z" transform="translate(-247.475 -129.633)" opacity="0.4"/>
          <path id="Path_7767" data-name="Path 7767" d="M288.659,218.8s-8.611,51.272-9.972,74.383c3.382,21.371,17.216,66.54,17.216,66.54l8.484-3.074s-4.694-49.255-9.826-62.74c11.489-38.684,19.933-48.46,17.476-74.812C306.179,219.094,288.659,218.8,288.659,218.8Z" transform="translate(-243.11 -125.581)" fill="#407bff"/>
          <path id="Path_7768" data-name="Path 7768" d="M298.048,392.413l11.465-3.113-.65-4.57-12.275,3.319Z" transform="translate(-246.393 -156.016)" fill="#263238"/>
          <path id="Path_7769" data-name="Path 7769" d="M314.507,395.589h11.88l.624-4.168L314.439,391Z" transform="translate(-249.668 -157.166)" fill="#263238"/>
          <g id="Group_766" data-name="Group 766" transform="translate(43.879 91.675)">
            <path id="Path_7770" data-name="Path 7770" d="M317.912,217.117l1.253,2.486c.1.194-.131.39-.452.39H289.579c-.251,0-.458-.123-.474-.281l-.251-2.486c-.017-.172.2-.318.474-.318H317.46A.5.5,0,0,1,317.912,217.117Z" transform="translate(-288.854 -216.909)" fill="#407bff"/>
            <path id="Path_7771" data-name="Path 7771" d="M317.912,217.117l1.253,2.486c.1.194-.131.39-.452.39H289.579c-.251,0-.458-.123-.474-.281l-.251-2.486c-.017-.172.2-.318.474-.318H317.46A.5.5,0,0,1,317.912,217.117Z" transform="translate(-288.854 -216.909)" opacity="0.5"/>
          </g>
          <path id="Path_7772" data-name="Path 7772" d="M319.667,220.213h.753c.15,0,.265-.077.255-.171l-.354-3.23c-.011-.095-.141-.172-.292-.172h-.754c-.15,0-.264.078-.254.172l.354,3.23C319.385,220.136,319.517,220.213,319.667,220.213Z" transform="translate(-250.508 -125.185)" fill="#407bff"/>
          <g id="Group_769" data-name="Group 769" transform="translate(46.545 50.53)">
            <path id="Path_7773" data-name="Path 7773" d="M304.619,187.225a.407.407,0,0,1-.394-.3c-2.665-9.844-8.2-17.939-10.843-19.188a.909.909,0,0,0-.688-.114.408.408,0,1,1-.336-.744,1.612,1.612,0,0,1,1.373.119c2.819,1.333,8.4,9.336,11.2,19.409,2-.025,5.091-.275,5.837-.338.933-1.109,7.78-9.667,5.219-19.03a.408.408,0,1,1,.787-.216c2.852,10.422-5.417,19.818-5.5,19.911a.407.407,0,0,1-.269.135C310.962,186.871,306.89,187.225,304.619,187.225Z" transform="translate(-292.118 -166.522)" fill="#407bff"/>
            <g id="Group_768" data-name="Group 768" transform="translate(8.71 8.206)">
              <g id="Group_767" data-name="Group 767">
                <path id="Path_7774" data-name="Path 7774" d="M320.1,194.84c-4.451-8.344-6.271-8.927-7.067-11.609a13.793,13.793,0,0,1,2.538-4.076c-.546-.152-1.7-.383-2.427-.523.082-.365.167-.726.249-1.072a7.644,7.644,0,0,0-2.489.112l-.029-.823a10.418,10.418,0,0,0-3.164-.2c.091.379.182.775.274,1.176-.8.154-2.062.407-2.661.573a11.685,11.685,0,0,1,2.494,4.552c-2.4,4.12-11.725,30.63,3.443,32.623S324.552,203.184,320.1,194.84Z" transform="translate(-302.784 -176.571)" fill="#407bff"/>
                <path id="Path_7775" data-name="Path 7775" d="M320.1,194.84c-4.451-8.344-6.271-8.927-7.067-11.609a13.793,13.793,0,0,1,2.538-4.076c-.546-.152-1.7-.383-2.427-.523.082-.365.167-.726.249-1.072a7.644,7.644,0,0,0-2.489.112l-.029-.823a10.418,10.418,0,0,0-3.164-.2c.091.379.182.775.274,1.176-.8.154-2.062.407-2.661.573a11.685,11.685,0,0,1,2.494,4.552c-2.4,4.12-11.725,30.63,3.443,32.623S324.552,203.184,320.1,194.84Z" transform="translate(-302.784 -176.571)" fill="#fff" opacity="0.4"/>
              </g>
              <path id="Path_7776" data-name="Path 7776" d="M308.23,183.372a5.224,5.224,0,0,0-.118,1.276c-.017.306.8.51,1.718.6s4.712.238,4.593-.187.187-1,.2-1.36-1.514-.375-2.79-.323S308.486,182.912,308.23,183.372Z" transform="translate(-303.761 -177.783)" fill="#407bff"/>
            </g>
          </g>
          <path id="Path_7777" data-name="Path 7777" d="M297.3,220.213h.754c.149,0,.264-.077.254-.171l-.354-3.23c-.011-.095-.141-.172-.292-.172h-.754c-.149,0-.264.078-.254.172l.354,3.23C297.022,220.136,297.153,220.213,297.3,220.213Z" transform="translate(-246.406 -125.185)" fill="#407bff"/>
        </g>
      </g>
    </g>
  </g>
</svg>
