<svg xmlns="http://www.w3.org/2000/svg" width="100" height="100" viewBox="0 0 100 100">
  <g id="Group_725" data-name="Group 725" transform="translate(-1118 -1170)">
    <rect id="Rectangle_754" data-name="Rectangle 754" width="100" height="100" rx="10" transform="translate(1118 1170)" fill="#e5eeff"/>
    <g id="noun_done_3036904" transform="translate(1147 1197.5)">
      <path id="Path_7655" data-name="Path 7655" d="M33.574,2.5H7.426A4.917,4.917,0,0,0,2.5,7.426V33.574A4.917,4.917,0,0,0,7.426,38.5H33.574A4.917,4.917,0,0,0,38.5,33.574V7.426A4.917,4.917,0,0,0,33.574,2.5ZM14.285,13.073a1.441,1.441,0,0,1,2.046,0l2.463,2.463,5.874-5.912a1.447,1.447,0,0,1,2.046,2.046l-6.9,6.935a1.464,1.464,0,0,1-2.046,0l-3.486-3.486A1.441,1.441,0,0,1,14.285,13.073Zm12.543,18.8H14.172a1.44,1.44,0,0,1,0-2.88H26.828a1.44,1.44,0,1,1,0,2.88Zm2.387-6.139H11.784a1.44,1.44,0,1,1,0-2.88H29.216a1.44,1.44,0,1,1,0,2.88Z" fill="#0a8cff"/>
    </g>
  </g>
</svg>
