<svg xmlns="http://www.w3.org/2000/svg" width="32" height="31.509" viewBox="0 0 32 31.509">
  <g id="noun_loan_836678" transform="translate(-1 -1.74)">
    <path id="Path_7650" data-name="Path 7650" d="M9.161,33.249,1,26.573l4.678-4.609A9.013,9.013,0,0,1,15.37,20h5.759a2.161,2.161,0,0,1,0,4.322H16.669a.715.715,0,0,0,0,1.43h5.053a2.546,2.546,0,0,0,1.9-.855l5.449-6.213a2.243,2.243,0,1,1,3.366,2.964l-6.8,7.919A5.337,5.337,0,0,1,21.615,31.4H11ZM19.216,6.343a3.108,3.108,0,1,1-.013,0Zm8.324-4.6a2.337,2.337,0,0,1,2.324,2.337V14.795a2.337,2.337,0,0,1-2.337,2.337H10.878a2.337,2.337,0,0,1-2.337-2.337V4.077A2.337,2.337,0,0,1,10.878,1.74Zm-.326,5.905a4.286,4.286,0,0,1-3.229-3.229H14.446a4.29,4.29,0,0,1-2.834,3.118.571.571,0,0,0-.395.542v2.716a.571.571,0,0,0,.4.542,4.29,4.29,0,0,1,2.834,3.118h9.509a4.286,4.286,0,0,1,3.229-3.229Z" transform="translate(0 0)"/>
  </g>
</svg>
