<svg xmlns="http://www.w3.org/2000/svg" width="32" height="26.038" viewBox="0 0 32 26.038">
  <g id="noun_id_1946984" transform="translate(-2.5 -11.3)">
    <g id="Group_693" data-name="Group 693" transform="translate(2.5 11.3)">
      <path id="Path_7657" data-name="Path 7657" d="M46.247,13.725A2.415,2.415,0,0,0,43.822,11.3h-2.9A2.415,2.415,0,0,0,38.5,13.725V15.14h7.747Z" transform="translate(-26.374 -11.3)"/>
      <path id="Path_7658" data-name="Path 7658" d="M31.233,27.6H5.767A3.292,3.292,0,0,0,2.5,30.867V44.88a3.292,3.292,0,0,0,3.267,3.267H31.233A3.292,3.292,0,0,0,34.5,44.88V30.867A3.27,3.27,0,0,0,31.233,27.6ZM11.763,31.878a2.9,2.9,0,1,1-2.9,2.9A2.9,2.9,0,0,1,11.763,31.878ZM7.249,42.556a6.62,6.62,0,0,1,1.886-4.817,4.04,4.04,0,0,0,2.627,1.011,3.872,3.872,0,0,0,2.627-1.011,6.62,6.62,0,0,1,1.886,4.817C16.243,44.307,7.249,44.307,7.249,42.556Zm21.928,1.078H20.353a.808.808,0,1,1,0-1.617h8.825a.82.82,0,0,1,.808.808A.8.8,0,0,1,29.178,43.634Zm0-4.952H20.353a.808.808,0,0,1,0-1.617h8.825a.82.82,0,0,1,.808.808A.8.8,0,0,1,29.178,38.682Zm0-4.918H20.353a.808.808,0,1,1,0-1.617h8.825a.82.82,0,0,1,.808.808A.8.8,0,0,1,29.178,33.764Z" transform="translate(-2.5 -22.109)"/>
    </g>
  </g>
</svg>
