<svg xmlns="http://www.w3.org/2000/svg" width="100" height="100" viewBox="0 0 100 100">
  <g id="Group_726" data-name="Group 726" transform="translate(-1532 -1170)">
    <rect id="Rectangle_755" data-name="Rectangle 755" width="100" height="100" rx="10" transform="translate(1532 1170)" fill="#e5eeff"/>
    <g id="noun_loan_836678" transform="translate(1562.5 1201.26)">
      <path id="Path_7650" data-name="Path 7650" d="M10.181,37.187,1,29.677l5.263-5.186a10.14,10.14,0,0,1,10.9-2.2h6.478a2.431,2.431,0,1,1,0,4.862H18.628a.8.8,0,0,0,0,1.609h5.685a2.864,2.864,0,0,0,2.141-.962l6.13-6.989a2.523,2.523,0,1,1,3.787,3.335l-7.654,8.909a6,6,0,0,1-4.525,2.057H12.245ZM21.493,6.918a3.5,3.5,0,1,1-.015,0ZM30.858,1.74a2.63,2.63,0,0,1,2.615,2.63V16.426a2.63,2.63,0,0,1-2.63,2.63H12.113a2.63,2.63,0,0,1-2.63-2.63V4.37a2.63,2.63,0,0,1,2.63-2.63ZM30.49,8.384a4.822,4.822,0,0,1-3.632-3.632H16.127a4.826,4.826,0,0,1-3.188,3.507.643.643,0,0,0-.444.61v3.056a.643.643,0,0,0,.444.61,4.826,4.826,0,0,1,3.188,3.507h10.7a4.822,4.822,0,0,1,3.632-3.632Z" transform="translate(0 0)" fill="#0a8cff"/>
    </g>
  </g>
</svg>
