<svg xmlns="http://www.w3.org/2000/svg" width="32" height="28.592" viewBox="0 0 32 28.592">
  <g id="noun_edit_2832809" transform="translate(-2 -4.13)">
    <path id="Path_7656" data-name="Path 7656" d="M32.4,29.522H3.6a1.6,1.6,0,0,0,0,3.2H32.4a1.6,1.6,0,0,0,0-3.2Zm-25.6-3.2h4.526a1.6,1.6,0,0,0,1.131-.469L26.033,12.277a4.8,4.8,0,0,0,0-6.787,4.917,4.917,0,0,0-6.788,0L16.983,7.752,5.669,19.066A1.6,1.6,0,0,0,5.2,20.2v4.525a1.6,1.6,0,0,0,1.6,1.6ZM21.509,7.752a1.634,1.634,0,0,1,2.262,0,1.59,1.59,0,0,1,.349.527,1.59,1.59,0,0,1,.057.288,1.567,1.567,0,0,1,0,.636,1.6,1.6,0,0,1-.056.285,1.59,1.59,0,0,1-.349.527l-1.131,1.131L20.377,8.883ZM8.4,20.86l9.714-9.714,2.262,2.262-9.713,9.714H8.4Z" transform="translate(0 0)"/>
  </g>
</svg>
