<svg xmlns="http://www.w3.org/2000/svg" width="90" height="65.291" viewBox="0 0 90 65.291">
  <g id="noun_secure_cyber_2499236" data-name="noun_secure cyber_2499236" transform="translate(-2 -11.06)">
    <g id="Group_703" data-name="Group 703" transform="translate(2 11.06)">
      <path id="Path_7666" data-name="Path 7666" d="M41.134,27.147,33.882,34.4l-1.453-1.453A1.363,1.363,0,1,0,30.5,34.874l2.417,2.418a1.363,1.363,0,0,0,1.928,0l8.216-8.216a1.363,1.363,0,1,0-1.928-1.928Z" transform="translate(8.219 -5.356)"/>
      <path id="Path_7667" data-name="Path 7667" d="M84.763,12.424A1.359,1.359,0,0,0,83.4,11.06H7.554A1.359,1.359,0,0,0,6.19,12.424V63.4H84.763V12.424ZM74.392,41.462a3.543,3.543,0,0,1-3.264-2.175H59.35v.77A8.734,8.734,0,0,1,57.7,44.885H67.761a1.364,1.364,0,0,1,1.364,1.364v4.8a3.539,3.539,0,1,1-2.727,0V47.613h-11a37.07,37.07,0,0,1-9.363,6.2,1.362,1.362,0,0,1-1.115,0,37.07,37.07,0,0,1-9.363-6.2h-11v3.437a3.539,3.539,0,1,1-2.727,0v-4.8a1.364,1.364,0,0,1,1.364-1.364H33.255A8.734,8.734,0,0,1,31.6,40.057v-.77H19.825a3.539,3.539,0,1,1,0-2.727H31.6V32.226h-8.41a1.364,1.364,0,0,1-1.364-1.364V26.646a3.539,3.539,0,1,1,2.727,0V29.5H31.6V26.282a1.363,1.363,0,0,1,1.579-1.346c3.633.582,7.319-.317,11.6-2.832a1.359,1.359,0,0,1,1.38,0c4.281,2.515,7.969,3.413,11.6,2.832a1.35,1.35,0,0,1,1.1.308,1.366,1.366,0,0,1,.479,1.038V29.5H66.4V26.646a3.539,3.539,0,1,1,2.727,0v4.216a1.364,1.364,0,0,1-1.364,1.364H59.35V36.56H71.128a3.538,3.538,0,1,1,3.264,4.9Z" transform="translate(-0.476 -11.06)" fill="#0a8cff"/>
      <path id="Path_7668" data-name="Path 7668" d="M90.636,51.44H3.364A1.368,1.368,0,0,0,2,52.8a8.881,8.881,0,0,0,8.864,8.864H83.136A8.881,8.881,0,0,0,92,52.8,1.368,1.368,0,0,0,90.636,51.44Z" transform="translate(-2 3.624)"/>
    </g>
  </g>
</svg>
